<?xml version="1.0" encoding="utf-8"?>
<!-- Generator: Adobe Illustrator 27.5.0, SVG Export Plug-In . SVG Version: 6.00 Build 0)  -->
<svg version="1.1" id="Слой_1" xmlns="http://www.w3.org/2000/svg" xmlns:xlink="http://www.w3.org/1999/xlink" x="0px" y="0px"
	 viewBox="0 0 491.5 65.8" style="enable-background:new 0 0 491.5 65.8;" xml:space="preserve">
<style type="text/css">
	.Тень{fill:none;}
	.Внешнее_x0020_свечение_x0020_5_x0020_pt_x002E_{fill:none;}
	.Синий_x0020_неон{fill:none;stroke:#8AACDA;stroke-width:7;stroke-linecap:round;stroke-linejoin:round;}
	.Выделение_x0020_желтым{fill:url(#SVGID_1_);stroke:#FFFFFF;stroke-width:0.3629;stroke-miterlimit:1;}
	.Джайв_GS{fill:#FFDD00;}
	.Алиса_GS{fill:#A6D0E4;}
	.st0{fill:#0080CD;}
	.st1{fill:#FFFFFF;}
</style>
<linearGradient id="SVGID_1_" gradientUnits="userSpaceOnUse" x1="95.2973" y1="-117.3012" x2="95.2973" y2="-118.3012">
	<stop  offset="0" style="stop-color:#656565"/>
	<stop  offset="0.618" style="stop-color:#1B1B1B"/>
	<stop  offset="0.6292" style="stop-color:#545454"/>
	<stop  offset="0.9831" style="stop-color:#3E3E3E"/>
</linearGradient>
<g>
	<g>
		<path class="st0" d="M142.9,54.6h-11.6c-1.7,0-2.9-0.4-3.6-1.1c-0.7-0.7-1.1-1.9-1.1-3.6V21.4c0-1.7,0.4-2.9,1.1-3.6
			c0.7-0.7,1.9-1.1,3.6-1.1h12.3c1.8,0,3.4,0.1,4.7,0.3c1.3,0.2,2.5,0.7,3.6,1.3c0.9,0.5,1.7,1.2,2.4,2c0.7,0.8,1.2,1.7,1.6,2.7
			c0.4,1,0.5,2,0.5,3.1c0,3.8-1.9,6.6-5.7,8.3c5,1.6,7.5,4.7,7.5,9.3c0,2.1-0.5,4-1.6,5.7c-1.1,1.7-2.6,3-4.4,3.8
			c-1.2,0.5-2.5,0.8-4,1C146.6,54.5,144.9,54.6,142.9,54.6z M134.3,22.4v9.8h7c1.9,0,3.4-0.2,4.4-0.5c1-0.4,1.8-1.1,2.4-2.1
			c0.4-0.7,0.6-1.5,0.6-2.4c0-1.9-0.7-3.2-2-3.8c-1.4-0.6-3.4-0.9-6.2-0.9H134.3z M142.3,37.7h-8v11.1h8.2c5.2,0,7.8-1.9,7.8-5.6
			c0-1.9-0.7-3.3-2-4.2C147,38.2,145,37.7,142.3,37.7z"/>
		<path class="st0" d="M168.7,45v5.9c0,1.4-0.3,2.5-1,3.2c-0.7,0.7-1.5,1.1-2.6,1.1c-1,0-1.9-0.4-2.5-1.1c-0.7-0.7-1-1.8-1-3.2V31.3
			c0-3.2,1.1-4.8,3.4-4.8c1.2,0,2,0.4,2.5,1.1c0.5,0.7,0.8,1.8,0.9,3.3c0.8-1.4,1.7-2.5,2.6-3.3c0.9-0.7,2.1-1.1,3.6-1.1
			c1.5,0,2.9,0.4,4.3,1.1c1.4,0.7,2.1,1.7,2.1,2.9c0,0.9-0.3,1.6-0.9,2.1c-0.6,0.6-1.2,0.8-1.9,0.8c-0.3,0-0.9-0.2-1.9-0.5
			c-1-0.3-1.9-0.5-2.6-0.5c-1,0-1.9,0.3-2.5,0.8c-0.7,0.5-1.2,1.3-1.5,2.4c-0.4,1.1-0.6,2.3-0.7,3.8S168.7,42.9,168.7,45z"/>
		<path class="st0" d="M198.8,51.2c-1.7,1.3-3.4,2.3-4.9,3c-1.6,0.7-3.4,1-5.4,1c-1.8,0-3.4-0.4-4.8-1.1c-1.4-0.7-2.4-1.7-3.2-2.9
			c-0.7-1.2-1.1-2.5-1.1-4c0-1.9,0.6-3.6,1.8-4.9c1.2-1.4,2.9-2.3,5-2.7c0.4-0.1,1.6-0.3,3.3-0.7c1.8-0.4,3.3-0.7,4.6-1
			c1.3-0.3,2.6-0.7,4.1-1.1c-0.1-1.9-0.5-3.2-1.1-4.1c-0.7-0.9-2-1.3-4.1-1.3c-1.8,0-3.1,0.3-4,0.7c-0.9,0.5-1.7,1.2-2.3,2.2
			c-0.6,1-1.1,1.7-1.4,2c-0.3,0.3-0.8,0.5-1.7,0.5c-0.8,0-1.5-0.3-2.1-0.8c-0.6-0.5-0.9-1.2-0.9-2c0-1.2,0.4-2.4,1.3-3.6
			c0.9-1.2,2.2-2.1,4.1-2.9c1.9-0.8,4.2-1.1,7-1.1c3.1,0,5.5,0.4,7.3,1.1c1.8,0.7,3,1.9,3.8,3.5c0.7,1.6,1.1,3.7,1.1,6.3
			c0,1.7,0,3.1,0,4.2c0,1.2,0,2.4,0,3.9c0,1.3,0.2,2.7,0.7,4.1c0.4,1.4,0.7,2.4,0.7,2.8c0,0.7-0.3,1.4-1,2c-0.7,0.6-1.5,0.9-2.3,0.9
			c-0.7,0-1.4-0.3-2.1-1C200.3,53.5,199.6,52.5,198.8,51.2z M198.3,41c-1,0.4-2.5,0.8-4.5,1.2c-2,0.4-3.3,0.7-4.1,0.9
			c-0.8,0.2-1.5,0.6-2.2,1.2c-0.7,0.6-1,1.4-1,2.4c0,1.1,0.4,2,1.2,2.7s1.9,1.1,3.2,1.1c1.4,0,2.7-0.3,3.9-0.9
			c1.2-0.6,2-1.4,2.6-2.4c0.6-1.1,1-2.8,1-5.3V41z"/>
		<path class="st0" d="M216.2,30.4v0.9c1.2-1.6,2.6-2.8,4.1-3.6c1.5-0.8,3.2-1.2,5.1-1.2c1.9,0,3.5,0.4,5,1.2c1.5,0.8,2.6,2,3.3,3.4
			c0.5,0.9,0.8,1.8,0.9,2.8c0.1,1,0.2,2.3,0.2,3.8v13.1c0,1.4-0.3,2.5-1,3.2c-0.6,0.7-1.5,1.1-2.5,1.1c-1.1,0-1.9-0.4-2.6-1.1
			c-0.7-0.7-1-1.8-1-3.2V39.2c0-2.3-0.3-4.1-1-5.3c-0.6-1.2-1.9-1.8-3.9-1.8c-1.3,0-2.4,0.4-3.4,1.1s-1.8,1.8-2.3,3.1
			c-0.3,1.1-0.5,3-0.5,5.9v8.8c0,1.4-0.3,2.5-1,3.2c-0.7,0.7-1.5,1.1-2.6,1.1c-1,0-1.9-0.4-2.5-1.1c-0.7-0.7-1-1.8-1-3.2V30.5
			c0-1.3,0.3-2.3,0.9-3c0.6-0.7,1.4-1,2.4-1c0.6,0,1.2,0.1,1.7,0.4c0.5,0.3,0.9,0.7,1.2,1.3C216.1,28.9,216.2,29.6,216.2,30.4z"/>
		<path class="st0" d="M258.5,51.2v-0.7c-0.9,1.1-1.9,2-2.8,2.6c-0.9,0.7-1.9,1.2-3,1.6c-1.1,0.4-2.3,0.5-3.5,0.5
			c-1.7,0-3.3-0.4-4.7-1.1c-1.4-0.7-2.7-1.7-3.7-3.1c-1.1-1.3-1.8-2.9-2.4-4.7c-0.5-1.8-0.8-3.7-0.8-5.8c0-4.4,1.1-7.8,3.2-10.3
			c2.2-2.5,5-3.7,8.5-3.7c2,0,3.7,0.3,5.1,1s2.8,1.8,4.1,3.2V20.4c0-1.4,0.3-2.5,0.9-3.3c0.6-0.7,1.4-1.1,2.5-1.1s1.9,0.3,2.5,1
			c0.6,0.7,0.9,1.7,0.9,3v31.1c0,1.3-0.3,2.4-0.9,3s-1.4,1-2.4,1c-1,0-1.8-0.3-2.4-1C258.9,53.5,258.5,52.5,258.5,51.2z M244.7,40.8
			c0,1.9,0.3,3.5,0.9,4.9c0.6,1.3,1.4,2.4,2.4,3c1,0.7,2.2,1,3.4,1c1.2,0,2.4-0.3,3.4-1c1-0.6,1.8-1.6,2.5-3c0.6-1.3,0.9-3,0.9-5
			c0-1.9-0.3-3.5-0.9-4.8c-0.6-1.4-1.4-2.4-2.5-3.1c-1-0.7-2.2-1.1-3.4-1.1c-1.3,0-2.4,0.4-3.5,1.1c-1,0.7-1.8,1.8-2.4,3.2
			C244.9,37.4,244.7,39,244.7,40.8z"/>
		<path class="st0" d="M296.1,40.9c0,2.1-0.3,4-1,5.8c-0.7,1.8-1.6,3.3-2.8,4.6c-1.2,1.3-2.7,2.3-4.4,2.9c-1.7,0.7-3.7,1-5.8,1
			c-2.1,0-4.1-0.3-5.8-1c-1.7-0.7-3.2-1.7-4.4-3c-1.3-1.3-2.2-2.8-2.8-4.5c-0.6-1.7-1-3.7-1-5.8c0-2.1,0.3-4.1,1-5.9
			c0.7-1.8,1.6-3.3,2.8-4.5c1.2-1.3,2.7-2.2,4.4-2.9c1.7-0.7,3.7-1,5.8-1c2.1,0,4.1,0.3,5.8,1c1.7,0.7,3.2,1.7,4.5,2.9
			c1.2,1.3,2.2,2.8,2.8,4.5C295.8,36.8,296.1,38.7,296.1,40.9z M289,40.9c0-2.9-0.6-5.1-1.9-6.7c-1.3-1.6-3-2.4-5.1-2.4
			c-1.4,0-2.6,0.4-3.6,1.1c-1.1,0.7-1.9,1.8-2.4,3.2c-0.6,1.4-0.9,3-0.9,4.9c0,1.8,0.3,3.5,0.8,4.8c0.6,1.4,1.4,2.4,2.4,3.2
			c1,0.7,2.3,1.1,3.7,1.1c2.1,0,3.8-0.8,5.1-2.4C288.4,45.9,289,43.7,289,40.9z"/>
		<path class="st0" d="M305.5,30.4v0.9c1.2-1.6,2.6-2.8,4.1-3.6c1.5-0.8,3.2-1.2,5.1-1.2c1.9,0,3.5,0.4,5,1.2c1.5,0.8,2.6,2,3.3,3.4
			c0.5,0.9,0.8,1.8,0.9,2.8c0.1,1,0.2,2.3,0.2,3.8v13.1c0,1.4-0.3,2.5-1,3.2c-0.6,0.7-1.5,1.1-2.5,1.1c-1.1,0-1.9-0.4-2.6-1.1
			c-0.7-0.7-1-1.8-1-3.2V39.2c0-2.3-0.3-4.1-1-5.3c-0.6-1.2-1.9-1.8-3.9-1.8c-1.3,0-2.4,0.4-3.4,1.1s-1.8,1.8-2.3,3.1
			c-0.3,1.1-0.5,3-0.5,5.9v8.8c0,1.4-0.3,2.5-1,3.2c-0.7,0.7-1.5,1.1-2.6,1.1c-1,0-1.9-0.4-2.5-1.1c-0.7-0.7-1-1.8-1-3.2V30.5
			c0-1.3,0.3-2.3,0.9-3c0.6-0.7,1.4-1,2.4-1c0.6,0,1.2,0.1,1.7,0.4c0.5,0.3,0.9,0.7,1.2,1.3C305.3,28.9,305.5,29.6,305.5,30.4z"/>
		<path class="st1" d="M347.3,20.7v10.9h16.6V20.7c0-1.6,0.3-2.7,1-3.5c0.7-0.8,1.6-1.2,2.8-1.2c1.2,0,2.1,0.4,2.8,1.2
			c0.7,0.8,1.1,1.9,1.1,3.5v29.9c0,1.6-0.4,2.7-1.1,3.5c-0.7,0.8-1.7,1.2-2.8,1.2c-1.2,0-2.1-0.4-2.8-1.2c-0.7-0.8-1-2-1-3.5V37.8
			h-16.6v12.7c0,1.6-0.4,2.7-1.1,3.5c-0.7,0.8-1.7,1.2-2.8,1.2c-1.2,0-2.1-0.4-2.8-1.2c-0.7-0.8-1-2-1-3.5V20.7c0-1.6,0.3-2.7,1-3.5
			c0.7-0.8,1.6-1.2,2.8-1.2c1.2,0,2.1,0.4,2.8,1.2C347,17.9,347.3,19.1,347.3,20.7z"/>
		<path class="st1" d="M403.1,40.9c0,2.1-0.3,4-1,5.8c-0.7,1.8-1.6,3.3-2.8,4.6c-1.2,1.3-2.7,2.3-4.4,2.9c-1.7,0.7-3.7,1-5.8,1
			c-2.1,0-4.1-0.3-5.8-1s-3.2-1.7-4.4-3c-1.3-1.3-2.2-2.8-2.8-4.5c-0.6-1.7-1-3.7-1-5.8c0-2.1,0.3-4.1,1-5.9
			c0.7-1.8,1.6-3.3,2.8-4.5c1.2-1.3,2.7-2.2,4.4-2.9c1.7-0.7,3.7-1,5.8-1c2.1,0,4.1,0.3,5.8,1c1.7,0.7,3.2,1.7,4.5,2.9
			c1.2,1.3,2.2,2.8,2.8,4.5C402.8,36.8,403.1,38.7,403.1,40.9z M396.1,40.9c0-2.9-0.6-5.1-1.9-6.7c-1.3-1.6-3-2.4-5.1-2.4
			c-1.4,0-2.6,0.4-3.6,1.1c-1.1,0.7-1.9,1.8-2.4,3.2c-0.6,1.4-0.9,3-0.9,4.9c0,1.8,0.3,3.5,0.8,4.8c0.6,1.4,1.4,2.4,2.4,3.2
			c1,0.7,2.3,1.1,3.7,1.1c2.1,0,3.8-0.8,5.1-2.4C395.4,45.9,396.1,43.7,396.1,40.9z"/>
		<path class="st1" d="M412.5,30.4v0.9c1.2-1.6,2.6-2.8,4.1-3.6c1.5-0.8,3.2-1.2,5.1-1.2c1.9,0,3.5,0.4,5,1.2c1.5,0.8,2.6,2,3.3,3.4
			c0.5,0.9,0.8,1.8,0.9,2.8c0.1,1,0.2,2.3,0.2,3.8v13.1c0,1.4-0.3,2.5-1,3.2c-0.6,0.7-1.5,1.1-2.5,1.1c-1.1,0-1.9-0.4-2.6-1.1
			c-0.7-0.7-1-1.8-1-3.2V39.2c0-2.3-0.3-4.1-1-5.3c-0.6-1.2-1.9-1.8-3.9-1.8c-1.3,0-2.4,0.4-3.4,1.1s-1.8,1.8-2.3,3.1
			c-0.3,1.1-0.5,3-0.5,5.9v8.8c0,1.4-0.3,2.5-1,3.2c-0.7,0.7-1.5,1.1-2.6,1.1c-1,0-1.9-0.4-2.5-1.1c-0.7-0.7-1-1.8-1-3.2V30.5
			c0-1.3,0.3-2.3,0.9-3c0.6-0.7,1.4-1,2.4-1c0.6,0,1.2,0.1,1.7,0.4c0.5,0.3,0.9,0.7,1.2,1.3C412.4,28.9,412.5,29.6,412.5,30.4z"/>
		<path class="st1" d="M454.8,51.2v-0.7c-0.9,1.1-1.9,2-2.8,2.6c-0.9,0.7-1.9,1.2-3,1.6c-1.1,0.4-2.3,0.5-3.5,0.5
			c-1.7,0-3.3-0.4-4.7-1.1c-1.4-0.7-2.7-1.7-3.7-3.1c-1.1-1.3-1.8-2.9-2.4-4.7c-0.5-1.8-0.8-3.7-0.8-5.8c0-4.4,1.1-7.8,3.2-10.3
			c2.2-2.5,5-3.7,8.5-3.7c2,0,3.7,0.3,5.1,1s2.8,1.8,4.1,3.2V20.4c0-1.4,0.3-2.5,0.9-3.3c0.6-0.7,1.4-1.1,2.5-1.1
			c1.1,0,1.9,0.3,2.5,1c0.6,0.7,0.9,1.7,0.9,3v31.1c0,1.3-0.3,2.4-0.9,3s-1.4,1-2.4,1c-1,0-1.8-0.3-2.4-1
			C455.1,53.5,454.8,52.5,454.8,51.2z M440.9,40.8c0,1.9,0.3,3.5,0.9,4.9c0.6,1.3,1.4,2.4,2.4,3c1,0.7,2.2,1,3.4,1
			c1.2,0,2.4-0.3,3.4-1c1-0.6,1.8-1.6,2.5-3c0.6-1.3,0.9-3,0.9-5c0-1.9-0.3-3.5-0.9-4.8c-0.6-1.4-1.4-2.4-2.5-3.1
			c-1-0.7-2.2-1.1-3.4-1.1c-1.3,0-2.4,0.4-3.5,1.1c-1,0.7-1.8,1.8-2.4,3.2C441.2,37.4,440.9,39,440.9,40.8z"/>
		<path class="st1" d="M483.8,51.2c-1.7,1.3-3.4,2.3-4.9,3c-1.6,0.7-3.4,1-5.4,1c-1.8,0-3.4-0.4-4.8-1.1c-1.4-0.7-2.4-1.7-3.2-2.9
			c-0.7-1.2-1.1-2.5-1.1-4c0-1.9,0.6-3.6,1.8-4.9c1.2-1.4,2.9-2.3,5-2.7c0.4-0.1,1.6-0.3,3.3-0.7c1.8-0.4,3.3-0.7,4.6-1
			c1.3-0.3,2.6-0.7,4.1-1.1c-0.1-1.9-0.5-3.2-1.1-4.1c-0.7-0.9-2-1.3-4.1-1.3c-1.8,0-3.1,0.3-4,0.7c-0.9,0.5-1.7,1.2-2.3,2.2
			c-0.6,1-1.1,1.7-1.4,2c-0.3,0.3-0.8,0.5-1.7,0.5c-0.8,0-1.5-0.3-2.1-0.8c-0.6-0.5-0.9-1.2-0.9-2c0-1.2,0.4-2.4,1.3-3.6
			c0.9-1.2,2.2-2.1,4.1-2.9c1.9-0.8,4.2-1.1,7-1.1c3.1,0,5.5,0.4,7.3,1.1c1.8,0.7,3,1.9,3.8,3.5c0.7,1.6,1.1,3.7,1.1,6.3
			c0,1.7,0,3.1,0,4.2c0,1.2,0,2.4,0,3.9c0,1.3,0.2,2.7,0.7,4.1c0.4,1.4,0.7,2.4,0.7,2.8c0,0.7-0.3,1.4-1,2c-0.7,0.6-1.5,0.9-2.3,0.9
			c-0.7,0-1.4-0.3-2.1-1C485.3,53.5,484.6,52.5,483.8,51.2z M483.3,41c-1,0.4-2.5,0.8-4.5,1.2c-2,0.4-3.3,0.7-4.1,0.9
			c-0.8,0.2-1.5,0.6-2.2,1.2c-0.7,0.6-1,1.4-1,2.4c0,1.1,0.4,2,1.2,2.7c0.8,0.7,1.9,1.1,3.2,1.1c1.4,0,2.7-0.3,3.9-0.9
			c1.2-0.6,2-1.4,2.6-2.4c0.6-1.1,1-2.8,1-5.3V41z"/>
	</g>
	<g>
		<g>
			<path class="st1" d="M12,55.2l1.6,0.2c0.7,0.1,0.8,0.7,0.8,1v1.9H7.1v-1.9c0-0.4,0.1-1,0.8-1l1.6-0.2v-1.6H0v1.6l1.6,0.2
				c0.7,0.1,0.8,0.7,0.8,1v6.1c0,0.4-0.1,1-0.8,1.1L0,63.8v1.6h9.4v-1.6l-1.6-0.2c-0.7-0.1-0.8-0.7-0.8-1.1v-1.9h7.3v1.9
				c0,0.4-0.1,1-0.8,1.1L12,63.8v1.6h9.4v-1.6l-1.6-0.2c-0.7-0.1-0.8-0.7-0.8-1.1v-6.1c0-0.4,0.1-1,0.8-1l1.6-0.2v-1.6H12V55.2z"/>
			<path class="st1" d="M75,53.6H63.3v1.6l1.4,0.1c0.5,0.1,0.8,0.3,0.8,1v6.2c0,0.4-0.1,1-0.8,1.1l-1.6,0.2v1.6l11.8,0
				c4.2,0,7.7-1.7,7.7-5.9C82.7,55.3,79.2,53.6,75,53.6z M74.1,63.2l-4,0v-7.3h4c2.3,0,3.1,1.1,3.1,3.6
				C77.3,62.1,76.5,63.2,74.1,63.2z"/>
			<path class="st1" d="M102.5,63.7c-0.7-0.1-1-0.6-1.2-0.9c-5.4-8.3-5.4-8.3-5.4-8.3c-0.4-0.6-0.7-0.8-1.3-0.8h-9v1.6l2.1,0.2
				c0.3,0,0.7,0.4,0.4,1l-4,6.5c-0.2,0.3-0.4,0.6-0.8,0.6l-1.6,0.2v1.6h7.5v-1.6L88,63.7c-0.6-0.1-0.9-0.4-0.6-0.9l0.6-1h7.2
				l0.5,0.8c0.5,0.7-0.1,1-0.6,1.1l-1.3,0.1v1.6H104v-1.6L102.5,63.7z M89.3,59.7l2.2-3.6l2.4,3.6H89.3z"/>
			<path class="st1" d="M54.9,55.2l1.6,0.2c0.7,0.1,0.8,0.7,0.8,1v5.9L51,54.1c-0.3-0.4-0.5-0.5-1.2-0.5c-0.4,0-8.1,0-8.1,0v1.6
				l1.6,0.2c0.7,0.1,0.8,0.7,0.8,1v6.1c0,0.4-0.1,1-0.8,1.1l-1.6,0.2v1.6h7.5v-1.6l-1.6-0.2c-0.7-0.1-0.8-0.7-0.8-1.1v-5.9l6.2,8.2
				c0.3,0.4,0.5,0.5,1.2,0.5c0,0,0.1,0,0.1,0c0.3,0,1.5,0,5.7,0v-9c0-0.4,0.1-1,0.8-1l1.6-0.2v-1.6h-7.5V55.2z"/>
			<path class="st1" d="M31.6,53.2c-7.7,0-9.7,3.4-9.7,6.3c0,2.9,2,6.3,9.7,6.3c7.7,0,9.7-3.4,9.7-6.3
				C41.2,56.6,39.2,53.2,31.6,53.2z M31.6,63.6c-3,0-4.2-1.2-4.2-4.1c0-2.8,1.2-4.1,4.2-4.1c3,0,4.2,1.2,4.2,4.1
				C35.8,62.3,34.5,63.6,31.6,63.6z"/>
		</g>
		<path class="st1" d="M65.1,3.9c-1.3,5.8-1.8,8.5-2.9,12.7c-1,4-1.8,7.8-3.2,9.6c-1.4,1.8-3.2,2.2-4.5,2.4
			c-0.6,0.1-1.1,0.1-2.5,0.1c-1.4,0-1.9,0-2.5-0.1c-1.3-0.1-3.1-0.5-4.5-2.4c-1.4-1.8-2.1-5.5-3.2-9.6c-1.1-4.2-1.6-6.9-2.9-12.7
			c0,0-1.3,0.1-1.9,0.1c-0.8,0.1-1.4,0.1-2,0.2c0,0,0.7,11.9,1.1,17c0.4,5.3,1,14.3,1.6,21c0,0,1.1,0.2,2.9,0.3
			c1.9,0.1,2.7,0.1,2.7,0.1c0.8-3,1.7-7.1,2.8-8.9c0.9-1.4,2.3-1.6,3-1.7c1.2-0.2,2.3-0.2,2.7-0.2l0,0c0,0,0,0,0,0c0,0,0,0,0,0l0,0
			c0.5,0,1.5,0,2.7,0.2c0.8,0.1,2.2,0.3,3,1.7c1.1,1.8,2.1,5.9,2.8,8.9c0,0,0.8,0,2.7-0.1c1.8-0.1,2.9-0.3,2.9-0.3
			c0.6-6.8,1.2-15.7,1.6-21c0.3-5,1.1-17,1.1-17C68.4,4.1,67.8,4,67,4C66.4,3.9,65.1,3.9,65.1,3.9z"/>
		<path class="st1" d="M80.1,10.9C79.4,3.4,74.3,1.8,69.9,1c-2.2-0.4-6.2-0.7-8.8-0.8c-2.2-0.1-7.5-0.2-9-0.2c-1.6,0-6.8,0.1-9,0.2
			c-2.5,0.1-6.5,0.4-8.8,0.8c-4.4,0.7-9.5,2.3-10.3,9.9c-0.2,2.1-0.3,4.8-0.2,7.7c0.1,4.8,0.5,8,0.7,10.3c0.2,1.5,0.8,6.2,1.6,8.6
			c1.1,3.3,2.2,4.2,3.4,5.2c2.2,1.8,5.8,2.3,6.6,2.5c4.1,0.7,12.3,0.9,16,0.9c3.6,0,11.9-0.1,16-0.9c0.8-0.1,4.4-0.7,6.6-2.5
			c1.2-1,2.2-1.9,3.4-5.2c0.8-2.4,1.5-7,1.6-8.6c0.2-2.2,0.6-5.5,0.7-10.3C80.4,15.7,80.3,13,80.1,10.9z M77.3,23.6
			c-0.4,6-1,9.7-1.8,12.3c-0.7,2.3-1.5,3.8-2.7,4.9c-2,1.8-4.8,2.2-6.5,2.5c-3.6,0.5-9.6,0.7-14.3,0.7c-4.7,0-10.7-0.2-14.3-0.7
			c-1.6-0.2-4.5-0.6-6.5-2.5c-1.2-1.1-2.1-2.6-2.7-4.9c-0.8-2.6-1.3-6.2-1.8-12.3c-0.3-3.6-0.2-9.6,0.2-12.7c0.6-4.7,3-7.1,8-8
			c2.4-0.4,5.5-0.7,8.5-0.9c2.4-0.2,6.4-0.2,8.6-0.2c2.2,0,6.2,0.1,8.6,0.2c3,0.1,6.2,0.4,8.5,0.9c5,0.9,7.4,3.3,8,8
			C77.6,14.1,77.6,20,77.3,23.6z"/>
	</g>
</g>
</svg>
