<?xml version="1.0" encoding="utf-8"?>
<!-- Generator: Adobe Illustrator 27.7.0, SVG Export Plug-In . SVG Version: 6.00 Build 0)  -->
<svg version="1.1" id="Layer_1" xmlns="http://www.w3.org/2000/svg" xmlns:xlink="http://www.w3.org/1999/xlink" x="0px" y="0px"
	 viewBox="0 0 50 50" style="enable-background:new 0 0 50 50;" xml:space="preserve">
<style type="text/css">
	.st0{fill:#FFFFFF;}
</style>
<g>
	<path class="st0" d="M36.2,14.5c-0.7-0.7-1.9-0.7-2.6,0l-5.3,5.3c-1-0.6-2.1-0.9-3.3-0.9c-3.7,0-6.8,3-6.8,6.8s3,6.8,6.8,6.8
		s6.8-3,6.8-6.8c0-1.2-0.3-2.4-0.9-3.4l5.3-5.3C36.9,16.4,36.9,15.2,36.2,14.5z M25,29c-1.7,0-3.1-1.4-3.2-3.1
		c0-1.7,1.4-3.1,3.1-3.2c1.7,0,3.2,1.4,3.2,3.1l0,0C28.1,27.5,26.7,29,25,29z"/>
	<path class="st0" d="M47.3,24.7c0-12.3-10-22.4-22.3-22.4S2.7,12.3,2.7,24.6c0,6.3,2.6,12.3,7.2,16.5l0,0c0.7,0.7,1.9,0.7,2.6,0
		c0.7-0.7,0.7-1.9,0-2.6l0,0l0,0c-7.7-6.9-8.3-18.8-1.3-26.4S30,3.8,37.6,10.8s8.3,18.8,1.3,26.4c-0.4,0.5-0.9,0.9-1.3,1.3l0,0l0,0
		c-0.3,0.3-0.5,0.8-0.5,1.3c0,1,0.8,1.8,1.8,1.8c0.5,0,0.9-0.2,1.3-0.5l0,0C44.7,37,47.3,31,47.3,24.7z"/>
</g>
</svg>
