<?xml version="1.0" encoding="utf-8"?>
<!-- Generator: Adobe Illustrator 27.7.0, SVG Export Plug-In . SVG Version: 6.00 Build 0)  -->
<svg version="1.1" id="Слой_1" xmlns="http://www.w3.org/2000/svg" xmlns:xlink="http://www.w3.org/1999/xlink" x="0px" y="0px"
	 viewBox="0 0 50 50" style="enable-background:new 0 0 50 50;" xml:space="preserve">
<style type="text/css">
	.Тень{fill:none;}
	.Внешнее_x0020_свечение_x0020_5_x0020_pt_x002E_{fill:none;}
	.Синий_x0020_неон{fill:none;stroke:#8AACDA;stroke-width:7;stroke-linecap:round;stroke-linejoin:round;}
	.Выделение_x0020_желтым{fill:url(#SVGID_1_);stroke:#FFFFFF;stroke-width:0.3629;stroke-miterlimit:1;}
	.Джайв_GS{fill:#FFDD00;}
	.Алиса_GS{fill:#A6D0E4;}
	.st0{fill:#FFFFFF;}
</style>
<linearGradient id="SVGID_1_" gradientUnits="userSpaceOnUse" x1="0" y1="0" x2="6.123234e-17" y2="-1">
	<stop  offset="0" style="stop-color:#656565"/>
	<stop  offset="0.618" style="stop-color:#1B1B1B"/>
	<stop  offset="0.6292" style="stop-color:#545454"/>
	<stop  offset="0.9831" style="stop-color:#3E3E3E"/>
</linearGradient>
<path class="st0" d="M39.9,47c-0.2,0-0.4,0-0.6-0.1c-0.2-0.1-0.3-0.2-0.5-0.4L26.1,33.9c-0.2-0.2-0.3-0.3-0.4-0.5s-0.1-0.4-0.1-0.6
	c0-0.2,0-0.4,0.1-0.6c0.1-0.2,0.2-0.3,0.4-0.5l4.5-4.5c0.2-0.2,0.3-0.3,0.5-0.4c0.2-0.1,0.4-0.1,0.6-0.1s0.4,0,0.6,0.1
	c0.2,0.1,0.3,0.2,0.5,0.4l12.7,12.7c0.2,0.2,0.3,0.3,0.4,0.5c0.1,0.2,0.1,0.4,0.1,0.6c0,0.2,0,0.4-0.1,0.6c-0.1,0.2-0.2,0.3-0.4,0.5
	L41,46.5c-0.2,0.2-0.3,0.3-0.5,0.4C40.3,47,40.1,47,39.9,47z M39.9,43.2l2.3-2.3L31.7,30.5l-2.3,2.3L39.9,43.2z M10.1,47
	c-0.2,0-0.4,0-0.6-0.1c-0.2-0.1-0.4-0.2-0.6-0.4l-4.4-4.4c-0.2-0.2-0.3-0.4-0.4-0.5S4.1,41.2,4.1,41c0-0.2,0-0.4,0.1-0.6
	c0.1-0.2,0.2-0.3,0.4-0.5l11.8-11.8h4.5l2-2l-9.2-9.2h-3l-6.5-6.5l5.2-5.2l6.5,6.5v3l9.2,9.2l6.8-6.8l-3.5-3.5l2.9-2.9h-5.9
	l-0.9-0.9L31,3L32,3.9v5.9l2.9-2.9l8.9,8.9c0.5,0.5,0.9,1.1,1.2,1.8c0.3,0.7,0.4,1.4,0.4,2.2c0,0.7-0.1,1.4-0.3,2
	c-0.2,0.6-0.5,1.2-1,1.8l-4.5-4.5L36.8,22L34,19.3L23,30.3v4.4L11.2,46.5c-0.2,0.2-0.3,0.3-0.5,0.4C10.5,47,10.3,47,10.1,47z
	 M10.1,43.2l10.5-10.5v-2.3h-2.3L7.8,41L10.1,43.2z M10.1,43.2L7.8,41L9,42.1L10.1,43.2z M39.9,43.2l2.3-2.3L39.9,43.2z"/>
</svg>
