<?xml version="1.0" encoding="utf-8"?>
<!-- Generator: Adobe Illustrator 25.0.1, SVG Export Plug-In . SVG Version: 6.00 Build 0)  -->
<svg version="1.1" id="Слой_1" xmlns="http://www.w3.org/2000/svg" xmlns:xlink="http://www.w3.org/1999/xlink" x="0px" y="0px"
	 viewBox="0 0 40 40" style="enable-background:new 0 0 40 40;" xml:space="preserve">
<style type="text/css">
	.st0{fill:#FFFFFF;}
</style>
<g>
	<path class="st0" d="M22,39.9c-1.3,0-2.6-0.6-3.5-1.5l-17-17c-1-0.8-1.5-2.1-1.5-3.4V4.9c0-2.7,2.2-4.9,4.8-4.9c0,0,0,0,0,0h13.3
		c1.3,0,2.5,0.4,3.4,1.3l17,17c0.9,0.9,1.5,2.2,1.5,3.5c0,1.3-0.6,2.5-1.5,3.4L25.3,38.4C24.5,39.4,23.2,40,22,39.9z M4.8,2.2
		c-1.5,0-2.7,1.2-2.7,2.7c0,0,0,0,0,0v13.2c0,0.7,0.3,1.3,0.8,1.8L20,36.9c0.5,0.5,1.2,0.8,2,0.9c0.7,0,1.3-0.3,1.8-0.8L37,23.7
		c1.1-0.9,1.2-2.6,0.2-3.6C37.2,20,37.1,20,37,19.9l-17-17c-0.5-0.5-1.2-0.7-1.9-0.7H4.8z M7.7,11.6c-2.2,0-3.9-1.8-3.9-3.9
		s1.8-3.9,3.9-3.9c2.2,0,3.9,1.8,3.9,3.9C11.7,9.8,9.9,11.6,7.7,11.6C7.7,11.6,7.7,11.6,7.7,11.6z M7.7,5.8c-1,0-1.8,0.8-1.8,1.8
		s0.8,1.8,1.8,1.8s1.8-0.8,1.8-1.8C9.5,6.6,8.7,5.9,7.7,5.8L7.7,5.8z"/>
</g>
</svg>
