<svg xmlns="http://www.w3.org/2000/svg" width="61" height="61"><g data-name="Сгруппировать 2010" transform="translate(-1354 -5246)"><circle data-name="Эллипс 153" cx="30.5" cy="30.5" r="30.5" transform="translate(1354 5246)" fill="#67c15e"/><path d="M1384.634 5258a18.627 18.627 0 00-15.085 29.564l-2.322 6.925 7.164-2.289a18.636 18.636 0 1010.254-34.2h-.011zm-5.2 9.468c-.361-.866-.635-.9-1.183-.921a10.34 10.34 0 00-.625-.022 2.7 2.7 0 00-1.906.668 5.952 5.952 0 00-1.91 4.537c0 2.674 1.95 5.26 2.213 5.622s3.8 5.928 9.279 8.2c4.283 1.775 5.554 1.611 6.529 1.4 1.424-.307 3.21-1.359 3.659-2.63a4.627 4.627 0 00.318-2.586c-.131-.23-.493-.361-1.041-.636s-3.21-1.589-3.714-1.764a1.04 1.04 0 00-1.336.406 22.859 22.859 0 01-1.457 1.929 1.178 1.178 0 01-1.315.208 13.736 13.736 0 01-4.371-2.7 16.584 16.584 0 01-3.023-3.758c-.318-.548-.033-.866.219-1.162.274-.34.537-.581.811-.9a3.268 3.268 0 00.6-.855 1.112 1.112 0 00-.077-1.008c-.129-.27-1.225-2.944-1.674-4.028z" fill="#fff" fill-rule="evenodd"/></g></svg>