<svg xmlns="http://www.w3.org/2000/svg" xmlns:xlink="http://www.w3.org/1999/xlink" x="0px" y="0px"
	 viewBox="0 0 800 96.3" style="enable-background:new 0 0 800 96.3;" xml:space="preserve">
<style type="text/css">
	.st0{fill:var(--primary);}
</style>
<path class="st0" d="M447.1,57.4h-16.9c-3.2,0-5.9,2.6-5.9,5.9v0.3c0,3.2,2.6,5.9,5.9,5.9h16.9c3.2,0,5.9-2.6,5.9-5.9v-0.3
	C452.9,60,450.3,57.4,447.1,57.4z"/>
<g>
	<path d="M46.7,39.8c-1.7-1.8-3.8-3.4-6.2-4.7c-2.4-1.3-5.1-2.5-8-3.5l-4.6-1.5c-4.1-1.4-7.1-2.9-9-4.4C17,24.1,16,22.3,16,20.1
		c0-2.2,1-4,2.9-5.4c2-1.4,4.4-2.1,7.4-2.1c3.1,0,5.6,0.8,7.4,2.4c1.8,1.6,3,3.5,3.7,5.5l12.1-5.1c-0.5-1.6-1.4-3.4-2.5-5.2
		c-1.2-1.8-2.7-3.5-4.5-5c-1.9-1.5-4.1-2.8-6.8-3.8C33,0.5,29.9,0,26.2,0c-3.5,0-6.7,0.5-9.6,1.6c-2.9,1.1-5.3,2.5-7.4,4.4
		c-2.1,1.9-3.7,4-4.8,6.5c-1.1,2.5-1.7,5.1-1.7,8c0,2.8,0.5,5.3,1.6,7.5c1,2.2,2.4,4.1,4,5.7c1.6,1.6,3.4,3,5.4,4.2
		c2,1.1,4,2.1,5.9,2.7l4.5,1.6c2.6,1,4.9,1.9,6.7,2.7c1.8,0.9,3.2,1.8,4.4,2.7c1.1,0.9,1.9,2,2.4,3c0.5,1.1,0.7,2.3,0.7,3.7
		c0,1.4-0.3,2.7-0.9,3.8c-0.6,1.1-1.4,2-2.5,2.7c-1.1,0.7-2.2,1.3-3.6,1.6C30,62.8,28.6,63,27.2,63c-3.9,0-7-1.2-9.3-3.6
		c-2.4-2.4-4-5.4-5-9.1L0,55.3c1,3.4,2.4,6.3,4.2,8.9c1.8,2.5,3.8,4.7,6.2,6.4c2.4,1.8,5,3.1,7.8,4C21,75.5,24,76,27.1,76
		c2.8,0,5.8-0.4,8.7-1.3c3-0.9,5.7-2.2,8-4c2.4-1.8,4.3-4,5.8-6.8c1.5-2.7,2.3-6,2.3-9.8c0-3-0.5-5.7-1.4-8.1
		C49.7,43.7,48.4,41.6,46.7,39.8z"/>
	<path d="M90.1,23c-3.3,0-6.3,0.8-9,2.3c-2.7,1.5-4.7,3.5-6.1,5.8h-0.8l0.8-9V1.6H61.6v72.7h13.3V50.1c0-2,0.3-3.9,0.8-5.7
		c0.5-1.8,1.3-3.4,2.2-4.7c1-1.4,2.2-2.4,3.6-3.2c1.4-0.8,3-1.2,4.9-1.2c2.9,0,5.2,0.9,6.8,2.7c1.6,1.8,2.4,4.4,2.4,7.9v28.5H109
		V44.2c0-6.6-1.5-11.7-4.6-15.5C101.3,24.8,96.5,23,90.1,23z"/>
	<path d="M162.4,30.4c-2.3-2.3-5.1-4.2-8.3-5.5c-3.2-1.3-6.8-2-10.6-2c-3.9,0-7.4,0.7-10.6,2c-3.2,1.3-6,3.1-8.3,5.5
		c-2.3,2.3-4.2,5.1-5.5,8.4c-1.3,3.3-2,6.8-2,10.7c0,3.9,0.7,7.4,2,10.7c1.3,3.3,3.1,6,5.5,8.4c2.3,2.3,5.1,4.2,8.3,5.5
		c3.2,1.3,6.8,2,10.6,2c3.9,0,7.4-0.7,10.6-2c3.2-1.3,6-3.1,8.3-5.5c2.3-2.3,4.2-5.1,5.5-8.4c1.3-3.2,2-6.8,2-10.7
		c0-3.9-0.7-7.4-2-10.7C166.6,35.5,164.8,32.7,162.4,30.4z M155.5,55.4c-0.7,1.8-1.7,3.2-2.9,4.5c-1.2,1.2-2.6,2.2-4.2,2.8
		c-1.6,0.6-3.2,1-4.9,1c-1.8,0-3.4-0.3-5-1c-1.6-0.6-2.9-1.6-4.2-2.8c-1.2-1.2-2.2-2.7-2.9-4.5s-1.1-3.8-1.1-6c0-2.2,0.4-4.2,1.1-6
		c0.7-1.8,1.7-3.3,2.9-4.5c1.2-1.2,2.6-2.1,4.2-2.8c1.6-0.6,3.2-1,5-1c1.7,0,3.3,0.3,4.9,1c1.6,0.6,3,1.6,4.2,2.8
		c1.2,1.2,2.2,2.7,2.9,4.5s1.1,3.8,1.1,6C156.6,51.7,156.2,53.7,155.5,55.4z"/>
	<path d="M222.7,30.4c-2.2-2.3-4.7-4.2-7.6-5.5c-2.9-1.3-5.9-2-9.1-2c-3.8,0-7,0.7-9.5,2.2c-2.6,1.5-4.5,3.3-5.7,5.4H190v-6h-12.5
		v71.7h13.3V75.5l0-7.1c1.2,2.1,3.1,3.9,5.7,5.4c2.6,1.5,5.8,2.2,9.5,2.2c3.2,0,6.2-0.7,9.1-2c2.9-1.3,5.4-3.1,7.6-5.5
		c2.2-2.3,3.9-5.1,5.2-8.4c1.3-3.2,1.9-6.8,1.9-10.7c0-3.9-0.6-7.4-1.9-10.7C226.7,35.5,224.9,32.8,222.7,30.4z M215.5,55.3
		c-0.7,1.8-1.7,3.3-2.9,4.5c-1.2,1.2-2.6,2.2-4.2,2.8c-1.6,0.7-3.3,1-5,1s-3.4-0.3-5-1c-1.6-0.6-3-1.6-4.2-2.8
		c-1.2-1.2-2.2-2.7-2.9-4.5s-1.1-3.8-1.1-6c0-2.2,0.4-4.2,1.1-6c0.7-1.8,1.7-3.3,2.9-4.5c1.2-1.2,2.6-2.1,4.2-2.8c1.6-0.6,3.3-1,5-1
		s3.4,0.3,5,1s3,1.6,4.2,2.8s2.2,2.7,2.9,4.5c0.7,1.8,1.1,3.7,1.1,5.9C216.6,51.6,216.2,53.6,215.5,55.3z"/>
	<path d="M282.3,30.4c-2.2-2.3-4.7-4.2-7.6-5.5c-2.9-1.3-5.9-2-9.1-2c-3.8,0-7,0.7-9.5,2.2c-2.6,1.5-4.5,3.3-5.7,5.4h-0.8v-6H237
		v71.7h13.3V75.5v-7.1c1.2,2.1,3.1,3.9,5.7,5.4c2.6,1.5,5.8,2.2,9.5,2.2c3.2,0,6.2-0.7,9.1-2c2.9-1.3,5.4-3.1,7.6-5.5
		c2.2-2.3,3.9-5.1,5.2-8.4c1.3-3.2,1.9-6.8,1.9-10.7c0-3.9-0.6-7.4-1.9-10.7C286.2,35.5,284.5,32.8,282.3,30.4z M275,55.3
		c-0.7,1.8-1.7,3.3-2.9,4.5c-1.2,1.2-2.6,2.2-4.2,2.8c-1.6,0.7-3.3,1-5,1s-3.4-0.3-5-1c-1.6-0.6-3-1.6-4.2-2.8
		c-1.2-1.2-2.2-2.7-2.9-4.5c-0.7-1.8-1.1-3.8-1.1-6c0-2.2,0.4-4.2,1.1-6c0.7-1.8,1.7-3.3,2.9-4.5c1.2-1.2,2.6-2.1,4.2-2.8
		c1.6-0.6,3.3-1,5-1s3.4,0.3,5,1s3,1.6,4.2,2.8s2.2,2.7,2.9,4.5c0.7,1.8,1.1,3.7,1.1,5.9C276.1,51.6,275.7,53.6,275,55.3z"/>
	<path d="M339.5,30.4c-2.1-2.3-4.7-4.2-7.8-5.5c-3.1-1.3-6.7-2-10.7-2c-3.8,0-7.3,0.7-10.4,2.1c-3.1,1.4-5.9,3.3-8.2,5.7
		c-2.3,2.4-4.1,5.2-5.4,8.4c-1.3,3.2-1.9,6.6-1.9,10.2c0,3.9,0.7,7.4,2,10.6c1.3,3.2,3.2,6,5.5,8.4c2.4,2.4,5.2,4.2,8.4,5.5
		c3.2,1.3,6.7,2,10.5,2c5.6,0,10.4-1.3,14.3-3.8c3.9-2.5,7-5.8,9.3-9.9L334,56.9c-1.2,2.1-2.7,3.8-4.7,5.2c-2,1.4-4.5,2.1-7.6,2.1
		c-1.6,0-3.1-0.2-4.6-0.7c-1.5-0.4-2.9-1.2-4.1-2.1c-1.3-1-2.3-2.2-3.1-3.7c-0.8-1.5-1.4-3.2-1.7-5.2h37.5c0-0.4,0-0.8,0.1-1.1
		c0-0.3,0-0.7,0.1-1.1c0-0.3,0-0.7,0-1.2c0-3.7-0.5-7.2-1.6-10.4C343.2,35.5,341.6,32.8,339.5,30.4z M308.9,43.1
		c0.9-2.9,2.4-5.2,4.6-6.8c2.2-1.6,4.7-2.4,7.5-2.4c2,0,3.8,0.3,5.2,0.9c1.5,0.6,2.7,1.4,3.7,2.3c1,0.9,1.7,2,2.2,3
		c0.5,1.1,0.8,2.1,0.9,2.9H308.9z"/>
	<path d="M377.6,23.6c-1.5,0.5-2.8,1.1-4.1,1.8c-1.3,0.8-2.4,1.6-3.4,2.7c-1,1-1.8,2.1-2.4,3.4h-0.8v-6.9h-12.5v49.8h13.3V49.8
		c0-2,0.3-3.9,0.9-5.7c0.6-1.7,1.4-3.3,2.4-4.5c1-1.3,2.3-2.3,3.8-3c1.5-0.7,3.1-1.1,5-1.1c1.4,0,2.6,0.1,3.6,0.4
		c1,0.2,1.9,0.6,2.7,1V23.5h0c-1.2-0.3-2.5-0.5-4.2-0.5C380.5,23,379.1,23.2,377.6,23.6z"/>
	<polygon points="510.8,45 513.5,31.4 482.9,31.4 486.3,13.7 520.3,13.7 523,0 474.6,0 459.7,76.4 508.1,76.4 510.8,62.7 
		476.8,62.7 480.2,45 	"/>
	<polygon points="566.2,31.3 551.5,31.3 541.3,43.8 540.7,43.8 534.9,31.3 520.7,31.3 531.8,53.5 511.7,76.4 526,76.4 536.7,63.5 
		537.3,63.5 543.3,76.4 557.5,76.4 546.1,53.5 	"/>
	<path d="M611.8,36.6c-1.6-2.1-3.6-3.8-5.9-5c-2.4-1.2-5-1.8-7.9-1.8c-3.4,0-6.4,0.7-9,2c-2.6,1.4-4.6,3-6.1,4.9h-0.7l1.1-5.4h-11.3
		l-12.6,64.9h12l3.7-18.9l1.3-6.4c0.7,1.9,2.1,3.5,4.2,4.9c2.1,1.3,4.8,2,8.3,2c2.9,0,5.7-0.6,8.6-1.8c2.8-1.2,5.5-2.9,7.9-5
		c2.4-2.1,4.5-4.6,6.2-7.6c1.7-2.9,2.9-6.2,3.6-9.7c0.7-3.5,0.7-6.7,0.1-9.7C614.5,41.3,613.4,38.7,611.8,36.6z M602.9,53.9
		c-0.4,2-1.1,3.7-2.1,5.3c-1,1.6-2.1,2.9-3.5,4s-2.8,2-4.3,2.6s-3.1,0.9-4.7,0.9s-3.1-0.3-4.4-0.9c-1.3-0.6-2.4-1.4-3.3-2.5
		s-1.5-2.5-1.9-4c-0.4-1.6-0.3-3.4,0-5.4c0.4-2,1.1-3.8,2.1-5.4c1-1.6,2.1-2.9,3.5-4c1.3-1.1,2.8-1.9,4.3-2.5s3.1-0.9,4.7-0.9
		s3.1,0.3,4.4,0.9c1.3,0.6,2.4,1.5,3.3,2.6s1.5,2.5,1.9,4C603.2,50.1,603.2,51.9,602.9,53.9z"/>
	<path d="M651.8,29.9c-1.3,0-2.6,0.2-4,0.6c-1.4,0.4-2.7,1-4,1.7c-1.3,0.7-2.5,1.5-3.5,2.4c-1.1,0.9-2,1.9-2.8,3h-0.7l1.2-6.3h-11.3
		l-8.8,45.1h12.1l4.3-22.2c0.4-1.8,1-3.6,1.8-5.1c0.8-1.6,1.8-2.9,3-4.1s2.5-2.1,4-2.7c1.5-0.6,3-1,4.7-1c1.3,0,2.4,0.1,3.2,0.3
		c0.8,0.2,1.6,0.5,2.3,0.9l2.4-12.1C654.4,30,653.2,29.9,651.8,29.9z"/>
	<path d="M697.8,36.6c-1.5-2.1-3.5-3.8-6.1-5c-2.6-1.2-5.7-1.8-9.3-1.8c-3.4,0-6.7,0.6-9.8,1.9c-3.1,1.3-5.9,3-8.4,5.2
		c-2.5,2.2-4.6,4.7-6.4,7.6c-1.7,2.9-2.9,6-3.5,9.2c-0.7,3.5-0.7,6.7-0.1,9.6c0.6,2.9,1.8,5.4,3.5,7.6c1.7,2.1,3.9,3.8,6.6,5
		c2.7,1.2,5.7,1.8,9.2,1.8c5.1,0,9.6-1.1,13.6-3.4c4-2.3,7.3-5.2,10.2-8.9l-9.1-5c-1.4,1.9-3.1,3.5-5.2,4.7
		c-2.1,1.3-4.5,1.9-7.2,1.9c-1.4,0-2.8-0.2-4-0.6c-1.3-0.4-2.4-1-3.3-1.9c-1-0.9-1.7-2-2.2-3.3c-0.5-1.3-0.7-2.9-0.6-4.7h33.9
		c0.1-0.4,0.2-0.7,0.3-1c0.1-0.3,0.2-0.6,0.3-1c0.1-0.3,0.1-0.7,0.2-1.1c0.7-3.4,0.8-6.5,0.4-9.4S699.3,38.7,697.8,36.6z
		 M689.7,48.1L689.7,48.1l-21.8,0c1.3-2.6,3.1-4.7,5.3-6.2c2.3-1.5,4.7-2.2,7.2-2.2c1.8,0,3.4,0.3,4.6,0.8c1.2,0.6,2.2,1.3,2.9,2.1
		c0.7,0.9,1.2,1.8,1.5,2.8S689.8,47.3,689.7,48.1z"/>
	<path d="M723.5,40.7c1.4-0.7,3-1.1,4.7-1.1c1.7,0,3.2,0.4,4.7,1.2c1.5,0.8,2.5,2.1,3,3.9l11.2-4.2c-0.9-3.7-2.8-6.4-5.9-8.1
		c-3-1.7-6.7-2.5-11-2.5c-2.6,0-5,0.3-7.4,1c-2.4,0.6-4.5,1.6-6.4,2.8c-1.9,1.2-3.5,2.7-4.8,4.4c-1.3,1.7-2.1,3.7-2.6,5.9
		c-0.4,2-0.3,3.7,0.2,5.2c0.5,1.5,1.3,2.7,2.3,3.8c1,1,2.2,1.9,3.6,2.6c1.4,0.7,2.7,1.2,4.1,1.5l6.1,1.4c2.5,0.6,4.2,1.3,5.2,2.1
		c0.9,0.8,1.3,1.8,1,3c-0.2,1.1-1,2.1-2.5,2.8c-1.4,0.8-3.3,1.2-5.5,1.2c-2.1,0-4-0.6-5.5-1.7c-1.5-1.1-2.6-2.9-3.2-5.2L703.4,65
		c0.3,1.6,0.9,3.2,1.7,4.7c0.9,1.6,2,2.9,3.5,4.1c1.5,1.2,3.3,2.2,5.4,2.9c2.2,0.7,4.7,1.1,7.7,1.1c2.9,0,5.6-0.4,8.1-1.2
		c2.5-0.8,4.8-1.9,6.7-3.3c2-1.4,3.6-3,4.8-4.7s2.1-3.7,2.5-5.6c0.6-3.3,0.1-6.2-1.7-8.6c-1.8-2.4-4.8-4.2-9.2-5.3l-6.6-1.7
		c-1.7-0.5-3.1-1-4-1.7c-1-0.6-1.3-1.4-1.1-2.5C721.3,42.3,722.1,41.4,723.5,40.7z"/>
	<path d="M768,40.7c1.4-0.7,3-1.1,4.7-1.1c1.7,0,3.2,0.4,4.7,1.2c1.5,0.8,2.5,2.1,3,3.9l11.2-4.2c-0.9-3.7-2.8-6.4-5.9-8.1
		c-3-1.7-6.7-2.5-11-2.5c-2.6,0-5,0.3-7.4,1c-2.4,0.6-4.5,1.6-6.4,2.8c-1.9,1.2-3.5,2.7-4.8,4.4c-1.3,1.7-2.1,3.7-2.6,5.9
		c-0.4,2-0.3,3.7,0.2,5.2c0.5,1.5,1.3,2.7,2.3,3.8c1,1,2.2,1.9,3.6,2.6c1.4,0.7,2.7,1.2,4.1,1.5l6.1,1.4c2.5,0.6,4.2,1.3,5.2,2.1
		c0.9,0.8,1.3,1.8,1,3c-0.2,1.1-1,2.1-2.5,2.8c-1.4,0.8-3.3,1.2-5.5,1.2c-2.1,0-4-0.6-5.5-1.7c-1.5-1.1-2.6-2.9-3.2-5.2L747.8,65
		c0.3,1.6,0.9,3.2,1.7,4.7c0.9,1.6,2,2.9,3.5,4.1c1.5,1.2,3.3,2.2,5.4,2.9c2.2,0.7,4.7,1.1,7.7,1.1c2.9,0,5.6-0.4,8.1-1.2
		c2.5-0.8,4.8-1.9,6.7-3.3c2-1.4,3.6-3,4.8-4.7c1.3-1.8,2.1-3.7,2.5-5.6c0.6-3.3,0.1-6.2-1.7-8.6c-1.8-2.4-4.8-4.2-9.2-5.3l-6.6-1.7
		c-1.7-0.5-3.1-1-4-1.7c-1-0.6-1.3-1.4-1.1-2.5C765.7,42.3,766.6,41.4,768,40.7z"/>
	<path d="M456.9,18.9c3.2,0,5.9-2.6,5.9-5.9v-0.3c0-3.2-2.6-5.9-5.9-5.9h-36.2c-3.2,0-5.9,2.6-5.9,5.9v0.3c0,3.2,2.6,5.9,5.9,5.9
		H456.9z"/>
	<path d="M451.8,32.1h-26.5c-3.3,0-6,2.7-6,6c0,3.3,2.7,6,6,6h26.5c3.3,0,6-2.7,6-6C457.8,34.8,455.1,32.1,451.8,32.1z"/>
	<path d="M798.8,27.3c-0.8-0.8-1.8-1.2-2.9-1.2c-1.1,0-2.1,0.4-2.9,1.2c-0.8,0.8-1.2,1.7-1.2,2.9c0,1.1,0.4,2.1,1.2,2.9
		c0.8,0.8,1.8,1.2,2.9,1.2c1.1,0,2.1-0.4,2.9-1.2c0.8-0.8,1.2-1.8,1.2-2.9C800,29,799.6,28.1,798.8,27.3z M798.2,32.4
		c-0.6,0.6-1.4,0.9-2.3,0.9c-0.9,0-1.6-0.3-2.3-1c-0.6-0.6-1-1.4-1-2.3c0-0.9,0.3-1.6,0.9-2.3c0.6-0.6,1.4-1,2.3-1
		c0.9,0,1.7,0.3,2.3,0.9c0.6,0.6,0.9,1.4,0.9,2.3C799.1,31,798.8,31.8,798.2,32.4z"/>
	<path d="M796.7,30.6c0.3-0.1,0.5-0.2,0.6-0.4c0.2-0.2,0.2-0.5,0.2-0.7c0-0.4-0.1-0.7-0.4-0.9c-0.3-0.2-0.6-0.4-0.9-0.4h-1.7v4h0.8
		v-1.5h0.4l1,1.5v0h0.9v0L796.7,30.6L796.7,30.6z M796.2,29.9h-0.8v-1h0.7c0.4,0,0.7,0.2,0.7,0.5c0,0.1-0.1,0.3-0.2,0.4
		C796.5,29.8,796.3,29.9,796.2,29.9z"/>
</g>
</svg>
