<svg id="Layer_1" data-name="Layer 1" xmlns="http://www.w3.org/2000/svg" viewBox="0 0 841.9 841.9"><defs><style>.cls-1{fill:#837d7c;}.cls-1,.cls-10,.cls-2,.cls-3,.cls-4,.cls-5,.cls-6,.cls-7,.cls-8,.cls-9{fill-rule:evenodd;}.cls-2{fill:#a19a95;}.cls-4{fill:#666;}.cls-5{fill:#f0f0f0;}.cls-6{fill:#cbcbcb;}.cls-7{fill:#e5e5e5;}.cls-8{fill:#fff;}.cls-11,.cls-9{fill:#333;}.cls-10{fill:#4d4d4d;}</style></defs><path class="cls-1" d="M651,342.76c3,.64,6.12,5.94,7,11.84s-.87,10.17-3.86,9.53-6.11-5.95-7-11.85.86-10.16,3.85-9.52"/><path class="cls-2" d="M651.06,355.39c-1,2.58-5.86,1.75-7.81-2.11-1.37-2.72-1.14-5.49,2.31-4.75.49.1,5.1,1.26,6.23,1.56s7.92,2.51,7.92,2.51c4.3,4.83-.2,9.33-4.85,3.69-1.27-.29-2.53-.61-3.8-.9"/><path class="cls-1" d="M651.06,355.53c-1,2.58-5.86,1.75-7.81-2.11-.93-1.85,1.62-1.83,3.51-1.42,4.62,1,10.09,2.72,14.66,4.19.3,3-3.08,4.45-6.56.24-1.27-.29-2.53-.61-3.8-.9"/><path class="cls-3" d="M620.22,557.46a108.94,108.94,0,0,1-19.15,38.84l101.33-1.62c-4.35-7.46-7.79-21.52-9.51-39Zm-374.78,5.78a90.76,90.76,0,0,1-39.78,40c18.62-.74,31.43-1.08,31.52-1.09l184-2.95c-10.39-9.31-19-21.86-24.87-36.54ZM785.6,601.41C705,614.13,634,622.64,547.31,625.85c-129.26-.09-331.16-1.9-478.51-6.6-42-1.34-11.91-4.82,34.65-9.62,6.18-.64,12.83-1.24,19.74-1.79C94.51,596.92,72.94,573.36,66.6,544.7l-6.28-1.82c-6.15-.25-12.23,1.46-14.93-3.62a129.73,129.73,0,0,1-8.79-20.07c-1.9-5.8,5.63-6.44,7.07-10.77q1.48-5.81,2.95-11.61c9.48-17.13,19.9-33.73,31-49.85,4.22-6.12,11.15-10.83,18.74-11.08,71.15-2.34,142.33-4.51,213.54-3.38a48.63,48.63,0,0,1,24.59,7.3,902.77,902.77,0,0,1,91.57,66.48c3.22,2.65,6.5,3.27,10.58,3.28l69,.29a4.65,4.65,0,0,0,4-3.78c8.38-34.48,17.31-68.83,26-103.24,2.75-11,8.12-17.51,20.05-17.8,8.64-.21,16.54,0,24.88,2.51,10.3,3.12,15,10.32,17.68,20.27a234.2,234.2,0,0,1,7.44,46.54c12.83,18.4,18.71,38.69,20.16,60.74,33.64-1.4,67.28-2.92,100.92-4.31,1.19,0,1.7-.34,1.91-1.52l12.9-70.59c1.4-7.67,6.37-10.06,13.68-9.51l1.14.08,13,2.63.35.25v-.18l.27.06q1.49,4.17,3,8.34,2.19,18.24,4.37,36.48c.43,3.55-.52,11.23-1.29,14.7l.45,50.4c0,2.25-2.2,7.2-3.75,9.1-1.55,19.86-5.29,36-10.11,44,12.69.11,25.16.24,35.67.47C815.08,595.83,799.57,599.21,785.6,601.41Z"/><path class="cls-3" d="M361.23,251.09c14.9-16.06,19.31-17.31,37.41-20a2.62,2.62,0,0,1,2.1,1.06,10.42,10.42,0,0,1,1.81,3.66c.14.79-.54,1.32-1.67,1.54a58.4,58.4,0,0,0-7.35,2.14c-1.92,1.12-3.36,4.5-2.29,8.35-10.23,1.09-19.77,2.18-30,3.28"/><path class="cls-3" d="M583.86,216.05c-1.25-.09-2.09,2.69-.2,6.21a2.46,2.46,0,0,0,2.58,1.64c2.92,0,4.54-.1,7.46-.1s3.28,4.93,2.44,11.57l21.06,2.69c-5.3-11.79-11.16-20.78-18.58-22l-14.76,0"/><path class="cls-3" d="M633,239.7c-1.11-.08-1.89,2.07-.76,5,2.38.9,4.7,1.84,7,2.79,1.1,0,2.21,0,3.62,0s2.14,1.06,2.53,2.74c7,3.22,13.75,6.72,20.52,10.54-5.18-11.31-10.92-19.83-18.14-21L633,239.7"/><path class="cls-4" d="M547.39,446.5c32.26,0,58.42,34.35,58.42,76.71s-26.16,76.71-58.42,76.71c-24,0-44.63-19-53.62-46.19h.93a9.29,9.29,0,0,0,5.74-2.68c8.08,23.45,26.06,39.77,46.95,39.77,28.44,0,51.5-30.27,51.5-67.62s-23.06-67.62-51.5-67.62a40.61,40.61,0,0,0-17,3.76c1-3.84,1.9-7.39,2.71-10.54a45.51,45.51,0,0,1,14.26-2.31"/><path class="cls-5" d="M43.4,509c-.36-4.38-.93-9-.17-13.34q1.47-8.43,3-16.86c-.88-29.09-.93-59.57.22-86.52.24-5.58,1.41-7.37,5.78-11,5-4.14,9.15-7.38,14.17-11.51,3.18-7.56,6.19-15.05,10.33-22.3,3.2-5.59,5.76-5.91,11.33-9.1,16.86-8.83,31-17.07,48.71-18.8,35.09-3.43,70.54-2.93,106.29-4.65,28.2-21.37,54-41.3,96.3-58.26,15.26-6.12,35.36-9.71,51.91-11.41,62.9-6.44,131.42-12.05,195.28-10.41,14.17.13,28.72.9,42.1,5.71,17.61,6.34,31.88,14,47.54,23.29,8.27,4.93,14.36,10.62,20.53,18.13,18.62,22.67,37,46.14,51.9,71.59,3.55,6.05,6.91,12.21,10,18.49,3.83,10.11,7.07,20.21,9.83,30.31,3.74,15.9,4.75,31.8,4.77,47.69-.43-7.78-1.21-16.6-10.5-17.36-2.58-.22-4.82-.43-7.66-.64-5.86-.44-9.45,1-10.56,7.1q-6.43,35.3-12.89,70.59c-.45,2.45-2,3.83-4.7,3.94-34.87,1.44-68.95,3-103.82,4.44-1.07-22.12-6.48-43.33-20.27-62.8a232.08,232.08,0,0,0-7.4-46.79c-2.39-8.83-6.32-15.38-15.69-18.22-7.87-2.38-15.11-2.59-24-2.38-10.57.26-14.84,5.92-17.26,15.57-8.65,34.4-17.31,67.62-26,103.22a7.6,7.6,0,0,1-6.72,6l-69.19-.29c-4.84,0-8.71-.88-12.45-3.95a885.47,885.47,0,0,0-91.27-66.26,45.67,45.67,0,0,0-23.06-6.85c-71.69-1.14-143.27,1.07-213.4,3.38-6.51.22-12.63,4.34-16.4,9.81A580.44,580.44,0,0,0,43.4,509"/><path class="cls-6" d="M500.42,317.79c7.48.33,14.36.51,21.24.69s13.86.37,21.28.7h.1a3.14,3.14,0,0,0,1.06,0,3,3,0,0,0,2-1.32,7.85,7.85,0,0,0,1.23-3.49,26.46,26.46,0,0,0-.28-7.24l2-.33a28.9,28.9,0,0,1,.29,7.85,9.88,9.88,0,0,1-1.59,4.38,5,5,0,0,1-3.28,2.14,5.62,5.62,0,0,1-1.64,0c-7.45-.33-14.32-.51-21.18-.69s-13.86-.37-21.28-.7Z"/><path class="cls-6" d="M495.32,333.69c3.93,3,8.21,6.08,12.53,9.14,8.35,5.93,16.82,11.94,23.16,18.25,3.71,3.68,5,7.47,6.79,12.82.31.92.63,1.88,1,2.88l-1.9.67c-.36-1-.68-2-1-2.91-1.71-5.08-2.92-8.68-6.3-12-6.22-6.18-14.62-12.14-22.91-18-4.32-3.07-8.62-6.12-12.59-9.19Z"/><path class="cls-7" d="M43.4,509c-.36-4.38-.93-9-.17-13.34q1.47-8.43,3-16.86c-.88-29.09-.93-59.57.22-86.52.18-4.2.89-6.25,3.09-8.55.49,1.1,1,2.19,1.46,3.29l31,5.16-5.16,17.49,33-18.28,225.65-.3c-2.45-6.76-11.26-8.94-13.71-15.7,27.17,26.7,42.65,32.9,71.23,31.59,21.63-1,43.26-2.11,64.9-3.17l-3.28-1.89c-16.36-1.55-38.56-3.44-54.09-5.47-15.05-2-23.66-5.72-35.34-16.19,44.91-4,89.23-6.95,134.14-10.93,14.05-.86,32.2-3.75,29.11,19.58,8.71-16.91,43.79-25.27,68.36,3.18-1.2-16.71.4-25.3,24.78-23.69,37.08,2.46,71.44,5.84,108.36,8.28,8.32.55,30.84.8,33.62,9.3q2.7,8.21,4.93,16.41c3.74,15.9,4.75,31.8,4.77,47.69-.43-7.78-1.21-16.6-10.5-17.36-2.58-.22-4.82-.43-7.66-.64-5.86-.44-9.45,1-10.56,7.1q-6.43,35.3-12.89,70.59c-.45,2.45-2,3.83-4.7,3.94-34.87,1.44-68.95,3-103.82,4.44-1.07-22.12-6.48-43.33-20.27-62.8a232.08,232.08,0,0,0-7.4-46.79c-2.39-8.83-6.32-15.38-15.69-18.22-7.87-2.38-15.11-2.59-24-2.38-10.57.26-14.84,5.92-17.26,15.57-8.65,34.4-17.31,67.62-26,103.22a7.6,7.6,0,0,1-6.72,6l-69.19-.29c-4.84,0-8.71-.88-12.45-3.95a885.47,885.47,0,0,0-91.27-66.26,45.67,45.67,0,0,0-23.06-6.85c-71.69-1.14-143.27,1.07-213.4,3.38-6.51.22-12.63,4.34-16.4,9.81A580.44,580.44,0,0,0,43.4,509"/><path class="cls-6" d="M334.22,391.11h1.2a12.68,12.68,0,0,0-3.27-4.79l2,.53C354.26,403.92,369,408.09,392.94,407c19.38-.88,38.76-1.88,58.14-2.84,1,7.29,5,51.57,5,51.57-15.76-6.75-21.62-8.76-38-11.55l-70.44-12,3.12-26.13-16.53-15"/><path class="cls-8" d="M739.34,369.08c2.16,3.41,3.61,4.78,5.19,7.73a82.82,82.82,0,0,1,5.72,14.46c2.43,8.25,2.65,20.26,1.94,30.25-1.13-12.5-1.68-22.26-3.87-29.69-2-6.65-4-10.22-5.86-14.46-1-2.35-1.42-4.9-3.12-8.29"/><path class="cls-6" d="M737.85,369.08c5.27,8.33,8.67,14.57,10.91,22.19s3.31,16.5,4,30.17l-2,.08c-.63-13.49-1.68-22.26-3.87-29.69-3-10.33-4.22-13.22-9-22.75"/><path class="cls-6" d="M752,432.07c-4.08.29-6.62,2.18-7.53,7.13q-6.43,35.3-12.89,70.59c-.45,2.45-2,3.83-4.7,3.94-34.87,1.44-68.95,3-103.82,4.44-1.07-22.12-6.48-43.33-20.27-62.8-.09-1.52-.2-3-.31-4.57,15-19.34,21.53-18.65,34.31-18.09l85.29,1.45c10.3.17,13.24,5.16,15.06,7.49l7.15-10.34,7.71.76M43.4,509c-.36-4.38-.93-9-.17-13.34q1.47-8.43,3-16.86l-.12-4.16q6-13.92,12-27.85L64.7,448c3.32.58,3.47,1.48,2.63,5.26-.52,2.31-1.12,4.17-2.36,8.28,2.7-4.62,13.3-18.58,16.89-21.61,3.81-3.22,9.68-5.84,14.73-5.9,68-.73,143-1.61,210.82-2.35,11.63-.12,19.31,1.83,29,8.27,28.9,19.25,56.9,38.9,85.8,58.16,6.32,3.7,11,5,19.66,1.45,11-4.45,19-6.77,31-13.62,2.95-1.68,8.74-5.22,12.19-7.5a11.85,11.85,0,0,0,5-12.09c-2.64-16.1-4.72-29.14-7.33-45.25,2.62,7.47,4.36,11.38,8.92,13,9.51,3.46,23-14.37,40.95-7.1-6.67,26.26-13.35,52.3-20,79.76a7.6,7.6,0,0,1-6.72,6l-69.19-.29c-4.84,0-8.71-.88-12.45-3.95a885.47,885.47,0,0,0-91.27-66.26,45.67,45.67,0,0,0-23.06-6.85c-71.69-1.14-143.27,1.07-213.4,3.38-6.51.22-12.63,4.34-16.4,9.81A580.44,580.44,0,0,0,43.4,509Z"/><path class="cls-8" d="M689.47,479.67c1.32-18.35,2.06-39,1.94-58.22-.11-17.66-1-34.11-2.74-46.42-1.14-7.83-4.81-13.88-8.59-20.11a104.73,104.73,0,0,1-5.85-10.52l1.83-.84a103.85,103.85,0,0,0,5.74,10.32c3.89,6.42,7.67,12.64,8.86,20.87,1.8,12.38,2.64,28.93,2.76,46.69.07,11.39-1.23,49.12-3.95,58.23"/><path class="cls-6" d="M689.75,515.31l-2,.08-1.93-20.21,3-8.69-1-5v-.13c1.4-18.75,2.19-40.08,2.06-59.87-.11-17.66-1-34.11-2.74-46.42-1.14-7.83-4.81-13.88-8.59-20.11a104.73,104.73,0,0,1-5.85-10.52l1.83-.84a103.85,103.85,0,0,0,5.74,10.32c3.89,6.42,7.67,12.64,8.86,20.87,1.8,12.38,2.64,28.93,2.76,46.69.13,19.84-.66,41.17-2.06,59.9l1,5.29-3,8.8Z"/><path class="cls-8" d="M613,470c1.3-26,2.13-48.09,1.86-66.44-.31-20.54-2-36.42-6-48a113,113,0,0,0-6-13.41c-.88-1.77-1.76-3.55-2.65-5.44a25.61,25.61,0,0,0-4.81-6.91c-2.53-2.8-5.21-5.77-8.13-13.91l1.89-.68c2.78,7.76,5.33,10.58,7.73,13.25a26.88,26.88,0,0,1,5.14,7.4c.83,1.76,1.74,3.58,2.64,5.4a117.08,117.08,0,0,1,6,13.64c4.06,11.78,5.79,27.87,6.1,48.64.23,15.35-3.23,67.76-3.87,66.46"/><path class="cls-6" d="M613.32,473.93c-.58-1.31-1.18-2.62-1.82-3.92,1.3-26,2.13-48.09,1.86-66.44-.31-20.54-2-36.42-6-48a113,113,0,0,0-6-13.41c-.88-1.77-1.76-3.55-2.65-5.44a25.61,25.61,0,0,0-4.81-6.91c-2.53-2.8-5.21-5.77-8.13-13.91l1.89-.68c2.78,7.76,5.33,10.58,7.73,13.25a27.09,27.09,0,0,1,5.14,7.4c.83,1.76,1.74,3.58,2.64,5.4a117.08,117.08,0,0,1,6,13.64c4.06,11.78,5.79,27.87,6.1,48.64.29,19.31-.65,42.67-2,70.38"/><path class="cls-3" d="M772.69,432.54c.36,5.85,1,13.3,1,19.15-2.32-7.78-1.81-17.6-11.1-18.36-2.58-.21-4.32-.42-7.16-.63-5.86-.44-9.45,1-10.56,7.1L734.5,497.17c-2.2-6.18-4.43-11.67-3.29-18.72q4-25.17,8.08-50.36c1-6.08,2.84-10.65,9.69-10.3,3.87.2,7.25.3,11.13.5,8.23.42,10.73,7.39,12.58,14.25"/><path class="cls-3" d="M608.23,464.46c-1.64-2.87-3.75-6.3-5.73-9.09a232.19,232.19,0,0,0-7.45-46.79c-2.39-8.83-6.17-13.19-15.54-16-7.87-2.39-14.51-3.09-23.35-2.88-10.58.26-14,5.12-16.47,14.77-7.66,30.49-15.39,60.24-23.06,91.35-4.23-7.37-8.89-15.38-6.74-24.45,6.59-27.84,12.49-55.67,19.08-83.51,1.84-7.76,5.2-13.64,13.87-15.27a78.62,78.62,0,0,1,37.37,1.72c9.66,3,13.27,6.86,16.25,15.92,6.7,20.37,10.76,45.33,11.77,74.26"/><path class="cls-3" d="M66.21,369.93l.14-.11c3.18-7.56,6.19-15.05,10.33-22.3,3.2-5.59,5.76-5.91,11.33-9.1l.65-.34c3.54,4.67,9.46,7.33,17,9.83,1.94.65,1.14,2.28.24,3.32l-25.62,30.9a2.6,2.6,0,0,1-4.09.1c-5.11-5-8.24-9-10-12.3"/><path class="cls-3" d="M46.08,475.58c-.61-22.08-.75-44.85-.24-66.18a4.94,4.94,0,0,1,2.9-1.45l13.41-2.58c-1.83,1.05-2.78,2.4-2.63,4.12q.25,13.51.52,27A42.94,42.94,0,0,1,58.38,449l-6.63,21c-1.26,4-3.71,6.1-5.67,5.62"/><path class="cls-3" d="M399.62,396.56c19.86,1.55,38,2.76,57.9,4.31,9,.71,14.47,4.07,17.13,13.16a233.31,233.31,0,0,1,8.92,46.64c.87,10.62-3.7,14.32-12.71,19.85-9.33-12.69-18.06-25.59-27.38-38.28a13.25,13.25,0,0,1-1.85-11.07c2.69-8.45,4.78-15.64,7.47-24.14.91-2.84.2-4.82-2.57-5.2-15.63-2.16-31.27-3.42-46.91-5.27"/><path class="cls-3" d="M78.84,438q-2.3-5.47-4.61-11c-2.68-6.38-2.32-8.91.85-15.07A226.77,226.77,0,0,1,101,372.86a23,23,0,0,1,16.67-8.55c58.22-2.23,115.29-4.46,173.49-6.69,8.4-.32,14.56,1.49,21.32,7.3a321.16,321.16,0,0,1,37.63,37.83c4.93,5.85,5.57,10.47,2.54,18-1.89,4.67-2.83,6.81-4.86,11.51-12.08-6.79-18.93-11-26.33-10.83L101.7,425c-10.77.18-17,3.71-22.86,12.92"/><path class="cls-3" d="M326.56,337.43C384.09,331,443.11,320.94,501,317.86c2.51-.08,1.44,2.65.9,3.88-6.64,15.1-10.29,27.84-28.49,31.74-30,6.42-59.9,12.06-89.9,18.49-3.89.83-9,.11-12-2.35-11.4-9.19-21.65-19-33.51-27.92-2.46-1.86-5.7-3.51-11.43-4.27"/><path class="cls-3" d="M249.71,315.41l107.11-4.17c46.69-13.06,125.16-8.84,208.07-2.19,7.7-23.3,16.39-46.4,27.67-69.3-73.65-1.78-148.27,3.08-225,13.27-17.35,2.3-30,6.1-45.88,14.74-27.14,14.74-49.65,30.25-72,47.65"/><path class="cls-3" d="M586.48,309.59c5.85-16.72,11.31-33.39,17.17-50.12,2.68-7.65,8.13-11.17,16.26-9.64,20,3.76,44.69,13.87,63.17,26a31.22,31.22,0,0,1,7.76,6.67,491.46,491.46,0,0,1,38,52.85,28.31,28.31,0,0,1,4.62,11.48c.35,2.42.9,5.31,1.1,7.76.13,1.63-.35,2.26-2.1,1.92-36.68-7.25-76.27-13.78-112.82-21.06-11.12-5.35-20.17-10.84-30.47-16.61-3.93-2.2-4.18-5.09-2.73-9.23"/><path class="cls-3" d="M606.1,333.79c2.91-5,5.7-9.59,8.62-14.55-2.52-1.23-3.25-2.43-2.7-5,1.25-5.94,2.08-10.35,4.89-16.6s5.9-10.26,12.71-10c13.21.59,25.18,1.18,38.63,1.77,5.76.25,10.18,2.46,13,7.31a38.35,38.35,0,0,1,5.16,16c1,10.79-8.92,15.3-18.28,16.12l-33.69,3c-5.76,1.79-7.94,11.43-10,18.09-3.81-.13-7.81-.81-10.12-3.41a42.83,42.83,0,0,1-8.21-12.74"/><path class="cls-8" d="M611.9,316.34a5.49,5.49,0,0,1,.12-2.09c1.25-5.94,2.08-10.35,4.89-16.6s5.9-10.26,12.71-10c13.21.59,25.18,1.18,38.63,1.77,5.76.25,10.18,2.46,13,7.31a38.35,38.35,0,0,1,5.16,16,13.3,13.3,0,0,1-.86,6.35c0-3.48-2.49-3.68-5.75-3.7-20.39-.17-39.39-.4-59.78-.57-4.9,0-7.21.58-8.14,1.49"/><path d="M587.6,222.17c-62.43-.91-125.85-.1-187.08,13.41l-.87-3.92c66-13,128.74-13.95,188-13.51Z"/><path class="cls-9" d="M398.79,517.3c4.13-1.64,3.34-5.56,1.44-7.18-20.36-17.3-54.32-43.52-71-58.05-7.1-6.21-13.7-8.09-23.24-8-68.44.8-136.31,1.31-204.76,2.12-7.94.09-12.22,1.17-16.78,8.29-12,18.71-24,38-36,56.73-1.92,3-.9,4.49,1.85,4.49,95.64.19,248.7,5.67,348.48,1.58M43.53,512c12.84-20.43,24.89-39.86,37.74-60.29,4.84-7.69,9.37-10.51,19-10.65,69.44-1,138.3-2.31,207.73-3.34,10.35-.16,17.93,2.67,26.32,8.59,31.13,22,61,43.11,89.49,65.64a14.31,14.31,0,0,0,9.34,2.59l73.73.59c1.8.64,2.71,2.08,1.59,5.37q-3.89,9.24-7.75,18.48,1.08-7.35,2.18-14.71c-75.55-1.41-351.32-4.32-447-5.91-10.31,0-15.36-1-13.83,7-2.16-4.24-4.28-8.73-1.74-10.34A11.65,11.65,0,0,0,43.53,512Z"/><path class="cls-10" d="M755.65,476.51c7.57,0,13.71,24.11,13.71,53.86s-6.14,53.85-13.71,53.85c-1.67,0-3.27-1.17-4.75-3.32a3.25,3.25,0,0,0,1,.14c7.13,0,12.91-22.69,12.91-50.67s-5.78-50.68-12.91-50.68a3.61,3.61,0,0,0-1,.14c1.48-2.15,3.08-3.32,4.75-3.32"/><path class="cls-3" d="M101.34,346.44a16.61,16.61,0,0,0,5,.62L331.39,336.9l13.51,9a39.82,39.82,0,0,0-17.69-3.43l-218.06,10c-2.65.12-4.72.95-8.18,4.38,1.57-2.54-1.2-7.9.37-10.43"/><path class="cls-7" d="M673.62,357.46c3.41,0,7,5.28,8,11.79s-1,11.8-4.4,11.8-7-5.28-7.95-11.8,1-11.79,4.4-11.79"/><path class="cls-8" d="M673.67,371.84c-1.11,3.18-6.68,3.42-8.9-.5-1.56-2.77-1.3-6,2.64-6,.55,0,5.8.2,7.09.26s9,.92,9,.92c4.9,4.47-.22,10.69-5.53,5.39-1.44,0-2.88-.07-4.33-.09"/><path class="cls-7" d="M673.67,372c-1.11,3.18-6.68,3.43-8.9-.5-1.06-1.88,1.85-2.48,4-2.48,5.27,0,11.5.65,16.71,1.2.35,3.36-3.52,5.83-7.48,1.88-1.44,0-2.88-.08-4.33-.1"/><path class="cls-7" d="M727.9,363.25c2.58,0,5.86,4.09,7.32,9.06s.55,9-2,8.92-5.87-4.1-7.33-9.07-.55-9,2-8.91"/><path class="cls-8" d="M729.52,374.18c-.5,2.41-4.7,2.53-6.81-.48-1.49-2.13-1.64-4.56,1.34-4.52.42,0,4.43.22,5.41.28s7,.81,7,.81c4.21,3.46,1,8.12-3.61,4-1.09,0-2.2-.1-3.29-.13"/><path class="cls-7" d="M729.54,374.3c-.5,2.41-4.7,2.53-6.81-.48-1-1.45,1.13-1.86,2.76-1.84,4,.07,8.8.63,12.81,1.11.63,2.56-2,4.39-5.47,1.34-1.1,0-2.2-.09-3.29-.13"/><path class="cls-9" d="M608.16,333.64c2.65-4,4.6-7.28,7.26-11.27,3.62-5.46,7.72-5.11,13.55-5.14L679.4,317c-16.18,1.39-31.17,2.23-47.35,4.08-12.66,1.44-14.83,12.68-17.53,22.5a26.56,26.56,0,0,1-6.36-9.89"/><path class="cls-11" d="M54.18,537.43c0-.92-.06-1.84-.09-2.72s-.07-1.55-.09-2.32c-.14-6,.64-9.32,8.32-9.5h0l141.49,1.42,154.26,1.54c14.3.14,17.54,4.69,24.47,14.4l.53.75c-1.8-2-5.38-7.26-11.7-10.46-3.56-1.8-8.25-2.58-13.32-2.68l-154.25-1.54L62.36,524.9c-8.62.16-7.85,8.64-8.18,12.53"/><path class="cls-9" d="M73.07,504Q79,492,85,480c2.93-6.09,7-10.17,14-10.36,67.16-1.78,134.33-.91,201.49-1.33,6.87-.05,11.86.71,17,5.55,9.32,8.79,18.12,17.58,27.17,26.37,2.49,2.32,3.55,6.44.72,8.72a55.73,55.73,0,0,1-6.54,4.15c-2.9,1.53-4.9,1.59-8.21,1.54h-.87a13.2,13.2,0,0,0,5.88-1.41,56.9,56.9,0,0,0,6.46-3.82c2.8-2.09,1.75-5.88-.71-8-9-8.09-17.63-16.18-26.85-24.26-5.07-4.45-10-5.15-16.79-5.12-66.35.38-130.62-.33-197,1.29-6.92.17-10.92,3.93-13.82,9.53q-5.88,11-11.78,22.07c-1.48,2.62-1.11,4.72,1,5.89l-1.33,0c-2.82-1.17-3.45-3.62-1.79-6.76"/></svg>