<svg xmlns="http://www.w3.org/2000/svg" width="61" height="61"><g data-name="Сгруппировать 2013" transform="translate(-1734 -5246)"><circle data-name="Эллипс 152" cx="30.5" cy="30.5" r="30.5" transform="translate(1734 5246)" fill="#676767"/><g data-name="Сгруппировать 2009"><path data-name="Контур 6249" d="M1782.968 5265.92a4.863 4.863 0 00-1.008-2.133 4.1 4.1 0 00-.328-.363 4.883 4.883 0 00-3.44-1.426h-27.325a4.834 4.834 0 00-3.441 1.427 4.272 4.272 0 00-.331.367 4.8 4.8 0 00-1 2.13 4.7 4.7 0 00-.095.944v19.191a4.893 4.893 0 001.426 3.44c.11.109.219.21.335.308a4.879 4.879 0 003.106 1.118h27.324a4.842 4.842 0 003.11-1.126 4.216 4.216 0 00.331-.3 4.84 4.84 0 001-1.437l.032-.076a4.8 4.8 0 00.4-1.927v-19.191a4.987 4.987 0 00-.096-.946zm-34.448-.815a2.29 2.29 0 01.269-.317 2.921 2.921 0 012.078-.862h27.324a2.9 2.9 0 012.344 1.173l.209.281-14.585 12.71a2.479 2.479 0 01-3.259 0l-14.57-12.707zm-.584 21.121a1.158 1.158 0 01-.01-.169v-18.793l11.318 9.873-11.203 9.768zm31.713 2.379a2.921 2.921 0 01-1.458.387h-27.324a2.919 2.919 0 01-1.458-.387l-.458-.265 11.576-10.088 1.269 1.1a4.163 4.163 0 005.471 0l1.268-1.1 11.572 10.093zm1.482-2.553a1.221 1.221 0 01-.008.167l-.1.686-11.209-9.767 11.317-9.874z" fill="#fff"/></g></g></svg>