<?xml version="1.0" encoding="utf-8"?>
<!-- Generator: Adobe Illustrator 25.0.1, SVG Export Plug-In . SVG Version: 6.00 Build 0)  -->
<svg version="1.1" id="Слой_1" xmlns="http://www.w3.org/2000/svg" xmlns:xlink="http://www.w3.org/1999/xlink" x="0px" y="0px"
	 viewBox="0 0 40 40" style="enable-background:new 0 0 40 40;" xml:space="preserve">
<path d="M19.6,0C8.9,0.1-0.1,9.3,0,19.9c-0.1,11,8.8,20.1,19.9,20.1c11,0.1,20.1-8.8,20.1-19.9S31.2,0.1,20.1,0C20,0,19.8,0,19.6,0
	L19.6,0z M4.7,12.2c2.7-5.1,9-9.5,15.3-9.5s11.8,3.3,15,9c0.4,0.7,1.2,2.1,0,3.6c-0.4,0.5-1,0.8-1.7,0.8c-0.5,0-1-0.2-1.4-0.5
	l-0.2-0.1c-8.8-4.6-13.2-4.7-22.7-0.3l-1.1,0.5c-1,0.5-2.2,0.3-2.9-0.5C4.1,14.4,4,13.1,4.7,12.2z M17.1,36.4
	c-0.3,0.2-0.7,0.4-1.2,0.4c-0.4,0-0.7-0.1-1.1-0.2c-5.4-1.7-9.6-6-11.3-11.4c-0.3-0.7-0.3-1.6,0.1-2.2c0.7-0.9,1.9-0.8,2.5-0.8
	c6.5,0.4,11.6,5.6,11.7,12.1C18,35.1,17.7,35.9,17.1,36.4z M20.1,25.9L20.1,25.9c-1.5,0-3-0.6-4.1-1.7c-2.3-2.2-2.4-5.9-0.1-8.2
	c1.1-1.1,2.6-1.8,4.2-1.8l0,0c3.2,0.1,5.7,2.8,5.6,6C25.5,23.3,23.1,25.8,20.1,25.9L20.1,25.9z M25.4,36.5c-0.4,0.2-0.9,0.3-1.4,0.3
	c-0.4,0-0.8-0.1-1.1-0.3c-0.7-0.6-1-1.5-0.8-2.4c0.3-6.5,5.5-11.6,12-11.9c0.9-0.1,1.7,0.2,2.3,0.9c0.4,0.7,0.5,1.6,0.1,2.4
	C34.7,30.7,30.6,34.7,25.4,36.5z"/>
</svg>
