<?xml version="1.0" encoding="utf-8"?>
<!-- Generator: Adobe Illustrator 25.0.1, SVG Export Plug-In . SVG Version: 6.00 Build 0)  -->
<svg version="1.1" id="Слой_1" xmlns="http://www.w3.org/2000/svg" xmlns:xlink="http://www.w3.org/1999/xlink" x="0px" y="0px"
	 viewBox="0 0 40 40" style="enable-background:new 0 0 40 40;" xml:space="preserve">
<style type="text/css">
	.st0{fill:#FFFFFF;}
</style>
<g>
	<path class="st0" d="M15.6,18c-2.6-2.6-3.7-3.7-6.3-6.3c-0.4-0.4-0.4-0.6,0-1c1-1,1-1,2,0c4.2,4.2,5.7,5.7,9.9,9.9
		c0.4,0.4,0.6,0.5,1,0c1.4-1.4,2.8-2.8,4.2-4.2c0.3-0.3,0.3-0.5,0-0.8c-5.7-5.6-8.7-8.7-14.4-14.4c-1-1.2-2.7-1.5-4.1-0.9
		C6.6,1,5.7,2.5,5.8,4.1c0.1,0.8,0.4,1.6,1,2.2c0.5,0.5,0.9,1,1.4,1.4c0.3,0.3,0.4,0.5,0,0.8c-0.4,0.3-0.7,0.9-1.1,1
		S6.5,8.8,6.1,8.5C5.6,8,4.9,8,4.4,8.4c0,0,0,0-0.1,0.1c-0.5,0.5-0.5,1.2,0,1.7c0,0,0.1,0.1,0.1,0.1c3.3,3.4,6.8,6.5,10.5,9.3
		c0.1,0.1,0.2,0.2,0.4,0.2c0.3,0.1,0.5,0.5,0.9,0.2c0.3-0.3,0.4-0.8,0.2-1.2C16.1,18.5,15.9,18.3,15.6,18z"/>
	<path class="st0" d="M19.5,30.6c0.2-0.1,0.3,0.1,0.5,0.2c1.4,1.1,2.8,2.3,4.1,3.5c1,1,2.1,1.9,3.2,2.7c1.6,1,2.8,0.4,3.2-1.4
		c0.1-0.9,0.1-1.7-0.2-2.6c-0.2-0.7-0.2-1,0.7-0.8c0.9,0.2,1.9,0.2,2.9-0.1c1.6-0.5,2.4-1.4,2.2-2.5c-0.1-0.6-0.5-1-0.9-1.4
		c0-1.4-0.5-2.8-1.2-4c-1.6-2.7-3.5-5.2-5.8-7.3c-0.3-0.3-0.5-0.1-0.7,0.1c-1.4,1.4-2.9,2.9-4.3,4.3c-0.3,0.3-0.4,0.4,0,0.8
		c1.3,1.4,2.6,2.6,4.1,3.7c2.1,1.6,4.2,3.2,7.1,3.3c0,0.7-1.1,1.2-2.1,1c-0.7-0.1-1.4-0.4-2.1-0.6c-0.9-0.3-1.9,0.1-2.2,1
		c-0.1,0.3-0.1,0.5-0.1,0.8c0,0.5,0.1,1,0.2,1.5c0.2,0.5,0.3,1,0.2,1.5c-1.7-1.5-3.3-3-4.9-4.4c-0.8-0.8-1.8-1.4-2.8-1.9
		c-1-0.6-2.2-0.3-2.8,0.7c-0.1,0.2-0.2,0.4-0.2,0.6c-0.3,0.9-0.3,1.9,0.1,2.7c0.9,2.8,2.7,5,4.7,7.2c0.5,0.6,1.1,0.9,1.8,0.3
		c0.7-0.6,0.6-1.2-0.1-1.9s-1.1-1.3-1.7-2c-1.1-1.3-2-2.9-2.6-4.5C19.4,31,19.3,30.8,19.5,30.6z"/>
</g>
</svg>
