<svg id="Layer_1" data-name="Layer 1" xmlns="http://www.w3.org/2000/svg" viewBox="0 0 841.9 841.9"><defs><style>.cls-1,.cls-2,.cls-3,.cls-4,.cls-5,.cls-6,.cls-9{fill-rule:evenodd;}.cls-2{fill:#4d4d4d;}.cls-3{fill:#f0f0f0;}.cls-4{fill:#e5e5e5;}.cls-5,.cls-7{fill:#cbcbcb;}.cls-6{fill:#b2b2b2;}.cls-8,.cls-9{fill:#fff;}</style></defs><path class="cls-1" d="M604.22,546.53a100.16,100.16,0,0,1-10,23.15l114.86-2.45a105.56,105.56,0,0,1-3.64-15.64l-5.27.42c-2.42.19-4.07-.41-4.37-2.88l-.84-7.08c-29.84,2.44-60.8,2.29-90.75,4.48M221.76,557.22A84.44,84.44,0,0,1,206.5,578.4c12.66-.6,20.74-.89,20.81-.9l195.83-4.18a68.35,68.35,0,0,1-15.92-13.71Zm564.43,19.29c-92.21,17.26-169.81,32.6-263.85,33.6-154.51,1.63-329.29-3.63-466.63-9.45-42.77-1.81-12.14-6.52,35.31-13,2.92-.4,6-.78,9.06-1.16-13.69-9.28-24.68-24.66-31-43.47,1.65.16,3.31.3,5,.43a48.33,48.33,0,0,0,9.77-.12c3.42-.4,6.85-1.1,10.25-1.65a109.26,109.26,0,0,1,18.75-1.73c68.43.8,136.87.78,205.29,1.57a91.18,91.18,0,0,1,14,1.26c4.64.76,9.25,1.78,13.86,2.7,7.93,1.59,15.14,3,23.29,2.9,41.91-.75,83.83-.71,125.73-1.44,2.49-9.1,5.48-18.06,7.88-27.19,1.3-5,1.23-10.36,1.69-15.46a283.76,283.76,0,0,1,6.71-41.39,196,196,0,0,1,11.28-34c5.52-12.31,16.78-32.53,32.15-33.64,9.07-.65,17.22,5.5,22.58,12.24,9.59,12.05,14.06,29.44,16.13,44.47,17.73,25.72,23.09,53.6,19.2,84.18,37.85-1.7,75.69-3.52,113.54-5.21.93,0,4.06-.09,4.82-.64s1-3,1.14-3.77c1.68-13.71,3.76-27.44,6.19-41,1.26-7,2.63-14,4.19-21,1.38-6.14,2.9-12.31,4.77-18.32a68.15,68.15,0,0,1,5.33-13.24c1.67-2.9,4.28-6.3,8-6,5.28.38,9.07,5.89,11.11,10.21a45.25,45.25,0,0,1,2.14,5.46c-.33-3.12-.69-6.24-1.1-9.35.64.7,1.3,1.39,2,2.09,1.26,15.53,1.11,54.88-3,71.34.12,3.18.18,6.44.18,9.76,0,21.23-2.55,40-6.45,51.44,12,.14,23.65.31,33.61.6C816.24,569,800.49,573.84,786.19,576.51Z"/><path class="cls-2" d="M540.12,447.14c28.44,0,51.49,30.16,51.49,67.36s-23.05,67.36-51.49,67.36c-15.85,0-30-9.38-39.48-24.13.49-1.84,1.07-3.94,1.69-6.21,8.61,15,22.33,24.75,37.79,24.75,26.08,0,47.22-27.66,47.22-61.77s-21.14-61.77-47.22-61.77a37.89,37.89,0,0,0-19.53,5.52c.64-2.43,1.32-4.8,2-7.11a40.65,40.65,0,0,1,17.51-4"/><path class="cls-2" d="M756.64,467.16c6.51,0,11.8,20.77,11.8,46.4s-5.29,46.4-11.8,46.4c-3,0-5.8-4.5-7.89-11.88,1.82,5.27,4.07,8.38,6.51,8.38,6.06,0,11-19.21,11-42.9s-4.91-42.91-11-42.91c-2.44,0-4.69,3.12-6.51,8.38,2.09-7.38,4.85-11.87,7.89-11.87"/><path class="cls-3" d="M73.82,546.37c-3.92-.31-7.86-.68-12-1.13-5.84-.63-8.87-3.09-11.16-8.86s-2.81-7.51-4.87-12.76c-2.72-6.92-2.9-11.07-1.86-18l11.76-78c.81-5.38,1.62-9.82,6.61-13.12,2-13.34,3.33-25.11,7.92-36.82A12,12,0,0,1,78.47,370c6.64-1.91,13.39-2.57,19.93-3.38a99.42,99.42,0,0,1,24.21-11c13.5-16,41.2-22.27,106.14-33.27,25.14-22.46,51.58-41.91,84.1-58.93,18.24-9.55,36.73-14.07,56.84-17.62,70.25-12.42,148.54-15.85,223.73-13.65,12.15.36,21.65,1.29,33.2,5.68,48.27,18.32,76.93,55.21,102.11,98.41,3.19,5.16,9.47,9.81,14.52,13.32a66.51,66.51,0,0,1,8.82,6.68,38,38,0,0,1,8.33,13c9.17,25,14.58,51.38,17,79.52a143.89,143.89,0,0,1-2.24,23.61C774,438.1,765,430.17,760.41,429.85c-10.72-.77-21.41,64.85-25.35,97-.83,6.71-3,6.74-8.77,7-40,1.79-77.1,3.58-117.08,5.36,5.41-36.17-2.86-63.58-18.62-86.18-5.69-42.64-24-55.7-35.67-54.86-21.1,1.52-42.2,48.09-47.41,106.33-.48,5.33-.42,10.78-1.78,15.94-2.44,9.31-6,20-8.45,29.36-42.72.76-85.24.71-128,1.47-8.63.16-15.47-1.26-23.92-2.95-10-2-17.11-3.79-27.31-3.91-68.36-.79-136.93-.77-205.29-1.57a106.82,106.82,0,0,0-18.25,1.69c-8.3,1.35-12.26,2.48-20.73,1.8"/><path class="cls-4" d="M771.6,408.57a338.62,338.62,0,0,1,5.82,40.12,143.89,143.89,0,0,1-2.24,23.61C774,438.1,765,430.17,760.41,429.85c-10.72-.77-21.41,64.85-25.35,97-.83,6.71-3,6.74-8.77,7-40,1.79-77.1,3.58-117.08,5.36,5.41-36.17-2.86-63.58-18.62-86.18-3.09-23.16-9.91-37.59-17.37-45.81,13.29,6.9,17.29,6.08,35,7.41,48.17,1.23,94,2.45,142.16,3.67,9.19.08,16.9-.78,21.19-9.77"/><path class="cls-5" d="M740.66,472.53c-1.84,18.92-3.87,40.19-5.6,54.36-.83,6.71-3,6.74-8.77,7-40,1.79-77.1,3.58-117.08,5.36,4.7-31.45-.94-56.29-12.85-77.09,18.76-9.88,90-8.91,125.5-6.51,12.1.82,18.84,1.45,18.8,16.88"/><path class="cls-4" d="M73.82,546.37c-3.92-.31-7.86-.68-12-1.13-5.84-.63-8.87-3.09-11.16-8.86s-2.81-7.51-4.87-12.76c-2.72-6.92-2.9-11.07-1.86-18L55.3,430l6.57,12,7.53,6.1,11.4,3.06,62.68-3.06C208.3,450,266.4,452.09,331.22,454c4.41-.34,2.51-1.29,6.92-1.62,11.25,6.7,11.34,6.3,24.42,6.3,38.61-2.29,42.33,4.58,72.58,36.51,2.22,2.35-32.78-38.57-29.5-38.72,24.23-1.14,49.41-2.24,70.5-3.49s31-6.32,47.41-18.84c-7.73,18.69-13.61,43.3-16,70.45-.48,5.33-.42,10.78-1.78,15.94-2.44,9.31-6,20-8.45,29.36-42.72.76-85.24.71-128,1.47-8.63.16-15.47-1.26-23.92-2.95-10-2-17.11-3.79-27.31-3.91-68.36-.79-136.93-.77-205.29-1.57a106.82,106.82,0,0,0-18.25,1.69c-8.3,1.35-12.26,2.48-20.73,1.8"/><path class="cls-5" d="M73.82,546.37c-3.92-.31-7.86-.68-12-1.13-5.84-.63-8.87-3.09-11.16-8.86s-2.81-7.51-4.87-12.76c-2.72-6.92-2.9-11.07-1.86-18Q45,498,46.2,490.4c8.09-.08,16.91-.5,20.73-8.53,8.12-17.08,16.12-34.16,23.81-51.24,8.09-15.21,11-20.06,28.6-24.22-7.55,2.58-9.92,4.23-10.43,9.41,1.18,1.86,2.78,2.61,4,4.48,0,0,158.12,3.05,161,2.64s16.29-6.51,16.29-6.51c.75-6.53-.49-11.71-4.9-12.38A242.34,242.34,0,0,0,252.49,402c11.57-.33,22.83-.85,34.36.95,6.06.95,14.72,5.69,19.16,10,28.74,28.24,47.34,51.47,73,90.79,3.33,5.1,6.25,5.55,12,5.68,10.16.24,25.52.61,26.33.61,11.39,0,14.86-2.66,8.75-13.23,4.92,6,9.33,12,2.54,18.31-15,13.94-26.54,21.3-37.34,24.65-8.44,2.61-15.71,4.33-31.14,6,14.17-.2,39.73.53,51.7,0,3.46-1.83,6.71-3,10.17-4.78l29.1-24,55.4-.39a34.06,34.06,0,0,1-.78,3.9c-2.44,9.31-6,20-8.45,29.36l-128.16,2.29c-8.63.15-15.48-1.27-23.92-3-10-2-17.12-3.79-27.31-3.91L112.8,542.88a106.82,106.82,0,0,0-18.25,1.69c-8.3,1.35-12.26,2.48-20.73,1.8"/><path class="cls-6" d="M337,529c9.91-3.12,22.59-8.08,32.51-11.41,3.56-1.2,5.73-4,3.59-7.85-18.84-34.07-46.53-68.87-75.88-96.64-5.15-4.87-12.68-7.05-19.71-7.1-52.73-.39-104.55.68-154.76,4.32-8.07.58-16,3.1-22.09,13.44C87.51,448,72.25,479,62.3,505.42c-1.74,4.64-1.69,8.66,2.87,12.05a145.51,145.51,0,0,0,16.06,10.37c5.37,3,7.88,3.58,14.06,3.59,72.9.16,149.26.52,222.16.68,8.09,0,11.82-.64,19.57-3.07"/><path class="cls-1" d="M337,522.93c9.91-3.12,19.84-6.25,29.76-9.58,3.57-1.2,5.73-4,3.59-7.84-18.84-34.08-43.78-64.6-73.13-92.37-5.15-4.87-12.68-7.05-19.71-7.1-52.73-.39-104.55.68-154.76,4.32-8.07.58-16,3.1-22.09,13.44a596.92,596.92,0,0,0-34.92,75.72c-1.74,4.63-1.69,8.66,2.87,12.05a147.81,147.81,0,0,0,16.05,10.37c5.38,3,7.89,3.58,14.07,3.59l218.7.47c8.09,0,11.82-.63,19.57-3.07"/><path class="cls-5" d="M336.37,520.86c9.93-3.12,19.85-6.25,29.72-9.56,2.46-.83,3.76-2.24,2.38-4.74-19-34.45-44.2-64.86-72.72-91.84-4.76-4.5-11.8-6.47-18.24-6.51-51.53-.38-103.17.59-154.59,4.31-9.38.68-15.51,4.16-20.34,12.32a596.46,596.46,0,0,0-34.79,75.44c-1.48,4-1.46,6.87,2.13,9.55a146.27,146.27,0,0,0,15.83,10.22c1,.55,1.83,1,2.63,1.39C82.85,518.6,77.9,514,73,510c-3.49-2.81-3.61-5.61-2.12-9.56a558,558,0,0,1,33.36-73.2c4.83-8.16,11-11.64,20.34-12.32,51.41-3.72,99-4.58,150.52-4.21,6.43.05,13.48,2,18.23,6.51,28.53,27,49.82,54.24,68.86,88.69,1.38,2.49,0,3.67-2.38,4.74-8.43,3.79-16.75,7.93-25.45,10.8l2-.63"/><path class="cls-7" d="M497.65,350c8.63-12.35,21.14-14.48,32-16.32,6-1,11.56-2,15.33-4.6a18.07,18.07,0,0,0,5.64-6.65,40.9,40.9,0,0,0,3.68-11.8l2,.35a42.37,42.37,0,0,1-3.89,12.4,20.12,20.12,0,0,1-6.28,7.4c-4.15,2.88-9.87,3.86-16.17,4.93-10.43,1.77-22.48,3.82-30.62,15.47Z"/><path class="cls-7" d="M242.68,365.07q25.35-.46,50.9,0t51.25,1.56a124.63,124.63,0,0,1,18.7,2.53,187.08,187.08,0,0,0,33.12,3.76l0,2.06a187.49,187.49,0,0,1-33.45-3.8,123.48,123.48,0,0,0-18.41-2.49c-34-1.91-68-2.52-102.06-3.59M91.13,382c5.16-.59,8.93-2.47,12.33-4.16,2.85-1.42,5.44-2.71,8.46-3.12q19.18-2.62,38.56-4.49t38.88-3.05c-26.43,2.53-51.3,5.44-77.17,9.58-2.66.36-5.12,1.58-7.81,2.92-3.55,1.77-7.49,3.74-13,4.37Z"/><path class="cls-8" d="M608.59,385.92c.89,7.23,1.57,14.79,2.06,22.63,1.41,23,.58,53.68-2.62,76.53a619.23,619.23,0,0,0,.56-76.41q-.74-11.84-2.08-22.75Z"/><path class="cls-7" d="M579.59,313c1.85-7.8,4.51-18.48,7.56-29.3,2.25-7.94,4.7-15.94,7.18-22.91,2.82-7.88,6.2-13.68,11.54-16.93s12.54-3.87,22.94-1.38c-12.62-1.55-26.11-3.24-33,19-5.67,15.88-10.26,35.48-14.17,52Z"/><path class="cls-8" d="M696.77,382.69a269.49,269.49,0,0,1,1.69,37.19c-.18,11.35-.89,22.43-1.8,32.2-.75,8-2.6,15.28-3.39,21.56s-.52,11.59.35,20a58.15,58.15,0,0,0-1.17-6.42,45.19,45.19,0,0,1-.7-7.33,57.28,57.28,0,0,1,.39-7.68v0a409.34,409.34,0,0,0,4.27-52.29,265.67,265.67,0,0,0-1.72-37.16Z"/><path class="cls-7" d="M675.7,338.39a52.39,52.39,0,0,1,11.7,15.74A79.36,79.36,0,0,1,694,375.87c2.28,13.44,2.94,28.95,2.69,44a411.06,411.06,0,0,1-4.27,52.57,56.56,56.56,0,0,0-.39,7.38,43.47,43.47,0,0,0,.67,7,56.67,56.67,0,0,1,.74,16.3,61.4,61.4,0,0,1-3.52,14.49l-1.94-.7a59,59,0,0,0,3.41-14,54.43,54.43,0,0,0-.72-15.72,46.34,46.34,0,0,1-.69-7.33,57.28,57.28,0,0,1,.39-7.68v0a409.34,409.34,0,0,0,4.27-52.29c.24-14.94-.41-30.32-2.67-43.64A77.47,77.47,0,0,0,685.55,355a50.21,50.21,0,0,0-11.25-15.12Z"/><path class="cls-1" d="M111.42,389.21c65.07-8.82,132.58-10.11,202-7,2.07.09,1.73,2.05.45,2.89C306.39,390,299.39,395,292.3,400c4.53-3.73,8.9-6.6,13-10.53.28-.27,1.38-2-.11-2.09-60-.92-121,0-184.11,6.41-2.34.24-3.3.29-5.08-.93-1.35-.93-3.09-2.54-4.61-3.6"/><path class="cls-5" d="M369.53,546.09c10.92.21,22.86-.71,33.78-.51,4.59.12,8.28,0,12.36-2.27a92.21,92.21,0,0,0,28-23.6c2.84-3.5,3-6.67.48-10.65-24.27-38.43-57.53-71.38-93.76-103.29,36.9,28,71.21,59.73,99.69,99.82,3.75,5.28,5,9.66.36,16-6.05,8.35-12.11,13.81-19.76,21.25l-12.82,3.66c-15.78-.51-32.57.1-48.34-.41"/><path class="cls-5" d="M91.74,410.5c-15.11,27.2-26.12,53.07-36.92,83.11-.6,1.66,4.4,2.16,3.84,3.89-3.25-.67-8.75-1.15-12-1.83,14.47-31.45,26-55.39,45.08-85.17"/><path class="cls-1" d="M62.05,414.65l.22-.15c2-13.34,3.33-25.11,7.92-36.82A12,12,0,0,1,78.47,370c6.34-1.82,12.77-2.5,19-3.27-8.83,8.44-7.33,22.05,3.43,40.28-1.2-1.28-2-2.19-3.21-3.46-1.16,2-2.62,4.06-5.18,3.71-6.26-.86-9.73,2-12.83,6.16-1.77,2.39-3.59,5.21-5.27,8-1.27,2.12-2.57,2.88-5,1.77-3.45-1.54-5.89-4.4-7.36-8.51"/><path class="cls-1" d="M313.4,402.23c70.12-27.47,129.65-47.52,185.91-52.21,9.79-.84,13.59,4.75,10.38,13.44-6.84,15.74-17.13,31.66-30.44,38.85-12.33,6.65-31.2,11.14-50.18,13.09-11.53,1.19-16.85,2.34-27.22-4.08a62.37,62.37,0,0,0-12-5.84,72.44,72.44,0,0,0-20.58-3.72c-6.28-.3-12.63-.1-18.85,0a9.05,9.05,0,0,1-6.32-2.41l-3.47-3.24-27.27,6.11"/><path class="cls-1" d="M587,312c3.1-19.83,8.17-38.9,17.63-56.28,6-11,19-9.88,29.31-6.64,21.87,6.89,41.88,20.57,60.72,41.55,10.86,13.08,18,24.72,21.57,42.74.56,3.4-1.18,5.18-4.42,5.44-9,.71-24.27,1.21-40.52,1.19-13.46,0-27.6-.43-39.4-1.53l-2.92-.28c-2.16,2.8-3.25,4.75-3.18,5.92.05.76.05,1.43,3.07,1.84-9,1-24-2.78-22.18-6l2.91-5a80.64,80.64,0,0,1-12.89-4.61c-7.64-3.46-11.36-7.8-9.7-18.37"/><path class="cls-9" d="M616,323.4q-.76-3.19-1.55-6.41c-1.15-4.76-1.94-7.32,1.52-11.6q3.68-4.51,7.34-9c2.93-3.6,6.06-4.53,10.63-4.3a429,429,0,0,1,43.6,4c4.8.73,6.59,4.28,6.92,8.42.9,11.4-2.37,20.51-11.82,24.95,1.79-2.59,3.89-6.36-.83-6.33L616,323.4"/><path class="cls-4" d="M621.12,526.66A266.59,266.59,0,0,0,658,523.39a171.52,171.52,0,0,0,65.93-25c3.53-2.24,5.29-5.43,3-6.93-6.71-4.45-19-4.51-28.14-1.42-14.52,4.89-33,15.17-47.16,21.89-11.44,5.4-2.37,7.11,5.95,8.62-10.27,3.29-24.93,5.06-36.43,6.11"/><path class="cls-8" d="M610.38,530.5l55.14-2.07c17.27-.64,34.54-1.28,52.18-1.95,3.7-.13,6.29-1,8.13-2.67s3-4.08,3.88-7.25c3-11.28,5.77-22.49,8.53-33.7,2.87-11.62,5.73-23.24,8.82-34.76.76-2.84,1.54-5.56,2.28-8.17a221.21,221.21,0,0,0,4.82-22.23l2.07-.1c-.09,7.54-3,16.37-4.9,22.9-.75,2.63-1.54,5.38-2.28,8.14-3.11,11.59-6,23.15-8.81,34.72-2.77,11.26-5.55,22.53-8.54,33.73-1,3.55-2.3,6.31-4.5,8.26s-5.21,3-9.42,3.19c-17.65.67-34.92,1.31-52.19,2-18,.67-37.11,1.43-55.46,2.12Z"/><path class="cls-7" d="M610.76,529c18.35-.7,35.33-1.36,53.29-2l52.18-2c3.7-.14,6.28-1,8.13-2.68s3-4.08,3.87-7.25c3-11.27,5.77-22.49,8.54-33.69,2.86-11.63,5.72-23.24,8.81-34.76.77-2.84,1.54-5.56,2.29-8.17,2-6.94,3.75-13.14,4.19-17.77a82.75,82.75,0,0,0-2-27.09c-3.38-14.47-5.36-24.69-8.55-32.17-6.68-15.65-14.54-19.31-22.72-24.87,10.68,4.91,19.86,13.65,24.45,24.58,2.77,6.61,6.88,23.63,8.83,32a85.05,85.05,0,0,1,2,27.76c-.47,4.85-2.25,11.11-4.26,18.13-.75,2.64-1.53,5.38-2.27,8.14-3.11,11.59-6,23.15-8.81,34.72-2.78,11.26-5.56,22.54-8.55,33.73-.94,3.55-2.3,6.31-4.5,8.26s-5.21,3-9.42,3.2L664.12,529c-18,.66-35.54,1.36-53.89,2.05Z"/><path class="cls-7" d="M558.41,309.55c3.92.4,7.93.71,11.93,1s6.67.43,10.75.84l.94.1v.93c0,3.42,2.16,16,4.11,18.92a55.64,55.64,0,0,0,6,7.29c3.24,3.47,6,6.46,7.69,12.25,4.71,16.43,7.58,36,8.91,57.65,1.43,23.42,1.08,49.36-.66,76.66l-2.05-.13c1.73-27.22,2.08-53.08.65-76.41-1.32-21.53-4.16-40.91-8.83-57.2-1.53-5.32-4.16-8.14-7.22-11.41a57.78,57.78,0,0,1-6.21-7.56c-2-3-4.46-15.51-4.46-19.13-3.62-.36-6.08-.46-9.77-.75-4-.3-7.9-.6-12-1Z"/><path class="cls-5" d="M616.57,325.87l52-.71c-7.84.56-43.68,1.37-48.19,4.36-3.92,2.6-5.71,6-9.52,11.92a5.6,5.6,0,0,1-2.18-1.27l7.89-14.3"/><path class="cls-1" d="M236.21,321.74q159-19,322.88-10.08c8.52-29.85,17.62-57.25,29.4-73A1082.63,1082.63,0,0,0,359.61,251c-17,2.75-31.46,6.57-46.76,14.68C282,282,258.7,300.93,236.21,321.74"/><path class="cls-5" d="M676.21,358c3.62,0,7.4,5.61,8.44,12.52S683.61,383,680,383s-7.41-5.61-8.45-12.53S672.59,358,676.21,358"/><path class="cls-9" d="M676.27,373.26c-1.19,3.38-7.1,3.64-9.46-.53-1.66-2.94-1.38-6.35,2.8-6.35.59,0,6.17.21,7.54.28s9.59,1,9.59,1c5.21,4.74-.24,11.34-5.87,5.72-1.54,0-3.07-.08-4.6-.1"/><path class="cls-5" d="M676.27,373.43c-1.19,3.38-7.1,3.64-9.46-.53-1.13-2,2-2.63,4.24-2.63a178,178,0,0,1,17.76,1.27c.37,3.57-3.73,6.2-7.94,2-1.54,0-3.07-.09-4.6-.11"/><path class="cls-5" d="M731.49,356.14c3,0,6.2,4.61,7.19,10.3s-.62,10.31-3.6,10.31-6.2-4.61-7.19-10.31.62-10.3,3.6-10.3"/><path class="cls-9" d="M731.83,368.7c-.91,2.78-5.77,3-7.79-.43-1.42-2.42-1.26-5.23,2.18-5.23.48,0,5.08.17,6.21.23s7.91.81,7.91.81c4.37,3.9,0,9.33-4.72,4.71-1.27,0-2.53-.07-3.79-.09"/><path class="cls-5" d="M731.83,368.84c-.91,2.78-5.77,3-7.79-.43-1-1.65,1.57-2.17,3.44-2.17,4.61,0,10.07.57,14.64,1.05.37,2.94-3,5.1-6.5,1.64l-3.79-.09"/></svg>