<?xml version="1.0" encoding="utf-8"?>
<!-- Generator: Adobe Illustrator 27.7.0, SVG Export Plug-In . SVG Version: 6.00 Build 0)  -->
<svg version="1.1" id="Слой_1" xmlns="http://www.w3.org/2000/svg" xmlns:xlink="http://www.w3.org/1999/xlink" x="0px" y="0px"
	 viewBox="0 0 50 50" style="enable-background:new 0 0 50 50;" xml:space="preserve">
<style type="text/css">
	.Тень{fill:none;}
	.Внешнее_x0020_свечение_x0020_5_x0020_pt_x002E_{fill:none;}
	.Синий_x0020_неон{fill:none;stroke:#8AACDA;stroke-width:7;stroke-linecap:round;stroke-linejoin:round;}
	.Выделение_x0020_желтым{fill:url(#SVGID_1_);stroke:#FFFFFF;stroke-width:0.3629;stroke-miterlimit:1;}
	.Джайв_GS{fill:#FFDD00;}
	.Алиса_GS{fill:#A6D0E4;}
	.st0{fill:#FFFFFF;}
</style>
<linearGradient id="SVGID_1_" gradientUnits="userSpaceOnUse" x1="0" y1="0" x2="6.123234e-17" y2="-1">
	<stop  offset="0" style="stop-color:#656565"/>
	<stop  offset="0.618" style="stop-color:#1B1B1B"/>
	<stop  offset="0.6292" style="stop-color:#545454"/>
	<stop  offset="0.9831" style="stop-color:#3E3E3E"/>
</linearGradient>
<g>
	<path class="st0" d="M27.2,46.9c-1.4,0-2.9-0.7-3.9-1.6L4.7,26.6C3.5,25.7,3,24.3,3,22.8V8.4C3,5.5,5.4,3,8.3,3l0,0h14.6
		c1.4,0,2.8,0.4,3.7,1.4l18.7,18.7c1,1,1.7,2.4,1.7,3.8c0,1.4-0.7,2.8-1.7,3.7L30.8,45.3C30,46.4,28.5,47,27.2,46.9z M8.3,5.5
		c-1.7,0-3,1.3-3,3l0,0V23c0,0.8,0.3,1.4,0.9,2L25,43.6c0.5,0.5,1.3,0.9,2.2,1c0.8,0,1.4-0.3,2-0.9l14.5-14.6c1.2-1,1.3-2.9,0.2-4
		c0-0.1-0.1-0.1-0.2-0.2L25,6.2c-0.5-0.6-1.3-0.8-2.1-0.8C22.9,5.5,8.3,5.5,8.3,5.5z M11.5,15.8c-2.4,0-4.3-2-4.3-4.3s2-4.3,4.3-4.3
		c2.4,0,4.3,2,4.3,4.3C15.9,13.8,13.9,15.8,11.5,15.8L11.5,15.8z M11.5,9.4c-1.1,0-2,0.9-2,2s0.9,2,2,2s2-0.9,2-2S12.6,9.5,11.5,9.4
		L11.5,9.4z"/>
</g>
</svg>
