<?xml version="1.0" encoding="UTF-8"?>
<svg id="_Слой_1" data-name="Слой_1" xmlns="http://www.w3.org/2000/svg" version="1.1" viewBox="0 0 75 75">
  <!-- Generator: Adobe Illustrator 29.7.1, SVG Export Plug-In . SVG Version: 2.1.1 Build 8)  -->
  <defs>
    <style>
      .st0 {
        fill: #fff;
      }
    </style>
  </defs>
  <path class="st0" d="M19.5039062,22.5761719c-.1918945.2880859-.4360352.5117188-.7319336.671875s-.6357422.2402344-1.0200195.2402344c-.3359375,0-.6499023-.0683594-.9418945-.2041016s-.5458984-.3261719-.762207-.5703125c-.2158203-.2441406-.3857422-.5322266-.5097656-.8642578-.1240234-.3310547-.1860352-.6972656-.1860352-1.0976562,0-.3916016.0620117-.7558594.1860352-1.0917969s.2958984-.6259766.5161133-.8701172c.2197266-.2441406.4799805-.4335938.7797852-.5703125.2998047-.1357422.6259766-.2041016.9780273-.2041016s.6616211.0605469.9301758.1806641c.2675781.1201172.4936523.2919922.6777344.515625l1.4399414-1.1757812c-.184082-.2324219-.3920898-.4277344-.6240234-.5878906s-.4736328-.2880859-.7260742-.3837891c-.2519531-.0966797-.5078125-.1660156-.7675781-.2109375-.2602539-.0429688-.5102539-.0654297-.75-.0654297-.6645508,0-1.2763672.1035156-1.8364258.3115234-.5600586.2089844-1.0439453.5068359-1.4516602.8945312-.4082031.3876953-.7260742.8574219-.9541016,1.4101562-.2280273.5517578-.3417969,1.1679688-.3417969,1.8476562s.1137695,1.2958984.3417969,1.8476562c.2280273.5527344.5458984,1.0224609.9541016,1.4101562.4077148.3886719.8916016.6865234,1.4516602.8945312s1.171875.3115234,1.8364258.3115234c.5834961,0,1.1518555-.1201172,1.7036133-.359375.5522461-.2402344,1.0083008-.6123047,1.3681641-1.1162109l-1.5600586-1.1640625Z"/>
  <polygon class="st0" points="27.7480469 23.2724609 24.2802734 23.2724609 24.2802734 16.5039062 22.4082031 16.5039062 22.4082031 25 27.7480469 25 27.7480469 23.2724609"/>
  <rect class="st0" x="29.0078125" y="16.5039062" width="1.8720703" height="8.4960938"/>
  <path class="st0" d="M33.6757812,24.0097656c.4082031.3886719.8916016.6865234,1.4521484.8945312.5595703.2080078,1.171875.3115234,1.8359375.3115234.5839844,0,1.1513672-.1201172,1.7041016-.359375.5517578-.2402344,1.0078125-.6123047,1.3681641-1.1162109l-1.5605469-1.1640625c-.1923828.2880859-.4355469.5117188-.7314453.671875-.296875.1601562-.6367188.2402344-1.0205078.2402344-.3359375,0-.6503906-.0683594-.9423828-.2041016s-.5458984-.3261719-.7617188-.5703125-.3857422-.5322266-.5097656-.8642578c-.1240234-.3310547-.1865234-.6972656-.1865234-1.0976562,0-.3916016.0625-.7558594.1865234-1.0917969s.2958984-.6259766.515625-.8701172c.2207031-.2441406.4804688-.4335938.7802734-.5703125.2998047-.1357422.6259766-.2041016.9775391-.2041016.3525391,0,.6621094.0605469.9306641.1806641.2675781.1201172.4941406.2919922.6777344.515625l1.4404297-1.1757812c-.1845703-.2324219-.3925781-.4277344-.6240234-.5878906-.2324219-.1601562-.4746094-.2880859-.7265625-.3837891-.2519531-.0966797-.5078125-.1660156-.7675781-.2109375-.2597656-.0429688-.5097656-.0654297-.75-.0654297-.6640625,0-1.2763672.1035156-1.8359375.3115234-.5605469.2089844-1.0439453.5068359-1.4521484.8945312s-.7260742.8574219-.9541016,1.4101562c-.2280273.5517578-.3417969,1.1679688-.3417969,1.8476562s.1137695,1.2958984.3417969,1.8476562c.2280273.5527344.5458984,1.0224609.9541016,1.4101562Z"/>
  <polygon class="st0" points="43.2509766 20.9677734 46.7070312 25 49.3232422 25 45.2197266 20.4521484 48.9990234 16.5039062 46.5517578 16.5039062 43.2509766 20.0322266 43.2509766 16.5039062 41.3789062 16.5039062 41.3789062 25 43.2509766 25 43.2509766 20.9677734"/>
  <path class="st0" d="M60.3027344,22.9960938l1.7880859-2.3759766h-2.0878906l-.828125,1.1279297-1.0917969-1.1640625c.2158203-.1123047.4179688-.2421875.6064453-.3896484.1875-.1484375.3535156-.3164062.4980469-.5039062.1435547-.1884766.2578125-.390625.3417969-.6064453s.1259766-.4521484.1259766-.7080078c0-.3603516-.0683594-.6699219-.2041016-.9296875s-.3183594-.4765625-.5458984-.6484375c-.2285156-.171875-.4902344-.2998047-.7861328-.3837891s-.6083984-.1259766-.9365234-.1259766c-.3359375,0-.6640625.0400391-.9833984.1201172-.3203125.0800781-.6044922.2080078-.8525391.3837891s-.4453125.4003906-.59375.671875c-.1484375.2724609-.2216797.6005859-.2216797.984375,0,.2080078.0214844.3955078.0654297.5634766s.1083984.328125.1923828.4804688.1835938.2958984.2998047.4316406c.1162109.1367188.2421875.2802734.3779297.4326172-.2558594.0878906-.4921875.2060547-.7080078.3535156-.2158203.1484375-.40625.3222656-.5693359.5224609-.1640625.1992188-.2929688.421875-.3847656.6660156s-.1376953.5019531-.1376953.7734375c0,.4238281.0839844.7958984.2519531,1.1162109s.3945312.5859375.6777344.7978516c.2841797.2119141.6064453.3701172.9667969.4736328.359375.1044922.7314453.15625,1.1152344.15625.5039062,0,.9580078-.0800781,1.3623047-.2402344.4042969-.1591797.7822266-.4199219,1.1337891-.7792969l.7080078.8037109h2.3164062l-1.8964844-2.0039062ZM56.5712891,17.9443359c.1601562-.1445312.3554688-.2167969.5878906-.2167969.2314453,0,.4296875.0664062.59375.1982422s.2460938.3222656.2460938.5703125c0,.1201172-.0322266.234375-.0957031.3417969-.0644531.1083984-.1445312.2080078-.2402344.2998047-.0957031.0927734-.2001953.1767578-.3115234.2519531-.1123047.0761719-.2167969.1425781-.3125.1982422-.0722656-.0634766-.1503906-.1357422-.234375-.2158203s-.1601562-.1660156-.2275391-.2578125c-.0683594-.0917969-.1259766-.1884766-.1738281-.2880859-.0478516-.1005859-.0722656-.2021484-.0722656-.3066406,0-.2392578.0800781-.4316406.2402344-.5751953ZM57.4775391,23.4521484c-.2041016.1201172-.4462891.1796875-.7265625.1796875-.1435547,0-.2861328-.0253906-.4257812-.078125-.140625-.0517578-.2626953-.1220703-.3662109-.2099609s-.1875-.1953125-.2519531-.3242188c-.0644531-.1269531-.0957031-.2714844-.0957031-.4316406s.0273438-.2998047.0839844-.4199219c.0556641-.1201172.1298828-.2255859.2216797-.3183594.0917969-.0917969.1962891-.1757812.3125-.2519531.1152344-.0751953.2333984-.1494141.3535156-.2216797l1.5,1.6318359c-.2001953.1757812-.4023438.3242188-.6054688.4443359Z"/>
  <path class="st0" d="M26.9018555,29.4697266c-.4560547-.3398438-.9897461-.5859375-1.6020508-.7373047-.6118164-.1523438-1.2578125-.2285156-1.9379883-.2285156h-2.8081055v8.4960938h3.0600586c.6318359,0,1.2363281-.0917969,1.8120117-.2763672.5761719-.1835938,1.0839844-.453125,1.5239258-.8095703.4399414-.3554688.7900391-.7958984,1.050293-1.3203125.2597656-.5234375.3901367-1.1298828.3901367-1.8173828,0-.7763672-.1342773-1.4365234-.4023438-1.9804688s-.6298828-.9853516-1.0859375-1.3261719ZM26.2119141,33.8984375c-.1557617.3320312-.3701172.5996094-.6420898.8037109s-.59375.3496094-.9658203.4375c-.3720703.0888672-.7739258.1328125-1.2060547.1328125h-.972168v-5.0400391h1.1040039c.3920898,0,.7661133.0498047,1.1220703.1494141.355957.1005859.6660156.25.9301758.4501953.2636719.2001953.4741211.4541016.6298828.7617188.15625.3085938.2338867.6699219.2338867,1.0859375,0,.4804688-.0776367.8867188-.2338867,1.21875Z"/>
  <path class="st0" d="M31.7856445,33.6035156h.9243164l1.7758789,3.3964844h2.2441406l-2.1601562-3.5878906c.6000977-.1123047,1.0561523-.3779297,1.3681641-.7978516s.4677734-.9306641.4677734-1.5302734c0-.4960938-.0859375-.9101562-.2578125-1.2421875-.1723633-.3320312-.4042969-.5957031-.6962891-.7919922-.2919922-.1953125-.6318359-.3359375-1.0200195-.4199219s-.7978516-.1259766-1.2299805-.1259766h-3.2880859v8.4960938h1.8720703v-3.3964844ZM31.7856445,30.0878906h1.2241211c.1679688,0,.3398438.0117188.5161133.0361328.1757812.0244141.3320312.0703125.4677734.1376953.1362305.0683594.2480469.1660156.3359375.2939453.0883789.1279297.1323242.3007812.1323242.5166016,0,.2314453-.050293.4121094-.1499023.5400391-.1000977.1279297-.2265625.2216797-.378418.28125-.1518555.0605469-.3217773.0966797-.5097656.1083984s-.3662109.0175781-.5341797.0175781h-1.1040039v-1.9316406Z"/>
  <path class="st0" d="M39.1298828,37l.7080078-1.7998047h3.2998047l.7324219,1.7998047h2.1123047l-3.6962891-8.4960938h-1.5478516l-3.6728516,8.4960938h2.0644531ZM41.4580078,30.9755859l1.0439453,2.640625h-2.0761719l1.0322266-2.640625Z"/>
  <path class="st0" d="M51.46875,33.6884766h1.5244141v1.3798828c-.1757812.0957031-.4121094.1894531-.7080078.28125-.2958984.0927734-.6484375.1386719-1.0556641.1386719-.4003906,0-.7626953-.0683594-1.0869141-.2041016-.3232422-.1357422-.6015625-.3261719-.8339844-.5703125-.2314453-.2441406-.4091797-.5322266-.5332031-.8642578-.1240234-.3310547-.1865234-.6972656-.1865234-1.0976562,0-.3916016.0625-.7558594.1865234-1.0917969s.3017578-.6259766.5332031-.8701172c.2324219-.2441406.5107422-.4335938.8339844-.5703125.3242188-.1357422.6865234-.2041016,1.0869141-.2041016.4794922,0,.8798828.0683594,1.1992188.2041016.3203125.1367188.6083984.3359375.8642578.6005859l1.3203125-1.4404297c-.4326172-.3994141-.9345703-.6816406-1.5058594-.8457031-.5722656-.1640625-1.1982422-.2460938-1.8779297-.2460938-.6650391,0-1.2763672.1035156-1.8369141.3115234-.5595703.2089844-1.0439453.5068359-1.4511719.8945312-.4082031.3876953-.7265625.8574219-.9541016,1.4101562-.2285156.5517578-.3417969,1.1679688-.3417969,1.8476562s.1132812,1.2958984.3417969,1.8476562c.2275391.5527344.5458984,1.0224609.9541016,1.4101562.4072266.3886719.8916016.6865234,1.4511719.8945312.5605469.2080078,1.171875.3115234,1.8369141.3115234.6240234,0,1.2353516-.0634766,1.8359375-.1914062.5996094-.1279297,1.1757812-.3359375,1.7275391-.6240234v-4.4404297h-3.3242188v1.7285156Z"/>
  <rect class="st0" x="36" y="52" width="4" height="6" rx="1.5" ry="1.5"/>
  <path class="st0" d="M44.7871094,39c0,2.2216797-.4599609,3.0253906-.734375,3.3076172-.0908203.0917969-.5810547.0273438-.9375-.0185547-1.0302734-.1337891-2.5839844-.3359375-4.2119141.9423828-2.2077026,1.7339478-2.3088989,3.5593262-1.9577637,4.8567505-3.3601074.5112305-5.9455566,3.4116821-5.9455566,6.9118042v7c0,3.859375,3.1401367,7,7,7,3.859375,0,7-3.140625,7-7v-7c0-3.5080566-2.5975952-6.4137573-5.9684448-6.9152832l-.1253052-.3903809c-.2119141-.6591797-.3134766-1.6757812,1.2333984-2.890625.9648438-.7587891,1.8154297-.6484375,2.71875-.53125.8203125.1064453,1.84375.2373047,2.6279297-.5703125.875-.8994141,1.3007812-2.4375,1.3007812-4.7021484v-1h-2v1ZM43,55v7c0,2.7568359-2.2431641,5-5,5s-5-2.2431641-5-5v-7c0-2.7568359,2.2431641-5,5-5s5,2.2431641,5,5Z"/>
</svg>