<?xml version="1.0" encoding="utf-8"?>
<!-- Generator: Adobe Illustrator 26.2.1, SVG Export Plug-In . SVG Version: 6.00 Build 0)  -->
<svg version="1.1" id="Слой_1" xmlns="http://www.w3.org/2000/svg" xmlns:xlink="http://www.w3.org/1999/xlink" x="0px" y="0px"
	 viewBox="0 0 14.2 18.6" style="enable-background:new 0 0 14.2 18.6;" xml:space="preserve">
<style type="text/css">
	.st0{fill:#FFFFFF;}
</style>
<g>
	<path class="st0" d="M13,6.6h-1.6V4.3C11.4,1.9,9.4,0,7.1,0S2.8,1.9,2.8,4.3v2.4H1.2C0.5,6.6,0,7.2,0,7.8v9.7
		c0,0.6,0.5,1.2,1.2,1.2H13c0.7,0,1.2-0.5,1.2-1.2V7.8C14.2,7.2,13.6,6.6,13,6.6z M3.8,4.3C3.8,2.5,5.3,1,7.1,1
		c1.8,0,3.3,1.5,3.3,3.3v2.4H3.8V4.3z M13.2,17.5c0,0.1-0.1,0.2-0.2,0.2H1.2c-0.1,0-0.2-0.1-0.2-0.2V7.8c0-0.1,0.1-0.2,0.2-0.2H13
		c0.1,0,0.2,0.1,0.2,0.2V17.5z"/>
	<path class="st0" d="M7.1,11.4c-0.7,0-1.2,0.5-1.2,1.2c0,0.7,0.5,1.2,1.2,1.2c0.7,0,1.2-0.5,1.2-1.2C8.3,12,7.8,11.4,7.1,11.4z"/>
</g>
</svg>
