<?xml version="1.0" encoding="UTF-8"?>
<svg id="Layer_1" xmlns="http://www.w3.org/2000/svg" version="1.1" viewBox="0 0 986.3 68.5">
  <!-- Generator: Adobe Illustrator 29.1.0, SVG Export Plug-In . SVG Version: 2.1.0 Build 142)  -->
  <defs>
    <style>
      .st0 {
        fill: #fff;
      }
    </style>
  </defs>
  <path class="st0" d="M24.5,67.7c-2.4,0-4.8-.2-7-.7-2.2-.4-4.6-1.1-6.6-1.7-2.2-.9-4.2-1.7-5.9-2.8-2-1.1-3.5-2.2-5-3.5l12-13.1c1.1,1.5,3.1,2.8,5.2,3.9s4.6,1.7,7,1.7,2.2-.2,3.1-.7c.9-.4,1.3-1.1,1.3-2.2s-.2-1.1-.4-1.3c-.2-.4-.9-.9-1.5-1.1-.9-.4-1.7-.9-3.3-1.3-1.3-.4-3.1-1.1-5-1.7-2-.7-3.9-1.5-5.7-2.4-1.7-.9-3.5-2-4.8-3.3s-2.6-2.8-3.3-4.8c-.9-2-1.3-4.2-1.3-6.8,0-3.7.7-6.8,2.2-9.2,1.5-2.6,3.5-4.6,5.7-6.3,2.4-1.5,5-2.8,7.9-3.5,2.8-.7,5.9-1.1,8.7-1.1s7.9.7,11.8,2.2c3.9,1.5,7.4,3.7,10.5,6.6l-12.2,12.5c-1.3-1.7-3.1-2.8-4.8-3.7-2-.9-3.7-1.3-5.2-1.3s-2.6.2-3.5.7c-.9.4-1.3,1.1-1.3,2s.4,1.5,1.3,2c.9.4,2.4,1.1,4.4,1.7,2.2.7,4.4,1.5,6.6,2.4,2.4.9,4.4,2,6.3,3.5,2,1.3,3.5,3.1,4.8,5.2,1.3,2,2,4.6,2,7.7s-.7,6.6-2.2,9.2c-1.3,2.6-3.3,4.8-5.5,6.6s-4.8,3.1-7.7,3.9c-2.6.4-5.7.9-8.5.9v-.2Z"/>
  <path class="st0" d="M78.1,67.7c-3.7,0-7-.7-10.3-1.7-3.1-1.1-5.7-2.6-8.1-4.8-2.2-2-3.9-4.6-5.2-7.4s-2-6.1-2-9.6.7-6.8,2-9.6,3.1-5.5,5.5-7.4,5-3.7,8.1-4.8c3.1-1.1,6.6-1.7,10.1-1.7s3.1.2,4.6.4c1.5.2,3.1.7,4.4,1.1s2.6.9,3.9,1.5c1.1.7,2.2,1.1,3.1,1.7l-9.6,13.8c-.7-.7-1.5-1.3-2.6-1.7s-2.2-.7-3.1-.7-1.7.2-2.6.4-1.7.9-2.4,1.3c-.7.7-1.3,1.3-1.7,2.4-.4.9-.7,2-.7,3.3s.2,2.2.7,3.3c.4.9,1.1,1.7,1.7,2.2.7.7,1.5,1.1,2.4,1.3s1.7.4,2.6.4,2.2-.2,3.3-.7c1.1-.4,2-.9,2.6-1.7l9.6,13.3c-1.7,1.5-4.2,2.6-7,3.7s-5.9,1.7-9.2,1.7h-.1Z"/>
  <path class="st0" d="M151.3,44.1c0,3.7-.7,7-2,10.1-1.3,2.8-3.3,5.5-5.5,7.4s-5,3.5-7.9,4.6c-3.1,1.1-6.1,1.5-9.4,1.5s-6.3-.4-9.4-1.5c-3.3-1.1-5.9-2.6-8.1-4.6s-4.2-4.6-5.5-7.4-2-6.3-2-10.1.7-7,2-9.8,3.1-5.2,5.5-7.4c2.2-2,4.8-3.5,7.9-4.6s6.1-1.5,9.4-1.5,6.6.4,9.4,1.5c3.1,1.1,5.7,2.6,7.9,4.6s4.2,4.4,5.5,7.4,2.2,6.1,2.2,9.8ZM126.4,36.8c-2.2,0-3.7.7-5,2.2s-2,3.1-2,5,.7,3.7,2,5.2,3.1,2.2,5,2.2,3.7-.7,5-2.2,2-3.3,2-5.2-.7-3.7-2-5c-1.1-1.3-2.8-2.2-5-2.2Z"/>
  <path class="st0" d="M179.8,67.2c-5.9,0-10.3-1.3-12.9-3.7-2.8-2.4-4.2-6.3-4.2-11.8v-15.5h-6.1v-13.6h6.1v-9.8h18.6v9.8h9.4v13.6h-9.4v11.6c0,2.2.4,3.5,1.3,4.4.9.7,2.2,1.1,3.7,1.1s1.3,0,2-.2,1.1-.2,1.5-.4v13.1c-1.1.4-2.4.9-4.2,1.1-2.2.2-3.9.4-5.9.4h0Z"/>
  <path class="st0" d="M216.5,67.2c-5.9,0-10.3-1.3-12.9-3.7-2.8-2.4-4.2-6.3-4.2-11.8v-15.5h-6.1v-13.6h6.1v-9.8h18.6v9.8h9.4v13.6h-9.4v11.6c0,2.2.4,3.5,1.3,4.4.9.7,2.2,1.1,3.7,1.1s1.3,0,2-.2,1.1-.2,1.5-.4v13.1c-1.1.4-2.4.9-4.2,1.1-2,.2-3.9.4-5.9.4h0Z"/>
  <path class="st0" d="M255.7,7.3h25.8c2.8,0,5.9.2,8.7.9s5.5,1.5,7.9,3.1c2.2,1.5,4.2,3.5,5.5,5.9s2.2,5.7,2.2,9.4-.9,6.8-2.6,9.6c-1.7,2.8-4.4,5-7.7,6.6l15.1,24.3h-23.2l-11.4-21.4h-.7v21.4h-19.7V7.4h.1ZM275.1,32.7h3.9c.7,0,1.3,0,2.2-.2.9-.2,1.5-.4,2.2-.7.7-.4,1.3-.9,1.7-1.5s.7-1.5.7-2.6-.2-2-.7-2.6-.9-1.1-1.5-1.3-1.3-.4-2-.7c-.7,0-1.3-.2-2-.2h-4.8v9.8h.3Z"/>
  <path class="st0" d="M364.2,44.1c0,3.7-.7,7-2,10.1-1.3,2.8-3.3,5.5-5.5,7.4s-5,3.5-7.9,4.6c-3.1,1.1-6.1,1.5-9.4,1.5s-6.3-.4-9.4-1.5-5.7-2.6-7.9-4.6-4.2-4.6-5.5-7.4-2-6.3-2-10.1.7-7,2-9.8,3.1-5.2,5.5-7.4c2.2-2,4.8-3.5,7.9-4.6s6.1-1.5,9.4-1.5,6.6.4,9.4,1.5c3.1,1.1,5.7,2.6,7.9,4.6,2.2,2,4.2,4.4,5.5,7.4s2,6.1,2,9.8ZM339.2,36.8c-2.2,0-3.7.7-5,2.2s-2,3.1-2,5,.7,3.7,2,5.2,3.1,2.2,5,2.2,3.7-.7,5-2.2,2-3.3,2-5.2-.7-3.7-2-5c-1.1-1.3-2.8-2.2-5-2.2Z"/>
  <path class="st0" d="M424.5,44.1c0,2.8-.4,5.7-1.3,8.5s-2.2,5.2-3.7,7.4c-1.7,2.2-3.7,3.9-6.1,5.2s-5.2,2-8.5,2-5.2-.4-7.7-1.5-4.4-2.4-5.5-4.2h-.4v4.6h-17.3V3.3h19v22.5h.2c1.3-1.5,2.8-2.6,5-3.5s4.2-1.1,6.3-1.1c3.3,0,6.1.7,8.5,2s4.6,3.1,6.1,5.2c1.7,2.2,2.8,4.6,3.7,7.2,1.1,2.8,1.5,5.5,1.5,8.3l.2.2ZM406.6,44.1c0-2-.7-3.7-1.7-5-1.3-1.5-3.1-2.2-5.2-2.2s-4.2.7-5.5,2.2-2,3.1-2,5,.7,3.7,2,5.2,3.1,2.2,5.5,2.2,4.2-.7,5.2-2.2c1.3-1.3,1.7-3.1,1.7-5.2Z"/>
  <path class="st0" d="M433.3,9.9c0-1.3.2-2.6.9-3.7.4-1.1,1.3-2.2,2.2-3.1s2-1.5,3.3-2.2c1.3-.4,2.4-.9,3.9-.9s2.6.2,3.7.9c1.1.4,2.2,1.3,3.1,2.2s1.5,2,2.2,3.1c.4,1.1.9,2.4.9,3.7s-.2,2.6-.9,3.9c-.4,1.1-1.3,2.2-2.2,3.1s-2,1.5-3.1,2-2.4.7-3.7.7-2.6-.2-3.9-.7-2.2-1.1-3.3-2c-.9-.9-1.5-2-2.2-3.1-.7-1.3-.9-2.6-.9-3.9ZM433.5,22.4h19v43.5h-19V22.4Z"/>
  <path class="st0" d="M463.9,22.4h18.6v4.8h.2c1.1-1.5,2.8-3.1,4.8-4.2,2.2-1.1,4.6-1.7,7.4-1.7s5.5.7,7.7,1.7c2,1.1,3.5,2.6,4.8,4.4,1.1,1.7,2,3.7,2.4,5.9.4,2.2.7,4.4.7,6.6v26.5h-19v-23.6c0-2.2-.4-3.7-1.1-4.6s-1.7-1.3-3.1-1.3-2.4.4-3.1,1.5c-.9,1.1-1.1,2.4-1.1,4.4v23.2h-19V22.5h-.2,0Z"/>
  <path class="st0" d="M557.7,52.2c0,2.8-.7,5.5-1.7,7.4-1.3,2-2.8,3.5-4.6,4.8-2,1.1-3.9,2-6.1,2.6-2.2.4-4.4.9-6.3.9-3.7,0-7.4-.4-11.2-1.5s-6.8-2.6-9.4-4.6l9.4-10.9c1.3,1.3,2.8,2.2,4.6,2.8s3.5,1.1,5.2,1.1,1.3-.2,2-.4.9-.7.9-1.3-.4-1.3-1.5-1.7-2.8-.9-5.2-1.5c-1.3-.4-2.8-.9-4.2-1.5-1.5-.7-2.8-1.5-3.9-2.6s-2.2-2.4-2.8-3.9c-.9-1.5-1.1-3.3-1.1-5.5s.7-5.2,2-7.2,2.8-3.5,4.8-4.8,3.9-2.2,6.1-2.6,4.4-.9,6.3-.9c3.3,0,6.8.4,10.1,1.5s6.3,2.4,9,4.2l-9,10.7c-1.3-.9-2.8-1.5-4.2-2-1.5-.4-2.8-.7-4.2-.7s-1.7.2-2.4.4c-.7.2-.9.7-.9,1.5s.4.9,1.1,1.3c.7.2,2.2.7,4.8,1.1,1.7.4,3.3.9,5,1.5,1.5.7,3.1,1.5,4.4,2.6s2.4,2.4,3.1,3.9c-.4,1.3,0,3.3,0,5.2h0Z"/>
  <path class="st0" d="M612.8,44.1c0,3.7-.7,7-2,10.1-1.3,2.8-3.3,5.5-5.5,7.4s-5,3.5-7.9,4.6c-3.1,1.1-6.1,1.5-9.4,1.5s-6.3-.4-9.4-1.5-5.7-2.6-7.9-4.6-4.2-4.6-5.5-7.4-2-6.3-2-10.1.7-7,2-9.8,3.1-5.2,5.5-7.4c2.2-2,4.8-3.5,7.9-4.6s6.1-1.5,9.4-1.5,6.6.4,9.4,1.5c3.1,1.1,5.7,2.6,7.9,4.6s4.2,4.4,5.5,7.4c1.3,2.8,2,6.1,2,9.8ZM587.9,36.8c-2.2,0-3.7.7-5,2.2s-2,3.1-2,5,.7,3.7,2,5.2,3.1,2.2,5,2.2,3.7-.7,5-2.2,2-3.3,2-5.2-.7-3.7-2-5-3.1-2.2-5-2.2Z"/>
  <path class="st0" d="M624.4,22.4h18.6v4.8h.2c1.1-1.5,2.8-3.1,4.8-4.2,2.2-1.1,4.6-1.7,7.4-1.7s5.5.7,7.7,1.7c2,1.1,3.5,2.6,4.8,4.4,1.1,1.7,2,3.7,2.4,5.9.4,2.2.7,4.4.7,6.6v26.5h-19v-23.6c0-2.2-.4-3.7-1.1-4.6s-1.7-1.3-3.1-1.3-2.4.4-3.1,1.5c-.9,1.1-1.1,2.4-1.1,4.4v23.2h-19V22.5h-.2Z"/>
  <path class="st0" d="M738.4,43.6h-16.8v23.6h-21V4.9h20.8v21h17.1V4.9h21v62.1h-21v-23.4h0Z"/>
  <path class="st0" d="M819.1,44.7c0,3.7-.7,7-2,10.1-1.3,2.8-3.3,5.5-5.5,7.4s-5,3.5-7.9,4.6c-3.1,1.1-6.1,1.5-9.4,1.5s-6.3-.4-9.4-1.5-5.7-2.6-7.9-4.6-4.2-4.6-5.5-7.4-2-6.3-2-10.1.7-7,2-9.8,3.1-5.2,5.5-7.4c2.2-2,4.8-3.5,7.9-4.6s6.1-1.5,9.4-1.5,6.6.4,9.4,1.5c3.1,1.1,5.7,2.6,7.9,4.6s4.2,4.4,5.5,7.4c1.3,2.8,2,6.1,2,9.8ZM794.1,37.5c-2.2,0-3.7.7-5,2.2s-2,3.1-2,5,.7,3.7,2,5.2,3.1,2.2,5,2.2,3.7-.7,5-2.2,2-3.3,2-5.2-.7-3.7-2-5c-1.3-1.5-3.1-2.2-5-2.2Z"/>
  <path class="st0" d="M828.9,23.7h18.6v4.8h.2c1.1-1.5,2.8-3.1,4.8-4.2,2.2-1.1,4.6-1.7,7.4-1.7s5.5.7,7.7,1.7c2,1.1,3.5,2.6,4.8,4.4,1.1,1.7,2,3.7,2.4,5.9.4,2.2.7,4.4.7,6.6v26.5h-19v-23.6c0-2.2-.4-3.7-1.1-4.6s-1.7-1.3-3.1-1.3-2.4.4-3.1,1.5c-.9,1.1-1.1,2.4-1.1,4.4v23.2h-19V23.8h-.2Z"/>
  <path class="st0" d="M886.7,45.2c0-2.8.4-5.5,1.3-8.3.9-2.6,2.2-5,3.7-7.2,1.7-2.2,3.7-3.9,6.1-5.2,2.4-1.3,5.2-2,8.5-2s4.2.4,6.3,1.1c2.2.9,3.7,2,5,3.5h.2V4.6h19v62.6h-17.3v-4.6h-.2c-1.3,1.7-3.1,3.1-5.5,4.2s-5,1.5-7.7,1.5-6.1-.7-8.5-2-4.6-3.1-6.1-5.2c-1.7-2.2-2.8-4.6-3.7-7.4-.9-2.6-1.3-5.5-1.3-8.3l.2-.2ZM904.4,45.2c0,2.2.7,3.9,1.7,5.2,1.3,1.3,3.1,2.2,5.2,2.2s4.2-.7,5.5-2.2,2-3.3,2-5.2-.7-3.7-2-5c-1.3-1.5-3.1-2.2-5.5-2.2s-4.2.7-5.2,2.2c-1.1,1.5-1.7,3.3-1.7,5Z"/>
  <path class="st0" d="M968.5,39.5c0-1.3-.4-2.4-1.3-2.8-.9-.7-2.2-.9-3.5-.9s-3.5.4-5,1.1-3.1,1.5-4.2,2.6l-9.6-9.4c2.6-2.6,5.9-4.6,9.4-5.9,3.7-1.3,7.4-2,11.2-2s7.7.7,10.3,1.7,4.8,2.8,6.3,4.8,2.6,4.4,3.3,7.2c.7,2.6.9,5.7.9,8.5v23h-17.3v-3.5h-.2c-1.1,1.7-2.6,2.8-4.8,3.5-2,.7-3.9,1.1-5.9,1.1s-3.5-.2-5.2-.7c-1.7-.4-3.5-1.3-4.8-2.4-1.5-1.1-2.6-2.6-3.5-4.4s-1.3-3.9-1.3-6.6.9-5.5,2.4-7.4,3.5-3.5,5.9-4.4c2.4-1.1,5.2-1.7,8.1-2.2,3.1-.7,6.1-.9,9-1.1h0l-.2.2ZM968.7,49.1c-2.8,0-5,.2-6.8.9-1.7.7-2.6,1.7-2.6,3.5s.2,1.1.4,1.5.7.7,1.1,1.1c.4.2.9.4,1.5.7.4.2,1.1.2,1.5.2,1.7,0,3.3-.7,4.4-1.7s1.7-2.6,1.7-4.4v-1.5h-1.3v-.2h0Z"/>
</svg>