<?xml version="1.0" encoding="utf-8"?>
<!-- Generator: Adobe Illustrator 25.2.1, SVG Export Plug-In . SVG Version: 6.00 Build 0)  -->
<svg version="1.1" id="Слой_1" xmlns="http://www.w3.org/2000/svg" xmlns:xlink="http://www.w3.org/1999/xlink" x="0px" y="0px"
	 viewBox="0 0 181.9 35.6" style="enable-background:new 0 0 181.9 35.6;" xml:space="preserve">
<style type="text/css">
	.st0{fill:#EA1D23;}
	.st1{fill:#909295;}
</style>
<g>
	<g>
		<polygon class="st0" points="25,5 17.5,24.2 9.7,5 5.3,5 0,34.8 6.2,34.8 9,16.8 9.1,16.8 16,35.2 18.2,35.2 25.3,16.8 25.4,16.8 
			27.9,34.8 34.1,34.8 29.4,5 		"/>
		<path class="st0" d="M51.4,5C42,5,35.8,11.6,35.8,20.3c0,8.6,6,15.3,15.6,15.3c9.6,0,15.6-6.8,15.6-15.3C67.1,11.6,60.9,5,51.4,5z
			 M51.4,30c-6.8,0-9.3-5.5-9.3-10c0-4.7,3.4-9.4,9.3-9.4c5.8,0,9.3,4.7,9.3,9.4C60.7,24.5,58.3,30,51.4,30z"/>
		<path class="st0" d="M89.4,14.5c0-6.2-4.3-8.7-10.6-8.7h-8.3v29h6.2V23.1h0.1l7.7,11.7h7.5L83,22.6C87.2,21.9,89.4,18.2,89.4,14.5
			z M77.5,19.2h-0.8v-8.7h0.8c3.3,0,5.7,0.7,5.7,4.3C83.3,18.2,80.9,19.2,77.5,19.2z"/>
		<path class="st0" d="M108.6,24h6.7c-0.1,3.5-3.4,6.6-7.2,6.6c-6,0-8.9-5.4-8.9-10.2c0-4.8,2.9-10.4,8.9-10.4c3.3,0,6,2,7.2,4.6
			l5.5-2.7c-2.4-4.4-7.1-6.9-12.5-6.9c-9.4,0-15.4,7.1-15.4,15.4c0,8,5.8,15.2,15.1,15.2c9.8,0,14.4-7.3,14.4-15.5v-0.7h-13.6V24z"
			/>
		<path class="st0" d="M135.4,5l-12.3,29.8h6.5l2.6-6.1h11l2.4,6.1h6.6L140.2,5H135.4z M134,24.1l3.5-10.6h0.1l3.9,10.6H134z"/>
		<polygon class="st0" points="175.7,5.8 175.7,25.3 175.6,25.3 159,5 154.5,5 154.5,34.8 160.7,34.8 160.7,15.1 160.8,15.1 
			177.4,35.4 181.9,35.4 181.9,5.8 		"/>
	</g>
	<path class="st1" d="M135.3,0l-27.1,19c-1.4,0.1-2.4,1.2-2.4,2.6c0,1.5,1.2,2.6,2.6,2.6c1.2,0,2.2-0.8,2.5-1.8L135.3,0z"/>
</g>
</svg>
