<?xml version="1.0" encoding="utf-8"?>
<!-- Generator: Adobe Illustrator 25.0.1, SVG Export Plug-In . SVG Version: 6.00 Build 0)  -->
<svg version="1.1" id="Слой_1" xmlns="http://www.w3.org/2000/svg" xmlns:xlink="http://www.w3.org/1999/xlink" x="0px" y="0px"
	 viewBox="0 0 40 40" style="enable-background:new 0 0 40 40;" xml:space="preserve">
<g>
	<path d="M15.2,1.1L14.3,2L14,1.7c-0.9-0.9-2.4-0.9-3.3,0L9.3,3C7,1.8,4.2,2.8,3,5.1C2.3,6.4,2.3,8,3,9.3l-1.3,1.3
		c-0.9,0.9-0.9,2.4,0,3.3l0.4,0.4l-0.9,0.9c-1.5,1.5-1.5,4,0,5.5c0,0,0,0,0,0l18.1,18.1c1.5,1.5,4,1.5,5.5,0c0,0,0,0,0,0l14.1-14.1
		c1.5-1.5,1.5-4,0-5.5c0,0,0,0,0,0L20.8,1.1C19.2-0.4,16.8-0.4,15.2,1.1C15.2,1.1,15.2,1.1,15.2,1.1z M5.8,5.8c0.8-0.8,2-0.8,2.8,0
		c0.8,0.8,0.8,2,0,2.8c-0.8,0.8-2,0.8-2.8,0c0,0,0,0,0,0C5.1,7.8,5.1,6.6,5.8,5.8z M37.4,20.7c0.7,0.7,0.7,1.9,0,2.6c0,0,0,0,0,0
		L23.3,37.4c-0.7,0.7-1.9,0.7-2.6,0c0,0,0,0,0,0L2.6,19.3c-0.7-0.7-0.7-1.9,0-2.6c0,0,0,0,0,0l0.9-0.9l0.7,0.7
		c0.9,0.9,2.3,0.9,3.2,0c0,0,0,0,0,0l9-9c0.9-0.9,0.9-2.3,0-3.2c0,0,0,0,0,0l-0.7-0.7l0.9-0.9c0.7-0.7,1.9-0.7,2.6,0c0,0,0,0,0,0
		L37.4,20.7z"/>
	<path d="M24.4,25.8c-0.7,0.6-1.6,0.9-2.5,1c-1,0.1-2-0.2-2.8-0.7L20,24c0.4,0.3,0.9,0.4,1.4,0.5c0.5,0,1-0.1,1.4-0.3l-2.5-2.5
		l-0.2,0.1c-0.4,0.2-0.9,0.3-1.3,0.5c-0.4,0.1-0.9,0.2-1.3,0.2c-0.4,0-0.8-0.1-1.2-0.2c-0.4-0.2-0.8-0.4-1.1-0.7
		c-0.3-0.3-0.5-0.7-0.7-1.1c-0.2-0.4-0.2-0.8-0.2-1.2c0-0.4,0.1-0.9,0.2-1.3c0.2-0.5,0.4-0.9,0.7-1.3L14,15.4l1.2-1.2l1.1,1.1
		c0.7-0.5,1.5-0.8,2.3-0.8c0.3,0,0.7,0,1,0.1c0.3,0.1,0.6,0.2,0.8,0.3l-0.8,2.1c-0.2-0.1-0.5-0.2-0.8-0.2c-0.3,0-0.6,0-0.9,0.2
		l2.3,2.3c0.5-0.2,1-0.4,1.5-0.5c0.4-0.1,0.9-0.2,1.3-0.2c0.4,0,0.8,0.1,1.2,0.2c0.4,0.2,0.8,0.4,1.1,0.7c0.4,0.4,0.6,0.8,0.8,1.2
		c0.2,0.4,0.2,0.9,0.2,1.3c0,0.4-0.1,0.9-0.3,1.3c-0.2,0.4-0.4,0.8-0.7,1.2l1.1,1.1l-1.2,1.2L24.4,25.8z M16.8,19.8
		c0.2,0.2,0.5,0.3,0.7,0.3c0.4,0,0.7-0.1,1.1-0.2l-1.9-1.9c-0.2,0.3-0.3,0.6-0.3,1C16.4,19.3,16.5,19.6,16.8,19.8L16.8,19.8z
		 M23.8,21.2c-0.2-0.2-0.5-0.3-0.8-0.3c-0.4,0-0.7,0-1.1,0.2l2,2c0.2-0.3,0.2-0.6,0.2-0.9C24.1,21.8,24,21.5,23.8,21.2L23.8,21.2z"
		/>
</g>
</svg>
