<svg xmlns="http://www.w3.org/2000/svg" width="230" height="26" viewBox="0 0 230 26"><g><g><path fill="#357abc" d="M19.027 3.754l-.9 4.63h8.003l-.694 3.567h-8.002l-.9 4.628h8.894l-.694 3.57H12.076L15.956.185h12.658l-.693 3.568z"/></g><g><path fill="#357abc" d="M30.92 14.164L28.008 8.37h3.725l1.504 3.269h.168l2.655-3.27h3.846l-5.261 5.794 2.971 5.985h-3.702l-1.557-3.366h-.168l-2.793 3.366H25.67z"/></g><g><path fill="#357abc" d="M41.372 8.37h2.957l-.276 1.419h.192c.385-.497.916-.921 1.594-1.274.677-.353 1.464-.53 2.362-.53.753 0 1.44.157 2.06.47a4.352 4.352 0 0 1 1.55 1.298c.414.552.698 1.214.853 1.982.154.77.143 1.61-.034 2.525a8.097 8.097 0 0 1-2.57 4.506 7.519 7.519 0 0 1-2.056 1.298 5.737 5.737 0 0 1-2.242.469c-.898 0-1.617-.176-2.156-.528-.541-.354-.907-.778-1.1-1.275l-.326 1.682-.958 4.928h-3.15zm5.543 9.014c.408-.16.784-.384 1.128-.672.345-.29.645-.641.902-1.06.258-.415.437-.88.536-1.392.1-.513.1-.977.007-1.395a2.584 2.584 0 0 0-.491-1.057 2.386 2.386 0 0 0-.867-.673 2.677 2.677 0 0 0-1.144-.241c-.416 0-.827.076-1.233.229a3.877 3.877 0 0 0-1.127.66 4.338 4.338 0 0 0-.902 1.058 4.205 4.205 0 0 0-.54 1.419c-.103.529-.107 1-.012 1.418.095.416.26.768.492 1.057.233.288.522.51.869.66.347.154.728.23 1.145.23.417 0 .829-.08 1.237-.241z"/></g><g><path fill="#357abc" d="M63.224 8.109a3.653 3.653 0 0 0-2.015.042 5.579 5.579 0 0 0-1.973 1.06 4.063 4.063 0 0 0-.731.794h-.192l.317-1.634h-2.956l-2.29 11.777h3.15l1.127-5.798c.094-.484.248-.93.465-1.341.216-.411.477-.77.785-1.076a3.382 3.382 0 0 1 1.04-.712 3.023 3.023 0 0 1 1.227-.254c.337 0 .616.028.838.084.22.056.418.132.592.228z"/></g><g><path fill="#357abc" d="M74.15 17.311a8.78 8.78 0 0 1-2.654 2.332c-1.036.593-2.22.89-3.55.89-.897 0-1.695-.157-2.396-.469a4.585 4.585 0 0 1-1.729-1.31 4.7 4.7 0 0 1-.925-1.983c-.164-.76-.158-1.599.02-2.512a7.507 7.507 0 0 1 .927-2.416 8.071 8.071 0 0 1 3.86-3.352 6.607 6.607 0 0 1 2.562-.505c.946 0 1.756.155 2.432.468.677.312 1.21.746 1.6 1.298.388.553.638 1.206.748 1.96.11.752.08 1.57-.092 2.451l-.056.288c-.035.097-.06.185-.075.265-.032.08-.057.169-.076.265h-8.87c-.029.48.023.893.157 1.237.133.344.325.633.577.866.251.231.543.4.875.504.332.104.683.156 1.051.156.721 0 1.35-.164 1.887-.492a4.815 4.815 0 0 0 1.358-1.238zm-1.974-4.566a1.83 1.83 0 0 0-.068-.696 1.88 1.88 0 0 0-.39-.721 2.115 2.115 0 0 0-.756-.554c-.318-.144-.716-.216-1.197-.216-.672 0-1.302.193-1.89.577-.588.385-1.054.92-1.396 1.61z"/></g><g><path fill="#357abc" d="M80.517 20.533c-.768 0-1.435-.096-1.998-.29-.565-.19-1.036-.443-1.417-.756a3.695 3.695 0 0 1-.905-1.081 4.128 4.128 0 0 1-.458-1.237l3.046-1.202c.155.609.43 1.06.83 1.357.399.297.879.445 1.44.445.576 0 1.053-.104 1.43-.313.378-.207.595-.456.65-.744.063-.321-.027-.581-.268-.782-.243-.2-.693-.38-1.35-.541l-1.588-.36a4.778 4.778 0 0 1-1.067-.385 3.403 3.403 0 0 1-.94-.673 2.577 2.577 0 0 1-.6-.986c-.135-.384-.15-.832-.052-1.345.114-.577.336-1.09.673-1.54.335-.447.75-.828 1.242-1.14a6.05 6.05 0 0 1 1.667-.721 7.34 7.34 0 0 1 1.936-.252c1.122 0 2.08.22 2.877.66.794.44 1.306 1.142 1.537 2.104l-2.93 1.105c-.135-.465-.399-.801-.79-1.01a2.595 2.595 0 0 0-1.237-.312c-.45 0-.86.092-1.232.276-.371.185-.586.42-.642.709-.053.273.045.489.295.65.249.16.6.304 1.057.432l1.719.433c1.146.288 1.949.75 2.41 1.382.463.633.61 1.382.44 2.247a3.736 3.736 0 0 1-.644 1.467 5.214 5.214 0 0 1-1.262 1.237 6.318 6.318 0 0 1-1.752.854 7.012 7.012 0 0 1-2.116.312z"/></g><g><path fill="#357abc" d="M92.127 20.533c-.77 0-1.436-.096-2-.29-.563-.19-1.034-.443-1.415-.756a3.695 3.695 0 0 1-.906-1.081 4.128 4.128 0 0 1-.457-1.237l3.045-1.202c.155.609.43 1.06.83 1.357.399.297.879.445 1.44.445.577 0 1.054-.104 1.43-.313.378-.207.595-.456.65-.744.063-.321-.027-.581-.268-.782-.242-.2-.692-.38-1.35-.541l-1.588-.36a4.778 4.778 0 0 1-1.066-.385 3.403 3.403 0 0 1-.94-.673 2.577 2.577 0 0 1-.601-.986c-.134-.384-.15-.832-.051-1.345.113-.577.335-1.09.672-1.54.336-.447.75-.828 1.243-1.14a6.05 6.05 0 0 1 1.667-.721 7.34 7.34 0 0 1 1.936-.252c1.12 0 2.08.22 2.876.66.795.44 1.307 1.142 1.538 2.104l-2.931 1.105c-.134-.465-.398-.801-.79-1.01a2.595 2.595 0 0 0-1.237-.312c-.45 0-.86.092-1.231.276-.372.185-.587.42-.643.709-.053.273.045.489.295.65.249.16.6.304 1.057.432l1.719.433c1.146.288 1.949.75 2.41 1.382.463.633.61 1.382.44 2.247a3.736 3.736 0 0 1-.644 1.467 5.214 5.214 0 0 1-1.262 1.237 6.318 6.318 0 0 1-1.752.854 7.012 7.012 0 0 1-2.116.312z"/></g><g><path fill="#357abc" d="M11.301 5.13H1.916A1.574 1.574 0 0 1 .347 3.563c0-.863.706-1.57 1.57-1.57H11.3c.863 0 1.57.707 1.57 1.57 0 .863-.707 1.569-1.57 1.569z"/></g><g><path fill="#357abc" d="M10.014 11.72H3.088a1.574 1.574 0 0 1-1.57-1.569c0-.863.707-1.569 1.57-1.569h6.926c.863 0 1.569.706 1.569 1.57 0 .862-.706 1.568-1.57 1.568z"/></g><g><path fill="#357abc" d="M8.736 18.31h-4.35a1.573 1.573 0 0 1-1.569-1.57c0-.863.706-1.569 1.568-1.569h4.351c.863 0 1.57.706 1.57 1.57 0 .862-.707 1.568-1.57 1.568z"/></g><g><path d="M120.297 17.005c-.952 1.149-2.074 2.024-3.366 2.626-1.293.6-2.738.902-4.336.902-1.436 0-2.77-.261-3.999-.781a9.93 9.93 0 0 1-3.19-2.128 9.93 9.93 0 0 1-2.129-3.191c-.52-1.23-.78-2.554-.78-3.972 0-1.418.26-2.742.78-3.972a9.93 9.93 0 0 1 2.128-3.191 9.93 9.93 0 0 1 3.191-2.128c1.23-.52 2.563-.781 4-.781 1.543 0 2.903.269 4.08.808 1.175.539 2.221 1.32 3.136 2.343l-2.558 2.478a6.846 6.846 0 0 0-1.979-1.59c-.746-.394-1.63-.592-2.653-.592-.898 0-1.742.158-2.53.47a6.149 6.149 0 0 0-2.062 1.334 6.304 6.304 0 0 0-1.387 2.088c-.34.817-.51 1.728-.51 2.733 0 1.006.17 1.917.51 2.733a6.279 6.279 0 0 0 1.387 2.087 6.103 6.103 0 0 0 2.061 1.333 6.763 6.763 0 0 0 2.531.472c1.077 0 2.033-.22 2.868-.66.835-.44 1.576-1.064 2.222-1.872z"/></g><g><path d="M130.37 18.702h-.216a5.97 5.97 0 0 1-1.495 1.292c-.584.359-1.333.539-2.249.539a5.469 5.469 0 0 1-1.925-.337 4.999 4.999 0 0 1-1.576-.93 4.134 4.134 0 0 1-1.05-1.426 4.4 4.4 0 0 1-.377-1.831c0-.682.135-1.297.404-1.845a4.195 4.195 0 0 1 1.131-1.414 5.116 5.116 0 0 1 1.71-.902 7.105 7.105 0 0 1 2.141-.31c.862 0 1.571.068 2.128.202a10.32 10.32 0 0 1 1.373.418v-.404c0-.701-.279-1.28-.835-1.737-.556-.458-1.248-.687-2.073-.687-1.222 0-2.254.512-3.097 1.535l-2.559-1.75c1.401-1.76 3.313-2.64 5.736-2.64 2.047 0 3.61.48 4.686 1.44 1.077.962 1.616 2.385 1.616 4.27v7.917h-3.474zm-1.28-4.43a5.595 5.595 0 0 0-1.44-.175c-.845 0-1.496.184-1.953.552-.458.368-.687.82-.687 1.36 0 .538.22.969.66 1.292.44.323.946.485 1.521.485a3.22 3.22 0 0 0 1.293-.256c.395-.17.731-.394 1.01-.673a2.96 2.96 0 0 0 .646-.97c.153-.367.23-.75.23-1.144a7.352 7.352 0 0 0-1.28-.471z"/></g><g><path d="M141.734 20.533c-.862 0-1.63-.108-2.302-.323a6.366 6.366 0 0 1-1.751-.848 5.577 5.577 0 0 1-1.252-1.212 5.822 5.822 0 0 1-.781-1.387l3.15-1.347c.306.683.714 1.19 1.226 1.522a3.074 3.074 0 0 0 1.71.498c.646 0 1.158-.117 1.535-.35.377-.233.566-.512.566-.835 0-.36-.158-.65-.472-.875-.314-.224-.857-.426-1.63-.606l-1.857-.404a6.467 6.467 0 0 1-1.28-.431 4.945 4.945 0 0 1-1.198-.754 3.83 3.83 0 0 1-.89-1.104c-.232-.431-.348-.933-.348-1.508 0-.647.138-1.221.417-1.724.278-.502.66-.93 1.144-1.28a5.494 5.494 0 0 1 1.71-.807 7.63 7.63 0 0 1 2.115-.282c1.256 0 2.378.247 3.366.74.987.494 1.714 1.279 2.18 2.356l-3.042 1.239c-.252-.52-.62-.897-1.104-1.131a3.334 3.334 0 0 0-1.454-.35c-.503 0-.943.104-1.32.31-.377.206-.566.47-.566.794 0 .306.158.548.472.727.314.18.74.342 1.279.485l2.02.485c1.346.323 2.347.839 3.002 1.548.656.71.983 1.549.983 2.518a3.52 3.52 0 0 1-.404 1.643 4.402 4.402 0 0 1-1.144 1.387 5.609 5.609 0 0 1-1.778.956c-.691.233-1.458.35-2.302.35z"/></g><g><path d="M149.516.82h3.528v5.413l-.215 2.397h.215c.377-.628.92-1.145 1.629-1.55.709-.403 1.504-.605 2.384-.605 1.705 0 2.966.503 3.783 1.508.817 1.006 1.225 2.38 1.225 4.12v7.999h-3.527v-7.567c0-.916-.216-1.612-.647-2.087-.431-.476-1.032-.714-1.804-.714-.485 0-.916.103-1.293.309-.377.207-.696.49-.956.849a3.96 3.96 0 0 0-.592 1.252 5.553 5.553 0 0 0-.202 1.522v6.436h-3.528z"/></g><g><path d="M170.526 19.751a9.804 9.804 0 0 1-3.19-2.14 9.887 9.887 0 0 1-2.115-3.205 10.163 10.163 0 0 1-.768-3.946c0-1.4.256-2.715.768-3.945a9.913 9.913 0 0 1 2.114-3.205 9.835 9.835 0 0 1 3.191-2.14c1.23-.52 2.562-.78 4-.78 1.435 0 2.768.26 3.998.78a9.846 9.846 0 0 1 3.191 2.14 9.913 9.913 0 0 1 2.114 3.205c.512 1.23.768 2.545.768 3.945 0 1.401-.256 2.716-.768 3.946a9.887 9.887 0 0 1-2.114 3.204 9.815 9.815 0 0 1-3.19 2.141c-1.23.521-2.564.781-4 .781-1.437 0-2.77-.26-3.999-.78zm6.517-3.15a6.335 6.335 0 0 0 2.047-1.347 6.123 6.123 0 0 0 1.373-2.087c.332-.817.498-1.719.498-2.707 0-.987-.166-1.889-.498-2.706a6.132 6.132 0 0 0-1.373-2.087 6.354 6.354 0 0 0-2.047-1.347 6.526 6.526 0 0 0-2.518-.485c-.898 0-1.737.162-2.518.485a6.354 6.354 0 0 0-2.047 1.347 6.132 6.132 0 0 0-1.373 2.087c-.333.817-.498 1.72-.498 2.706 0 .988.165 1.89.498 2.707.332.817.79 1.513 1.373 2.087a6.335 6.335 0 0 0 2.047 1.346c.781.324 1.62.485 2.518.485.897 0 1.737-.16 2.518-.485z"/></g><g><path d="M202.128.604c.503 0 .97.045 1.4.135.431.09.817.206 1.158.35l-.996 3.151a2.98 2.98 0 0 0-.579-.216 3.089 3.089 0 0 0-.768-.08c-.52 0-.933.17-1.238.511-.306.341-.458.808-.458 1.4v1.051h3.285v3.016h-3.285v10.18h-3.528V9.921h-4.982v10.18h-3.528V9.921h-2.37V6.906h2.37V5.613c0-.808.121-1.522.364-2.14a4.225 4.225 0 0 1 1.036-1.563 4.628 4.628 0 0 1 1.59-.969 5.805 5.805 0 0 1 2.02-.337c.358 0 .645.018.861.054.215.036.421.09.62.161l-.216 3.313a2.433 2.433 0 0 0-.43-.135 2.929 2.929 0 0 0-.62-.054c-.52 0-.934.171-1.239.512-.306.341-.458.808-.458 1.4v1.051h4.982V5.613c0-.808.121-1.522.364-2.14a4.225 4.225 0 0 1 1.036-1.563 4.628 4.628 0 0 1 1.59-.969 5.8 5.8 0 0 1 2.02-.337z"/></g><g><path d="M217.99 16.924a7.4 7.4 0 0 1-2.464 2.612c-1.033.664-2.294.996-3.784.996-1.005 0-1.934-.175-2.786-.525a6.705 6.705 0 0 1-2.222-1.467 6.702 6.702 0 0 1-1.469-2.222c-.35-.853-.524-1.79-.524-2.814 0-.952.17-1.854.511-2.707a6.892 6.892 0 0 1 1.427-2.235 6.917 6.917 0 0 1 2.168-1.522c.835-.377 1.755-.565 2.76-.565 1.06 0 2.002.175 2.828.525.825.35 1.517.835 2.073 1.454.557.62.98 1.351 1.266 2.195.287.844.431 1.76.431 2.747v.323a1.816 1.816 0 0 0-.027.296c-.017.09-.026.19-.026.297h-9.937c.072.538.22 1 .444 1.386.225.387.503.71.835.97.332.26.696.45 1.09.565.396.117.8.175 1.213.175.808 0 1.476-.183 2.006-.552.529-.367.947-.83 1.252-1.386zm-3.204-5.117a2.279 2.279 0 0 0-.23-.78 2.772 2.772 0 0 0-.592-.809 3.107 3.107 0 0 0-.97-.619c-.386-.162-.848-.243-1.387-.243-.754 0-1.418.216-1.993.647-.574.431-.978 1.032-1.212 1.804z"/></g><g><path d="M220.468 6.906h3.313v1.831h.214a3.42 3.42 0 0 1 .646-.888c.27-.27.57-.504.902-.705a5.083 5.083 0 0 1 1.078-.484 3.747 3.747 0 0 1 1.144-.185c.467 0 .866.05 1.2.15.331.1.613.229.847.389l-.943 3.15a3.386 3.386 0 0 0-.713-.255 4.132 4.132 0 0 0-.956-.095 3.02 3.02 0 0 0-1.32.285 2.895 2.895 0 0 0-1.01.799 3.77 3.77 0 0 0-.645 1.204c-.153.46-.23.961-.23 1.502v6.498h-3.527z"/></g></g></svg>