<svg xmlns="http://www.w3.org/2000/svg" viewBox="0 0 100 100"><path class="st0" d="M38.085 2.857L35.792 5.15l-.947-.947a5.774 5.774 0 00-8.166 0l-3.313 3.313c-4.444-2.235-9.992-1.553-13.697 2.152S5.282 18.92 7.517 23.364l-3.314 3.314a5.774 5.774 0 000 8.166l.947.947-2.293 2.293c-3.81 3.81-3.81 10.009 0 13.819l45.239 45.239c3.81 3.81 10.008 3.808 13.818-.001l35.228-35.228c3.81-3.81 3.811-10.008.001-13.818L51.904 2.857c-3.81-3.809-10.009-3.809-13.819 0zM14.58 14.58a4.913 4.913 0 016.941 0 4.911 4.911 0 01-.001 6.939 4.911 4.911 0 01-6.938 0 4.91 4.91 0 01-.002-6.939zm78.879 37.201a4.561 4.561 0 010 6.45L58.231 93.46a4.561 4.561 0 01-6.45 0L6.541 48.22a4.561 4.561 0 010-6.45l2.294-2.294 1.755 1.755a5.774 5.774 0 008.166 0l22.475-22.475a5.774 5.774 0 000-8.166l-1.755-1.755 2.293-2.293a4.561 4.561 0 016.45 0l45.24 45.239z"/><path class="st0" d="M61.06 64.475a12.527 12.527 0 01-6.227 2.456c-2.288.25-4.657-.308-7.106-1.675l2.211-5.268a7.953 7.953 0 003.528 1.122c1.27.098 2.445-.135 3.529-.7l-6.178-6.178-.422.163a21.176 21.176 0 01-3.333 1.187 12.328 12.328 0 01-3.286.422 9.133 9.133 0 01-3.106-.568c-.996-.369-1.919-.977-2.764-1.822a8.236 8.236 0 01-1.789-2.633 8.03 8.03 0 01-.634-3.074c-.011-1.072.185-2.167.585-3.284.402-1.117 1.026-2.206 1.871-3.268l-2.797-2.797 2.894-2.894 2.862 2.862c.996-.737 1.978-1.264 2.943-1.577a10.7 10.7 0 012.78-.536 8.248 8.248 0 012.472.228c.76.196 1.442.445 2.05.748l-2.017 5.269a5.632 5.632 0 00-1.95-.521c-.716-.065-1.475.065-2.277.39l5.821 5.821a39.965 39.965 0 013.74-1.334c1.171-.345 2.288-.531 3.35-.553a7.572 7.572 0 013.008.539c.942.378 1.849 1.002 2.715 1.868.975.975 1.675 2.011 2.097 3.106a8.639 8.639 0 01.602 3.302 9.316 9.316 0 01-.667 3.268 13.694 13.694 0 01-1.642 3.008l2.862 2.862-2.894 2.894-2.831-2.833zM41.905 49.614c.52.52 1.139.803 1.854.846.716.044 1.647-.118 2.797-.487l-4.749-4.749c-.476.826-.715 1.628-.716 2.407.001.78.273 1.442.814 1.983zm17.497 3.448c-.564-.564-1.182-.877-1.854-.943-.671-.065-1.55.075-2.635.422l4.975 4.975c.39-.779.56-1.565.504-2.357-.052-.791-.383-1.49-.99-2.097z"/></svg>