<svg id="Слой_1" xmlns="http://www.w3.org/2000/svg" viewBox="0 0 14.2 18.6"><style>.st0{fill:#fff}</style><path class="st0" d="M13 6.6h-1.6V4.3c0-2.4-2-4.3-4.3-4.3S2.8 1.9 2.8 4.3v2.4H1.2C.5 6.6 0 7.2 0 7.8v9.7c0 .6.5 1.2 1.2 1.2H13c.7 0 1.2-.5 1.2-1.2V7.8c0-.6-.6-1.2-1.2-1.2zM3.8 4.3C3.8 2.5 5.3 1 7.1 1c1.8 0 3.3 1.5 3.3 3.3v2.4H3.8V4.3zm9.4 13.2c0 .1-.1.2-.2.2H1.2c-.1 0-.2-.1-.2-.2V7.8c0-.1.1-.2.2-.2H13c.1 0 .2.1.2.2v9.7z"/><path class="st0" d="M7.1 11.4c-.7 0-1.2.5-1.2 1.2s.5 1.2 1.2 1.2 1.2-.5 1.2-1.2c0-.6-.5-1.2-1.2-1.2z"/></svg>