<svg id="Слой_1" xmlns="http://www.w3.org/2000/svg" viewBox="0 0 40 40"><style>.st0{fill:#fff}</style><path class="st0" d="M19.6 0C8.9.1-.1 9.3 0 19.9-.1 30.9 8.8 40 19.9 40c11 .1 20.1-8.8 20.1-19.9S31.2.1 20.1 0h-.5zM4.7 12.2c2.7-5.1 9-9.5 15.3-9.5s11.8 3.3 15 9c.4.7 1.2 2.1 0 3.6-.4.5-1 .8-1.7.8-.5 0-1-.2-1.4-.5l-.2-.1c-8.8-4.6-13.2-4.7-22.7-.3l-1.1.5c-1 .5-2.2.3-2.9-.5-.9-.8-1-2.1-.3-3zm12.4 24.2c-.3.2-.7.4-1.2.4-.4 0-.7-.1-1.1-.2-5.4-1.7-9.6-6-11.3-11.4-.3-.7-.3-1.6.1-2.2.7-.9 1.9-.8 2.5-.8 6.5.4 11.6 5.6 11.7 12.1.2.8-.1 1.6-.7 2.1zm3-10.5c-1.5 0-3-.6-4.1-1.7-2.3-2.2-2.4-5.9-.1-8.2 1.1-1.1 2.6-1.8 4.2-1.8 3.2.1 5.7 2.8 5.6 6-.2 3.1-2.6 5.6-5.6 5.7zm5.3 10.6c-.4.2-.9.3-1.4.3-.4 0-.8-.1-1.1-.3-.7-.6-1-1.5-.8-2.4.3-6.5 5.5-11.6 12-11.9.9-.1 1.7.2 2.3.9.4.7.5 1.6.1 2.4-1.8 5.2-5.9 9.2-11.1 11z"/></svg>