<svg xmlns="http://www.w3.org/2000/svg" viewBox="0 0 100 99.672"><path class="st0" d="M54.896 99.672c-3.1 0-6.447-1.427-8.737-3.724L3.72 53.513C1.386 51.583 0 48.535 0 45.101V12.129C0 5.441 5.441 0 12.129 0h33.299c3.237 0 6.227 1.203 8.413 3.389l42.442 42.442c2.431 2.434 3.717 5.454 3.717 8.737 0 3.024-1.321 6.01-3.717 8.409L63.309 95.952c-1.931 2.334-4.976 3.72-8.413 3.72zM12.129 5.323a6.81 6.81 0 00-6.806 6.806V45.1c0 1.879.665 3.389 1.982 4.486l42.618 42.601c1.072 1.079 3.027 2.162 4.972 2.162 1.879 0 3.389-.665 4.486-1.982l33.137-33.151c.807-.807 2.158-2.486 2.158-4.648 0-1.869-.724-3.541-2.158-4.972L50.076 7.154c-1.179-1.183-2.831-1.831-4.648-1.831H12.129zm7.182 23.504c-5.427 0-9.843-4.417-9.843-9.843s4.417-9.843 9.843-9.843c5.43 0 9.847 4.417 9.847 9.843s-4.417 9.843-9.847 9.843zm0-14.363c-2.451 0-4.52 2.069-4.52 4.52s2.069 4.52 4.52 4.52 4.524-2.069 4.524-4.52-2.072-4.52-4.524-4.52z"/></svg>