<svg id="Слой_1" xmlns="http://www.w3.org/2000/svg" viewBox="0 0 40 40"><style>.st0{fill:#fff}</style><path class="st0" d="M15.6 18l-6.3-6.3c-.4-.4-.4-.6 0-1 1-1 1-1 2 0l9.9 9.9c.4.4.6.5 1 0l4.2-4.2c.3-.3.3-.5 0-.8C20.7 10 17.7 6.9 12 1.2 11 0 9.3-.3 7.9.3 6.6 1 5.7 2.5 5.8 4.1c.1.8.4 1.6 1 2.2.5.5.9 1 1.4 1.4.3.3.4.5 0 .8-.4.3-.7.9-1.1 1s-.6-.7-1-1C5.6 8 4.9 8 4.4 8.4l-.1.1c-.5.5-.5 1.2 0 1.7l.1.1c3.3 3.4 6.8 6.5 10.5 9.3.1.1.2.2.4.2.3.1.5.5.9.2.3-.3.4-.8.2-1.2l-.8-.8zM19.5 30.6c.2-.1.3.1.5.2 1.4 1.1 2.8 2.3 4.1 3.5 1 1 2.1 1.9 3.2 2.7 1.6 1 2.8.4 3.2-1.4.1-.9.1-1.7-.2-2.6-.2-.7-.2-1 .7-.8.9.2 1.9.2 2.9-.1 1.6-.5 2.4-1.4 2.2-2.5-.1-.6-.5-1-.9-1.4 0-1.4-.5-2.8-1.2-4-1.6-2.7-3.5-5.2-5.8-7.3-.3-.3-.5-.1-.7.1l-4.3 4.3c-.3.3-.4.4 0 .8 1.3 1.4 2.6 2.6 4.1 3.7 2.1 1.6 4.2 3.2 7.1 3.3 0 .7-1.1 1.2-2.1 1-.7-.1-1.4-.4-2.1-.6-.9-.3-1.9.1-2.2 1-.1.3-.1.5-.1.8 0 .5.1 1 .2 1.5.2.5.3 1 .2 1.5-1.7-1.5-3.3-3-4.9-4.4-.8-.8-1.8-1.4-2.8-1.9-1-.6-2.2-.3-2.8.7-.1.2-.2.4-.2.6-.3.9-.3 1.9.1 2.7.9 2.8 2.7 5 4.7 7.2.5.6 1.1.9 1.8.3.7-.6.6-1.2-.1-1.9s-1.1-1.3-1.7-2c-1.1-1.3-2-2.9-2.6-4.5-.4-.1-.5-.3-.3-.5z"/></svg>