<svg xmlns="http://www.w3.org/2000/svg" viewBox="0 0 100 99.997"><path class="st0" d="M48.914.012C22.292.323-.351 23.345.004 49.633c-.202 27.613 22.019 50.161 49.632 50.363 27.613.202 50.161-22.019 50.363-49.632S77.98.203 50.367.001c-.492-.004-.984 0-1.475.011h.022zM11.693 30.434C18.537 17.701 34.203 6.79 50.003 6.79s29.444 8.311 37.599 22.377c1.089 1.844 3.111 5.333 0 8.889a5.53 5.53 0 01-4.244 2.111 7.323 7.323 0 01-3.622-1.267l-.6-.311c-21.91-11.555-32.888-11.733-56.643-.644l-2.778 1.244a6.467 6.467 0 01-7.355-1.222 5.822 5.822 0 01-.667-7.533zm30.954 60.62a4.847 4.847 0 01-2.889.889 8.234 8.234 0 01-2.644-.511A43.51 43.51 0 018.848 63.011a5.863 5.863 0 01.356-5.555c1.644-2.222 4.667-2.044 6.311-2 16.163.932 28.909 14.104 29.31 30.288a6.266 6.266 0 01-2.178 5.31zm7.489-26.288a14.308 14.308 0 01-10.155-4.244c-5.731-5.531-5.894-14.661-.363-20.392a14.422 14.422 0 0110.385-4.407c8.022.254 14.32 6.963 14.066 14.985-.24 7.589-6.281 13.714-13.866 14.059h-.067zm13.333 26.466a9.852 9.852 0 01-3.378.733 4.449 4.449 0 01-2.755-.844 6.91 6.91 0 01-2.111-6.044c.803-16.142 13.784-29.008 29.932-29.666a6.666 6.666 0 015.644 2.222 6.511 6.511 0 01.267 6 44.044 44.044 0 01-27.599 27.599z"/></svg>