<svg id="Слой_2" xmlns="http://www.w3.org/2000/svg" viewBox="0 0 27 31.8"><style>.Внешнее_x0020_свечение_x0020_5_x0020_pt_x002E_,.Тень{fill:none}.Синий_x0020_неон{fill:none;stroke:#8aacda;stroke-width:7;stroke-linecap:round;stroke-linejoin:round}.Выделение_x0020_желтым{fill:url(#SVGID_1_);stroke:#fff;stroke-width:.3629;stroke-miterlimit:1}.Джайв_GS{fill:#fd0}.Алиса_GS{fill:#a6d0e4}</style><linearGradient id="SVGID_1_" gradientUnits="userSpaceOnUse" x1="-5.77" y1="-1.611" x2="-5.77" y2="-2.611"><stop offset="0" stop-color="#656565"/><stop offset=".618" stop-color="#1b1b1b"/><stop offset=".629" stop-color="#545454"/><stop offset=".983" stop-color="#3e3e3e"/></linearGradient><path d="M17 18.7c-.3-.3-.7-.6-1.1-.8-.4-.3-.9-.5-1.4-.7V14c.4.1.6.3.8.5.2.2.4.5.4.7l2.1-.9c-.1-.2-.2-.5-.4-.8s-.4-.6-.6-.8c-.6-.6-1.3-.9-2.2-1.1V10h-1.7l-.1 1.8c-.5.1-.9.2-1.4.4-.4.2-.8.5-1.1.8s-.6.6-.7 1-.3.8-.3 1.3c0 .4.1.8.3 1.3.2.4.4.7.7 1s.7.6 1.1.8c.4.1.8.4 1.3.6l.2.1v3.5c-.4-.1-.8-.4-1.2-.8-.3-.4-.6-.8-.6-1.3l-2.1.7c.2.9.7 1.8 1.5 2.5.7.6 1.6 1 2.5 1.1l-.1 1.3h1.7v-1.6c.5-.1.9-.2 1.3-.4s.8-.4 1.1-.7c.3-.3.6-.6.8-1.1s.2-.8.2-1.3c0-.4-.1-.8-.3-1.3-.2-.4-.4-.7-.7-1zm-4-2.2c-.4-.2-.6-.4-.9-.6-.1-.1-.3-.4-.3-.7-.1-.4.1-.6.3-.8.3-.3.6-.4.9-.5v2.6zm2.3 5.5c-.2.2-.4.4-.8.5v-2.8c.4.1.6.4.9.6.2.2.4.5.4.8-.1.4-.2.6-.5.9z"/><path d="M23.9 9.7l2.4-2.4-1.8-1.8-2.4 2.4c-2.3-2-5.4-3.1-8.6-3.1C6 4.8 0 10.8 0 18.3s6 13.5 13.5 13.5S27 25.8 27 18.3c0-3.3-1.2-6.3-3.1-8.6zM13.5 30.3c-6.6 0-12-5.4-12-12s5.4-12 12-12 12 5.4 12 12-5.4 12-12 12z"/><path transform="rotate(-89.851 13.5 1.362)" d="M12.1-3.1h2.7v9h-2.7z"/></svg>