<svg xmlns="http://www.w3.org/2000/svg" viewBox="0 0 40 40"><path d="M22 39.9c-1.3 0-2.6-.6-3.5-1.5l-17-17C.5 20.6 0 19.3 0 18V4.9C0 2.2 2.2 0 4.8 0h13.3c1.3 0 2.5.4 3.4 1.3l17 17c.9.9 1.5 2.2 1.5 3.5 0 1.3-.6 2.5-1.5 3.4L25.3 38.4c-.8 1-2.1 1.6-3.3 1.5zM4.8 2.2c-1.5 0-2.7 1.2-2.7 2.7v13.2c0 .7.3 1.3.8 1.8l17.1 17c.5.5 1.2.8 2 .9.7 0 1.3-.3 1.8-.8L37 23.7c1.1-.9 1.2-2.6.2-3.6 0-.1-.1-.1-.2-.2l-17-17c-.5-.5-1.2-.7-1.9-.7H4.8zm2.9 9.4c-2.2 0-3.9-1.8-3.9-3.9s1.8-3.9 3.9-3.9c2.2 0 3.9 1.8 3.9 3.9.1 2.1-1.7 3.9-3.9 3.9zm0-5.8c-1 0-1.8.8-1.8 1.8s.8 1.8 1.8 1.8 1.8-.8 1.8-1.8-.8-1.7-1.8-1.8z"/></svg>