<svg xmlns="http://www.w3.org/2000/svg" viewBox="0 0 80.413 100"><path class="st0" d="M38.965 76.608c.458-.24.85.262 1.243.545a126.35 126.35 0 0110.224 8.72 65.252 65.252 0 008.044 6.867c3.88 2.529 7.106 1.112 7.913-3.466.315-2.138.152-4.32-.48-6.387-.501-1.722-.501-2.638 1.766-1.984 2.361.611 4.847.543 7.172-.196 3.989-1.155 6.104-3.488 5.45-6.278a5.49 5.49 0 00-2.354-3.313 19.118 19.118 0 00-3.095-10.028A75.261 75.261 0 0060.09 42.69c-.828-.807-1.177-.283-1.7.24-3.619 3.619-7.237 7.259-10.9 10.9-.719.698-.937 1.09 0 1.94a75.149 75.149 0 0010.529 9.33c5.341 3.967 10.638 8.131 17.766 8.349 0 1.7-2.703 2.943-5.341 2.441-1.809-.327-3.553-1.003-5.341-1.482a4.36 4.36 0 00-5.842 4.36c.066 1.28.219 2.555.458 3.815a8.467 8.467 0 01.436 3.837c-4.251-3.837-8.262-7.521-12.316-11.139a28.944 28.944 0 00-7.128-4.883 5.058 5.058 0 00-7.542 3.139 9.917 9.917 0 00.153 6.867c2.289 7.041 6.888 12.643 11.684 18.071 1.352 1.526 2.856 2.18 4.6.676 1.744-1.504 1.439-2.943-.174-4.883s-2.921-3.161-4.229-4.839a38.007 38.007 0 01-6.409-11.27c-.156-.526-.483-1.202.171-1.551zM29.134 45.109c-6.54-6.54-9.177-9.265-15.739-15.717-1.046-1.046-1.003-1.591 0-2.55 2.594-2.463 2.55-2.529 5.145 0l24.786 24.851c.916.916 1.395 1.177 2.441 0 3.466-3.597 7.019-7.106 10.616-10.616.828-.807.872-1.243 0-2.18-14.192-14.149-21.799-21.8-36.012-36.013A8.938 8.938 0 0010.169.769a9.351 9.351 0 00-5.624 9.265 8.724 8.724 0 002.572 5.428 91.303 91.303 0 003.575 3.575c.698.654.937 1.155 0 1.897-.937.741-1.722 2.18-2.768 2.463s-1.831-1.439-2.79-2.18a3.03 3.03 0 10-4.208 4.36 239.173 239.173 0 0026.159 23.499c.269.242.57.448.894.61.719.283 1.395 1.308 2.18.523a2.615 2.615 0 00.414-3.03 6.248 6.248 0 00-1.439-2.07z"/></svg>