<svg xmlns="http://www.w3.org/2000/svg" viewBox="0 0 800 96.3"><style>.st0{fill:var(--primary)}</style><path class="st0" d="M447.1 57.4h-16.9c-3.2 0-5.9 2.6-5.9 5.9v.3c0 3.2 2.6 5.9 5.9 5.9h16.9c3.2 0 5.9-2.6 5.9-5.9v-.3c-.1-3.3-2.7-5.9-5.9-5.9z"/><path d="M46.7 39.8c-1.7-1.8-3.8-3.4-6.2-4.7-2.4-1.3-5.1-2.5-8-3.5l-4.6-1.5c-4.1-1.4-7.1-2.9-9-4.4-1.9-1.6-2.9-3.4-2.9-5.6 0-2.2 1-4 2.9-5.4 2-1.4 4.4-2.1 7.4-2.1 3.1 0 5.6.8 7.4 2.4 1.8 1.6 3 3.5 3.7 5.5l12.1-5.1c-.5-1.6-1.4-3.4-2.5-5.2-1.2-1.8-2.7-3.5-4.5-5-1.9-1.5-4.1-2.8-6.8-3.8C33 .5 29.9 0 26.2 0c-3.5 0-6.7.5-9.6 1.6-2.9 1.1-5.3 2.5-7.4 4.4-2.1 1.9-3.7 4-4.8 6.5-1.1 2.5-1.7 5.1-1.7 8 0 2.8.5 5.3 1.6 7.5 1 2.2 2.4 4.1 4 5.7 1.6 1.6 3.4 3 5.4 4.2 2 1.1 4 2.1 5.9 2.7l4.5 1.6c2.6 1 4.9 1.9 6.7 2.7 1.8.9 3.2 1.8 4.4 2.7 1.1.9 1.9 2 2.4 3 .5 1.1.7 2.3.7 3.7 0 1.4-.3 2.7-.9 3.8-.6 1.1-1.4 2-2.5 2.7-1.1.7-2.2 1.3-3.6 1.6-1.3.4-2.7.6-4.1.6-3.9 0-7-1.2-9.3-3.6-2.4-2.4-4-5.4-5-9.1L0 55.3c1 3.4 2.4 6.3 4.2 8.9 1.8 2.5 3.8 4.7 6.2 6.4 2.4 1.8 5 3.1 7.8 4 2.8.9 5.8 1.4 8.9 1.4 2.8 0 5.8-.4 8.7-1.3 3-.9 5.7-2.2 8-4 2.4-1.8 4.3-4 5.8-6.8 1.5-2.7 2.3-6 2.3-9.8 0-3-.5-5.7-1.4-8.1-.8-2.3-2.1-4.4-3.8-6.2zM90.1 23c-3.3 0-6.3.8-9 2.3-2.7 1.5-4.7 3.5-6.1 5.8h-.8l.8-9V1.6H61.6v72.7h13.3V50.1c0-2 .3-3.9.8-5.7.5-1.8 1.3-3.4 2.2-4.7 1-1.4 2.2-2.4 3.6-3.2 1.4-.8 3-1.2 4.9-1.2 2.9 0 5.2.9 6.8 2.7 1.6 1.8 2.4 4.4 2.4 7.9v28.5H109V44.2c0-6.6-1.5-11.7-4.6-15.5-3.1-3.9-7.9-5.7-14.3-5.7zM162.4 30.4c-2.3-2.3-5.1-4.2-8.3-5.5-3.2-1.3-6.8-2-10.6-2-3.9 0-7.4.7-10.6 2-3.2 1.3-6 3.1-8.3 5.5-2.3 2.3-4.2 5.1-5.5 8.4-1.3 3.3-2 6.8-2 10.7 0 3.9.7 7.4 2 10.7 1.3 3.3 3.1 6 5.5 8.4 2.3 2.3 5.1 4.2 8.3 5.5 3.2 1.3 6.8 2 10.6 2 3.9 0 7.4-.7 10.6-2 3.2-1.3 6-3.1 8.3-5.5 2.3-2.3 4.2-5.1 5.5-8.4 1.3-3.2 2-6.8 2-10.7 0-3.9-.7-7.4-2-10.7-1.3-3.3-3.1-6.1-5.5-8.4zm-6.9 25c-.7 1.8-1.7 3.2-2.9 4.5-1.2 1.2-2.6 2.2-4.2 2.8-1.6.6-3.2 1-4.9 1-1.8 0-3.4-.3-5-1-1.6-.6-2.9-1.6-4.2-2.8-1.2-1.2-2.2-2.7-2.9-4.5s-1.1-3.8-1.1-6 .4-4.2 1.1-6c.7-1.8 1.7-3.3 2.9-4.5 1.2-1.2 2.6-2.1 4.2-2.8 1.6-.6 3.2-1 5-1 1.7 0 3.3.3 4.9 1 1.6.6 3 1.6 4.2 2.8 1.2 1.2 2.2 2.7 2.9 4.5s1.1 3.8 1.1 6c0 2.3-.4 4.3-1.1 6zM222.7 30.4c-2.2-2.3-4.7-4.2-7.6-5.5-2.9-1.3-5.9-2-9.1-2-3.8 0-7 .7-9.5 2.2-2.6 1.5-4.5 3.3-5.7 5.4h-.8v-6h-12.5v71.7h13.3V68.4c1.2 2.1 3.1 3.9 5.7 5.4 2.6 1.5 5.8 2.2 9.5 2.2 3.2 0 6.2-.7 9.1-2 2.9-1.3 5.4-3.1 7.6-5.5 2.2-2.3 3.9-5.1 5.2-8.4 1.3-3.2 1.9-6.8 1.9-10.7 0-3.9-.6-7.4-1.9-10.7-1.2-3.2-3-5.9-5.2-8.3zm-7.2 24.9c-.7 1.8-1.7 3.3-2.9 4.5-1.2 1.2-2.6 2.2-4.2 2.8-1.6.7-3.3 1-5 1s-3.4-.3-5-1c-1.6-.6-3-1.6-4.2-2.8-1.2-1.2-2.2-2.7-2.9-4.5s-1.1-3.8-1.1-6 .4-4.2 1.1-6c.7-1.8 1.7-3.3 2.9-4.5 1.2-1.2 2.6-2.1 4.2-2.8 1.6-.6 3.3-1 5-1s3.4.3 5 1 3 1.6 4.2 2.8 2.2 2.7 2.9 4.5c.7 1.8 1.1 3.7 1.1 5.9 0 2.4-.4 4.4-1.1 6.1zM282.3 30.4c-2.2-2.3-4.7-4.2-7.6-5.5-2.9-1.3-5.9-2-9.1-2-3.8 0-7 .7-9.5 2.2-2.6 1.5-4.5 3.3-5.7 5.4h-.8v-6H237v71.7h13.3V68.4c1.2 2.1 3.1 3.9 5.7 5.4 2.6 1.5 5.8 2.2 9.5 2.2 3.2 0 6.2-.7 9.1-2 2.9-1.3 5.4-3.1 7.6-5.5 2.2-2.3 3.9-5.1 5.2-8.4 1.3-3.2 1.9-6.8 1.9-10.7 0-3.9-.6-7.4-1.9-10.7-1.2-3.2-2.9-5.9-5.1-8.3zM275 55.3c-.7 1.8-1.7 3.3-2.9 4.5-1.2 1.2-2.6 2.2-4.2 2.8-1.6.7-3.3 1-5 1s-3.4-.3-5-1c-1.6-.6-3-1.6-4.2-2.8-1.2-1.2-2.2-2.7-2.9-4.5-.7-1.8-1.1-3.8-1.1-6s.4-4.2 1.1-6c.7-1.8 1.7-3.3 2.9-4.5 1.2-1.2 2.6-2.1 4.2-2.8 1.6-.6 3.3-1 5-1s3.4.3 5 1 3 1.6 4.2 2.8 2.2 2.7 2.9 4.5c.7 1.8 1.1 3.7 1.1 5.9 0 2.4-.4 4.4-1.1 6.1zM339.5 30.4c-2.1-2.3-4.7-4.2-7.8-5.5-3.1-1.3-6.7-2-10.7-2-3.8 0-7.3.7-10.4 2.1-3.1 1.4-5.9 3.3-8.2 5.7-2.3 2.4-4.1 5.2-5.4 8.4-1.3 3.2-1.9 6.6-1.9 10.2 0 3.9.7 7.4 2 10.6 1.3 3.2 3.2 6 5.5 8.4 2.4 2.4 5.2 4.2 8.4 5.5 3.2 1.3 6.7 2 10.5 2 5.6 0 10.4-1.3 14.3-3.8 3.9-2.5 7-5.8 9.3-9.9L334 56.9c-1.2 2.1-2.7 3.8-4.7 5.2-2 1.4-4.5 2.1-7.6 2.1-1.6 0-3.1-.2-4.6-.7-1.5-.4-2.9-1.2-4.1-2.1-1.3-1-2.3-2.2-3.1-3.7-.8-1.5-1.4-3.2-1.7-5.2h37.5c0-.4 0-.8.1-1.1 0-.3 0-.7.1-1.1v-1.2c0-3.7-.5-7.2-1.6-10.4s-2.7-5.9-4.8-8.3zm-30.6 12.7c.9-2.9 2.4-5.2 4.6-6.8 2.2-1.6 4.7-2.4 7.5-2.4 2 0 3.8.3 5.2.9 1.5.6 2.7 1.4 3.7 2.3 1 .9 1.7 2 2.2 3 .5 1.1.8 2.1.9 2.9h-24.1zM377.6 23.6c-1.5.5-2.8 1.1-4.1 1.8-1.3.8-2.4 1.6-3.4 2.7-1 1-1.8 2.1-2.4 3.4h-.8v-6.9h-12.5v49.8h13.3V49.8c0-2 .3-3.9.9-5.7.6-1.7 1.4-3.3 2.4-4.5 1-1.3 2.3-2.3 3.8-3 1.5-.7 3.1-1.1 5-1.1 1.4 0 2.6.1 3.6.4 1 .2 1.9.6 2.7 1V23.5c-1.2-.3-2.5-.5-4.2-.5-1.4 0-2.8.2-4.3.6zM510.8 45l2.7-13.6h-30.6l3.4-17.7h34L523 0h-48.4l-14.9 76.4h48.4l2.7-13.7h-34l3.4-17.7zM566.2 31.3h-14.7l-10.2 12.5h-.6l-5.8-12.5h-14.2l11.1 22.2-20.1 22.9H526l10.7-12.9h.6l6 12.9h14.2l-11.4-22.9zM611.8 36.6c-1.6-2.1-3.6-3.8-5.9-5-2.4-1.2-5-1.8-7.9-1.8-3.4 0-6.4.7-9 2-2.6 1.4-4.6 3-6.1 4.9h-.7l1.1-5.4H572l-12.6 64.9h12l3.7-18.9 1.3-6.4c.7 1.9 2.1 3.5 4.2 4.9 2.1 1.3 4.8 2 8.3 2 2.9 0 5.7-.6 8.6-1.8 2.8-1.2 5.5-2.9 7.9-5 2.4-2.1 4.5-4.6 6.2-7.6 1.7-2.9 2.9-6.2 3.6-9.7.7-3.5.7-6.7.1-9.7-.8-2.7-1.9-5.3-3.5-7.4zm-8.9 17.3c-.4 2-1.1 3.7-2.1 5.3-1 1.6-2.1 2.9-3.5 4s-2.8 2-4.3 2.6-3.1.9-4.7.9-3.1-.3-4.4-.9c-1.3-.6-2.4-1.4-3.3-2.5s-1.5-2.5-1.9-4c-.4-1.6-.3-3.4 0-5.4.4-2 1.1-3.8 2.1-5.4 1-1.6 2.1-2.9 3.5-4 1.3-1.1 2.8-1.9 4.3-2.5s3.1-.9 4.7-.9 3.1.3 4.4.9c1.3.6 2.4 1.5 3.3 2.6s1.5 2.5 1.9 4c.3 1.5.3 3.3 0 5.3zM651.8 29.9c-1.3 0-2.6.2-4 .6-1.4.4-2.7 1-4 1.7-1.3.7-2.5 1.5-3.5 2.4-1.1.9-2 1.9-2.8 3h-.7l1.2-6.3h-11.3l-8.8 45.1H630l4.3-22.2c.4-1.8 1-3.6 1.8-5.1.8-1.6 1.8-2.9 3-4.1s2.5-2.1 4-2.7c1.5-.6 3-1 4.7-1 1.3 0 2.4.1 3.2.3.8.2 1.6.5 2.3.9l2.4-12.1c-1.3-.4-2.5-.5-3.9-.5zM697.8 36.6c-1.5-2.1-3.5-3.8-6.1-5-2.6-1.2-5.7-1.8-9.3-1.8-3.4 0-6.7.6-9.8 1.9-3.1 1.3-5.9 3-8.4 5.2s-4.6 4.7-6.4 7.6c-1.7 2.9-2.9 6-3.5 9.2-.7 3.5-.7 6.7-.1 9.6.6 2.9 1.8 5.4 3.5 7.6 1.7 2.1 3.9 3.8 6.6 5 2.7 1.2 5.7 1.8 9.2 1.8 5.1 0 9.6-1.1 13.6-3.4s7.3-5.2 10.2-8.9l-9.1-5c-1.4 1.9-3.1 3.5-5.2 4.7-2.1 1.3-4.5 1.9-7.2 1.9-1.4 0-2.8-.2-4-.6-1.3-.4-2.4-1-3.3-1.9-1-.9-1.7-2-2.2-3.3-.5-1.3-.7-2.9-.6-4.7h33.9c.1-.4.2-.7.3-1 .1-.3.2-.6.3-1 .1-.3.1-.7.2-1.1.7-3.4.8-6.5.4-9.4s-1.5-5.3-3-7.4zm-8.1 11.5h-21.8c1.3-2.6 3.1-4.7 5.3-6.2 2.3-1.5 4.7-2.2 7.2-2.2 1.8 0 3.4.3 4.6.8 1.2.6 2.2 1.3 2.9 2.1.7.9 1.2 1.8 1.5 2.8s.4 1.9.3 2.7zM723.5 40.7c1.4-.7 3-1.1 4.7-1.1 1.7 0 3.2.4 4.7 1.2 1.5.8 2.5 2.1 3 3.9l11.2-4.2c-.9-3.7-2.8-6.4-5.9-8.1-3-1.7-6.7-2.5-11-2.5-2.6 0-5 .3-7.4 1-2.4.6-4.5 1.6-6.4 2.8-1.9 1.2-3.5 2.7-4.8 4.4-1.3 1.7-2.1 3.7-2.6 5.9-.4 2-.3 3.7.2 5.2s1.3 2.7 2.3 3.8c1 1 2.2 1.9 3.6 2.6 1.4.7 2.7 1.2 4.1 1.5l6.1 1.4c2.5.6 4.2 1.3 5.2 2.1.9.8 1.3 1.8 1 3-.2 1.1-1 2.1-2.5 2.8-1.4.8-3.3 1.2-5.5 1.2-2.1 0-4-.6-5.5-1.7s-2.6-2.9-3.2-5.2L703.4 65c.3 1.6.9 3.2 1.7 4.7.9 1.6 2 2.9 3.5 4.1 1.5 1.2 3.3 2.2 5.4 2.9 2.2.7 4.7 1.1 7.7 1.1 2.9 0 5.6-.4 8.1-1.2 2.5-.8 4.8-1.9 6.7-3.3 2-1.4 3.6-3 4.8-4.7s2.1-3.7 2.5-5.6c.6-3.3.1-6.2-1.7-8.6-1.8-2.4-4.8-4.2-9.2-5.3l-6.6-1.7c-1.7-.5-3.1-1-4-1.7-1-.6-1.3-1.4-1.1-2.5.1-.9.9-1.8 2.3-2.5zM768 40.7c1.4-.7 3-1.1 4.7-1.1 1.7 0 3.2.4 4.7 1.2 1.5.8 2.5 2.1 3 3.9l11.2-4.2c-.9-3.7-2.8-6.4-5.9-8.1-3-1.7-6.7-2.5-11-2.5-2.6 0-5 .3-7.4 1-2.4.6-4.5 1.6-6.4 2.8-1.9 1.2-3.5 2.7-4.8 4.4-1.3 1.7-2.1 3.7-2.6 5.9-.4 2-.3 3.7.2 5.2s1.3 2.7 2.3 3.8c1 1 2.2 1.9 3.6 2.6 1.4.7 2.7 1.2 4.1 1.5l6.1 1.4c2.5.6 4.2 1.3 5.2 2.1.9.8 1.3 1.8 1 3-.2 1.1-1 2.1-2.5 2.8-1.4.8-3.3 1.2-5.5 1.2-2.1 0-4-.6-5.5-1.7s-2.6-2.9-3.2-5.2L747.8 65c.3 1.6.9 3.2 1.7 4.7.9 1.6 2 2.9 3.5 4.1 1.5 1.2 3.3 2.2 5.4 2.9 2.2.7 4.7 1.1 7.7 1.1 2.9 0 5.6-.4 8.1-1.2 2.5-.8 4.8-1.9 6.7-3.3 2-1.4 3.6-3 4.8-4.7 1.3-1.8 2.1-3.7 2.5-5.6.6-3.3.1-6.2-1.7-8.6-1.8-2.4-4.8-4.2-9.2-5.3l-6.6-1.7c-1.7-.5-3.1-1-4-1.7-1-.6-1.3-1.4-1.1-2.5.1-.9 1-1.8 2.4-2.5zM456.9 18.9c3.2 0 5.9-2.6 5.9-5.9v-.3c0-3.2-2.6-5.9-5.9-5.9h-36.2c-3.2 0-5.9 2.6-5.9 5.9v.3c0 3.2 2.6 5.9 5.9 5.9h36.2zM451.8 32.1h-26.5c-3.3 0-6 2.7-6 6s2.7 6 6 6h26.5c3.3 0 6-2.7 6-6s-2.7-6-6-6zM798.8 27.3c-.8-.8-1.8-1.2-2.9-1.2-1.1 0-2.1.4-2.9 1.2-.8.8-1.2 1.7-1.2 2.9 0 1.1.4 2.1 1.2 2.9.8.8 1.8 1.2 2.9 1.2 1.1 0 2.1-.4 2.9-1.2.8-.8 1.2-1.8 1.2-2.9 0-1.2-.4-2.1-1.2-2.9zm-.6 5.1c-.6.6-1.4.9-2.3.9-.9 0-1.6-.3-2.3-1-.6-.6-1-1.4-1-2.3 0-.9.3-1.6.9-2.3.6-.6 1.4-1 2.3-1 .9 0 1.7.3 2.3.9.6.6.9 1.4.9 2.3.1 1.1-.2 1.9-.8 2.5z"/><path d="M796.7 30.6c.3-.1.5-.2.6-.4.2-.2.2-.5.2-.7 0-.4-.1-.7-.4-.9-.3-.2-.6-.4-.9-.4h-1.7v4h.8v-1.5h.4l1 1.5h.9l-.9-1.6zm-.5-.7h-.8v-1h.7c.4 0 .7.2.7.5 0 .1-.1.3-.2.4-.1 0-.3.1-.4.1z"/></svg>