<svg id="Слой_1" xmlns="http://www.w3.org/2000/svg" viewBox="0 0 1141.8 327.7"><style>.st0{fill:#ea1d23}.st1{fill:#909295}</style><path class="st0" d="M252.6 23.9L217 115l-37.1-91.1h-20.8l-25.3 141.9h29.5L176.7 80h.4l32.9 87.6h10.2L254.4 80h.4l11.9 85.8h29.6L273.7 23.9zM378.6 23.9c-44.9 0-74.5 31.5-74.5 72.6 0 40.7 28.6 73 74.5 73s74.5-32.3 74.5-73c-.1-41.1-29.6-72.6-74.5-72.6zm0 119c-32.5 0-44.1-26.2-44.1-47.5 0-22.4 16.4-44.9 44.1-44.9 27.7 0 44.1 22.5 44.1 44.9 0 21.3-11.6 47.5-44.1 47.5zM559.4 69.2c0-29.5-20.6-41.6-50.3-41.6h-39.7v138.2h29.3v-55.7h.4l36.5 55.7h35.5l-42.5-58.3c20.3-3.1 30.8-20.7 30.8-38.3zm-56.9 22h-3.8V49.6h4c15.6 0 27.4 3.3 27.4 20.3 0 16.9-11.4 21.3-27.6 21.3zM650.9 114.3h31.9c-.6 16.7-16 31.4-34.3 31.4-28.4 0-42.5-25.5-42.5-48.4s14-49.5 42.3-49.5c15.6 0 28.4 9.5 34.3 22l26-12.8c-11.6-21.1-33.9-33-59.5-33-44.9 0-73.5 33.9-73.5 73.3 0 38.1 27.8 72.2 71.7 72.2 46.7 0 68.5-34.7 68.5-73.7v-3.5h-64.9v22zM778.5 23.9l-58.7 141.9h30.9l12.4-29.1h52.3l11.6 29.1h31.3L801.2 23.9h-22.7zm-7 90.8l16.6-50.2h.4l18.8 50.2h-35.8zM970.1 27.6v92.9h-.4l-79.2-96.6h-21.2v141.9h29.4V71.9h.4l79.2 96.7h21.2v-141z"/><path class="st1" d="M777.9 0L649.2 90.4c-6.5.5-11.7 5.9-11.7 12.5 0 6.9 5.6 12.5 12.5 12.5 5.6 0 10.4-3.7 12-8.8L777.9 0zM0 208.7h1141.8v4.5H0z"/><g><path d="M170.2 284.3v-.2c5.3-2.5 8.4-9.1 8.4-14.8 0-17.6-13.9-21.5-28.6-21.5h-9.5V326h18.3c13.8 0 27.2-6.2 27.2-21.9-.1-9.1-6.6-18.2-15.8-19.8zm-20-27.8h2.7c9.1 0 16.6 1.9 16.6 12.9 0 11.2-7.6 13.1-16.8 13.1h-2.5v-26zm7.4 60.8h-7.5v-27.1h6c8.7 0 19.9 2.3 19.9 13.3.1 11.1-9.3 13.8-18.4 13.8zM286.5 293.9c0 12.8-3.8 24.6-18.9 24.6-15 0-18.9-11.8-18.9-24.6v-46.2H239v49.5c0 17.2 10.7 30.4 28.6 30.4 18 0 28.6-13.2 28.6-30.4v-49.5h-9.8v46.2zM375.7 281.2l-19.2-33.5h-11.2l25.5 44.3v34h9.8v-34l25.5-44.3h-11.2zM482.1 279.7l-5.6-2.2c-4.9-1.9-10.9-5.1-10.9-11.2 0-6.8 6.8-11.1 13.1-11.1 5.9 0 9.7 2.5 12.6 7.4l7.8-4.7c-4.3-7.6-11.4-11.8-20.1-11.8-11.8 0-23 7.6-23 20.2 0 10.9 8.1 16 17 19.8l5.4 2.3c6.7 2.8 13.5 6.4 13.5 14.8 0 8.2-6 15.3-14.4 15.3s-15.3-6.2-15.2-14.8l-9.9 2.1c1.7 12.6 11.5 21.9 24.2 21.9 14 0 25-10.2 25-24.4-.1-13.1-8.4-19.2-19.5-23.6zM625 287.3c0 22.6 18.5 40.4 40.8 40.4 6.8 0 14.5-2 20.5-5.5v-11.5c-5.8 5.2-13.2 8.1-20.9 8.1-17.4 0-30.7-14.6-30.7-31.8 0-17.3 13.4-32 30.9-32 7.4 0 15 2.7 20.7 7.7v-11.3c-5.9-3.6-12.9-5.3-19.7-5.3-23 0-41.6 18-41.6 41.2zM733.3 326h10.5l8.9-19.6h35.9l8.9 19.6H808l-37.4-81.6-37.3 81.6zm23.4-28.5l13.9-31.7 13.9 31.7h-27.8zM900.9 270.1c0-7.5-3.7-14.8-10.3-18.7-6.2-3.5-13.7-3.6-20.7-3.6h-11.8V326h9.8v-33.1h4l23 33.1h11.8L882 292c11.4-1.4 18.9-10.7 18.9-21.9zM871 284.8h-3.1v-28.3h2.6c9.7 0 21.3 1.8 21.3 14-.1 12.4-10.9 14.3-20.8 14.3zM983.7 279.7l-5.6-2.2c-4.9-1.9-10.9-5.1-10.9-11.2 0-6.8 6.8-11.1 13.1-11.1 5.9 0 9.7 2.5 12.6 7.4l7.8-4.7c-4.3-7.6-11.4-11.8-20.1-11.8-11.8 0-23 7.6-23 20.2 0 10.9 8.1 16 17 19.8l5.4 2.3c6.7 2.8 13.5 6.4 13.5 14.8 0 8.2-6 15.3-14.4 15.3s-15.3-6.2-15.2-14.8l-9.9 2.1c1.7 12.6 11.5 21.9 24.2 21.9 14 0 25-10.2 25-24.4-.1-13.1-8.4-19.2-19.5-23.6z"/></g></svg>