<svg id="Слой_1" xmlns="http://www.w3.org/2000/svg" viewBox="0 0 181.9 35.6"><style>.st0{fill:#ea1d23}.st1{fill:#909295}</style><path class="st0" d="M25 5l-7.5 19.2L9.7 5H5.3L0 34.8h6.2l2.8-18h.1L16 35.2h2.2l7.1-18.4h.1l2.5 18h6.2L29.4 5zM51.4 5C42 5 35.8 11.6 35.8 20.3c0 8.6 6 15.3 15.6 15.3S67 28.8 67 20.3C67.1 11.6 60.9 5 51.4 5zm0 25c-6.8 0-9.3-5.5-9.3-10 0-4.7 3.4-9.4 9.3-9.4 5.8 0 9.3 4.7 9.3 9.4 0 4.5-2.4 10-9.3 10zM89.4 14.5c0-6.2-4.3-8.7-10.6-8.7h-8.3v29h6.2V23.1h.1l7.7 11.7H92l-9-12.2c4.2-.7 6.4-4.4 6.4-8.1zm-11.9 4.7h-.8v-8.7h.8c3.3 0 5.7.7 5.7 4.3.1 3.4-2.3 4.4-5.7 4.4zM108.6 24h6.7c-.1 3.5-3.4 6.6-7.2 6.6-6 0-8.9-5.4-8.9-10.2 0-4.8 2.9-10.4 8.9-10.4 3.3 0 6 2 7.2 4.6l5.5-2.7c-2.4-4.4-7.1-6.9-12.5-6.9-9.4 0-15.4 7.1-15.4 15.4 0 8 5.8 15.2 15.1 15.2 9.8 0 14.4-7.3 14.4-15.5v-.7h-13.6V24zM135.4 5l-12.3 29.8h6.5l2.6-6.1h11l2.4 6.1h6.6L140.2 5h-4.8zM134 24.1l3.5-10.6h.1l3.9 10.6H134zM175.7 5.8v19.5h-.1L159 5h-4.5v29.8h6.2V15.1h.1l16.6 20.3h4.5V5.8z"/><path class="st1" d="M135.3 0l-27.1 19c-1.4.1-2.4 1.2-2.4 2.6 0 1.5 1.2 2.6 2.6 2.6 1.2 0 2.2-.8 2.5-1.8L135.3 0z"/></svg>