<svg id="Слой_1" xmlns="http://www.w3.org/2000/svg" viewBox="0 0 40 40"><style>.st0{fill:#fff}</style><path class="st0" d="M15.2 1.1l-.9.9-.3-.3c-.9-.9-2.4-.9-3.3 0L9.3 3C7 1.8 4.2 2.8 3 5.1 2.3 6.4 2.3 8 3 9.3l-1.3 1.3c-.9.9-.9 2.4 0 3.3l.4.4-.9.9c-1.5 1.5-1.5 4 0 5.5l18.1 18.1c1.5 1.5 4 1.5 5.5 0l14.1-14.1c1.5-1.5 1.5-4 0-5.5L20.8 1.1c-1.6-1.5-4-1.5-5.6 0zM5.8 5.8c.8-.8 2-.8 2.8 0 .8.8.8 2 0 2.8-.8.8-2 .8-2.8 0-.7-.8-.7-2 0-2.8zm31.6 14.9c.7.7.7 1.9 0 2.6L23.3 37.4c-.7.7-1.9.7-2.6 0L2.6 19.3c-.7-.7-.7-1.9 0-2.6l.9-.9.7.7c.9.9 2.3.9 3.2 0l9-9c.9-.9.9-2.3 0-3.2l-.7-.7.9-.9c.7-.7 1.9-.7 2.6 0l18.2 18z"/><path class="st0" d="M24.4 25.8c-.7.6-1.6.9-2.5 1-1 .1-2-.2-2.8-.7L20 24c.4.3.9.4 1.4.5.5 0 1-.1 1.4-.3l-2.5-2.5-.2.1c-.4.2-.9.3-1.3.5-.4.1-.9.2-1.3.2s-.8-.1-1.2-.2c-.4-.2-.8-.4-1.1-.7-.3-.3-.5-.7-.7-1.1-.2-.4-.2-.8-.2-1.2 0-.4.1-.9.2-1.3.2-.5.4-.9.7-1.3L14 15.4l1.2-1.2 1.1 1.1c.7-.5 1.5-.8 2.3-.8.3 0 .7 0 1 .1.3.1.6.2.8.3l-.8 2.1c-.2-.1-.5-.2-.8-.2-.3 0-.6 0-.9.2l2.3 2.3c.5-.2 1-.4 1.5-.5.4-.1.9-.2 1.3-.2s.8.1 1.2.2c.4.2.8.4 1.1.7.4.4.6.8.8 1.2.2.4.2.9.2 1.3s-.1.9-.3 1.3c-.2.4-.4.8-.7 1.2l1.1 1.1-1.2 1.2-.8-1zm-7.6-6c.2.2.5.3.7.3.4 0 .7-.1 1.1-.2L16.7 18c-.2.3-.3.6-.3 1 0 .3.1.6.4.8zm7 1.4c-.2-.2-.5-.3-.8-.3-.4 0-.7 0-1.1.2l2 2c.2-.3.2-.6.2-.9 0-.4-.1-.7-.3-1z"/></svg>