<svg xmlns="http://www.w3.org/2000/svg" width="38" height="47" viewBox="0 0 38 47"><g><g><path fill="#007cc3" d="M18.205 35.38c.21-.11.389.12.569.25a57.593 57.593 0 0 1 4.68 3.991 29.914 29.914 0 0 0 3.684 3.144c1.777 1.158 3.254.51 3.623-1.587a6.666 6.666 0 0 0-.22-2.924c-.23-.789-.23-1.208.809-.909 1.08.28 2.22.25 3.284-.09 1.826-.529 2.795-1.597 2.495-2.874a2.514 2.514 0 0 0-1.078-1.517 8.762 8.762 0 0 0-1.417-4.592 34.493 34.493 0 0 0-6.757-8.424c-.38-.369-.54-.129-.78.11-1.656 1.657-3.313 3.324-4.99 4.991-.33.32-.43.5 0 .888a34.33 34.33 0 0 0 4.822 4.272c2.445 1.817 4.87 3.723 8.134 3.823 0 .778-1.238 1.347-2.445 1.118-.83-.15-1.627-.46-2.446-.679a1.995 1.995 0 0 0-2.675 1.996c.03.586.1 1.17.21 1.747.2.562.269 1.163.2 1.756-1.947-1.756-3.783-3.443-5.64-5.1a13.279 13.279 0 0 0-3.263-2.236 2.316 2.316 0 0 0-3.454 1.438 4.54 4.54 0 0 0 .07 3.144c1.048 3.224 3.154 5.79 5.35 8.274.619.7 1.307.998 2.106.31.798-.689.659-1.348-.08-2.236-.74-.889-1.338-1.448-1.936-2.216a17.419 17.419 0 0 1-2.935-5.16c-.07-.24-.22-.549.08-.709z"/></g><g><path fill="#007cc3" d="M13.703 20.957c-2.994-2.994-4.202-4.242-7.206-7.196-.479-.48-.459-.73 0-1.168 1.187-1.128 1.167-1.158 2.355 0l11.35 11.378c.418.419.637.539 1.117 0a222.7 222.7 0 0 1 4.86-4.86c.38-.37.4-.57 0-1C19.68 11.634 16.2 8.134 9.691 1.625A4.093 4.093 0 0 0 5.02.654a4.283 4.283 0 0 0-2.575 4.243 3.998 3.998 0 0 0 1.178 2.486A42.116 42.116 0 0 0 5.26 9.02c.32.299.43.529 0 .868-.429.339-.788.998-1.268 1.128-.479.13-.838-.66-1.277-.998a1.386 1.386 0 1 0-1.927 1.996 109.602 109.602 0 0 0 11.978 10.76c.123.11.261.205.41.279.328.13.638.599.997.24.355-.374.432-.933.19-1.388a2.865 2.865 0 0 0-.659-.948z"/></g></g></svg>