<svg id="Layer_1" data-name="Layer 1" xmlns="http://www.w3.org/2000/svg" viewBox="0 0 841.9 841.9"><defs><style>.cls-1,.cls-10,.cls-2,.cls-3,.cls-4,.cls-5,.cls-6,.cls-7{fill-rule:evenodd}.cls-2{fill:#4d4d4d}.cls-3{fill:#f0f0f0}.cls-4,.cls-9{fill:#cbcbcb}.cls-5{fill:#e5e5e5}.cls-6,.cls-8{fill:#fff}.cls-7{fill:#1a1a1a}.cls-10{fill:#333}</style></defs><path class="cls-1" d="M617.51 541.52a91.41 91.41 0 0 1-11 19.54q55.77-1.51 111.89-3.51c-2.48-4.87-4.59-12.62-6.09-22.24zm-47.38-159.35l8.64 1.28a30.33 30.33 0 0 1 10.61 7.13c10.8 10.92 16.64 29.44 19.9 44.13 19.74 30.09 21.41 64.16 14.07 98.4L743.09 525l2.36-2.24c1-15.88 2.35-31.84 4.54-47.61a240.59 240.59 0 0 1 6.34-32.38c2-7.18 7.67-25.83 18.27-23.58 9.76 2.06 14.15 21.62 15.58 29.61.47 2.64.86 5.31 1.19 8l.93 13.74-2.94 36.87-1.79 6.71c-1 18.38-4 34.09-8 42.54 7-.11 13.7-.13 20 0 17.11.4 1.24 3.74-12.93 6.46-91.37 17.5-183.06 27.28-241.64 28.45-117.31 2.34-300.77-2.75-488.65-9.12C13.57 581 44.19 577.19 91.63 572c11-1.21 23.25-2.06 35.81-2.66-14.4-7.73-25.25-18.94-30.39-32l-29.11-.76c-9.4-.54-10.57-3.06-14.49-8.09l.19-.49 18.39.2h.06l447.22 13.72q1.44-2.35 2.86-4.71c-.16-9.09.05-18.2.59-27.28a383.28 383.28 0 0 1 5.24-44.56 287.55 287.55 0 0 1 9.63-39.26c4.33-13.18 14.48-39.88 29.89-43.52a18.17 18.17 0 0 1 2.61-.42zM249.19 541.28c-5.39 10.86-14.81 20.23-26.89 27.09l3.14.07c81.6-1.4 163.61-2.63 246.12-4.26q-2.13-2.43-4.11-5c-4.51-.06-7.85-.13-8.52-.22a64.1 64.1 0 0 1-30.81-13l-178.93-4.68z"/><path class="cls-2" d="M555.44 419.45c33 0 59.7 34.13 59.7 76.24s-26.73 76.25-59.7 76.25c-14.71 0-28.18-6.8-38.58-18.07l8.28.26.64-1.06c8.5 7.19 18.7 11.38 29.66 11.38 29.73 0 53.83-30.79 53.83-68.76s-24.1-68.75-53.83-68.75a43.49 43.49 0 0 0-7.76.71c1.08-2.81 2.2-5.48 3.34-8 1.46-.13 2.94-.2 4.42-.2"/><path class="cls-3" d="M72 531.14l-20.11-.21-9-1.89-7-8.52c-2.26-2.74-.09-5.83 3.07-6.56-1.81-2-1.09-4.69.46-6.63 3-3.69 5.38-6.85 8.33-10.54L41.94 456a20 20 0 0 1 2.94-14.66c2.23-16 2.34-23.1 5-28.65 2.12-4.39 5.84-7.61 13.48-15.8 3.23-3.46 2.85-3 7.32-4.62 1.35-10.06 1.84-19.22 6.61-23 1.83-1.47 4.44-1.71 8.27-1.27 10.44-11.19 24.3-18.36 44.25-18.38 17.84-17.29 50.24-13.17 79.58-15.71 15.82-1.37 27.83-5.74 38.66-6.91 32.08-19.43 63.17-39.74 101.07-53.94 9.32-3.73 20.44-6.23 30.7-7.84 36.06-5.66 145.49-15.91 212-15.44 20.24.15 35.15 2.41 45.07 6 47.32 17.22 80.72 60 113.72 103.46 4.39 4.87 8.51 9.23 12.35 13L781 385.82a234 234 0 0 1 12 44.26 119.88 119.88 0 0 1 1.49 16.85c.18 20.52.32 40.95-3.62 62.15-.93 5-2.28 5.88-3.9 8.39 7.86-56.78-2.72-93.26-13-95.44-10-2.12-21 25.45-25.67 102l-4 3.77-124.73 8.48c10.08-43.11 3.64-75.21-13.1-100.44-10-45.73-28.49-52.74-38.31-50.42-24.16 5.75-44.41 84.14-43.02 152.58q-2.1 3.45-4.19 6.91L72 531.14"/><path class="cls-4" d="M480.45 354.11c3.76-7 8.11-12.39 13.11-15.32s11.34-4.25 20.83-5c-9.65 2.45-10.4 1.39-19.75 6.86-4.62 2.71-7.91 6.91-11.49 13.56z"/><path class="cls-5" d="M98.62 383.55l57.52 10c3.91.67 5.67 2.28 8.12 5.15 3.22 3.77 6.4 7.65 9.5 11.48 2.8 3.44 5.06 3.8 9.27 4 7.56.26 17 .48 24.31.73a12 12 0 0 0 9-3.48c4.49-4.92 8.69-9.78 13.17-14.71 2.81-2.95 4.6-3.7 8.58-4.22 47.31-6.24 92.94-12.48 140.25-18.71-13.75 8.24-5.51 9.35-19.27 17.59-23 8.45-68.08 24-91.12 32.47l-54.88 21.37-46.5-2.1-20.11-22.62-27.75-17.28-14.82-7.59q-2.66-6-5.29-12"/><path class="cls-5" d="M785.57 398.94a251.6 251.6 0 0 1 7.43 31.14 119.88 119.88 0 0 1 1.49 16.85c.18 20.52.32 40.95-3.62 62.15-.93 5-2.28 5.88-3.9 8.39 7.86-56.78-2.72-93.26-13-95.44-10-2.12-21 25.45-25.67 102l-4 3.77-124.73 8.48c10.08-43.11 3.64-75.21-13.1-100.44-4.66-21.31-11.17-34.21-17.78-41.67 1.25-.11 9.61 5.27 21.26 6.71 44.1 5.47 111.73 1.71 159.54 1.41 5.73 0 11.23-.61 16-3.39M72 531.14l-20.11-.21c-3-.63-4.33-2.62-7.33-3.25-2.35-2.84-6.37-4.32-8.72-7.16s-.09-5.83 3.07-6.56c-1.81-2-1.09-4.69.46-6.63 3-3.69 5.38-6.85 8.33-10.54L41.94 456a20 20 0 0 1 2.94-14.66c2.23-16 2.34-23.1 5-28.65a22.84 22.84 0 0 1 3.21-4.8c6.2 5.55 26.81 6.54 37.75 7.9l24.51 2.09 59.18 15.61 41.89 2.72 91-20.42c55.38-4.7 108.24-9.39 163.61-14.08 19.69-1.67 33.29-7.84 50.89-16.3-5.83 18.34 17.61 12.42 32.4 11.46C536.8 422.06 524 483.22 525.14 538q-2.1 3.45-4.19 6.91z"/><path class="cls-4" d="M552.1 400.35c-.39.65-.78 1.31-1.17 2a75.09 75.09 0 0 0-15.48-15.08 243.56 243.56 0 0 0-21.36-14l1.09-1.81a243.88 243.88 0 0 1 21.55 14.16 79.4 79.4 0 0 1 15.37 14.78M784.54 437.78a10.67 10.67 0 0 0 9.56 1.29c.23 2.78.37 5.62.39 7.86.18 20.52.32 40.95-3.62 62.15-.93 5-2.28 5.88-3.9 8.39 5-35.81 2.58-63.54-2.43-79.69m-177.19-.62c-.53-5.86.61-11.6.18-17.77 6.94 10.86 27.91 11.72 49.54 12 26.1-.16 49.34 1.11 71.86-1.71 8.23-1 17.52-2 26.8-4.31-3.7 9.29-4.64 19.16-6.38 28.75 2.41-7.32 7.47-21.76 15.19-24.79-6.8 12.61-13 42.08-16.22 94.7l-4 3.77-124.73 8.48c9.93-42.34 3.87-74.08-12.24-99.12z"/><path class="cls-6" d="M625 516.7c.09-.71-.35-1.21-.27-1.92l54.94-2.19 57.63-2.3a6.53 6.53 0 0 0 5-2 10.12 10.12 0 0 0 1.91-5.24c1.93-14.33 4.17-28.51 7-41.75s6.4-25.64 10.89-36.32a26.24 26.24 0 0 0 1.47-9.2 89.16 89.16 0 0 0-1.09-14.27c-.25-1.64-.48-3.41-.7-5.09-.75-5.58-1.36-10.21-3.12-14.08a62.9 62.9 0 0 0-5.66-10 138.63 138.63 0 0 0-8.82-11.18c5 4.1 13.9 14.74 16.42 20.3 1.88 4.14 2.51 8.92 3.28 14.68.2 1.53.42 3.14.7 5.05a90.6 90.6 0 0 1 1.11 14.62 28.17 28.17 0 0 1-1.64 10c-4.43 10.53-7.91 22.78-10.76 36s-5.1 27.34-7 41.58c-.35 2.55-1.13 5.93-2.5 7.54s-3.48 2.65-6.55 2.77c-37.5 1.39-75.24 3.09-112.24 3"/><path class="cls-4" d="M623.14 516.91c.09-.71.18-1.42.26-2.13l54.94-2.19 57.63-2.3a6.53 6.53 0 0 0 5-2 10.11 10.11 0 0 0 1.9-5.24c1.94-14.33 4.18-28.51 7.05-41.75s6.4-25.64 10.89-36.32a26.48 26.48 0 0 0 1.47-9.2 89.16 89.16 0 0 0-1.09-14.27c-.25-1.64-.48-3.41-.71-5.09-.74-5.58-1.35-10.21-3.11-14.08a62.9 62.9 0 0 0-5.66-10 138.63 138.63 0 0 0-8.82-11.18c5 4.1 13.9 14.74 16.42 20.3 1.87 4.14 2.51 8.92 3.28 14.68.2 1.53.41 3.14.7 5.05a90.6 90.6 0 0 1 1.11 14.62 28.4 28.4 0 0 1-1.64 10c-4.43 10.53-7.91 22.78-10.76 36s-5.1 27.34-7 41.58a12.11 12.11 0 0 1-2.4 6.34c-1.41 1.65-3.48 2.65-6.54 2.77-19.43.76-38.53 1.53-57.64 2.3-18.32.73-36.65 1.47-55.28 2.2"/><path class="cls-6" d="M618.29 453.94c.16-11.19-.5-22-1.19-32.68a381.77 381.77 0 0 0-5.37-43.77c-.69-3.88-1.37-7-2.1-9.53a34.46 34.46 0 0 0-2.38-6.31c-2.06-4-3.67-6.91-5-9.28-3.75-6.64-5.32-9.44-8.84-24.57l2.07-.48c3.44 14.82 5 17.55 8.62 24 1.33 2.36 2.94 5.22 5 9.37a36.55 36.55 0 0 1 2.54 6.69c.74 2.6 1.42 5.75 2.14 9.73a381.54 381.54 0 0 1 5 43.95c.54 8.41.54 24.34-.51 32.87"/><path class="cls-4" d="M618.17 459.22c-.63-1.79-1.31-3.55-2-5.28.15-11.19-.09-22-.78-32.68a381.72 381.72 0 0 0-5.39-43.77c-.7-3.88-1.37-7-2.1-9.53a35.17 35.17 0 0 0-2.39-6.31c-2-4-3.67-6.91-5-9.28-3.75-6.64-5.32-9.44-8.84-24.57l2.07-.48c3.44 14.82 5 17.55 8.62 24 1.33 2.36 2.94 5.22 5 9.37a36.58 36.58 0 0 1 2.53 6.69c.74 2.6 1.42 5.75 2.14 9.73a384.54 384.54 0 0 1 5.4 44c.8 12.39 1 24.94.68 38.09M72 531.14l-20.11-.21c-3-.63-3.7-3.25-6.7-3.88-2.35-2.84-7-3.69-9.35-6.53s-.09-5.83 3.07-6.56c-1.81-2-1.09-4.69.46-6.63 3-3.69 5.38-6.85 8.33-10.54L41.94 456a22.89 22.89 0 0 1 0-7.26c15.4-6.74 30.67-13.82 46.06-20.6 8-3.51 15.66-3.62 24.06-2.52 12 8.1 22.76 18.29 34.77 26.39 0 0 8 31 6.29 36.45-1.29 4.17-26.9 30.46-42.77 43.85L72 531.14M539.37 430.39c-9.28 29.85-15 70.21-14.23 107.61q-2.1 3.45-4.19 6.91L360.39 540l-22.73-15.6-12.15-49.85c-6.42-16.86-11.69-32.15-18.12-49 .82-5.44 8.63-5.39 15.83-4.15 18.4 3.16 35 5.7 53.4 8.87 30.27 12.11 62.32 24.85 92.59 37q-3.88-8.91-7.75-17.81c11.09 7.58 16.37 9.23 24.85 8.85 8-.35 14.24-1.33 26.22-3.85 11.72-2.45 9.2 18.07 7.58 29.77 6.14-25.3 5.38-31.58 19.26-53.77"/><path class="cls-1" d="M72 531.87c-6-.06-16.08.72-21.43-1a26.7 26.7 0 0 1-14.73-10.4c-2.26-2.74-.09-5.83 3.07-6.56 7.69 0 15.21.16 23 .1 5.54 0 8.51-4.4 10.67-9q18-38.13 36-76.27a20.57 20.57 0 0 0 1.29-9.48c-.14-2.14-.75-5.91-1.34-9.22q-.8-8.27-1.57-16.54c14.93 5.36 29.07 10.61 44 16 6.06 2.17 11 6.62 16.17 11.19l5.86 5.66c3.72 3.62 6.74 5.89 13.41 5.82l30.14-.35a27.79 27.79 0 0 0 15.12-4.82c13.55-8 26-16.82 41.37-19.93 27.39-5.56 53.41-11 80.8-16.57q-21.24 14.36-42.47 28.72c-4.72 3.19-4.05 6.66-1.54 11.06 14.28 25.13 31.43 50.92 49.52 76.39 4.79 6.74 11.54 9.47 19.54 9.74l71.7 2.43c8.11.27 11.61.75 16.35 7.56l6.63 9.5c2.44 3.51 4.55 3.89 8.68 4.22l40.65 3.12-1.94 2.8c-149.65-4.59-299.3-9.6-448.95-14.19"/><path class="cls-1" d="M70.14 392.51l.55-.2c1.35-10.06 1.84-19.22 6.61-23 1.83-1.47 4.44-1.71 8.27-1.27 0 0 8.53.34 9.21.38 2.34.11 2.92.73 2.87 2.68-.24 9 3.72 16.63 11.17 23.49-.25 6.53-.07 10.65.1 17.39-12.25-5.59-23.46-9.43-34.91-16a14.35 14.35 0 0 1-3.87-3.46M251.78 327.8c109.2-5.92 218.62-12.16 321-7.86a320.06 320.06 0 0 0 16.72-61c.89-5.48-2.26-5.43-6.2-5.45-62.32-.26-147.59 5.28-209.5 14.33a100.39 100.39 0 0 0-21.29 5.45c-35.9 14.2-68 33.9-100.74 54.53M325.33 408.41l69.33-46.71a22.84 22.84 0 0 1 12.54-4.36l114-5.9c4.16-.22 7.71 3.74 5 7.56l-9.62 13.53c-2.82 4-5.82 5.66-10.65 6.45l-180.6 29.43M88.33 428l-32.62 14.5c-6.85 3-9.65 7.24-9.1 14.72 1 13.3 1.77 27.34 2.76 40.64 6.48-6.1 8.89-10 12-19.44 4.65-14 9.46-28.77 14.05-42.46 4.4-3.14 8.17-4.92 12.88-8M324.61 421.83c27.3 4.4 78.9 12.57 106.2 17 20.9 4 29.34 11 38.83 28.8 6.27 11.77 17.8 44.92 22.23 63.68-3-10.69-10-28.07-10.92-28.17-19-2.1-37-2.75-53.28-12.92-18.58-11.57-33.4-33.38-50.58-53.6-6.6-7.77-42.92-12.2-52.48-14.76M109.44 370.83c76.33 6.58 165.42 1.63 258.38-8.48A42 42 0 0 1 344 374c-33.76 4.45-67.33 8.41-101.08 12.84-6.31.83-9.93 2.05-14.3 6.75l-12.87 13.86a8.67 8.67 0 0 1-7.32 3.27c-5 0-11.25.05-16.24.05-3.6 0-6.25-.94-8.49-3.95l-9.69-13a7.36 7.36 0 0 0-4.61-3.35l-51.83-10.62c-4.92-1-6.48-3.75-8.1-9"/><path class="cls-2" d="M773.29 446.68c7.05 0 12.77 23.72 12.77 53s-5.72 53-12.77 53c-2 0-4-2-5.66-5.48a3.75 3.75 0 0 0 2.52 1.13c6.47 0 11.72-21.78 11.72-48.65S776.62 451 770.15 451a3.75 3.75 0 0 0-2.52 1.13c1.7-3.51 3.62-5.48 5.66-5.48"/><path class="cls-4" d="M691.1 371.63c2.83 0 5.79 4.39 6.61 9.8s-.82 9.81-3.66 9.81-5.79-4.39-6.61-9.81.82-9.8 3.66-9.8"/><path class="cls-6" d="M691.14 383.58c-.93 2.64-5.55 2.85-7.4-.41-1.3-2.3-1.08-5 2.19-5 .46 0 4.83.16 5.9.22s7.51.76 7.51.76c4.07 3.71-.19 8.88-4.6 4.48l-3.6-.08"/><path class="cls-4" d="M691.14 383.72c-.93 2.64-5.55 2.85-7.4-.42-.88-1.57 1.54-2.06 3.32-2.06 4.39 0 9.57.54 13.9 1 .29 2.79-2.92 4.85-6.22 1.56-1.2 0-2.4-.07-3.6-.08M746.11 379.05c2.37 0 4.84 3.66 5.52 8.19s-.68 8.19-3 8.19-4.84-3.67-5.52-8.19.68-8.19 3.05-8.19"/><path class="cls-6" d="M746.15 389c-.78 2.21-4.64 2.38-6.18-.35-1.09-1.92-.9-4.15 1.83-4.15.38 0 4 .14 4.92.19s6.28.64 6.28.64c3.4 3.1-.16 7.41-3.84 3.74-1 0-2-.06-3-.07"/><path class="cls-4" d="M746.15 389.14c-.78 2.21-4.64 2.38-6.18-.34-.74-1.31 1.28-1.72 2.77-1.72a115.32 115.32 0 0 1 11.61.83c.24 2.33-2.44 4-5.19 1.3-1 0-2 0-3-.07"/><path class="cls-7" d="M108.22 434.7c-10.68 24.54-22.38 49.19-34.06 73.74-2.25 4.72-5.52 8.28-10.74 8.41-8.12.18-15-.23-23.07 0-2.67.26-2.85 1.63-2.86 2.81 141.59 1.91 283.2 5.23 424.8 7.54-.76-2.37-2.72-4.06-6.7-4.61l-79.74-3.28c-7.4-.3-13.1-3-17.73-9-20.42-26.58-37.75-54.38-53.24-81.41-2.29-4.32-1.59-6.61.73-8.69 11.45-8.73 23.22-16 34.67-24.72-4.74 1.21-9.74 1.75-12.58 3.77-11.41 8.12-26.15 15.69-37.94 23-9.4 5.85-13.72 6.75-24.72 7s-19.73.89-30.86.95c-5.42 3.13-9 4.45-15.8 4.46h-33.43c-6.7 0-9.22-1.31-12.66-3.75l-37.7.23c-6.92 0-12.59-2.22-14.65-9.53-1.91-6.81-3.34-13.07-5-19.53-.77-3.05-2.87-3.62-5.52-5.49.91 7.86 2 17.18 2.73 25-.45 5.16-2 8.5-4 13.12"/><path class="cls-1" d="M123.56 442l147-2.73c11.61-.22 18.61 4.15 25.85 12.92 14.88 18 25.27 37.42 38.58 55.23 3.43 4.59 2.07 6-3.12 5.93-83.86-1-162.1-2.46-246.38-3.42-3.07 0-4.45-2.24-3.36-4.83 7.37-17.46 14.4-34.32 23.18-51.52 4-7.89 9.1-11.41 18.23-11.58"/><path class="cls-5" d="M643.07 531l89-5.62c4.09-.26 2-3.13-.23-5.46-3.12-3.24-5.56-2.11-10.09-1.58-27.93 3.29-52.94 6.87-80.88 10.46-5.72.73-1 2.41 2.21 2.2M730.65 505.22c-3.89-7.2-6.93-9.7-15-7.9l-50.25 11.14c21.77-.9 43.5-2.1 65.25-3.24"/><path class="cls-8" d="M686.45 353.53a60.58 60.58 0 0 0 7.44 7c5.49 4.62 10.47 8.81 12 17.85a313.09 313.09 0 0 1 4.11 61.09c-.61 18.93-3.25 40.79-10.06 58.82a291.38 291.38 0 0 0 8-58.88 312.12 312.12 0 0 0-4.09-60.66c-1.36-8.27-6.06-12.22-11.23-16.57a63.2 63.2 0 0 1-7.7-7.28z"/><path class="cls-9" d="M684.77 353.53a61.36 61.36 0 0 0 7.45 7c5.48 4.62 10.47 8.81 11.95 17.85a313.1 313.1 0 0 1 4.12 61.06 293.39 293.39 0 0 1-8 59.31l-2.06-.49a291.37 291.37 0 0 0 7.94-58.88 311.34 311.34 0 0 0-4.09-60.66c-1.36-8.27-6.06-12.22-11.22-16.57a62.48 62.48 0 0 1-7.7-7.28z"/><path class="cls-1" d="M591.62 327.87c3.88-16.48 11.28-43.63 20.6-59.27 5.61-9.42 15.32-10.5 28.38-6.52 46.19 14 69.27 46.86 90.73 80.88 1.65 2.55 3 6.34 1.13 9.07-1.35 2-2.74 3.9-4 5.86-1.46 2.19-4.46 2.54-6.93 2.24l-82.32-9.42c-18.79-3.84-31.7-15.23-47.55-22.84"/><path class="cls-1" d="M614.42 350.07c2.16-5.41 4.27-10.09 6.44-15.5-1.89-3.24-4.26-6-2.89-9.31a67 67 0 0 1 9.03-15.42c2.55-3.26 4.88-4.47 9.09-4.53 11.12-.14 22.25 0 33.38.36a17.18 17.18 0 0 1 11 4.33c5.15 4.46 8.43 8.51 8.9 12.63.51 4.45-2.62 8.69-7.65 12.73-2.78 1.26-3.92 2-7 2.41l-29.87 4c-8.6 1.15-10.07 11-11.08 18.48-.07.5 1 .94 3.62 1.63-10-.48-22.63-5.55-23-11.79"/><path class="cls-10" d="M617.68 328.39a5.19 5.19 0 0 1 .29-3.13 67 67 0 0 1 9.03-15.42c2.55-3.26 4.88-4.47 9.09-4.53 11.12-.14 22.25 0 33.38.36a17.18 17.18 0 0 1 11 4.33c5.15 4.46 8.43 8.51 8.9 12.63a8.89 8.89 0 0 1-.62 4.33 2.67 2.67 0 0 0-2.85-2.53L625 326c-2.46.07-5.77.31-7.32 2.38M616.53 349.94l6.81-15 57.55-2.88a63.81 63.81 0 0 1-14.89 3.37c-10.69 1.36-21.38 2.54-32.06 3.86-5 .62-6.64 2.32-7.23 7.31-.4 3.38-.93 6.58-1.39 9.9a15.33 15.33 0 0 0 3.39 2.6c-7.28-2.83-11.38-5.15-12.2-9.16"/></svg>