<svg id="Layer_1" data-name="Layer 1" xmlns="http://www.w3.org/2000/svg" viewBox="0 0 841.9 841.9"><defs><style>.cls-1,.cls-10,.cls-2,.cls-3,.cls-4,.cls-5,.cls-6,.cls-7{fill-rule:evenodd}.cls-2{fill:#4d4d4d}.cls-3{fill:#f0f0f0}.cls-4{fill:#e5e5e5}.cls-5,.cls-8{fill:#cbcbcb}.cls-6,.cls-9{fill:#fff}.cls-7{fill:#1a1a1a}.cls-10{fill:#333}</style></defs><path class="cls-1" d="M626.15 554.12a113.14 113.14 0 0 1-7.77 20.16l87.82-1.88c-2.27-4.39-4.25-11.25-5.77-19.81zm-438.6-129.94c46.29 0 83.82 39.09 83.82 87.33a89 89 0 0 1-34.65 70.9l192.39-4.1c-17.84-6.58-33-21.93-42.61-42.38-7.15-15.15 119.42 7.11 119.42-12.13 0-86 38.83-156.95 73.42-157.51 22.7-.36 50.26 32.45 40.43 101.21h-.07a123.13 123.13 0 0 1 11.14 52q0 6.22-.57 12.28l93.53-4.94c14.61-64.62 24.91-107.32 43.9-108.81 10.54-.82 15.18 13.11 16.5 48.55.84 22.49 2.62 42.18-1.52 66.78a16.28 16.28 0 0 1-4.93 8.3c-1.63 14.2-4.37 25.43-7.7 31.42 9.56.12 18.76.27 26.81.51 17 .5 1.31 5-12.85 8C720 595 665 604.85 596.72 616.56c-37.18 6.38-72.87 6.18-110.28 4.67-139.32-5.62-283.9-9.56-421-15.29-83.13-3.47 45.08-17.2 61-18.59l2.08-.18a86.1 86.1 0 0 1-44-75.66c0-48.24 37.53-87.33 83.83-87.33a80 80 0 0 1 9.59.57 80.09 80.09 0 0 1 9.61-.57zM435.59 241.89c45.85-9.75 130-19.19 176.93-19.44a12.9 12.9 0 0 1 3.2-1.9c18.27-3.16 30.19 3.33 34.74 23.08-6.6-2.13-11.41-5.58-18-7.71-1.73-5.12-8.2-7.51-15.5-7.38-25.2 0-57.39 2.37-79.92 5.08-27.18 1.31-74.26 5.28-101.44 8.27"/><path class="cls-1" d="M474.21 259.23c45.85-9.75 129.24-17.09 176.2-17.34a12.39 12.39 0 0 1 3.19-1.89c18.28-3.16 31.23 6.78 36.62 27.27-6.6-2.14-13.29-9.76-19.89-11.89-1.72-5.12-8.19-7.51-15.5-7.38-25.19 0-56.86.8-79.39 3.5-27.19 1.31-74.05 6.44-101.23 7.75"/><path class="cls-2" d="M557.39 455.73c26.33 0 47.67 28.55 47.67 63.77s-21.34 63.76-47.67 63.76-47.66-28.55-47.66-63.76 21.34-63.77 47.66-63.77m0-6.54c29 0 52.56 31.47 52.56 70.31s-23.53 70.31-52.56 70.31-52.55-31.48-52.55-70.31 23.53-70.31 52.55-70.31zM189.52 455.89c29.48 0 53.38 24.9 53.38 55.62s-23.9 55.61-53.38 55.61-53.39-24.9-53.39-55.61 23.9-55.62 53.39-55.62m0-6.6c33 0 59.71 27.86 59.71 62.22s-26.73 62.21-59.71 62.21-59.72-27.85-59.72-62.21 26.73-62.22 59.72-62.22z"/><path class="cls-3" d="M90 541.88c-4.67-.91-10.05-1.74-14.72-2.65-8.24-1.59-12.06-5.65-12.8-14.44-.3-3.58-.89-6.78-1.12-10-.28-3.92.13-6.17.4-10.07 2.37-35.2-5.15-72.29 5.15-105.21.85-2.71 1.78-6.69 5.31-9 3.87-2.5 7.1-4.83 9.54-8 1.91-2.5 1.42-2.38 4.67-3.34.26-8.43 1.64-18.33 3.82-23.61 1.24-3 3.1-5.7 8-5.5 1.59-1.68 3.39-4.58 5.79-5.62 2.82-1.22 6.3-.44 9-.57 6.76-8.74 17.57-14.43 33.64-16.19C157 315.27 202.72 312.58 249 310c42.14-32.66 89.71-64.38 130.2-61 67.8-10.2 136.24-16.81 205.74-16.88 7-5.71 18.8-6.64 33.78-2 34.69 10.86 76.09 34.45 101.3 63.5 18.27 21.05 33.47 51.93 42.89 77.86l9.36 20.77a12.53 12.53 0 0 1 .56 8.51c3.35 9.28 6.73 14 8.27 20.75 3 13.32 2.76 27.64 2.84 48.59-2.13-30.93-10.38-38.72-17.33-38.34-10.09.56-19.14 15.6-24.49 59.05-2.27 15.37-6.86 29.08-12.1 42.33-3.58.4-8.53 1.11-12 .09-5.07-1.48-10.51-3-15.79-2.88-24 .42-46.66.77-70.71 1.2 2.68-33.9-5.66-58.27-18.65-78.63 1.2-53-17.1-65.36-34.06-64.9-20.34.56-36.63 12.91-53 93-1.33 6.48 1 11.1-.63 17.47-3.6 13.57-8.16 27.15-11.88 40.73-1.77 6.49-7.87 7.38-13.69 7.33-5.39 0-8.16-.24-13.55-.28-132.23-1.47-263.74-3-396-4.48"/><path class="cls-4" d="M773 400.27c-.05.18-.09.36-.14.54 3.35 9.28 6.73 14 8.27 20.75 3 13.32 2.76 27.64 2.84 48.59-2.13-30.93-10.38-38.72-17.33-38.34-10.09.56-19.14 15.6-24.49 59.05-2.27 15.37-6.86 29.08-12.1 42.33-3.58.4-8.53 1.11-12 .09-5.07-1.48-10.51-3-15.79-2.88-24 .42-48 1-72.06 1.4 2.67-33.9-5.66-58.28-18.65-78.63.87-38.49-7.19-55.74-18.91-62 .41-2 .81-4 1.21-6 15.56 6.4 20.82 7.7 37.33 8.81l121.37 8.19c10.17.69 14.87.32 20.49-1.86"/><path class="cls-5" d="M746.89 462.94a261.25 261.25 0 0 0-4.77 27.92c-2.27 15.37-6.86 29.08-12.1 42.33-3.58.4-8.53 1.11-12 .09-5.07-1.48-10.51-3-15.79-2.88-24 .42-48.09 1-72.14 1.43 1.84-23.29-1.44-42.09-7.94-58.18L728 468.74l6.4-1.74 10.6-6.13 1.91 2.07"/><path class="cls-6" d="M736.93 513.65c-.16.56-.34 1.11-.51 1.67l-39.36.47-65.06 1.45v-1.66c35.06-.78 70-1.5 105-1.93"/><path class="cls-4" d="M634.16 508.22c32.55-.32 64.61-.68 97.16-1 2.43 0 2.69-1.93 1.57-3.58l-7.25-10.93c-3.24-4.89-6.49-3.72-10.93-3-23.9 3.74-46.76 8.67-70.72 12.42-5 .8-6.57 2-9.83 6.11"/><path class="cls-1" d="M784.43 470.64c-.08-1.07-1 1.28-1 .26-2.45-28.3-9.95-38.84-16.65-38.47-10.1.55-18 15.66-23.37 59.11a191.87 191.87 0 0 1-11.73 42.74c-.43 0-2.5-1-3-.93a212.16 212.16 0 0 0 10.69-42.6c5.66-51.5 15.92-69.33 27.54-70 17.5-1 17.48 37.4 17.53 49.88"/><path class="cls-4" d="M90 541.88c-4.67-.91-10.05-1.74-14.72-2.65-8.24-1.59-12.06-5.65-12.8-14.44-.3-3.58-.89-6.78-1.12-10-.28-3.92.13-6.17.39-10.07 2.18-32.22-4-64.51 2.77-96.15.77-3.63 1.8-7.24 3-10.86-1 8.31 18.38 7.93 26.57 7.93 87.12-3.34 173.56-6.61 260.67-9.94 5-.19 6-3.64 6-8 3 10.11 9.28 8.59 21.49 8.19 20.69-.67 92.8-3.12 125-4.21 37.23-1.27 60.1-22.09 81.92-13.08.13 3.34.5 7.92.62 11.27a28.06 28.06 0 0 0-11-1.79c-20.34.56-36.63 12.91-53 93-1.33 6.48 1 11.1-.63 17.47-3.6 13.57-8.16 27.15-11.88 40.73-1.77 6.49-7.87 7.38-13.69 7.33-5.39 0-8.16-.24-13.55-.28-132.23-1.47-263.74-3-396-4.48"/><path class="cls-5" d="M525.41 483.07c-.57 5.5 1.19 9.8-.32 15.51-3.6 13.57-8.16 27.15-11.88 40.73-1.77 6.49-7.87 7.38-13.69 7.33-5.39 0-8.16-.24-13.55-.28l-77-.86-16.22-1.14-5-53.5c9.43 5 8.91 6.91 19.64 7 12.1.12 24.2-.37 36.29-.25 7.68.08 12.92-.89 15.1-5.48 1.15 4.15 1.4 5.73 2.41 6.94 1.7 2 5.18 3.28 8.16 4.8 8.69 4.42 10-.9 9.44-8-.44-4.8-.69-7.7-1.12-12.5 11.57-.24 23.14-.56 34.71-.69 2.12 0 5.66-1.46 7.84-5.65 2.22.15 3 5.9 5.19 6.05M390.18 412.84c21.17 6.92 51.48 26.17 65.8 50.56-8-28.64-6.43-34.85-14.26-39.22-7.6-4.25-24.31-7-51.54-11.34"/><path class="cls-1" d="M615.17 459.65c-1.08-1.89-2.82-4.62-4-6.45.34-52.52-15.45-64.85-32.41-64.39-20.34.56-35.16 12.29-51.58 92.42-1.33 6.48 1.06 11.59-.63 18-2.25 8.5-5.25 16.52-7.82 25l-8.45 1.94c2.64-8.74 5.31-17.47 7.62-26.2 1.89-7.14-.78-12.32.71-19.6C537 390.45 555.32 376.59 578.15 376c18.9-.52 41.39 21.77 37 83.68M85.21 379c.28-8.4 2.39-18.32 4.56-23.57 1.24-3 3.1-5.7 8-5.51 1.58-1.68 3.38-4.61 5.78-5.64 1.46-.63 4.86-.92 9.45-.51 8.66.78 20.53 2 23.9 2.33-.65 2.83-1.31 5.67-2 8.5l-8.51 12.27c-4.25 4.27-8.61 9.15-12.86 13.41z"/><path class="cls-1" d="M89.88 543.29c-4.66-.91-10-1.74-14.71-2.64-8.24-1.6-12.06-6.21-12.8-15-.3-3.58-1-7.64-1.22-10.91v-.92l7.31-1.56a2.6 2.6 0 0 0 2.41-2.7c3-29.58 8.41-57.07 16.59-82.08 2.13-6.52 5-11 12.94-11.29 81-2.86 160.4-5.37 241.36-8.23 9-.32 16.39 1.81 20 10.28 13.07 30.6 26.14 60.81 39.21 91.38 1.66 3.86 3.66 4.76 7.72 4.63 36.91-1.19 77.11-1.94 114.22-3.07-2.77 9.34-5.75 19.9-8.3 29.24-1.78 6.49-7.91 7.68-13.73 7.64-5.39 0-8.16-.24-13.55-.29-132.23-1.46-265.18-3-397.41-4.48"/><path class="cls-5" d="M356.15 414.19a17.77 17.77 0 0 1 2.37 4.05l3.34 7.8c-90.72 4.51-180.22 8-270.94 8-2.28 0-2.94-2-1.72-3.78l5.58-8.26 10 .49c-.55 1.26-1.09 2.52-1.63 3.78s-.31 2.18 1.84 2c72.45-.12 147.15-2.17 219.93-5.9 2.52-.26 3.34-1.63 3.07-3.69-.16-1.23-.32-2.46-.49-3.69zM364.75 432.8q2.53 5.91 5.06 11.8c-91.73 4.57-192.15 7.66-283.81 7.67-2.28 0-2.94-2-1.72-3.78l5.58-8.3 10 .49c-.55 1.26-1.09 2.52-1.63 3.79s-.31 2.18 1.84 2c72.45-.13 157.23-1.69 230-5.42 2.53-.26 3.35-1.62 3.08-3.69-.16-1.23-.33-2.46-.49-3.69zM372.9 451.79l5.1 11.85c-91.56 4.46-205.16 6.95-296.18 7-2.28 0-2.94-2-1.72-3.79l5.58-8.29 10 .49c-.55 1.26-1.09 2.52-1.63 3.78s-.31 2.19 1.84 2c72.45-.12 167.32-1.07 240.1-4.79 2.52-.27 3.34-1.63 3.07-3.69-.16-1.23-.32-2.46-.49-3.69 11.19-.29 22.37-.58 34.36-.86"/><path class="cls-1" d="M409 415.91c13 1.52 30.92 3 42.91 4.63 7.31 1 12.16 5.15 13.83 12.61 4.91 21.86 8.49 40.93 10.36 63.2.4 4.24-.52 6.1-3.05 5.85a17.38 17.38 0 0 1-4.41-1.49c-5.63-2.36-6.51-4.73-7.44-10.78-3.77-24.39-13.71-45.43-25.51-67.69-5.82-1.92-18.65-4.71-26.69-6.33M137.51 343.18c-11 13.44-20.43 28.29-29.94 45.72-3 5.54-1.5 8 4.28 7.8L342 387.28c3.93-.16 5.64-1.4 4.22-5.28l-17.61-48.2c-1.32-3.62-3.73-5.08-7.65-5.12a1368.05 1368.05 0 0 0-172 8.9c-4.3.49-8.69 2.16-11.49 5.6"/><path class="cls-5" d="M332 350.39l-4-10.9c-5.12-.1-8.94-.27-12.68-.3.41 3.5-1.22 5.44-4.43 6.15-57.4 3.12-113.94 6.23-171.34 9.35-1.57-.1-1.39-1-.56-2 1.15-1.36 2.09-2.17 3.27-3.68l-8.36.31c-2.55 3.12-3.93 5.48-6.36 8.58-1.13 1.45-1.25 2.9.78 2.79 67.52-3.52 136-6.8 203.66-10.32M340 372.24l-4-10.81c-6.45 0-14.41-.06-18.47-.1.4 3.5-1.23 5.44-4.43 6.15-57.4 3.12-129.47 7.22-186.87 10.33-1.57-.09-1.61-.82-.87-1.88 1-1.42 1.77-2.33 2.9-3.77-2.48.1-6.47.2-8.95.3-2.24 3.18-3.8 5.36-5.81 8.71-.94 1.57-1.61 2.77.42 2.67 67.8-3.54 157.54-8 226-11.6"/><path class="cls-1" d="M455.9 458c9 0 16.36 6.94 16.36 15.5S464.94 489 455.9 489s-16.36-6.94-16.36-15.5 7.33-15.5 16.36-15.5M79 425.17c-2.45 2.16-4.41 4.7-4.52 5.75l-7 66.45c-.38 1.18-1.15 1.93-2 2q-.33-29.68-.64-59.37c0-3.12.17-5.64 2.92-7.48 2.35-1.58 8.89-5.74 11.25-7.32"/><path class="cls-7" d="M73.38 510.8c.17-1.54.33-3.15.48-4.24 1.8.25 3.1.06 5 .61 1.21.34 2.29 1.81 4.49 2.1 90.65 0 176.23 1.91 266.88 1.91 4.29 0 10.32-3.79 15.17-4.14 10.83-.77 19-1.05 29.18-2.2 1.72 3.18 2.82 5.93 4.54 9.1s3.88 3.94 7.39 3.86c26.13-.6 52.09-1.29 78.1-1.76-28.33 1.8-56.17 3.24-84.13 4.06-107.38-.49-225.57-3.49-325.1-3.93-4 0-8.68-.34-12.63-.35 2.24-.4 4.51-.85 6.76-1.29a4.33 4.33 0 0 0 3.83-3.73"/><path class="cls-8" d="M518.83 320.52c4.63-.13 10.29-.38 16-.69 5.54-.3 11.16-.66 16-1.05a9.93 9.93 0 0 0 2.33-.45 10.17 10.17 0 0 0 5.91-5.24 14 14 0 0 0 1.52-7.25 8.05 8.05 0 0 0-.34-1.83l1.58-.51a10.57 10.57 0 0 1 .42 2.21 15.76 15.76 0 0 1-1.7 8.14 11.83 11.83 0 0 1-6.89 6.06 12.08 12.08 0 0 1-2.7.53c-4.76.38-10.4.74-16 1.05s-11.38.55-16.07.68z"/><path class="cls-9" d="M602.16 327.79a101.34 101.34 0 0 0 7.31 17.3c8.74 15.13 13.53 34.34 15.52 56.24 1.36 14.92 1.2 53.25-2.54 70.12 2.4-25.76 2.87-48.23.89-70s-6.7-40.66-15.3-55.56a103.8 103.8 0 0 1-7.63-18.13z"/><path class="cls-8" d="M596.27 313.59c.32 1 .74 2.35 1.18 3.76 2.83 9.08 6.29 20.16 10.67 27.74 8.73 15.13 13.52 34.34 15.52 56.24s1 46.68-1.37 72.53h-.11c-.41-1-.84-2.07-1.27-3.09 2.18-24.67 3-48.37 1.1-69.28-2-21.68-6.7-40.66-15.31-55.56-4.47-7.76-8-18.93-10.82-28.08l-1.17-3.75z"/><path class="cls-9" d="M681.73 336.62A88.35 88.35 0 0 1 696.38 361a90.15 90.15 0 0 1 5.46 22.84q1.18 19.43.86 38.87t-2.17 38.88a66.09 66.09 0 0 1-3.39 14.84l-.79 2.52c.71 2 1.49 3.73 2.23 5.33a22.45 22.45 0 0 1 2.42 13.14 63.66 63.66 0 0 1-3.22 13.73 113 113 0 0 0 2.06-13.63c.48-5.57-1-8.76-2.74-12.54a61.15 61.15 0 0 1-2.38-5.74l-.08-.25.08-.26c.38-1.24.62-2 .86-2.8a64.76 64.76 0 0 0 3.33-14.5q1.83-19.38 2.16-38.75t-.85-38.7a88.67 88.67 0 0 0-5.36-22.42 86.58 86.58 0 0 0-14.38-23.88z"/><path class="cls-8" d="M680.31 336.62A88.16 88.16 0 0 1 695 361a90.58 90.58 0 0 1 5.46 22.84q1.19 19.43.85 38.87t-2.16 38.88c-.54 5.74-1.82 9.81-3.39 14.84l-.79 2.52a55.82 55.82 0 0 0 2.23 5.33c1.84 4 3.4 7.38 2.88 13.39a94.35 94.35 0 0 1-2 12.73h-1.7a92.78 92.78 0 0 0 2-12.88c.48-5.57-1-8.76-2.73-12.54a56.22 56.22 0 0 1-2.38-5.74l-.09-.25.08-.26c.38-1.24.63-2 .87-2.8a65.31 65.31 0 0 0 3.33-14.5q1.83-19.38 2.15-38.75t-.85-38.7a88.64 88.64 0 0 0-5.35-22.42A86.63 86.63 0 0 0 679 337.68zM741.39 354.87c1.29 3.27 2.79 8.34 4.21 13.16 1.19 4 2.32 7.9 3.23 10.34 1.19 3.2 2.52 6.41 3.84 9.6a142.88 142.88 0 0 1 6.19 16.83c1.44 5.24 2.07 10.21 2.79 17.55a14.57 14.57 0 0 0-1.57 1c-.74-7.74-1.35-12.83-2.81-18.15a143.27 143.27 0 0 0-6.13-16.63c-1.31-3.15-2.63-6.34-3.86-9.65-.94-2.52-2.08-6.4-3.28-10.45-1.41-4.79-2.89-9.82-4.15-13zM491.27 359.73c5.5 2 11.84 4.18 18.18 6.37s12.71 4.4 18.11 6.35c2.78 1 6.08 3.46 9.8 6.89 3.53 3.27 7.46 7.42 11.69 12.05-.33.44-.67.9-1 1.37-4.29-4.7-8.27-8.92-11.82-12.19s-6.69-5.64-9.23-6.56c-5.4-1.95-11.75-4.15-18.09-6.34s-12.85-4.45-18.2-6.38z"/><path d="M737.77 514.32l-40.58.49-66.42 1.48v-1.66c35.74-.8 71.29-1.54 107-2z"/><path class="cls-1" d="M592 307c4.91-18.91 8.77-37.82 13.68-56.73 1.72-6.65 7.69-9.43 15.08-7.35 32 9 60.88 23.37 90.36 46.92a76.66 76.66 0 0 1 12.84 14.22 428.94 428.94 0 0 1 26.35 41 13.1 13.1 0 0 1 2 6.6c.14 2.28.27 4.56.41 6.84-.11 2.28-1 2.89-2.21 2.59-40.85-16-84.92-23.2-129.71-29-8.52-5.47-17.07-10.9-25.56-16.4A7.7 7.7 0 0 1 592 307"/><path class="cls-2" d="M761.67 461.25c6.66 0 12.06 22.41 12.06 50.06s-5.4 50.06-12.06 50.06-12-22.41-12-50.06 5.4-50.06 12-50.06"/><path class="cls-1" d="M759.83 465.58c6.08 0 11 20.47 11 45.73s-4.93 45.72-11 45.72-11-20.47-11-45.72 4.93-45.73 11-45.73"/><path class="cls-7" d="M629.42 543.29l101.24-1.36c1 0 1.32.34 1 1.26-.42 1.3-.83 2.59-1.24 3.89-.57 1.83-1.22 2.22-3.26 2.25L627.63 551c.6-2.57 1.19-5.13 1.79-7.69"/><path class="cls-10" d="M684.51 258.4c-3.53-2-6.5-3.83-10-5.84a11.2 11.2 0 0 0-5.25-9.93c9.16 4.64 10.5 6.91 15.28 15.77M645.76 237.74c-3.52-2-6.49-3.84-10-5.85a11.22 11.22 0 0 0-5.26-9.93c9.17 4.64 10.5 6.91 15.28 15.78"/><path class="cls-4" d="M607.85 304.62c.7-6.15 1.26-11 2.1-14.72 1.93-8.64 6.64-11.76 13.42-12.18 12.87-.8 31.65 1.16 44.65 3.88 8 1.68 9.48 4.36 10.66 9.74 3.05 14-2.42 16.24-9.33 22 5.76-5.49 8.55-11.52 5.74-14.27-21.92 1.7-45.32 3.88-67.24 5.58"/><path class="cls-10" d="M604 307.57l-4.23 1.6 68.64-7-66.24 11.11c-7.49 1.26-7.36-3.53-6-9.2l6-23.23z"/><path class="cls-5" d="M738.61 370.32c1.94 0 4 3.3 4.52 7.36s-.56 7.36-2.5 7.36-4-3.3-4.52-7.36.56-7.36 2.5-7.36"/><path class="cls-6" d="M738.64 379.28c-.63 2-3.8 2.11-5.06-.31-.89-1.71-.74-3.69 1.5-3.69.31 0 3.3.12 4 .16s5.13.57 5.13.57c2.79 2.76-.12 6.6-3.14 3.33l-2.46-.06"/><path class="cls-5" d="M685.62 362.18c3 0 6.2 4.7 7.08 10.5s-.88 10.49-3.92 10.49-6.2-4.69-7.07-10.49.88-10.5 3.91-10.5"/><path class="cls-6" d="M685.67 375c-1 2.83-5.95 3-7.92-.45-1.39-2.46-1.16-5.32 2.34-5.32.49 0 5.17.18 6.32.24s8 .82 8 .82c4.36 4-.2 9.51-4.92 4.79-1.28 0-2.57-.06-3.85-.08"/><path class="cls-5" d="M685.67 375.12c-1 2.83-5.95 3.05-7.92-.44-1-1.68 1.64-2.2 3.55-2.2 4.69 0 10.24.57 14.88 1.06.3 3-3.13 5.19-6.66 1.67l-3.85-.09M738.64 379.38c-.63 2-3.8 2.12-5.06-.31-.6-1.16 1-1.53 2.27-1.53a88.54 88.54 0 0 1 9.5.74c.2 2.08-2 3.6-4.25 1.16l-2.46-.06"/><path class="cls-1" d="M327.66 335.25c65.53-7.62 131.07-14.73 196.61-15.18 2.29 0 3.38.66 4.14 3.3.58 2 .6 2.23 1.18 4.27 1 3.52.33 6-2.64 8.23-9.44 7.09-19.45 15.05-28.83 22.07-4.72 3.52-6.86 3.7-12.84 4l-144.64 8.14q-6.5-17.43-13-34.87M252 310.28L384 304c64.85-8.93 121.27-8 175.87 1 5.32.88 10.51.86 12.6-4.71 7.74-20.61 15.23-41 23-61.59-72.59-2.31-150.13 3.26-225.81 15.21-47 7.42-79.25 29.61-117.61 56.38"/></svg>