<svg id="Layer_1" data-name="Layer 1" xmlns="http://www.w3.org/2000/svg" viewBox="0 0 841.9 841.9"><defs><style>.cls-1,.cls-2,.cls-3,.cls-4,.cls-6{fill-rule:evenodd}.cls-2{fill:#f0f0f0}.cls-3,.cls-5{fill:#757575}.cls-4,.cls-7{fill:#cbcbcb}.cls-6{fill:#494949}</style></defs><path class="cls-1" d="M403.34 546.63c-5.54 3.47-12.81 5.41-22.27 5.39l-135.53-2.56a90.44 90.44 0 0 1-35.93 47.68c12.07-.43 19.72-.63 19.79-.64l198.6-3.15c-11.49-12.15-20.18-28.3-24.7-46.72m297.34-5.31l-63.26-4.78c-20.48 10.55-20.65 13.57-43.67 13.57a104 104 0 0 1-21.69 40.95l136.07-2.16c-4.09-9.24-6.98-26.9-7.41-47.58zm87.36 55.5c-93.63 11.36-223.65 20.78-296 22.6-147.87 3.71-299.41-1.51-433.36-5.74-42.64-1.34-12.12-4.83 35.1-9.68 5.37-.55 11.08-1.06 17-1.54-29.1-15.29-48.83-44.94-48.83-79a86.28 86.28 0 0 1 .71-11.08l-2.22-35c-.7-1.73-1.53-2.88-2.23-4.61l-5.09-8.68-.64-11.71c.06-1.26.14-2.52.26-3.78.64-6.85.86-11.21 6.55-16 7.81-6.56 9.33-6.63 19.32-6.9 73.84-2 147.69-3.58 221.53-5.58 11.74-.32 19.82 4.16 26.53 13.68 4.79 6.78 9.5 13.61 14.42 20.29 5.33 7.23 10.88 14.18 16.87 20.88 5.79 6.47 13.22 6.1 21.11 4.58 24.18-4.68 48.29-9.69 72.46-14.41 3.71-.72 7.51-1.4 11.16-2.39a27 27 0 0 0 7.65-3.15c4.93-3.17 7.68-8.66 9.77-13.94q12.81-32.42 25.63-64.83v-.05c6.83-15.63 15-19.69 31.71-18.18 5.95.54 11.86 1.05 17.79 1.74 15.14 1.77 25.23 10.27 27.69 25.54q.84 5.25 1.6 10.51 2.09 14.5 3.25 29.09c1 12.21 1.5 24.45 1.84 36.69 1.83 4.47 3.52 9 4.95 13.58 1.53 4.94 2.76 9.95 3.89 15L705 502a64.09 64.09 0 0 0 15.33-2.82c3.52-1.2 5.08-3.56 7-6.61 1.51-2.37 3-4.75 4.49-7.15a66.71 66.71 0 0 0 5-9.17 60.44 60.44 0 0 0 2.8-10q3.17-14.6 6.35-29.17c2.22-10.06 8.27-16.53 19.15-15.32 6.76.74 11.23 3.88 13.84 8.53l3.39 30.59.74 29.33.25-.38v.77q-1.47 2.58-3 5.14c-.14 13.83-.61 27.4-1.54 41.39a21.35 21.35 0 0 1-3.8 10c-1.05 19.28-4.27 35-8.52 42.19 11 .08 21.76.18 31.09.39 17.12.35 4.61 4.9-9.57 7.11z"/><path class="cls-2" d="M59.5 475.53l-20-25.83c-2.92-3.77-3.67-7.4-3.45-12.19q.69-23.31 1.37-46.62c.3-10.34 1.48-14.28 8.49-21.46 2.3-2.35 5.3-4.71 7.61-7.06-1.94-1.1-2.76-3.13-2.5-6.09L53 332c1-12 7.91-14.3 19.41-13.81 3.94-7.35 11.06-12.44 22.45-14.47a25.37 25.37 0 0 1 9.58-8.58c5.68-5.77 9.88-8.85 30.23-12.09 46.14-7.34 126.54-10.55 148.7-12.36 10.21-7.14 17.42-12.17 26-16.66 12.84-6.71 19.48-8.55 33.34-11.14 68-12.73 141.68-17.35 215-21.47 12.25-.68 22.7.49 34.12 5.13A310.42 310.42 0 0 1 647 255.71a52.07 52.07 0 0 1 17.51 18.7c11.61 21.11 19.71 45 29.85 73.09 26.18 11 52.94 21.94 79.13 32.91 3.21 1.34 4.27 3.36 5.27 6.45 6.68 20.6 10.56 41.42 10.6 62.53a5.61 5.61 0 0 1-1.59 4.39c2.13 1.21 3 3.38 3 6.19q-.06 8.58-.11 17.15c-.06 8.2-5.28 15.92-10.32 21.12l-1.42-55.85c-.23-9.34-3.94-16.6-14.12-17.72-9.46-1-14.09 4.6-16 13-2.2 10-4.23 19.45-6.35 29.17-2.08 9.53-3.08 11.75-8.17 20.07-1.62 2.66-3.06 4.92-4.51 7.19-2.73 4.3-4.68 6.49-8.55 7.82a67.05 67.05 0 0 1-16.27 3l-109-7.38c-2.73-12.46-4.79-19.61-9.38-30.74-.93-34.74-3.1-54.26-6.67-76.44-2.18-13.59-10.88-21.42-25.11-23.08-7.14-.83-11.67-1.18-17.71-1.73-15.08-1.36-22.31 1.71-28.75 16.43l-25.53 64.83c-6.71 17-14.14 18.05-30.75 21.29-26 5.06-46.67 9.42-72.47 14.41-9.07 1.75-17.32 1.81-23.87-5.51-12.7-14.21-20.75-26.2-31.5-41.43-6.19-8.78-13.32-12.73-24-12.44-73.55 2-148 3.59-221.53 5.58-9.42.26-10.26.12-17.5 6.21-5 4.19-5 8.1-5.51 14-.54 5.71-.28 9.83-.82 15.54q2.36 5.54 4.69 11.07"/><path class="cls-3" d="M340.05 302.87l-19.65-20.38a18.2 18.2 0 0 0-7.5-5 26.29 26.29 0 0 0-9.07-1c-4.3.12-9.69.24-15.85.36-15.49.33-46.57.58-85.25 1.77 29.52-2.22 62.59-3.31 85.21-3.78 6.13-.13 11.49-.24 15.83-.37a28.33 28.33 0 0 1 9.76 1.06 20.18 20.18 0 0 1 8.33 5.54l19.64 20.38zM551.85 290.37l17.16 4.49-.51 1.95-17.16-4.49.51-1.95z"/><path class="cls-4" d="M59.5 475.53l-20-25.83c-2.92-3.77-3.67-7.4-3.45-12.19q.69-23.31 1.37-46.62c.25-8.6 1.11-12.78 5.43-18.07 3.63 8.2 17.77 4.65 25.1 4.61l2.2 11.77q1.78 5.19 3.59 10.38l4.79 4 7.38 1.8 233.82-14.48c3.58-5.42 4.3-11.24 7.91-16.66 1.61-2.41 6.08-4.43 7.71-6.84 29.67-1.13 59.35-1.36 89-2.5-.59-4.3-10.14-6.87-18.46-7 7.07-.18 12.65-.45 19.73-.63 7.89-.19 14.45 4.14 15.39 12 14-.94 26.18-1.68 40-2.62 7-.48 4.32 14.36 3.74 18.38.44-1.24 6.85-21.4 7.26-22.54 7.69-21.27 12.06-24.46 20.84-26.36 9.67-2.08 19.17-.09 27.69.81 13.81 1.47 24 5.56 33.2 15.38 4.16 4.46 6.27 5.65 8.41 23.73.4-4.52-.4-9.05 0-13.57 54.11 11.5 106.51 29.83 159.33 46.15q-.36 5.14-.7 10.28c3.33-7.73 7.63-11.62 11.27-11.33 8.2.64 16.65 2.83 20.76 6.35 6 5.13 5.32 11.51 7.49 19.55-.47-4.59.31-9.08-.15-13.67 2.76.57 4.27 1 7 1.6a183 183 0 0 1 2.24 27.95 5.61 5.61 0 0 1-1.59 4.39c2.13 1.21 3 3.38 3 6.19q-.06 8.58-.11 17.15c-.06 8.2-5.28 15.92-10.32 21.12l-1.42-55.85c-.23-9.34-3.94-16.6-14.12-17.72-9.46-1-14.09 4.6-16 13-2.2 10-4.23 19.45-6.35 29.17-2.08 9.53-3.08 11.75-8.17 20.07-1.62 2.66-3.06 4.92-4.51 7.19-2.73 4.3-4.68 6.49-8.55 7.82a67.05 67.05 0 0 1-16.27 3l-109-7.38c-2.73-12.46-4.79-19.61-9.38-30.74-.93-34.74-3.1-54.26-6.67-76.44-2.18-13.59-10.88-21.42-25.11-23.08-7.14-.83-11.67-1.18-17.71-1.73-15.08-1.36-22.31 1.71-28.75 16.43l-25.56 64.86c-6.71 17-14.14 18.05-30.75 21.29-26 5.06-46.67 9.42-72.47 14.41-9.07 1.75-17.32 1.81-23.87-5.51-12.7-14.21-20.75-26.2-31.5-41.43-6.19-8.78-13.32-12.73-24-12.44-73.55 2-148.09 3.19-221.63 5.19-9.42.25-10.26.11-17.5 6.2-5 4.19-5.26 8.49-5.81 14.4-.54 5.71-.18 9.83-.72 15.54 1.57 3.69 3.43 7.38 5 11.07"/><path class="cls-3" d="M719.46 446.14l-115.26-15.7c-12-1.63-11.79 18.53.77 20.17l105 13.72c15.71 2.05 18.26-5.37 18.85-10.15 1.13-7.17-3.85-7.16-9.32-8m-126.63-43.7c6.22 15 16.35 16.13 30.42 18 25.84 3.51 88.28 12.61 103.93 14.59 5.91.75 9.95-2.19 13.2-8.14-3.67 9.93-7.08 20.35-8.42 30.88-.54 4.22.77 6.28 8.37 4.69l3.25-.69q-.55 2.49-1.09 5c-2.08 9.53-3.08 11.75-8.17 20.07-1.62 2.66-3.06 4.92-4.51 7.19-2.73 4.3-4.68 6.49-8.55 7.82a67.05 67.05 0 0 1-16.27 3l-109-7.38c-2.73-12.46-4.79-19.61-9.38-30.74-.12-4.43-.26-8.61-.42-12.59 8.6-14.68 5.87-34.49 6.64-51.7zm197.85 68.7v5.94c-.06 8.2-5.28 15.92-10.32 21.12q-.37-14.94-.76-29.88c1.12 1.64 5.25 3.04 11.08 2.82z"/><path class="cls-3" d="M694.53 347.56l3 1.25c.19.37.39.75.58 1.14.68 1.37 1.34 2.79 1.92 4.14 3.17 7.37 5.16 18.07 6.26 31.31a454.22 454.22 0 0 1 .87 46.36 24.6 24.6 0 0 1-1.13 6.79 14 14 0 0 1-2.42 4.54l.54 1.39a54 54 0 0 1 3.13 9.78c1.24 6.41.58 13.69-1.29 20.62a57.69 57.69 0 0 1-9.64 20l-1.59-1.25a55.58 55.58 0 0 0 9.28-19.3c1.79-6.65 2.43-13.62 1.25-19.71a52.81 52.81 0 0 0-3-9.42c-.28-.71-.55-1.4-.77-2l-.23-.59.44-.46a11.44 11.44 0 0 0 2.4-4.27 22 22 0 0 0 1-6.21 450.24 450.24 0 0 0-.87-46.14c-1.08-13-3-23.52-6.1-30.68-.58-1.35-1.22-2.74-1.87-4s-1.19-2.33-1.76-3.29M590.62 477.2c-.46-1.37-1-2.75-1.49-4.17a408.9 408.9 0 0 0-5.62-135 126.29 126.29 0 0 0-3.16-12.4 88.45 88.45 0 0 0-4.41-11.41 47.87 47.87 0 0 0-3.24-5.64c-2.12-3.3-4-6.26-5-12.11v-.13A273.81 273.81 0 0 1 570 260c1.28-9.82 3.15-19.28 5.79-25.44a9.49 9.49 0 0 1 8-6.15c3.39-.46 8.27 1.48 12.84 2.64-7.66-1.26-15.69-4.9-19.5 4-2.56 6-3.89 15.55-5.15 25.21a272.12 272.12 0 0 0-2.28 36 26.15 26.15 0 0 0 4.66 11.27 48.92 48.92 0 0 1 3.37 5.87 91 91 0 0 1 4.51 11.67 127.48 127.48 0 0 1 3.21 12.6 410.42 410.42 0 0 1 5.13 139.53M59.5 475.53l-20-25.83c-2.92-3.77-3.67-7.4-3.45-12.19q.3-10.26.61-20.54a6.12 6.12 0 0 0 .68 1.55 19.57 19.57 0 0 0 4.29 3 74.27 74.27 0 0 0 8.38.4c2.9 0 362.46-14.37 362.46-14.37 19.57-3.76 27.37-.59 28.44-19.86l.2-16.16c2.75 17.67 4.66 24.28 12.61 25.13 6.18.67 14.25-1.46 28.6-5.67l5.19-12q-3.18 11.67-6.38 23.35c2 9 11.3 8 17.61 4.13q-8 20.16-15.94 40.33c-6.71 17-14.14 18.05-30.75 21.29-26 5.06-46.47 10.22-72.27 15.21-9.07 1.75-17.32 1.81-23.87-5.51-12.7-14.21-21.75-26.8-32.5-42-6.19-8.77-13.32-12.72-24-12.44l-220.63 6c-9.42.26-10.26.12-17.5 6.2-5 4.2-4.66 7.5-5.21 13.41-.54 5.71-.68 9.83-1.22 15.54q2.36 5.54 4.69 11.07"/><path class="cls-3" d="M69.55 391.6c2.46 4 4.35 6.87 11.48 6.63 69.76-2.36 138.88-4.73 208.67-7.09 6.62-.22 16.78-2.52 21.28-7.35 8.24-8.84 16.28-18 24.52-26.82 4.25-4.71 4.9-6.63 1.8-17.56 4.49 10 6.64 10.77 13.57 11.87-6.72 7.65-13.19 14.76-19.91 22.41-3.78 4.31.29 5.14 4.94 5.3 6.52.13 12.64.6 19.16.73l-7.18 13.38-39.32 15.17-229.73 4.59-7.49-1.86q-.89-9.68-1.79-19.36"/><path class="cls-1" d="M53.46 362.42l.06-.05c-1.94-1.1-2.76-3.13-2.5-6.09L53 332c1-12 7.91-14.3 19.41-13.81l23.4-.82-18.89 38.39-10.18 1-3.59 3.79zM290.49 269.57c46-.93 90.12-1.67 131.68 2 41.83-2 60.91 1.14 129.48 20.86 1.56-22.15 5.07-44.07 12.08-65.16-62.53-1.61-149.32 5.39-228.34 19.06-16.2 2.81-28.3 12.36-44.9 23.25M575.7 292.15a240.18 240.18 0 0 1 3.3-44.85c1.11-6.6 4.21-11.76 11.82-10.87a94.83 94.83 0 0 1 27.18 7.74 9.79 9.79 0 0 1 5.05 5.18c13 26.8 22.24 53.6 27.55 80.4.53 2.68-.22 4-3.15 3.08L592 315c-11.22-3.6-16.05-11.62-16.25-22.82M631.38 251.47c11.82 25.54 21.25 50.44 26.14 77 1.93 7.1 3.58 9.34 10.64 10.74 3 .6 6.68 1.35 10.38 1.71 6.1.58 8.09-.2 6.88-5.79-4.12-19-12.33-39.55-22.9-59.5a35.54 35.54 0 0 0-15.06-15.56c-5.73-3.11-10.36-5.53-16.08-8.64"/><path class="cls-1" d="M97.1 310.36l-21.58 46.39c-2.49 4.82-3.45 9.32-1.49 16l4 13.62c1.24 3.74 3.54 6.05 8.18 5.88l201.88-7.49c6.81-.25 12.74-1.86 17.5-7.14 6.43-7.13 12.32-13.57 18.83-20.79 4.1-4.56 4.77-8.87 2.37-14.39-7.36-16.85-18.72-35-29.36-49.64-2.95-4.06-7.83-5.22-12.78-5-57 2.68-116.62 6.46-174.57 13.09-6.08.69-10.26 3.61-13 9.44M335.22 309.4c6.33 10.79 12.6 20.19 18.93 31-1.58-4.43-5.07-7.94-1-8.06l32.89-1c2.78-.09 4.28.62 6.74 2.28 1.27.87 3.82 3 5.26 4.06 4.42 3.39 4.5 2.93 10.15 2.81 10.93-.23 20-.37 30.89-.6 7.46-.15 10.47-.82 17.3-4.32s15.89-9.69 23-14.57c1.82-1.24 3.06-2.88 2.89-5a54.6 54.6 0 0 0-2.08-10.15c-.86-2.51-2.84-3.41-5.25-4.47-17.76-7.81-35.26-11.15-54.43-9.4-25 1.22-49.8 3-74.31 5.64-4.28.47-14.89 5.17-11 11.77"/><path class="cls-1" d="M71.15 387.57c-8.4.76-15.7 1-24.1 1.77a6.86 6.86 0 0 0-6.7 7l-1.08 29.81c-.16 4.52.28 8.57 5.64 10.05 4.24 1.16 6.29 1.49 10.53 2.65 4.67-6.82 10.41-11.52 17.83-11.76 79.79-2.65 157.48-5.39 237.26-8 12.45-.42 16.59 3.63 32.22 12.21 20.46-3.4 39-6.6 59.48-10 8.35-1.46 13.77-5.3 13.77-13.85.06-7.57-.09-13.65 0-21.23 0-5.8-3.5-9.49-9.17-9.25-18.33.78-35 .75-53.3 2-4.72.31-8.56 2.43-12.13 6.12-3.29 3.41-6.77 6.92-10 10.46-4.23 4.67-8.83 5.91-14.86 6.14C238.58 404.6 160.1 407 82.16 410c-4 .15-8.09-.38-8.7-5l-2.31-17.44"/><path class="cls-5" d="M480.51 446.73c-1.86-1.66-3.71-3.31-5.6-4.87a9.36 9.36 0 0 1-3.2-4.17 9 9 0 0 1 .13-5.34c2.25-8.34 4.26-16.1 6.24-23.75 4.12-15.92 8.14-31.42 13.25-48.27 2-6.62 4.22-13 8-17.67s9.27-7.89 17.6-7.81c5.19 0 10.34.23 15.44.57s10.25.86 15.33 1.59a41.1 41.1 0 0 1 18 6.75 43 43 0 0 1 12.72 14.55c-4.52-6.61-6.79-7.95-13.88-12.89a39.18 39.18 0 0 0-17.13-6.42c-5-.72-10.1-1.23-15.18-1.57s-10.23-.52-15.32-.57c-7.61-.08-12.53 2.7-16 7.05s-5.69 10.58-7.64 17c-5.09 16.77-9.1 32.27-13.23 48.19-2 7.85-4.09 15.8-6.24 23.76a7.23 7.23 0 0 0-.17 4.18 7.53 7.53 0 0 0 2.58 3.25c2.05 1.7 3.85 3.31 5.66 4.92 1.6 1.65-.9 1.9-1.35 1.51"/><path class="cls-6" d="M518.56 460.58c25.16 0 45.56 25.47 45.56 56.9s-20.4 56.9-45.56 56.9S473 548.9 473 517.48s20.4-56.9 45.56-56.9m0-6.17c27.89 0 50.5 28.24 50.5 63.07s-22.61 63.07-50.5 63.07-50.49-28.24-50.49-63.07 22.6-63.07 50.49-63.07zM758.47 486.94c6.17 0 11.18 18.68 11.18 41.71s-5 41.72-11.18 41.72c-1.53 0-3-1.14-4.31-3.21a3.14 3.14 0 0 0 1.12.22c5.73 0 10.37-17.34 10.37-38.73s-4.64-38.72-10.37-38.72a3.14 3.14 0 0 0-1.12.22c1.33-2.07 2.78-3.21 4.31-3.21"/><path class="cls-1" d="M360.49 378.59l-31.29-.08 16.87 3.7 14.42-3.62z"/><path class="cls-7" d="M441.82 373.51c0 5.57-.13 12.88-.3 20.18s-.33 14.6-.3 20.13c-.13 6.25-.44 11.47-2.51 15.66s-6 7.38-13.19 9.24c-10.59 2.74-20.44 5.37-30.29 8-9.58 2.56-20.37 5.12-31.41 8 15.11-5.3 45-13.74 61.19-17.92 6.56-1.7 10-4.44 11.89-8.19s2.18-8.8 2.3-14.8c0-5.57.14-12.86.3-20.16s.33-14.6.3-20.14z"/><path class="cls-3" d="M650.33 310c2.29 9.85 4 20.53 9.29 29.18a39.42 39.42 0 0 1 2.88 5.3c3.17 7.37 5.16 18.07 6.25 31.31a451.09 451.09 0 0 1 .88 46.36 24.3 24.3 0 0 1-1.14 6.79 13.84 13.84 0 0 1-2.42 4.54l.55 1.39a53.2 53.2 0 0 1 3.12 9.78c1.22 6.28 1.17 13.8.3 21.28a101.1 101.1 0 0 1-5.48 23.29l-1.89-.72a99.17 99.17 0 0 0 5.36-22.8c.85-7.29.9-14.61-.27-20.67a52.81 52.81 0 0 0-3-9.42c-.28-.71-.56-1.41-.77-2l-.23-.59.43-.46a11.47 11.47 0 0 0 2.41-4.27 22 22 0 0 0 1-6.21 450.17 450.17 0 0 0-.87-46.14c-1.08-13-3-23.52-6.1-30.68a39.48 39.48 0 0 0-2.74-5.05c-3.8-6.21-6.89-23-7.57-30.23"/><path class="cls-1" d="M585.42 295l5.29-.7c-1.86-.26-2.33-1.18-2.39-2.3-.09-7.16.61-16.94 5.67-23.66 3.43-4.55 7.74-5.91 13.29-5.83l35.91.49a13.18 13.18 0 0 1 11.13 6.65c3.9 6.72 4.91 14.14 5.9 20.91.17 9.95-17.57 13.52-25.4 14.49-15.72 2-30.34 4.21-46.06 6.16-2-2.15-6.74-7.41-7.23-11.44-.27-2.17 1-4 3.89-4.77"/><path class="cls-2" d="M588.32 292c-.09-7.16.81-14.24 5.87-20.95 3.43-4.55 7.74-5.92 13.28-5.84l35.92.49a13.18 13.18 0 0 1 11.13 6.65c3.76 6.49 4.65 11.11 5.59 17.51-3.8-3.74-10.91-3.73-15.8-3.28-19.1 1.78-36.9 3.65-56 5.42"/><path class="cls-3" d="M584.47 307.36c-.48-8.34.21-7 8.29-8.39l52.63-7.1c4.38-.59 3.75-.22 6.8-3.53-21.13 2.52-42.35 4.33-63.47 6.84-8.94 1.07-7.29 6-4.25 12.18M301.5 312.49c-3.08-4.87-6.32-9.6-9.65-14.18-2.74-3.75-7.25-4.83-11.83-4.62-52.75 2.48-113.88 6.18-167.54 12.32-5.63.64-9.5 3.34-12 8.75-1.86 4-2.87 5.59-4.65 9.3z"/><path class="cls-1" d="M233.28 313.7l42.72-2.41-2.69-4.29a4.18 4.18 0 0 0-3.42-2L232 307.8c-1.2.08-1.68 1.13-1 2.26zM107.88 320.86l41.44-2.44 2.5-4.23c.73-1.23.24-2.2-1-2.11L113 314.91a4.85 4.85 0 0 0-3.42 2.49z"/><path class="cls-3" d="M302.43 325.2c-67.94 4.53-135.84 7.61-203.78 12.14-3.19.21-9.18.48-10.8 3.83-1.5 3.11-2.86 5.85-4.4 9.11 4.68-1.95 9.1-2.59 15.17-3.18 68.9-4.59 138.39-7.79 207.29-12.38a24.32 24.32 0 0 1 8.11.33c-1.26-2.55-2.34-4.62-3.7-7.11s-5.32-2.94-7.89-2.74M310.39 348.82L90.67 360c-3.54.18-12.12 1.8-11.6 6.5a17.64 17.64 0 0 0 .73 3.5 83.31 83.31 0 0 0 2.6 8.32 8.31 8.31 0 0 0 .87 1.87c2.35-1.56 5.32-1.7 8.08-1.83 66.51-3.33 133-7 199.48-10.32a111.22 111.22 0 0 1 11.3-.27 162.79 162.79 0 0 0 12.51-12.92 15.78 15.78 0 0 0 3.47-5.31 24 24 0 0 0-7.72-.67"/><path class="cls-1" d="M278.56 352.87l-42.5 2.13-2.57 4.83c-.66 1.24-.24 2.2 1 2.15l37.92-1.63a4.68 4.68 0 0 0 3.43-2.34zM147.9 360.08l-42.19 2.15 2.6 4.43a4.26 4.26 0 0 0 3.43 2l37.92-1.66c1.21-.06 1.65-1.07 1-2.24z"/><path transform="rotate(-55.69 278.605 351.07)" d="M275.44 350.06h6.37v2.02h-6.37z"/><path transform="rotate(-34.31 275.974 313.055)" d="M274.95 309.87h2.02v6.37h-2.02z"/><path transform="rotate(-61.84 108.215 322.43)" d="M105.01 321.4h6.37v2.02h-6.37z"/><path transform="rotate(-31.41 106.225 361.13)" d="M105.22 357.97h2.02v6.37h-2.02z"/><path class="cls-3" d="M64.06 477.75c-1.77-3.83-5.89-11.17-5.66-15.19a167.86 167.86 0 0 1 1.85-17.29c1-5.74 2.46-5.43 6.69-9.55 2.44-2.38 5.48-2.85 8.65-2.93 75.41-1.89 149.16-3.79 224.59-5.68 9.62-.24 15.91 5.45 21.2 12.51 9.84 13.16 14.8 21.34 27.7 33.54-6.56-4.52-14.79-12.44-23-12.3-87.61 1.43-173.65 2.87-261.24 4.31-5.65.1-3 6.61-.78 12.58"/><path class="cls-4" d="M651.06 341.61c3 .64 6.11 5.94 7 11.84s-.86 10.16-3.85 9.52-6.12-5.94-7-11.84.87-10.16 3.86-9.52"/><path class="cls-2" d="M651.11 354.23c-1 2.58-5.87 1.75-7.81-2.11-1.37-2.72-1.14-5.49 2.31-4.75.48.11 5.09 1.26 6.22 1.56s7.93 2.51 7.93 2.51c4.3 4.84-.2 9.33-4.85 3.69-1.27-.29-2.54-.61-3.8-.9"/><path class="cls-4" d="M651.11 354.37c-1 2.58-5.87 1.76-7.81-2.11-.94-1.85 1.62-1.82 3.5-1.42 4.63 1 10.1 2.73 14.67 4.19.3 3-3.09 4.46-6.56.24-1.27-.29-2.54-.61-3.8-.9"/></svg>