<svg id="Layer_1" data-name="Layer 1" xmlns="http://www.w3.org/2000/svg" viewBox="0 0 841.9 841.9"><defs><style>.cls-1,.cls-10,.cls-11,.cls-2,.cls-3,.cls-4,.cls-5,.cls-6{fill-rule:evenodd;}.cls-2{fill:#4d4d4d;}.cls-3{fill:#f0f0f0;}.cls-4{fill:#e4e4e4;}.cls-5,.cls-8{fill:#5b5c5e;}.cls-6{fill:#cacaca;}.cls-7{fill:none;stroke:#000;stroke-miterlimit:22.93;stroke-width:2.13px;}.cls-9{fill:#8b8d93;}.cls-10{fill:#333;}.cls-11{fill:#76787b;}</style></defs><path class="cls-1" d="M601.28,223.8c2.17-.51,6.84-1.14,9.25-1.47,4.21-.56,5.91-.52,9.34.41A71.16,71.16,0,0,1,630,227.37c3,1.56,3.46,3.89,4.46,6.19l53,27.37c2.27-.63,2.69-.5,4.16.21a53.84,53.84,0,0,1,8.61,5.17c3.42,2.52,5.83,5.37,7.75,11.29-12.44-6.31-25-12.65-37.67-19q-7.44-3.91-15-7.69t-14.94-7.35c-13.13-6.61-26.23-13.2-39.16-19.75"/><path class="cls-1" d="M253.66,557.09a97.7,97.7,0,0,1-38.56,47c6.32.12,10,.24,10.09.23,71.09-1.51,142.49-2.87,214.27-4.55-15.71-7.51-29.2-21.52-38.66-39.61l-121.27.41c-5.49,0-4.29,0-8.46-3.64l-17.41.15m431.77-10.16c-3.06,0-6.42-.58-8.25-3.25l-24.39-.61c-3.26,3.41-5,4.62-9.56,4.78-11.63.4-21.26.81-32.88,1.21-4,18.09-11.53,34.1-21.49,46.62q54-1.74,108.31-4C692.35,582.66,687.36,566.44,685.43,546.93ZM785.6,597.66c-87.23,17.75-197,28.48-269.93,29.73-128.44,2.21-318.08-.16-459.36-5.62-42.71-1.65-12.12-6.51,35.25-13,8.37-1.14,17.51-2,27-2.72-29-16.81-48.59-48.79-48.59-85.47a100.26,100.26,0,0,1,6.91-36.74l2.11,2a33.86,33.86,0,0,1-2.83-13.47v-.16c.78-25.62.6-51.25,1.31-76.87.26-9.29,2.46-18,7.93-25.62,8.88-13.9,19.7-26.59,30.87-38.69,6.08-6.57,13.65-7.95,22.15-8.75,49.58-4.63,99.23-7.32,149-8.81,9-.27,15.73,2,21.07,9.46l21.86,30.73c6.41,9,7.36,19.39,7.79,30.11.6,14.56,1.58,29.1,2.32,43.65.14,2.87.25,5.78.62,8.63a57.86,57.86,0,0,0,1.77,8.22q6.73,24.33,13.48,48.65c.73,2.65,1.92,5.16,5,5.29,28.54,1.24,57.05,3,85.58,4.24,4,.18,6-.35,9.17-2.91l38.13-31.14c7.62-6.23,9.44-9.58,13-18.63,7.68-19.45,15-39,22.71-58.48,5.34-13.52,14.83-15.85,28.24-14.38a115.44,115.44,0,0,1,21.65,4.46c15.27,4.67,18.79,21.71,19.35,35.64.53,13.27,1,26.54,1.5,39.81a152.32,152.32,0,0,1,14.87,51l87.95,2.82c3.78-3.55,7.46-7.2,11.25-10.74,5.14-4.79,7.24-9.06,9.13-15.75,5.13-18.19,10.05-36.43,15.19-54.61,2-7.21,5.82-13.2,14-13.33A27.58,27.58,0,0,1,768,421c5.37,3.92,7.83,9.39,7.72,16l.78,40.11A69.38,69.38,0,0,0,778,464c.21-11.51.41-23,.61-34.47,0-.86,0-1.72,0-2.58l.1.46-.3,42.77q-1.86,10.49-3.71,21l-1.05,34.77c-.13,4.24-2.19,8.11-4.72,11.42-.52,22.57-3.41,41.91-7.51,52.71,13-.41,25.84-.78,37.19-.45C815.6,590.11,799.84,594.77,785.6,597.66Z"/><path class="cls-2" d="M534.37,457.09c24.67,0,44.89,27,45.17,60.33s-19.48,60.33-44.15,60.33-44.89-27-45.18-60.33,19.49-60.33,44.16-60.33m-.07-7.94c27.92,0,50.8,30.56,51.12,68.27s-22,68.27-50,68.27-50.8-30.57-51.12-68.27a85.24,85.24,0,0,1,8.13-37.8l7.29-6c7.62-6.22,9.81-9.7,13.22-18.12A39.51,39.51,0,0,1,534.3,449.15Z"/><path class="cls-3" d="M96.74,505.55c-13.27-10.95-26.14-22.76-38-36.75-3.77-4.44-4.22-9.27-4.2-15.12.09-21.82-.17-43.13-.13-64.87,0-8.27,4-11.32,8.55-18.32L62.45,359q-2.22-4.47-4.46-8.94a11,11,0,0,1,0-7.52L61.83,333c1-2.42,2.05-3.16,4.7-2.88l3.09.33c2.65-3.31,3.84-4.06,7.91-4.08l14.64-.09c6.51-10.87,22.9-16.6,48.1-17.72,6.1-5.18,11.69-7.19,22.19-8l79-6.48c2.36-2.51,3.06-4.34,18.89-5,16.87-17.4,33.35-33.11,49-44.7,6.62-4.91,11.46-6.75,19.41-8.19,77.26-14.07,156.36-19.3,233.71-22.38a72.29,72.29,0,0,1,29.49,5.14,881,881,0,0,1,121.33,60.48c7.76,4.91,14.64,11.73,18.62,20.08q15.69,32.88,31.36,65.76l16,46a77.23,77.23,0,0,1,2.24,18.28q-.32,17.28-.61,34.54c-.26,13.79-3.72,22-7,30.58q-.57-28.8-1.12-57.6c.12-6.23-2.3-10.58-6.51-13.65a24.83,24.83,0,0,0-13.22-4.17c-5.81.09-9.12,3.83-11.2,11.19-5.24,18.5-10,36.15-15.2,54.6-2,7.25-4.41,11.94-10,17.11-4.28,4-7.85,7.58-12.13,11.57l-91.74-2.95a149.93,149.93,0,0,0-15.13-53.13c-.58-14.5-1-26-1.53-40.44-.5-12.58-3.45-28.71-17.26-32.93a108.32,108.32,0,0,0-21.11-4.36c-12.14-1.33-20.37.38-25.18,12.54-7.7,19.49-15,39-22.71,58.47-3.83,9.7-5.78,13.21-13.9,19.84l-38.13,31.14c-3.66,3-6.36,3.78-11.16,3.57-28.34-1.25-57.27-3-85.58-4.24-4.37-.19-6.56-3.32-7.71-7.45q-6.74-24.33-13.48-48.66c-2-7.16-2.11-10.07-2.49-17.48-.74-14.54-1.73-29.24-2.32-43.68-.41-10.13-1.23-20.06-7.25-28.52Q317,340,306,324.67c-4.62-6.49-10.21-8.47-18.58-8.22-51.08,1.53-99.27,4.18-148.8,8.8-7.63.72-14.72,1.83-20.26,7.81-11.76,12.73-22.19,25.18-30.59,38.35-5.18,7.18-7.19,15.35-7.43,24-.71,25.63-.53,51.25-1.3,76.88.13,5.87,1.39,11.37,4.77,16.15l12.9,17.07"/><path class="cls-4" d="M770.91,387.22l8.37,24a77.23,77.23,0,0,1,2.24,18.28q-.32,17.28-.61,34.54c-.26,13.79-3.72,22-7,30.58q-.57-28.8-1.12-57.6c.12-6.23-2.3-10.58-6.51-13.65a24.83,24.83,0,0,0-13.22-4.17c-5.81.09-9.12,3.83-11.2,11.19-5.24,18.5-10,36.15-15.2,54.6-2,7.25-4.41,11.94-10,17.11-4.28,4-7.85,7.58-12.13,11.57l-91.74-2.95a149.93,149.93,0,0,0-15.13-53.13c-.58-14.5-1-26-1.53-40.44-.5-12.58-3.45-28.71-17.26-32.93a108.32,108.32,0,0,0-21.11-4.36c-12.14-1.33-20.37.38-25.18,12.54-7.7,19.49-15,39-22.71,58.47-3.83,9.7-5.78,13.21-13.9,19.84l-38.13,31.14c-3.66,3-6.36,3.78-11.16,3.57-28.34-1.25-57.27-3-85.58-4.24-4.37-.19-6.56-3.32-7.71-7.45q-6.74-24.33-13.48-48.66c-2-7.16-2.11-10.07-2.49-17.48-.74-14.54-1.73-29.24-2.32-43.68-.36-8.85-1-17.55-5.21-25.24,3.91,3.84,6.52,5.73,13.71,6.11L424.57,369l-7.32-8.94-20.72-22.35L350,331.86l122.72-13.41c39.14-.59,73.11,1,111.59,11.05l144.52,37.64c10,2.62,8.38,11.1,17.26,13.47Z"/><path class="cls-5" d="M537.86,384.1a18,18,0,0,0-1.49,1.62c-1.2-.47-2.47-.92-3.85-1.31a30.06,30.06,0,0,0-6.53-1.1c-4.43-.27-9.44-.48-14-.67-4-.17-7.79-.33-10.48-.49a21.36,21.36,0,0,1-9.64-2.7,22.52,22.52,0,0,1-7.41-7.32c-1.49-2.25-2.93-4.76-4.34-7.41s-2.78-5.45-4.12-8.27a8.21,8.21,0,0,0-5-4.06,28.36,28.36,0,0,0-8.81-1.2v-2.06a30.51,30.51,0,0,1,9.47,1.32,10.11,10.11,0,0,1,6.2,5.11c1.35,2.84,2.71,5.61,4.08,8.2s2.79,5,4.23,7.23a20.38,20.38,0,0,0,6.74,6.68,19.42,19.42,0,0,0,8.72,2.43c2.79.17,6.47.32,10.44.49,4.67.19,9.74.41,14.08.67a32.29,32.29,0,0,1,7,1.17,48.53,48.53,0,0,1,4.79,1.67"/><path class="cls-6" d="M521.8,420.23c-3.93,10.22-7.86,20.44-11.9,30.65-3.83,9.7-5.78,13.21-13.9,19.84l-38.13,31.14c-3.66,3-6.36,3.78-11.16,3.57-28.34-1.25-57.27-3-85.58-4.24-4.37-.19-6.56-3.32-7.71-7.45q-6.74-24.33-13.48-48.66c-2-7.16-2.11-10.07-2.49-17.48-.34-6.61-.73-13.25-1.1-19.89,2.91,2.51,6.06,3.33,13.37,3.18l51.86-1.08,40.64,3.65q.3-25.09.61-50.18a9.43,9.43,0,0,0,6.8,3.81,125.43,125.43,0,0,0,16.9.19c2.49-.26,4.48-2.13,7.13-5.17-2.41,4.72-4.07,8.64-4.06,14q0,22.22.1,44.42c7.12.06,9.46-.08,16.58,0,2.54,0,10.58-.87-5.67,37.07,5.88-2.76,22.84-47.81,25.25-54.1-4.75,15.28-3.21,16.93,15.94,16.77"/><path class="cls-6" d="M737.51,445.88c-3.62,13-7.12,25.87-10.86,39.12-2,7.25-4.41,11.94-10,17.11-4.28,4-7.85,7.58-12.13,11.57l-91.74-2.95a149.93,149.93,0,0,0-15.13-53.13C597.42,451,597.2,445,597,439c5-5.09,9-6.88,18.48-5.8l104.31,12c4.18.48,4.72,4.9,4.72,8.66l3.45-8.13Z"/><path class="cls-1" d="M63,370.45,62.45,359q-2.22-4.47-4.46-8.94a11,11,0,0,1,0-7.52L61.83,333c1-2.42,2.05-3.16,4.7-2.88l3.09.33c2.65-3.31,3.84-4.06,7.91-4.08l14.64-.09,27.1.56-28,29.72c-12.24,2.29-14.08,2-22.8,11.53a5.5,5.5,0,0,1-3.57,2.13,7.23,7.23,0,0,1-1.95.27"/><path class="cls-1" d="M727.22,291.9a41.45,41.45,0,0,1,4.65,7.54l22.71,47.63c.58,4.24.62,9.73-4.47,8.45l-7.25-1.83c-4.44-1.12-7.42-4-9.53-8-13.21-24.58-26.88-50.9-40.08-75.48,9,5,17.6,8.85,24.54,13.5a43.08,43.08,0,0,1,9.43,8.22"/><path class="cls-1" d="M265.66,287.79c97.76-3.33,190-3.51,286.52,9.41a6.81,6.81,0,0,0,7.62-3.92c7.2-14.36,5.78-50.75,7.84-75.33-80.17.27-160.55,5.9-240.73,20.91a37.94,37.94,0,0,0-14.8,6.49c-17.24,13.53-31.75,27.49-46.45,42.44"/><path class="cls-1" d="M323,313a1217.86,1217.86,0,0,1,146-11.66c4.95-.1,9.27.87,12.17,5.18a79.55,79.55,0,0,1,9.08,17.5c1.51,4.24,1.6,8.64-2.27,11.67l-16,12.51c-2.76,2.17-3.73,2.71-7.38,2.89-10,.51-18.83.92-28.86,1.42a15,15,0,0,1-7.72-1.82c-4.4-2.24-9.16-4.47-13.61-6.56a18.55,18.55,0,0,0-10-2.28L359,341.47c-2.42.07-4.28-.3-7.32-3L323,313"/><path class="cls-2" d="M750.22,483.64c6.4,0,11.58,19.42,11.58,43.38s-5.18,43.38-11.58,43.38a4.62,4.62,0,0,1-3.4-1.91c5.64-2,10-19.81,10-41.47s-4.41-39.47-10-41.48a4.64,4.64,0,0,1,3.4-1.9"/><path class="cls-6" d="M325.08,426.41c-75,1.48-148.84,3-223.87,4.45-5.38,4.94-10.2,9.42-15.57,14.35-3.17,2.91-3.15,5.87-3.38,9.83-.12,5.28-.29,10.31-.2,15.31.15,8.27,1.69,12.7,8.1,21.09l6.24,8.16c-2.36-3.89-4.43-7.76-6.12-10.75-1-1.8-1.35-3.72,1.16-3.76,82.44-1.18,161.25-2.65,243.86-3.83,3.36-.05,6.4,2.16,8.1,5l6.85,11.38c-.21-.62-.42-1.31-.64-2.08-6-21.27-11.67-42.84-17.69-63.62-.82-2.84-3.57-5.57-6.84-5.51"/><path class="cls-4" d="M325.08,426.41c-75,1.48-148.84,3-223.87,4.45-5.38,4.94-10.2,9.42-15.57,14.35-2.89,2.65-3.13,5.35-3.32,8.8.8-1.76,2-2.81,5.29-2.84,81.56-.84,163.06-2.2,244.61-3.05a10.62,10.62,0,0,1,4.53.87q-2.38-8.61-4.83-17.07c-.82-2.84-3.57-5.57-6.84-5.51"/><path class="cls-6" d="M101.41,425l1.83-35.15A27.09,27.09,0,0,1,105,382l-6.24.29c-4,.1-5.4-4.42-3.75-7.26a106.19,106.19,0,0,1,14.21-18.74c2.06-2.1,4.14-2.31,7-2.45l4.18-.22L129,338c2.06-4.32,6.65-8.54,16.87-10.82a97,97,0,0,0-16.25,2.32,16.23,16.23,0,0,0-8.51,5.29c-9.81,11.83-20.45,23.76-29.25,36.51-5.94,8.61-8,16.14-8.23,26.18q-.48,22.49-1,44.95L101.41,425"/><path class="cls-7" d="M114.51,329.6c2.42-1.62,10.8-9.47,13.51-11.05a22.44,22.44,0,0,1,10.07-3c55.49-5.46,112.08-8.88,170.13-10.24,5-.11,8.27.7,12.07,4,2.68,2.34,5.63,4.69,8.45,7"/><path class="cls-4" d="M314.75,345.45c-66.46,3.37-131.09,6.74-197.55,10.11-2.5.13-4.32.31-6.12,2.14a102.86,102.86,0,0,0-13,17.17c-1.44,2.48-1.14,5,2.39,4.92,76.55-3.54,151.67-7.17,228.22-10.71-2-8-7.64-15.67-13.91-23.63"/><path class="cls-5" d="M413.19,388.93c15.05,0,27.25,9,27.25,20.09s-12.2,20.09-27.25,20.09-27.25-9-27.25-20.09,12.2-20.09,27.25-20.09"/><path class="cls-1" d="M356.37,341.41c16.67-.07,33.07-.34,49.73-.41,10.5,4.77,20.79,11.11,31.49,16.08,4.09,1.91,6.76,5.44,6.78,10,.09,20.66.19,40.2.28,60.85,0,4.91-2.08,8.75-6.76,10.82l-62.42,27.64,46.53-26-.24-13.06a18.28,18.28,0,0,1-.69-36.53l-.37-20.13c-.07-3.39-.65-6-3.7-8.06-5.66-3.87-11-7.42-16.67-11.29-2.42-1.65-4.75-3.17-7.72-3.68l-36.24-6.2"/><path class="cls-8" d="M722.33,459.8l10.81-39.57c1.15-4.22,2.4-8.14,4.62-10.93s5.61-4.56,10.75-4c4.81.53,8.2,1.64,12.81,2.82-7.42-1.17-17.05-3.61-22,2.47-2,2.5-3.16,6.18-4.25,10.17l-10.81,39.58Z"/><path class="cls-1" d="M91.81,355.81c-4.23,6-9.81,12.11-14,18.07-2.78,3.93-4.48,6.88-4.64,11.89l-2.07,67.54a38.8,38.8,0,0,0,3.65,17.07q-6.79-9.13-13.6-18.28A15,15,0,0,1,58.05,443q.3-28.23.61-56.45a14.1,14.1,0,0,1,3-9.05c4.55-5.48,10.92-12.23,15.47-17.7,5.67-4.32,10.15-4.09,14.71-3.94"/><path class="cls-8" d="M489.09,443.62c5.21-12,10.24-25.27,15-38.76s9.31-27.15,13.53-40c1.6-4.89,4.18-9.53,8.07-12.71A18.51,18.51,0,0,1,538.45,348c7,.23,13.89.61,20.5,1.39a104.66,104.66,0,0,1,19.08,3.9A30.73,30.73,0,0,1,589,359.05a18.55,18.55,0,0,1,5.83,8.84c-3-6.77-10-9.62-17.58-12a101.43,101.43,0,0,0-18.57-3.79c-6.59-.78-13.4-1.15-20.27-1.38a15.85,15.85,0,0,0-10.92,3.52c-3.43,2.81-5.74,7-7.19,11.44-4.23,12.91-8.76,26.62-13.55,40.1s-9.83,26.79-15.1,38.94Z"/><path class="cls-9" d="M588.27,306.35c.52.86,1,1.54,1.4,2.26,3.38,5.43,8,12.88,9.57,18A382.3,382.3,0,0,1,613,394.07c2,18,2.31,49.66-.34,67.29a395.69,395.69,0,0,0-1.7-67.07,381,381,0,0,0-13.7-67.05c-1.47-4.9-6-12.21-9.35-17.54l-1.41-2.27Z"/><path class="cls-8" d="M586.54,306.35l1.4,2.26c3.38,5.43,8,12.88,9.57,18a382.33,382.33,0,0,1,13.78,67.42,397.47,397.47,0,0,1,1.71,67.4l-2-.11a395.69,395.69,0,0,0-1.71-67.07,380.12,380.12,0,0,0-13.7-67.05c-1.47-4.9-6-12.21-9.35-17.54l-1.41-2.27Z"/><path class="cls-9" d="M674.13,332.77a46.78,46.78,0,0,1,5,7.41,32.65,32.65,0,0,1,3.21,7.26c2.83,11.43,4.56,29.53,5,50.5.46,22.28-.5,43.52-4.18,65.46A563.48,563.48,0,0,0,685.33,398c-.43-20.82-2.15-38.76-4.93-50.05a31,31,0,0,0-3-6.75,44.85,44.85,0,0,0-4.79-7Z"/><path class="cls-8" d="M672.73,332.77a46.78,46.78,0,0,1,5,7.41,32.75,32.75,0,0,1,3.22,7.26c2.82,11.43,4.55,29.53,5,50.5a568.26,568.26,0,0,1-2.54,65.65l-2-.19A568.84,568.84,0,0,0,683.94,398c-.44-20.82-2.15-38.76-4.94-50.05a31,31,0,0,0-3-6.75,44.85,44.85,0,0,0-4.79-7Z"/><path class="cls-9" d="M721,345.55c2.53,2.81,5.39,6.14,8.22,9.54,3.11,3.72,6.15,7.49,8.69,10.74a34.19,34.19,0,0,1,4.53,7.48,48.62,48.62,0,0,1,2.72,8.6l0,.08c.72,7.11.35,17.82-.07,24.41-.22-3-.61-12.61-.89-15.45s-.64-5.7-1.07-8.62a46.87,46.87,0,0,0-2.6-8.2,31.8,31.8,0,0,0-4.26-7c-2.54-3.24-5.57-7-8.65-10.69-2.76-3.31-5.59-6.6-8.17-9.48Z"/><path class="cls-8" d="M719.54,345.55c2.53,2.81,5.39,6.14,8.22,9.54,3.1,3.72,6.15,7.49,8.69,10.74a33.75,33.75,0,0,1,4.52,7.48,49.45,49.45,0,0,1,2.73,8.6l0,.08c.43,2.9.78,5.81,1.08,8.76s.69,12.56.9,15.5l-2.05.15c-.22-3-.61-12.61-.9-15.45s-.63-5.7-1.07-8.62a46.89,46.89,0,0,0-2.59-8.2,32.18,32.18,0,0,0-4.26-7c-2.54-3.24-5.57-7-8.65-10.69-2.76-3.31-5.59-6.6-8.17-9.48Z"/><path class="cls-1" d="M583.49,302.83q.35-36.93.68-73.85c0-4.19,3.09-6.15,7-4.74a498.55,498.55,0,0,1,80,36.86c5.53,3.25,8.23,6.67,11.62,11.87a381.85,381.85,0,0,1,38.67,76c-43.58-12.47-88-25.29-131.54-37.75a8.53,8.53,0,0,1-6.4-8.4"/><path class="cls-10" d="M170,483.88l-1.56-13.27c-.48-4.06.53-6.25,5-6.25h47.66c2.75.1,4.14,1.05,4.75,2.94a8.91,8.91,0,0,0-1.86-.25H176.34c-4.49,0-5.5,2.19-5,6.25l1.24,10.54Zm75.84-1.24-1.41-12c-.48-4.06.53-6.25,5-6.25H297.1c2.75.1,4.14,1.05,4.75,2.94a8.91,8.91,0,0,0-1.86-.25H252.33c-4.49,0-5.5,2.19-5,6.25l1.1,9.3ZM94.13,485.05l0-.12-1.68-14.32c-.48-4.06.53-6.25,5-6.25h47.66c2.75.1,4.14,1.05,4.75,2.94a8.91,8.91,0,0,0-1.86-.25H100.35c-4.5,0-5.5,2.19-5,6.25L96.7,485Z"/><path class="cls-5" d="M669.06,357.94c6.28,1.31,11.38,6.28,11.38,11.11s-5.1,7.67-11.38,6.36-11.38-6.28-11.38-11.1,5.1-7.68,11.38-6.37"/><path class="cls-5" d="M728.74,371.34c5.22,1.08,9.44,5.17,9.44,9.14s-4.22,6.31-9.44,5.23-9.44-5.16-9.44-9.13,4.23-6.32,9.44-5.24"/><path class="cls-11" d="M663.75,366.48c-1,2.46-5.52,2.08-7.14-1.32-1.13-2.4-.78-5,2.38-4.56.45.06,4.66.76,5.7.95s16.54,3.71,16.54,3.71c3.75,4.11-.65,8.6-4.68,3.78-1.16-.17-11.64-2.39-12.8-2.56"/><path class="cls-11" d="M724.34,378.37c-.86,2-4.59,1.7-5.93-1.09-.94-2-.65-4.09,2-3.75.37.05,3.86.63,4.72.78s13.73,3.05,13.73,3.05c3.11,3.38-.54,7.08-3.89,3.11-1-.14-9.65-2-10.61-2.1"/><path class="cls-5" d="M663.74,366.62c-1,2.45-5.52,2.07-7.13-1.33-.78-1.64,1.59-1.81,3.32-1.59,4.24.55,18.54,3.74,22.71,4.73.13,2.75-3.08,4.35-6.1.74-1.16-.17-11.63-2.39-12.8-2.55"/><path class="cls-5" d="M724.33,378.48c-.86,2-4.59,1.7-5.92-1.1-.65-1.34,1.32-1.48,2.75-1.3,3.52.45,15.39,3.07,18.85,3.89.11,2.26-2.56,3.57-5.06.61-1-.14-9.66-2-10.62-2.1"/><path class="cls-11" d="M598.09,292.87c-.21-11.42,1.43-26.13,15.22-27.24a134.67,134.67,0,0,1,45.13,3.49c6,1.9,8.85,3.88,10.24,9.95a49.77,49.77,0,0,1,1,6.73c-1.68-7.12-4.53-7.75-5-7.83-14.87-2.48-54.73,8.83-66.63,14.9"/><path class="cls-10" d="M590.21,296.71c24.72-3.4,53-8.27,77.87-9.9-24.19,5.07-51.65,10.18-76,15.84-.37.09,9.32,4.09,9,4.17s-6.19-1.65-9.37-2.72c-1.31-.45-1.76-1.19-1.67-2.79s.17-3.06.25-4.6"/></svg>