<svg id="Layer_1" data-name="Layer 1" xmlns="http://www.w3.org/2000/svg" viewBox="0 0 841.9 841.9"><defs><style>.cls-1,.cls-2,.cls-3,.cls-4,.cls-5,.cls-6{fill-rule:evenodd;}.cls-2{fill:#4d4d4d;}.cls-3{fill:#f0f0f0;}.cls-4{fill:#cbcbcb;}.cls-5{fill:#e5e5e5;}.cls-6{fill:#fff;}</style></defs><path class="cls-1" d="M231.35,551.83a72.43,72.43,0,0,1-18.63,22.41c9.54-.4,15.4-.6,15.47-.61l229.13-5.42-.26-.37c-.9,0-1.51-.05-1.74-.08a59.84,59.84,0,0,1-31.15-14.35Zm544.22,10.35c7.8,0,15.29,0,22.08.15,20.45.31-5.75,6.43-10.91,7.43C698.25,584.3,582,598.47,525.24,600.94c-113.53,2.13-304.57-4.16-468.33-8.3-42.69-1.08-12.11-4.92,35.24-10.25,7.89-.89,16.52-1.71,25.48-2.46a72.53,72.53,0,0,1-30.51-36.79l-23.23-1.41-4.62-4.21,18.92-5.85,279.6,4.59h.06a239.18,239.18,0,0,1,26.58,2.5c7,1,13.9,2.32,20.88,3.25a122,122,0,0,0,19.48,1.16l90.38-2.42a440.36,440.36,0,0,1,3.67-55.87,294.7,294.7,0,0,1,10-47.59c4.49-14.6,15.61-44.72,33.41-47.54a22,22,0,0,1,11.67,1.45,31.23,31.23,0,0,1,12.18,9.35c10.84,13.15,15.12,34.34,17,50.88a124.87,124.87,0,0,1,7.91,19.2c6.86,21.75,7,44.1,2.38,66.19,23.15-2.82,46.33-5.3,69.58-7.24q30.59-2.55,61.24-3.94c0-.11,0-.22,0-.29,1.17-14,2.21-28,3.87-41.94a278.53,278.53,0,0,1,5.21-31.31c1.92-8.12,5-17.82,10-24.63,2.42-3.3,6.06-6.79,10.31-7.12l5.57,2.73,6.3,7.77,3.16,15.87.94,10.83,0,21.91-.53,6.2-3.18,25.15C785.09,534,781.07,553.38,775.57,562.18ZM607.48,544.64a95.62,95.62,0,0,1-10,20.26l118.95-2.82q2.26,0,4.62.06c-3.29-5.29-6-14.37-7.88-25.78l-27,.85Z"/><path class="cls-2" d="M545.85,438.74c27.28,0,49.39,29.17,49.39,65.15s-22.11,65.16-49.39,65.16c-13.84,0-26.36-7.52-35.32-19.62l5.82-.16c7.93,9,18.23,14.41,29.5,14.41,25,0,45.32-26.77,45.32-59.79s-20.29-59.78-45.32-59.78a35.05,35.05,0,0,0-9.71,1.38q.9-3,1.86-5.93a38,38,0,0,1,7.85-.82"/><path class="cls-2" d="M768.91,458.7c6.59,0,11.93,20.05,11.93,44.77s-5.34,44.77-11.93,44.77c-1.86,0-3.63-1.6-5.2-4.47a4.13,4.13,0,0,0,2.89,1.43c6.14,0,11.12-18.68,11.12-41.73s-5-41.72-11.12-41.72a4.15,4.15,0,0,0-2.89,1.42c1.57-2.86,3.34-4.47,5.2-4.47"/><path class="cls-3" d="M73.1,534.53c-4.34,1.71-6.48,3.15-11.15,3.35-1.84.07-3.78.1-5.62.17a4.7,4.7,0,0,1-5-2.53c-2.29-3.77-4.66-7.53-6.81-11.3a8.31,8.31,0,0,1-1-6.45l6.15-27.27c-.24-17.38-.9-34.18-1.13-51.56-.09-6.69,1-11.92,5.34-17.25l6.82-8.43c1.49-6.82,3-13,4.47-19.81,2.14-9,.4-15.39,3.69-18.68,2-2,6.8-1.93,12.81-3.29C104.31,343,150,335.12,199.05,330.29c38.52-23.38,77.14-45.62,121.84-63.84,25.22-10.28,54-14.17,81-17.23A1321,1321,0,0,1,571,240.65c14.44.19,38.58,1.51,51.69,5.94,57.43,19.41,103,60.49,139.67,117.75a78,78,0,0,1,8.09,14.39c7,15.84,11.31,31.92,15.24,48,4.36,17.9,5.05,27.25,3.78,53.81,1.06-27-4.62-55.33-14.14-57.19-5.56-1.1-13.82,6.85-19.16,29.4s-7.35,52.93-9,72.81c-.09,1.09-.56,2.73-1.92,2.95-47.46,2.21-87.17,5.73-135.69,11.72,7.84-32.78,4.11-61.91-9.35-88-5.65-51.58-25.54-61.53-37.49-59.63-23.24,3.68-44.69,67.31-44.59,151l-93.24,2.5c-22.49.6-36.88-5.83-67.13-6.91L73.1,534.53"/><path class="cls-4" d="M498,351.44c2.52-.54,7.13-1.39,9.47-1.82s4.47-.81,7.14-1.39h0a19.29,19.29,0,0,0,5.77-2.11,16.23,16.23,0,0,0,4.45-3.67,50,50,0,0,0,4.66-6.71,56.16,56.16,0,0,0,3.78-7.68,20.07,20.07,0,0,0,1.72-7.9,9,9,0,0,0-2.13-5.67l1.63-1.37a11.07,11.07,0,0,1,2.63,7,22.22,22.22,0,0,1-1.86,8.74,58.79,58.79,0,0,1-3.94,8,51.62,51.62,0,0,1-4.86,7,18.44,18.44,0,0,1-5,4.15,21.67,21.67,0,0,1-6.4,2.35c-2.52.54-4.86,1-7.2,1.39s-6.73,1.24-9.4,1.81Z"/><path class="cls-4" d="M249.11,367.55c24.59-1,49.07-.19,73,.65,23.59.82,46.39,2.1,67.36,3.83l-.17,2.12c-21-1.73-43.79-3-67.25-3.83-24.09-.84-48.81-2.27-72.91-2.77M91.56,377.09c13.78-2.2,29.63-4,46.91-5.49,18-1.53,38.34-2.34,58.9-3.09-21.35,1.73-39.74,3.61-58.73,5.21-17.28,1.46-33.08,3.28-46.74,5.47Z"/><path class="cls-5" d="M73.1,534.53c-4.34,1.71-6.48,3.15-11.15,3.35-1.84.07-3.78.1-5.62.17a4.7,4.7,0,0,1-5-2.53c-2.29-3.77-4.66-7.53-6.81-11.3a8.31,8.31,0,0,1-1-6.45l6.15-27.27c-.24-17.38-.9-34.18-1.13-51.56a37.59,37.59,0,0,1,.29-5.62l8,10.36,10.93,2.94s260.42-3.57,263.36-3.57,9,2.31,9,2.31c63.12-11.18,133.69-22.19,164.79-76.72-1.3,4.84-1,8-3.68,12.72,26.71,9.38,37.37,10.12,32.05,36.89,1.22-2.2,9.71-19.31,11.15-21.07,14.23-17.43,37.79-13.62,46.86,5.72-2.89-15.83,6.06-16.89,19.66-18.29,44.65-4.58,160,15,163.65,4.5,4.65,12.46,7.94,25.05,11,37.65,4.36,17.9,5.05,27.25,3.78,53.81,1.06-27-4.62-55.33-14.14-57.19-5.56-1.1-13.82,6.85-19.16,29.4s-7.35,52.93-9,72.81c-.09,1.09-.56,2.73-1.92,2.95-47.46,2.21-87.17,5.73-135.69,11.72,7.84-32.78,4.11-61.91-9.35-88-5.65-51.58-25.54-61.53-37.49-59.63-23.24,3.68-44.69,67.31-44.59,151l-93.24,2.5c-22.49.6-36.88-5.83-67.13-6.91L73.1,534.53"/><path class="cls-4" d="M547.92,403.27c-.54.7-1.07,1.44-1.6,2.2a27.79,27.79,0,0,0-3.26-7.79,14.41,14.41,0,0,0-4.49-4.81l-41.51-24.95,1.09-1.82L539.66,391a16.58,16.58,0,0,1,5.21,5.52,30.23,30.23,0,0,1,3,6.71"/><path class="cls-4" d="M759.23,442.16a105.38,105.38,0,0,0-3.07,10.62c-5.32,22.46-7.35,52.93-9,72.81-.09,1.09-.56,2.73-1.92,2.95-47.46,2.21-87.17,5.73-135.69,11.72,7.84-32.78,4.11-61.91-9.35-88a158.25,158.25,0,0,0-4.55-24.87c7.09,18.86,10.61,13.88,13.33,13.26,44.29-10.21,85.08-13.51,120.94-7.17,16.81,3,23.37,6.11,22.91,24.76,1.81-7.95,1.16-9.39,6.41-16.12"/><path class="cls-6" d="M686.7,343.63l.25.29c8.63,9.74,12.72,14.36,15.25,27.35,3,15.42,3.91,32.26,3.47,49.52s-2.74,34.24-5.11,51.28a53,53,0,0,0,.79,18.44c-.15-.8-.8-1.56-1-2.55l-.29-1.32a59,59,0,0,1-1.19-6.84,30.72,30.72,0,0,1,.13-7.39,463.93,463.93,0,0,0,4.58-51.67c.43-17.11-.47-33.8-3.44-49.07-2.42-12.42-6.39-16.9-14.75-26.35l-.25-.28Z"/><path class="cls-4" d="M685.12,343.63l.25.29c8.63,9.74,12.72,14.36,15.25,27.35,3,15.42,3.91,32.26,3.47,49.52a462,462,0,0,1-4.59,51.91,29.14,29.14,0,0,0-.12,6.89,55.67,55.67,0,0,0,1.15,6.6l.29,1.31c.71,3.16,1.14,5.05.9,8-.18,2.27-.48,4.94-.9,7.74-.36,2.49-.82,5.07-1.37,7.59l-2.08-.45c.54-2.48,1-5,1.35-7.44.4-2.76.7-5.38.88-7.6a22.26,22.26,0,0,0-.85-7.37l-.3-1.32a56.92,56.92,0,0,1-1.18-6.84,30.21,30.21,0,0,1,.13-7.39A461.54,461.54,0,0,0,702,420.74c.43-17.11-.47-33.8-3.44-49.07-2.42-12.42-6.38-16.9-14.75-26.35l-.25-.28Z"/><path class="cls-6" d="M613.65,488.7c.67-18.33,1.15-39.28,1.13-58.76,0-20.65-.61-39.65-2.11-52.11A44.51,44.51,0,0,0,611,370a78.52,78.52,0,0,0-3.06-7.91c-1.82-4.16-4.15-8.91-6.58-13.52-2.56-4.86-5.24-9.56-7.56-13.27l1.81-1.12c2.34,3.73,5,8.48,7.63,13.39,2.46,4.65,4.81,9.45,6.65,13.67a77.82,77.82,0,0,1,3.14,8.14,45.32,45.32,0,0,1,1.72,8.22c1.52,12.5,2.1,31.6,2.12,52.36,0,17.19-2.6,63-3.25,58.76"/><path class="cls-4" d="M613.59,505.76a121,121,0,0,0-1.41-17.06c.67-18.33,1.15-39.28,1.13-58.76,0-20.65-.61-39.65-2.12-52.11a43.65,43.65,0,0,0-1.63-7.85,78.52,78.52,0,0,0-3.06-7.91c-1.82-4.16-4.15-8.91-6.58-13.52-2.56-4.86-5.24-9.56-7.56-13.27l1.81-1.12c2.33,3.73,5,8.48,7.63,13.39,2.45,4.65,4.81,9.45,6.65,13.67a77.82,77.82,0,0,1,3.14,8.14,45.32,45.32,0,0,1,1.72,8.22c1.51,12.5,2.1,31.6,2.12,52.36,0,25.9-.82,54.37-1.84,75.82"/><path class="cls-4" d="M492.6,517.43c1.75-1.23,8.13-2,8.62-3.26C485.3,487.46,440.8,482.25,411.05,480c48.15,10.91,45.14,8.06,81.55,37.42"/><path class="cls-4" d="M73.1,534.53c-4.34,1.71-6.48,3.15-11.15,3.35-1.84.07-3.78.1-5.62.17a4.7,4.7,0,0,1-5-2.53c-2.29-3.77-4.66-7.53-6.81-11.3a8.31,8.31,0,0,1-1-6.45q1.88-8.29,3.74-16.6l3.3,15.55,14.51,2.73,314.12,7.46,13.45-10.09,5.15,6c29-2.27,54.93-4.13,84-6.41,9.7-1,20.75-2.51,27.41-24.77,3.51-11.73,6.39-20.52,9.9-32.25,2.05-6.85,5.39-10.44,10.83-15.16-7.24,26.19-11.82,60.64-11.78,99.4l-93.24,2.5c-22.49.6-36.88-5.83-67.13-6.91L73.1,534.53"/><path class="cls-6" d="M486.19,530.35c-32.51,3.23-67.64,6.66-100.15,9.88,13.51,2,27,4.46,40.73,4,22.79-.79,45.68-1.05,68.46-1.83,2.17-.08,2.92-1.43,2.67-2.86-1.24-1-2.56-2.11-3.8-3.16l-7.91-6"/><path class="cls-6" d="M376,442.21c11,12.33,18.41,20.47,29.4,32.8,5.3,5.95,8.24,6.15,15.95,7.38a200.94,200.94,0,0,1,27.21,6.21c15.91,4.61,24.1,13.57,35.37,27.38-31.74,2.52-64,5-95.74,7.57l-17.87-26.91L332.73,435.9c8.69.46,8.3,7.48,18.17,6.75,6.47-.47,20.58-.68,25.13-.44"/><path class="cls-1" d="M200.65,329.32c38-23,76.15-44.9,120.24-62.87,25.22-10.28,54-14.17,81-17.23l7.07-.78c59.17-5.12,118-7.49,173.57-3.3-12,18.42-20.29,38.28-30.1,61-3.94,9.12-13.8,10.45-21.76,10.37-110.48-1.17-220.67,1-330.06,12.8"/><path class="cls-1" d="M60.28,413.77l.41-.51c1.49-6.82,3-13,4.47-19.81,2.14-9,.4-15.39,3.69-18.68,2-2,6.62-1.93,12.48-3.21,10.79,6.86,25.07,11.71,38.41,13.4,4.22,1.81,6.59,5.66,10,14.63-1.4-5.12-1.74-9.11-2.56-14l1,0c51.54,1.11,99.77-.61,153.19-3.25,2.69-.14,5.45-.3,8.25-.49h0c-1.79,4.24-5.26,11.42-7,15.66,6.46-10.12,11.79-14.47,17.73-16.49,60.84-5.22,141.13-20.85,199-29.53,5.72-.83,4.13,5.72,2.26,9.49-13.44,27-44.82,52.45-88.22,61.34l5-18.39c1.55-5.74-.55-11-7.35-10.51-112.32,8.39-223.65,13.66-328.26,6.65-6-.41-7.56,1.57-9.22,7.09l-5.91,19.58c-4.73-.94-7.39-5-7.41-13"/><path class="cls-1" d="M48.15,509C54,482.44,62.81,456.57,76,431.8c3.79-7.13,8.66-12.94,17.45-13.11,67.71-1.34,137.22-2.63,204.93-4,10.91-.22,19,3.8,23.67,8.24,27.43,26.13,47.57,51.35,64.19,77.55,5.35,8.43,8.6,15.48,6.46,20-4.7,10-25.14,10.36-39.76,10.52-99.37,1.06-190.21-3.09-289.52-5.31-14-.31-18.43-2.33-15.26-16.69"/><path class="cls-1" d="M570.53,315.39c6.12-17.48,12.07-35.42,20.72-51.84,7.45-14.13,18.44-15.74,33-10.84,46.34,15.62,86.32,43.55,116.86,89.72,1.42,2.14,2.22,4.11.92,6.65-1.62,2.7-4.4,4.87-12.19,4.2-38.75-5.8-77.49-8-116.24-9.88L577.8,329.66c-6.53-2.51-9.69-7.35-7.27-14.27"/><path class="cls-1" d="M606.71,347.05q2.53-8.61,5-17.23a15.88,15.88,0,0,1-2.29-5.14c-.88-3.21-.9-4.1.79-7a88,88,0,0,1,9.55-12.9,8.51,8.51,0,0,1,6.91-3.47,290.36,290.36,0,0,1,35.66.07c11.75.58,22.48,12.4,23.09,17.69.95,8.28-14.35,18.76-22.93,19.36-9.85.69-18.44,1.17-28.29,1.86-3.17.43-4.61,2-4.84,4.41l-.84,12.82a39.9,39.9,0,0,1-10.09-.21c-5.83-2.82-9.43-6.35-11.77-10.3"/><path class="cls-6" d="M610.69,328a17.11,17.11,0,0,1-1.22-3.31c-.88-3.21-.9-4.1.79-7a88,88,0,0,1,9.55-12.9,8.51,8.51,0,0,1,6.91-3.47,290.36,290.36,0,0,1,35.66.07c11.75.58,22.48,12.4,23.09,17.69.32,2.81-1.22,5.86-3.74,8.7,2.75-3.19,3.66-8.2.72-11-16.12,9.28-42.21,12-71.76,11.17"/><path class="cls-1" d="M485.11,530.28l12.83,9.45c-.09-7.57-1-17.53-5.29-24-8.17-12.23-19.95-17.85-31.81-22.37,10,6.71,18.75,15.89,22.65,22.44,2,3.31,2.67,10.84,1.62,14.45"/><path class="cls-5" d="M728.17,498.2a605.89,605.89,0,0,0-64.68-2.33c-5.56.07-26.84,1.51-26.76,8.65.1,9.55,24.34,6.73,30.33,6.22,21.93-1.87,40.14-3,62.36-7.28,8.68-1.67,3.05-4.88-1.25-5.26"/><path class="cls-2" d="M608.94,346.77c1.36-4.8,2.62-9.28,4-14.08.55-1.93,1.79-2.44,3.61-2.49,23.8-.67,40.62-.13,62.58-9.15-22.7,11.82-34,10.67-59,12.55-3.13.49-3.53,2.29-4,5-.67,3.54-1.78,7.55-2.45,11.08a15.57,15.57,0,0,0,4.65,5.52c-3.83-1.87-7.46-4-9.32-8.43"/><path class="cls-4" d="M687.36,365.36c2.53,0,5.28,4.77,6.14,10.66s-.5,10.66-3,10.66-5.28-4.78-6.14-10.66.5-10.66,3-10.66"/><path class="cls-4" d="M741.05,368.63c2.1,0,4.39,4,5.1,8.86s-.41,8.85-2.52,8.85-4.39-4-5.1-8.85.41-8.86,2.52-8.86"/><path class="cls-6" d="M687.59,378.35c-1,2.88-6,3.1-8-.45-1.41-2.5-1.18-5.4,2.38-5.4.5,0,5.25.18,6.41.24s8.17.83,8.17.83c4.43,4-.21,9.65-5,4.87-1.31,0-2.61-.07-3.92-.09"/><path class="cls-6" d="M741.24,379.43c-.84,2.39-5,2.57-6.68-.38-1.18-2.08-1-4.49,2-4.49.41,0,4.36.15,5.32.2s6.79.69,6.79.69c3.68,3.36-.17,8-4.16,4.05-1.08,0-2.16-.06-3.25-.07"/><path class="cls-4" d="M687.59,378.5c-1,2.87-6,3.1-8-.45-1-1.71,1.67-2.24,3.61-2.24,4.76,0,10.4.58,15.11,1.08.31,3-3.18,5.27-6.76,1.7-1.31,0-2.61-.07-3.92-.09"/><path class="cls-4" d="M741.24,379.55c-.84,2.39-5,2.57-6.68-.37-.8-1.42,1.38-1.86,3-1.86,4,0,8.64.48,12.55.89.26,2.53-2.64,4.38-5.62,1.41-1.08,0-2.16-.05-3.25-.07"/><path class="cls-6" d="M614.41,519.35c.07-.72.13-.17.19-.89L729.13,508a13,13,0,0,0,6.21-1.6,8.21,8.21,0,0,0,3.45-4.83c4.79-15.56,8.25-30.76,11.84-46.49l1.29-5.65a151,151,0,0,0,4.25-36.55A188.54,188.54,0,0,0,751.88,376c-1.36-6.58-1.44-11.86-10.07-21.4,5.8,5.34,9.65,8.87,12.15,21a189.2,189.2,0,0,1,4.33,37.22,153,153,0,0,1-4.3,37.05l-1.29,5.64c-3.59,15.78-7.07,31-11.87,46.64-.88,2.85-2.2,5.18-4.21,6.43a15.78,15.78,0,0,1-7.38,2Z"/><path class="cls-4" d="M613,519.83c.07-.72.14-1.44.19-2.15l114.53-10.49a13.1,13.1,0,0,0,6.21-1.61,8.26,8.26,0,0,0,3.46-4.83c4.78-15.56,8.24-30.76,11.83-46.48l1.29-5.66a151,151,0,0,0,4.25-36.55,188.63,188.63,0,0,0-4.29-36.82c-1.36-6.58-1.44-11.86-10.07-21.4,5.8,5.34,9.65,8.88,12.15,21A190.09,190.09,0,0,1,756.88,412a153,153,0,0,1-4.31,37l-1.29,5.64c-3.59,15.78-7.06,31-11.87,46.65a10.26,10.26,0,0,1-4.37,6,15,15,0,0,1-7.22,1.92Z"/></svg>