<svg id="Layer_1" data-name="Layer 1" xmlns="http://www.w3.org/2000/svg" viewBox="0 0 841.9 841.9"><defs><style>.cls-1,.cls-11,.cls-12,.cls-14,.cls-2,.cls-3,.cls-4,.cls-5,.cls-6,.cls-7{fill-rule:evenodd}.cls-2{fill:#4d4d4d}.cls-3{fill:#f0f0f0}.cls-4{fill:#a2a2a2}.cls-13,.cls-5{fill:#666}.cls-6,.cls-9{fill:#7f7f7f}.cls-7{fill:#e5e5e5}.cls-11,.cls-8{fill:#c7c7c7}.cls-10{fill:none;stroke:#666;stroke-miterlimit:22.93;stroke-width:2.13px}.cls-12{fill:#333}.cls-14{fill:#242424}</style></defs><path class="cls-1" d="M258.67 548.48c-5.9 16.6-15.29 30.64-26.94 40.51 64.14-1.35 129.26-2.6 193.9-4.08-9.11-11.13-16.06-25.24-20-41.13l-41.94 1.05c-5.69 3.66-4.51 3.65-11.25 3.65zm432-19.69l-26.15.42-2.43 3.84c-1.15 1.81-2.91 2.27-5 2.3l-29 .45a40.34 40.34 0 0 1-11.09 9.25c-2.91 1.63-4.12 1.53-7.35 1.63l-11.1.37c-4.63.16-4.16-.74-7.68-3.95h-4.09a106.18 106.18 0 0 1-17.17 38q64.39-2 129.25-4.73c-4.37-9.25-7.49-26.82-8.15-47.58zM785 582.48c-89.87 18.83-225.26 30.21-275.66 32-143.37 5-309.07-1.83-452.44-7.91-42.64-1.8-12.1-6.5 35.19-13 6.93-1 14.37-1.73 22.05-2.36-21.86-16.81-36.54-47.89-36.56-83.46 7.64 5 15.48 9.65 23.46 14.38 94 0 188-.44 282.06-.45 27-8.68 54-17.24 80.91-26.15 2.39-.8 6-2 7.55-4.18a17.4 17.4 0 0 0 2-5.36l12.63-56.36a17.35 17.35 0 0 0 .31-4.39c-.28-1.62-2.56-4.33-3.56-5.57l-3-3.77 4.73-1c1.09-.23 2.24-.33 2.69-1.42 1.64-9.54 4.83-19.66 10-27.87 8.64-13.68 21.33-17.8 37.15-16.3h.06c9.74 1.13 21.5 4.17 29.17 10.54 10.52 8.74 15.63 20.08 16 33.63l2.9 42.48c7.15 14.65 13.25 30.53 14.75 46.89q61.42 1.69 122.84 3.44a18.87 18.87 0 0 0 4.27-9.49q5.1-29.31 10.14-58.62v-.11a15.7 15.7 0 0 1 7.44-10.78 16.49 16.49 0 0 1 11.23-1.71c10 1.93 15.55 10 16.37 19.75.64 7.74 1.12 15.48 1.25 23.23a30.2 30.2 0 0 0 1.3-3c0-.73.1-1.45.14-2.18l.49 6.45 3.87 3.37c3 2.58 2.42 2.09 2.26 6.11q-.33 7.61-.65 15.23c-.14 3.4.06 4.62-2.26 7.19l-5.85 6.44q-.61 12-1.22 23.94c-.39 5.49-2.12 7.18-4 8.51-1.19 14.56-3.64 26.73-6.82 34.31 13.76-.44 27.52-.88 39.56-.53 17.25.54 1.45 5.11-12.75 8.08z"/><path class="cls-2" d="M516.11 441.51c30.67 0 55.54 32.53 55.54 72.67s-24.87 72.66-55.54 72.66-55.55-32.53-55.55-72.66c0-2.68.12-5.31.33-7.91l6.38-2.1a84.25 84.25 0 0 0-.59 10c0 35.71 22.13 64.66 49.43 64.66s49.42-29 49.42-64.66-22.13-64.66-49.42-64.66c-9.82 0-19 3.74-26.66 10.19l2.46-11a44.87 44.87 0 0 1 24.2-7.24M750.68 471.45c6.5 0 11.76 20.71 11.76 46.25s-5.26 46.3-11.76 46.3c-2 0-3.87-2-5.51-5.38a4.36 4.36 0 0 0 3.23 1.9c6 0 10.93-19.15 10.93-42.77s-4.9-42.77-10.93-42.77a4.36 4.36 0 0 0-3.23 1.9c1.64-3.43 3.52-5.38 5.51-5.38"/><path class="cls-3" d="M51.17 485.59c-1.08-12-1.89-24-2.34-36-.13-3.51-.44-4.69 1.6-7.66 1.56-2.27 3.25-4.23 5.16-6.71.18-6.1-.32-8.77 2.13-14.45 4.86-11.3 10.28-17.66 13.18-38.98-1.72-1.75-2.37-2.72-2.55-5.29a98.53 98.53 0 0 1 3.29-33.15c.57-2 1.21-3 3.84-4.09a97.37 97.37 0 0 1 11.34-3.82c0-2.06-.42-3.56 1.46-4.65a66.46 66.46 0 0 1 13.07-5.41c5-6.66 10.59-13.63 17-19.29a20.77 20.77 0 0 1 9.27-4.73c45.08-9.33 96.84-15.09 148.72-20.76 23.85-17.68 42.23-25.22 70.86-31.44 74-16.09 125.27-22.52 209.6-23.45 10.73-.12 19.28.47 29.39 4.79 17.14 7.32 47 23.83 67.83 39.84 7.67 5.91 14.73 11.16 19.87 19.48 12.76 20.63 23.57 41.41 29.81 62.54.58 2.6 1.68 4.83 4.16 6.08l54.61 23.48c2.65 1.33 4.65 4 6.09 7.91l3.14 15.83a229.38 229.38 0 0 1 3.55 60.55c-1.76 5.07-5.54 10.14-7.3 15.21a281.12 281.12 0 0 0-1.12-35.8c-.86-11-7.7-15.89-14-17.1s-13.38 1.45-15.24 10.2l-10.09 58.62c-.93 5.3-3.12 9.31-6 12-42.64-1.18-84.15-2.36-126.78-3.55-1-16.33-6.91-32.66-14.91-49q-1.47-21.54-3-43.1c-.35-12.4-4.85-23.11-15-31.51-7.18-6-18.53-8.82-27.62-9.87-17.45-1.66-27.61 4.23-34.37 14.93-4.56 7.21-7.91 16.77-9.65 27.06-.86 2.61-2.89 3.12-5 3.55 4.89 6.11 4.58 6.63 3.85 12.32q-6.33 28.25-12.68 56.55c-1.7 6.43-2.77 8.73-11.52 11.63-26.63 8.81-54 17.48-81.38 26.3-94.28 0-189.06.44-283.33.45-15.85-9.4-30-17.68-44.46-29.48-3.6-3-4.2-5.47-4.61-10"/><path class="cls-4" d="M355.5 496.2c20.55-13.37 26.55-16.08 27.33-41.49l.87-27.88-31-1q1.43 35.2 2.84 70.39M55.6 434.71c.15-5.76-.26-8.44 2.12-14 1.34-3.1 2.71-5.82 4.06-8.59-.75 8.85 14.09 9.63 25.44 9l265.13-13.87a30.66 30.66 0 0 0 13.39-4.16c-3.74 6.94-.49 8.76 7.61 8.32 34.7-2.22 66.06-2.61 100.3-4.73 8.75-.54 13.9-2.65 20.72-8.07a86.92 86.92 0 0 0-4.1 15.6c-.86 2.61-2.89 3.12-5 3.55l.89 1.12-6.45-1.29-17.65-.2H443l-86 2.64-301.4 14.68"/><path class="cls-5" d="M502.7 383.34c-.53.65-1 1.32-1.53 2-1.81-6.25-5.35-12.5-9.89-18.54a138 138 0 0 0-17.73-18.92l1.38-1.52a140.47 140.47 0 0 1 18 19.21 63 63 0 0 1 9.78 17.76"/><path class="cls-4" d="M772.48 409.68a230.9 230.9 0 0 1 2.79 56.53c-1.76 5.07-5.54 10.14-7.3 15.21a281.12 281.12 0 0 0-1.12-35.8c-.86-11-7.7-15.89-14-17.1s-13.38 1.45-15.24 10.2l-10.11 58.62c-.93 5.3-3.12 9.31-6 12-42.64-1.18-84.15-2.36-126.78-3.55-1-16.33-6.91-32.66-14.91-49l-1.26-18.44.38-4.9c.47-24.57 2.36-48.81-16-68 6.84 4.88 14.76 12.09 23.08 13.83 58.62 12.25 116.76 22.74 175.37 34.92 6.34 1.32 9.41-.31 11.1-4.54"/><path class="cls-6" d="M732.49 468.53c0 .21-.08.42-.11.63l-2.91 4.53c-2.08-10.09-9.77-13.7-19.81-14.52-43.69-3.52-85.45-6.75-129.14-10.28 8.3-8.83 8.46-9.94 20.06-9 36.82 2.88 69.81 6.05 106.56 9.68 12.79 1.26 17.94 2.63 21.57-9.47-.5 14.26 0 21.07 3.78 28.46"/><path class="cls-6" d="M732.57 468l-5.07 29.32c-.93 5.3-3.12 9.31-6 12-42.64-1.18-84.15-2.36-126.78-3.55-.94-15.79-6.53-31.59-14.14-47.39l3.17 3.71 6.29 5.88 129.82 6.7 5.88-.21z"/><path class="cls-7" d="M101.41 325.3c5-6.64 10.55-13.57 17-19.21a20.77 20.77 0 0 1 9.27-4.73c45.08-9.33 96.84-15.09 148.72-20.76 2.58-1.92 5.1-3.71 7.57-5.4 33.35.06 74.26.24 74.26.24 5.51.73 11.07.47 15.22 4.15q4.54 4.05 9.11 8.08a15.71 15.71 0 0 1 4.62 6.4c1.77 4.54 3.35 9.9 5.13 14.44 4.15 19.57 8.92 34.58 13.08 54.16.61 3.85.61 12.27 1.22 16.13-2.56 10.25-2.32 7.78-10.75 14.8l-8.12 6.29c2.95-3.41 11.12-10 5.12-13.88-3-1.92-5.94-3.7-8.9-5.49 1.58-6.33 1.19-9.76-.8-16q-6.83-21.18-13.63-42.37 5.79 21.35 11.59 42.68c1.26 4.64.39 12.15-3.68 15.5-5 4.11-9.34 8-14.2 12-4.65 3.87-8.78 5.92-15.05 6.27C260.6 403.1 175 407.53 87.45 412c-6.71.34-7.78-3.59-6.76-8.71q3.24-14 6.49-28l11.06-39.66q1.58-5.14 3.17-10.29"/><path class="cls-6" d="M489.37 424.27c.39 1.56.14 3.11-.22 5.88q-6.33 28.25-12.68 56.55c-1.7 6.43-2.77 8.73-11.52 11.63-26.63 8.81-54 17.48-81.38 26.3h-17l-12-29.51c9.28 6.44 16.47 5.51 27.38 4.26l75.77-11.61c5.88-.9 8.31-2.37 9.59-8.46 3.42-16.21 7.29-32.42 11-48.62.6-2.6 1-4.79-.85-7.38 3.4.41 7.75.67 11.91.95"/><path class="cls-7" d="M485.32 417.82c4.89 6.11 4.58 6.63 3.85 12.32l-.15.68c-1.41-2.88-5.13-5.38-11.36-5.24-29.26.7-60.6 1-90 1.7a3.3 3.3 0 0 0-3.32 2.53c-.14 1.12-.26 2.55-.36 3.77-.57-4.69-3.7-6-6.44-6-8.55-.07-17.1.47-25.66.4 1-2.72 2.06-6.05 3.1-8.77z"/><path class="cls-1" d="M70.9 381.79c-1.72-1.75-2.37-2.72-2.55-5.29a98.53 98.53 0 0 1 3.29-33.15c.57-2 1.21-3 3.84-4.09a97.37 97.37 0 0 1 11.34-3.82l12-1.91-13.4 54.85zM330.47 253.31c5.23-1.49 10.77-2.85 16.75-4.15C389.26 240 424 234 461.59 230.33c33.66-2.49 67.08-3.48 100.07-1.93-9.09 9-12.69 38.84-18.46 58.83-75.48-15.94-162.22-19.18-262.59-7 14.61-11.43 31.65-19.89 49.86-26.92M106.3 526.25l-26.37-17.44a21.71 21.71 0 0 1-6.08-12.58l-2.13-50.81c0-5.74 1.6-10 5.68-12L360.27 420c-3.61.83-5.32 4-5.68 8.93.51 21 .41 41.83.91 62.83a17 17 0 0 0 4 10.19c6.23 7.83 16.82 16.56 22.35 20.25 4.65 3.1 4 2.09 8.33 2.37l-10.75 1.82-273.14-.1M398.66 440.85l.2 31.29c.17 2.83 1.26 4.62 4.67 3.86 9.27-2.29 18.34-4.57 27.61-6.86 5.11-1.26 8-4.26 8.5-9.57l1.17-17.84a4.87 4.87 0 0 0-5.14-5.49H403.1c-3.53 0-4.45 1.23-4.44 4.61"/><path class="cls-8" d="M568.67 245.87c-2.39 15-3.14 30.29-4.78 45.42-1.31 12.07 2.33 17.31 7.19 24.3 1.3 1.87 2.69 3.87 4.14 6.23a47.32 47.32 0 0 1 4.24 9.06 71.35 71.35 0 0 1 2.59 10.46 565.27 565.27 0 0 1 8.29 64.4c.92 13.73.4 52.35-2.54 64.25a411 411 0 0 0 .49-64.12 562.74 562.74 0 0 0-8.29-64.15 70.83 70.83 0 0 0-2.51-10.16 45.82 45.82 0 0 0-4.07-8.68c-1.36-2.22-2.76-4.23-4.07-6.11-5.1-7.35-8.93-12.87-7.54-25.7 1.63-15.12 2.72-30.41 5.09-45.42 1.09-6.88 3.36-10.67 7-12.42s8.37-.75 14.64.6c-10-1.73-17.05-2.7-19.92 12"/><path class="cls-9" d="M566.89 245.87c-2.38 15-3.14 30.29-4.78 45.42-1.3 12.07 2.34 17.31 7.2 24.3 1.3 1.87 2.68 3.87 4.14 6.23a47.93 47.93 0 0 1 4.24 9.06 74 74 0 0 1 2.59 10.46 567.53 567.53 0 0 1 8.29 64.4 413.75 413.75 0 0 1-.5 64.43l-2-.18a412.18 412.18 0 0 0 .49-64.12 565 565 0 0 0-8.26-64.16 69.46 69.46 0 0 0-2.52-10.16 45.76 45.76 0 0 0-4.06-8.68c-1.37-2.22-2.76-4.23-4.07-6.11-5.11-7.35-8.94-12.87-7.55-25.7 1.64-15.12 2.72-30.41 5.1-45.42 1.09-6.88 3.35-10.67 7-12.42s8.37-.75 14.64.6c-10-1.73-17.05-2.7-19.93 12"/><path class="cls-8" d="M651.5 336.16c8 13 12.4 29.62 13.89 49.19s.07 41.94-3.7 66.78a22.2 22.2 0 0 0 2.21 11.41c1.18 2.8 2.24 5.31 1.77 8.89-2.77 15.87-6.22 22.09-14.46 33.69l-.36-.3a50.14 50.14 0 0 0 8.58-15.19 87.18 87.18 0 0 0 4.21-18.46c.4-3-.56-5.31-1.63-7.83a23.9 23.9 0 0 1-2.37-12.4v-.08c3.75-24.71 5.17-47 3.69-66.36s-7-37.37-14.81-50.1z"/><path class="cls-9" d="M650.08 336.16c8 13 12.4 29.62 13.89 49.19s.07 41.94-3.7 66.78a22.2 22.2 0 0 0 2.21 11.41c1.18 2.8 2.24 5.31 1.78 8.89a89.48 89.48 0 0 1-4.32 18.9 52.34 52.34 0 0 1-8.93 15.8l-1.58-1.31a50.14 50.14 0 0 0 8.57-15.19 86.57 86.57 0 0 0 4.21-18.46c.4-3-.56-5.31-1.63-7.83a23.9 23.9 0 0 1-2.37-12.4v-.08c3.75-24.71 5.17-47 3.69-66.36s-7-37.37-14.81-50.1z"/><path class="cls-1" d="M101.11 333.6c-5 20.3-9.9 39.94-14.93 60.25-.7 2.84-.36 4.51.91 6.25 1.42 1.95 4.47 3.84 7 3.71 81-4.32 163.52-8.24 244.5-12.55 4.49-.24 11.36-.94 14.81-3.87l15.11-12.84c3.11-3 4.44-6.21 3.38-10.47-4.29-17.34-8.61-35.42-12.89-52.75-1-4.2-2.81-5.08-7.17-4.79-81.73 5.44-163.14 12-243.8 21.15-3.56.4-6 2.22-6.9 5.91M113.76 316.48l7.5-8.62c2.45-2.88 4.56-3.32 8-3.86a2093.4 2093.4 0 0 1 214.47-22.46c1.78-.07 3.68.71 1.95 3.69L338.26 298c.21-1.42.41-2.84.61-4.26C266.23 295.59 193.59 302.6 121 313c-2.62.38-4.91 2.17-7.19 3.45"/><path class="cls-10" d="M373.07 420.51c.05-2 0-2.84.09-4.82.08-3.34-.19-3.66 2.4-5.79l28.75-23.68a6.38 6.38 0 0 0 2.23-4.86c-.2-5.08-.51-11.87-.71-16.94"/><path class="cls-1" d="M566.15 295.1c.84-15.94 1.77-31.89 5.65-47.83 3.41-10 8.36-11.1 17.2-8.38 17.51 5.41 45.26 21.31 65.69 35.77 5.85 4.14 9.87 8 13.52 14.26 10.45 18 17.53 36.87 24.89 55.63 1 2.52 1.31 5.9-2.53 5.06L581.23 315c-10.28-3.25-15.65-9.09-15.08-19.91"/><path class="cls-11" d="M589.63 288.42c2.27-6.07 3.83-10.83 6.1-16.9 1.66-4.43 4.26-7.25 8.76-7.21 13.8.1 26.47.3 40.27.41a11.54 11.54 0 0 1 7.9 3.2 17.27 17.27 0 0 1 5.75 9.15 55.39 55.39 0 0 1 2.41 13.59c-1.25-1.11-1.91-1.84-3.53-1.85l-67.66-.39"/><path class="cls-12" d="M571.56 289.9l85.84.2a3.11 3.11 0 0 1 3 2.74c-.16 3.83-1.7 7-6.06 8.52 3.8-2.28 4.1-6.28 2-6.8l-80.58 3.76c-1.6 1.13.34 6.32 3.6 9-6.58-2.84-10.52-13.41-7.76-17.44"/><path class="cls-13" d="M443.8 303.26c3.54-14 22-10.42 33-10.31-7.34.36-13.72 0-23 2.78-3.74 1.12-6.78 3.43-7.93 8z"/><path class="cls-1" d="M381.13 313.4c5.32 18 12.37 42.16 17.69 60.19.89-.16 0-6.41.93-6.57L460 356c7.32-2.17 12.53-4.45 17.7-10l10.95-11.75c2.25-2.42 2.51-4.89 2-8q-.95-6.2-1.88-12.4c-.8-5.28-4.68-8.57-9.83-9.64-18.83-3.24-47.36-2.85-87.83 2-7.36 1.3-9.54 4.05-10 7.25"/><path d="M55.62 432.53c47.24-2 94.22-4.35 142.58-6.68 88.37-4.25 177-8.51 261.54-11a133.76 133.76 0 0 1 17.67.25 67.66 67.66 0 0 1 13.95 2.43l-1.24 3.93a62.82 62.82 0 0 0-13.05-2.25 127.39 127.39 0 0 0-17.12-.26h-.05c-84.31 2.51-173 6.78-261.5 11-48.23 2.32-96.42 4.63-143.95 6.67l1.14-1.41z"/><path class="cls-14" d="M76.21 485.74l-1.88-41.44c0-4.05 1-8.36 5.8-8.56q135.6-5.81 271.14-11.67a14.59 14.59 0 0 0-.76 5q.51 24.65 1 49.29c-6.08.27-10.54.54-16.63.81-2.83 1.2-2 9.52-1.57 16.08-2-7.27-2.59-16.83-2.48-24.9l.4-28.4c.05-3.87-2.15-5.7-6.29-5.78l-233.65 8.97c-3.49.13-6.3 1.28-6.24 5.33l.54 34.81a43.36 43.36 0 0 0 2.84 14.3 44.54 44.54 0 0 1-5.28-13.69l-6.94-.15"/><path class="cls-14" d="M89.66 483.21c-.29-6.43-.16-12.79-.32-19.18-.15-3.57 1.36-5.89 5.68-6.08 74.82-2.37 147-4.74 221.82-7.1 4.32-.1 7.83 1 7.94 5.77.25 10.84.11 21.35 1.54 32.11-1.73-2.49-2.64-5.63-3.55-8.83-77.71 1.41-153.49 2.81-231.2 4.21a29.33 29.33 0 0 0 0 6.88c-1.26-2.08-1.74-5.13-1.86-7.78"/><path class="cls-1" d="M59.1 451.65v37c-3.92-3.71-6.35-7.43-6.89-11.15L50.83 455c-.1-1.65.07-2.85 1.87-2.95l6.4-.35"/><path class="cls-11" d="M708 358.47l2.7 1.16a127.81 127.81 0 0 1 11.23 40.57c1.93 16.73 1.43 36-2 58.43a24.4 24.4 0 0 0 1.18 10.14 14.18 14.18 0 0 1 .56 8.43c-1.56 6.92-6 16.1-10.21 22.15-2.24 3.25-3.86 5.88-6.17 7.2a38.59 38.59 0 0 0 7.42-10.67 84.83 84.83 0 0 0 6.95-19.15 12.47 12.47 0 0 0-.52-7.36 26.06 26.06 0 0 1-1.26-10.94v-.08c3.38-22.28 3.88-41.36 2-57.92a128.24 128.24 0 0 0-11.89-42"/><path class="cls-6" d="M706.47 357.51a7.18 7.18 0 0 0 1.41.93l1.23.53a127.13 127.13 0 0 1 11.55 41.23c1.93 16.73 1.44 36-2 58.43a24.4 24.4 0 0 0 1.18 10.14 14.18 14.18 0 0 1 .56 8.43 88 88 0 0 1-7.13 19.62 60.16 60.16 0 0 1-8 12l-2.71-.07a55.34 55.34 0 0 0 8.84-12.91 85.35 85.35 0 0 0 7-19.15 12.38 12.38 0 0 0-.53-7.36 26.4 26.4 0 0 1-1.26-10.94v-.08c3.38-22.28 3.88-41.36 2-57.92s-6.32-31.07-12.56-43.29z"/><path d="M357.88 311l21 1.11a9.83 9.83 0 0 1 2.61.49 5.09 5.09 0 0 1 2 1.14l-1.45 1.45a3.06 3.06 0 0 0-1.18-.64 7.64 7.64 0 0 0-2.05-.39L357.77 313z"/><path class="cls-11" d="M102 337.71c-1.17 3.93-1.85 7.53-3 11.46 79.7-8.84 159-15.38 238.7-20.44l23.13-.3c-1.19-3.82-1.57-7.44-2.86-11.15-1.16-3.35-3.59-4-7.09-4-5.56.09-9.55.24-15.1.33-76.59 4.9-153 11.42-229 20.58-1.9.23-4.13 1.52-4.72 3.51"/><path class="cls-1" d="M102.79 345.87c77.93-8.57 156.07-15 234.31-20l-1.65-9.4C259.15 321.38 182.94 327.89 107 337c-.76.09-2.09.67-2.33 1.48-.72 2.43-1.29 4.89-1.91 7.35"/><path class="cls-11" d="M96.43 361.24c-1.16 3.93-1.75 7.63-2.71 11.46 79.7-8.84 170.92-13.55 250.62-18.61l23-.3c-1.13-3.72-1.59-7.44-2.75-11.16-1.07-3.38-3.59-4-7.1-4-5.56.1-9.54.24-15.1.34-76.59 4.89-165.2 9.59-241.25 18.75-1.91.23-4.14 1.52-4.73 3.51"/><path class="cls-1" d="M97.4 369.42c39.89-4.34 79.94-7.45 120-10.2 41.39-2.83 82.81-5.2 124.21-7.82l-1.65-9.4c-39 2.48-78 4.76-117 7.52-40.53 2.87-81.13 6.19-121.47 11.05-.75.09-2.09.67-2.33 1.48-.72 2.43-1.23 4.9-1.77 7.37"/><path class="cls-11" d="M93.53 382.79l254.6-17.15c7.27-.1 14.18-.25 21.45-.35a11.53 11.53 0 0 1 .13 2.93 5.31 5.31 0 0 1-1.56 3.69c-2.67 2.07-5.49 4.94-8.41 6.9-3.52 2.37-5.21 3-9.68 3.36-86.17 5.25-172.94 10.49-259.1 15.74-1.56.09-3.13-.43-2.94-2.3.42-3.38 1.42-6.4 2.13-9.88a3.22 3.22 0 0 1 3.38-2.94"/><path class="cls-1" d="M93.13 385.74a2.67 2.67 0 0 0-.18.57c-.59 2.89-1.51 5.79-2 8.73q127.79-7.77 255.5-15.51l-1.88-10.79q-125.44 8.44-250.89 16.9a2.6 2.6 0 0 0-.59.1"/><path class="cls-4" d="M644.71 347.31c3.8 1.35 6.87 6.49 6.87 11.48s-3.07 7.93-6.87 6.57-6.86-6.49-6.86-11.47 3.07-7.93 6.86-6.58M704.79 367.84c3 1.2 5.37 5.73 5.37 10.13s-2.41 7-5.37 5.81-5.37-5.73-5.37-10.13 2.4-7 5.37-5.81"/><path class="cls-11" d="M639.76 356.18c-.86 2-4.58 1.71-5.91-1.1-.94-2-.65-4.11 2-3.77.37 0 3.86.63 4.72.78s13.69 3.07 13.69 3.07c3.11 3.41-.53 7.13-3.87 3.13-1-.14-9.64-2-10.6-2.11M700.92 375.67c-.67 1.79-3.58 1.52-4.62-1-.74-1.75-.51-3.63 1.54-3.33.28 0 3 .56 3.68.69s10.71 2.71 10.71 2.71c2.42 3-.42 6.29-3 2.77-.75-.13-7.53-1.75-8.28-1.87"/><path class="cls-4" d="M639.76 356.29c-.86 2-4.58 1.71-5.92-1.1-.64-1.36 1.32-1.5 2.75-1.32 3.52.46 15.36 3.1 18.81 3.92.11 2.28-2.55 3.6-5 .61-1-.14-9.63-2-10.59-2.11M700.91 375.77c-.67 1.79-3.57 1.51-4.62-1-.5-1.2 1-1.33 2.15-1.16 2.75.4 12 2.73 14.7 3.45.08 2-2 3.18-3.95.54-.75-.12-7.53-1.74-8.28-1.86"/></svg>