<svg id="Layer_1" data-name="Layer 1" xmlns="http://www.w3.org/2000/svg" viewBox="0 0 841.9 841.9"><defs><style>.cls-1,.cls-10,.cls-2,.cls-3,.cls-4,.cls-5,.cls-6,.cls-7,.cls-8,.cls-9{fill-rule:evenodd;}.cls-2{fill:#4d4e4e;}.cls-3{fill:#f8f9fa;}.cls-4{fill:#c9c9c8;}.cls-5{fill:#e3e3e3;}.cls-6{fill:#333;}.cls-7{fill:#515151;}.cls-8{fill:#f0f0f0;}.cls-9{fill:#888;}.cls-10{fill:#acacac;}</style></defs><path class="cls-1" d="M443.56,580.1c-75,2.18-150.06,4.14-225.08,7.09,9.51-6.5,17-14.73,21.57-24.05l59.6-.81c4.91,4.91,3.83,5.77,10.58,5.73L422,567.35l7.72-3.63a86.94,86.94,0,0,0,13.86,16.38M715,576.16c-34.16.07-73.46.41-107.45.73a106.67,106.67,0,0,0,11.87-26.26l31.75-3.18,57.51,8.32C710.27,564.51,712.44,571.57,715,576.16ZM75.9,602c136.39,3.07,270.59,6.13,404.72,9.19,43.41,1,87.12-.57,130.14-6.57,57.62-8,125.78-17.1,183.53-25.13,12.73-1.77.38-2.68-24.8-3.08,4.75-8.41,8.28-25.53,9.26-46.15l3.2-11.61,1.37-28.84,0-.51a188.46,188.46,0,0,0-2.89-28.65C779,453.19,775,435.84,766,433.88c-4.39-1-8.07,2.09-10.55,5.36-3.57,4.73-6.08,11.33-7.83,16.94a183.56,183.56,0,0,0-6.11,28.41c-1.81,12.44-2.84,25.06-3.4,37.62L626.2,528.27a117.57,117.57,0,0,0-10.82-63.17,145.71,145.71,0,0,0-9.07-16.36c-2.56-15.47-7.72-32.48-17.71-44.82C583,397,574.45,390.18,565.12,390c-8.84-.12-16.2,5.89-21.51,12.39-7.59,9.27-13,21.65-16.9,32.9-5.47,15.9-8.94,32.84-11.16,49.49a396.55,396.55,0,0,0-3.14,62.57,15.4,15.4,0,0,1-.06,2.09,17.52,17.52,0,0,1-2.44.18l-62.63,1.73c-33-2.13-66-1.93-99-3.79a57.86,57.86,0,0,1-10.24-1.4c-4.06-1-8.14-2-12.19-3.08a42.37,42.37,0,0,0-5.26-1,34.06,34.06,0,0,0-5.42-.44c-65.47,2-131,.91-196.47,1.84h0a25.94,25.94,0,0,0-6.72,1.22l-8,2.84a23.87,23.87,0,0,1-6.52,1l-16.69-.38-3.92,1.57c3.84,6.4,2.76,8.31,9.79,8.53l2.5.08c5.19,13.92,16.64,25.8,31.85,33.74C82,595,17.38,600.69,75.9,602Z"/><path class="cls-2" d="M549.76,444.5c30,0,54.25,31.61,54.25,70.59s-24.29,70.59-54.25,70.59c-17,0-32.2-10.19-42.15-26.14l8.24-.23.94,0c8.52,10.77,20.15,17.4,33,17.4,26.14,0,47.33-27.57,47.33-61.59S575.9,453.5,549.76,453.5a38,38,0,0,0-19.07,5.21c1-3.87,2-7.59,3.17-11.13a42.82,42.82,0,0,1,15.9-3.08"/><path class="cls-2" d="M761.74,471.1c6.24,0,11.31,21.27,11.31,47.5s-5.07,47.5-11.31,47.5c-1.42,0-2.78-1.11-4-3.11h0c5.84,0,10.57-19.87,10.57-44.39s-4.73-44.39-10.57-44.39h0c1.25-2,2.61-3.11,4-3.11"/><path class="cls-3" d="M53.38,550.52a3.61,3.61,0,0,1-3.15-2.73c-.92-3.85-1.85-8.81-2.77-12.67-2.1-.07-3.06-1-3.29-2.75-.18-3.25-.36-5.51-.54-8.75-.1-1.94.13-2.77,2.36-3.21l-3.87-52.06c-.37-3,.37-5.2,3.22-6.57C50,455.1,49.57,449,54,434.89,60,420.27,65.2,415,70.45,401.06c5.61-11.63,11-23.31,23.35-29.85,9.12-8.16,14.34-19.16,24.52-24.59,20.73-9.7,52.86-14.63,81.37-21.8,33.95-22.2,67.15-43.33,108.4-59.91,11.37-4.86,21.83-7.74,33.69-10.37,80.79-17.9,164.72-21.31,248.78-24,12.07-.44,24,.14,35,5.26a406,406,0,0,1,95.78,62.92c9.46,8.33,15.15,18.3,21.24,29.27A485,485,0,0,1,769,382.37c5.15,7.08,11.42,10.39,13.75,14.12,3.16,5.06,5.15,17.72,6.45,31.81,2.57,27.76,2.5,51.22,1.34,78.23-.41,9.41-5.37,14-11.19,21.64,4.52-58.73-4.68-89.39-14-91.41-9.7-2.11-22,26.82-24.42,88.26l-118,6.39c4.06-32.15-4.44-58.39-19.38-81.59C596.75,408,577.21,393.17,565.08,393c-26.31-.38-52,64.39-49.72,154.32.11,4.68-.66,5.17-5.37,5.3l-62.76,1.73c-34.55-2.23-65-1.87-99.09-3.8a63.11,63.11,0,0,1-10.78-1.48c-4-1-8.43-2.06-12.25-3.09a49.59,49.59,0,0,0-9.82-1.32c-65.21,2-131.36.92-196.52,1.84a25.24,25.24,0,0,0-5.83,1l-8,2.84a28.39,28.39,0,0,1-7.58,1.15l-43.94-1"/><path class="cls-4" d="M492.78,350.55a43.14,43.14,0,0,1,16-9.55c5.9-2,18.23-3,25.18-2.88-10.3,1-17.08,2.39-24.51,4.89a41,41,0,0,0-15.21,9.09Z"/><path class="cls-5" d="M788.31,420.14c.32,2.63.6,5.37.86,8.16,2.57,27.76,2.5,51.22,1.34,78.23-.41,9.41-5.37,14-11.19,21.64,4.52-58.73-4.68-89.39-14-91.41-9.7-2.11-22,26.82-24.42,88.26l-118,6.39c4.06-32.15-4.44-58.39-19.38-81.59-4.07-25.3-12.82-40.71-21.78-49,35.74-3.44,121-3.24,175.9,7.77,13.74,2.76,23.24,6.5,30.7,11.53M53.38,550.52a3.61,3.61,0,0,1-3.15-2.73c-.92-3.85-1.85-8.81-2.77-12.67-2.1-.07-3.06-1-3.29-2.75-.18-3.25-.36-5.51-.54-8.75-.1-1.94.13-2.77,2.36-3.21l-3.87-52.06c-.37-3,.37-5.2,3.22-6.57C50,455.1,49.57,449,54,434.89A156.62,156.62,0,0,1,63,416.94c4,8.75,18.16,14.63,27.77,18.64,2.24.94,5.87,2.8,7.74,6.14,4.68,8.38,9.89,19.59,13.23,24.55-1.73-5.53-1.82-10.91,4-11.21,60.43.12,122.11-4.5,177.11-2.26,11.3.46,8.75,6,5.29,13.63,14.49-19.33,20.86-25.68,37.72-30.15,73.72-19.51,136.38-16.71,172.37-42.44-21.6,35.18,13.18,22.9,36.29,12.31-17.5,23.27-30.75,75.5-29.09,141.16.11,4.68-.66,5.17-5.37,5.3l-62.76,1.73c-34.55-2.23-65-1.87-99.09-3.8a63.11,63.11,0,0,1-10.78-1.48c-4-1-8.43-2.06-12.25-3.09a49.59,49.59,0,0,0-9.82-1.32c-65.21,2-131.36.92-196.52,1.84a25.24,25.24,0,0,0-5.83,1l-8,2.84a28.39,28.39,0,0,1-7.58,1.15Z"/><path class="cls-4" d="M639.44,428.24c6.81,15.1,8.93,22.73,28.53,25.69,21.93,3.31,43.28,5.47,64.18,5.34,2.6,0,3-1.27,1.17-3.06-16.26-16.35-44.21-28.21-90.41-33-3.44-.36-4.88,1.95-3.47,5.07"/><path class="cls-4" d="M777.68,462.14l12.94-1.43.48,0c.4,15.13.1,29.87-.59,45.86-.41,9.41-5.37,14-11.19,21.64,2.21-28.77,1.13-50.8-1.64-66M599.62,432.61l8.13,6.1L620.11,444l13,2.51,20.21,26.92,12.15,6.28,16.55-.42,58.76-9.95,6.91-2.93.2-.05c-3.39,14.31-6,33.85-7,58.71l-118,6.39c4.06-32.15-4.44-58.39-19.38-81.59A134.08,134.08,0,0,0,599.62,432.61ZM53.38,550.52a3.61,3.61,0,0,1-3.15-2.73c-.92-3.85-1.85-8.81-2.77-12.67-2.1-.07-3.06-1-3.29-2.75-.18-3.25-.36-5.51-.54-8.75-.1-1.94.13-2.77,2.36-3.21l-2.61-35.13,38.82,5.49,1.15,3.45a19.1,19.1,0,0,0,2.83,2.2,56,56,0,0,0,8,.42c1.67-.1,32.78-2.3,32.78-2.3L300,491.92l44.62,3.14L373.15,498s27.23-3.35,32.26-3.77,63.26-28.07,63.26-28.07l20.21,1.15,24.93-4.81,9.59-4.65c-5.72,24.72-8.9,55.28-8,89.47.11,4.68-.66,5.17-5.37,5.3l-62.76,1.73c-34.55-2.23-65-1.87-99.09-3.8a63.11,63.11,0,0,1-10.78-1.48c-4-1-8.43-2.06-12.25-3.09a49.59,49.59,0,0,0-9.82-1.32c-65.21,2-131.36.92-196.52,1.84a25.24,25.24,0,0,0-5.83,1l-8,2.84a28.39,28.39,0,0,1-7.58,1.15Z"/><path class="cls-3" d="M674.44,343.5c.93,1.22,2,2.5,3.08,3.86,4.79,5.88,10.69,13.11,11.46,19.83a329.82,329.82,0,0,1-1.09,83.64c-.72,5.19.82,10.35,2.36,15.54a52.87,52.87,0,0,1,2.09,12c.28,4.25-3.23,21.54-4,25.32.4-4.68,1-8.64,1.46-12.06.68-5.22,1.19-9.18.94-13.12A53,53,0,0,0,688.22,467c-1.61-5.41-3.22-10.79-2.43-16.44a327.49,327.49,0,0,0,1.08-83.11c-.7-6.11-6.38-13.07-11-18.73-1.14-1.4-2.22-2.73-3.12-3.91Z"/><path class="cls-4" d="M672.55,343.5c.93,1.22,2,2.5,3.08,3.86,4.8,5.88,10.7,13.11,11.46,19.83A330.43,330.43,0,0,1,686,450.83c-.73,5.19.81,10.35,2.36,15.54a54.33,54.33,0,0,1,2.61,12c.27,4.13-.26,8.18-1,13.53-.43,3.32-.93,7.16-1.34,12l-2.12-.19c.4-4.68.92-8.64,1.36-12.06.67-5.22,1.19-9.18.93-13.12A52.44,52.44,0,0,0,686.33,467c-1.61-5.41-3.21-10.79-2.42-16.44A328.1,328.1,0,0,0,685,367.43c-.69-6.11-6.37-13.07-11-18.73-1.14-1.4-2.22-2.73-3.13-3.91Z"/><path class="cls-3" d="M612.62,462.24c.54-16.54.6-33.24-.13-49.79a388.67,388.67,0,0,0-6.68-58.22c-.8-4-2.8-7-4.92-10.1a54.28,54.28,0,0,1-3.59-5.78l1.87-1a57,57,0,0,0,3.47,5.57h0c2.25,3.31,4.37,6.42,5.26,10.89a388.31,388.31,0,0,1,6.7,58.52c.5,11.14-.19,36.88-2,49.89"/><path class="cls-4" d="M612.67,466.27q-1-2-2-4c.54-16.54.61-33.24-.13-49.79a387.36,387.36,0,0,0-6.67-58.22c-.81-4-2.81-7-4.93-10.1a55.94,55.94,0,0,1-3.59-5.78l1.88-1a55.1,55.1,0,0,0,3.46,5.57h0c2.26,3.31,4.37,6.42,5.26,10.89a389.61,389.61,0,0,1,6.71,58.52c.8,17.94.65,36,0,53.92"/><path class="cls-1" d="M200.4,324.35c33.71-22,66.72-43,107.69-59.44,11.37-4.86,21.83-7.74,33.69-10.37q13.05-2.89,26.21-5.29c80.33-12.13,164.63-15.1,221.36-11.28-10.61,17.71-20,36-30.46,53.76-5.42,9.15-14.12,11.2-24.16,11.42-112.14,2.44-222.24,9.05-334.33,21.2"/><path class="cls-1" d="M46,520.39l-3.87-52c-.26-2.11.62-7.38,3.51-6.66l37.3,9.22a4.27,4.27,0,0,1,3,5.49c-3.13,12.08-6.26,23.71-9.4,35.77-.92,3.55-2.56,5.18-6.13,5.71l-21.74,3.2a3.55,3.55,0,0,1-2.64-.69"/><path class="cls-6" d="M67.25,515.35l2.69-.4c2.41-.35,3.1-1.19,3.71-3.52,3.09-11.93,6.3-23.84,9.4-35.77.2-.79.06-1.66-.83-1.88l-36.66-9.07a8.43,8.43,0,0,0-.51,3.29v.07l0,.74,33.38,8.26c.82.2,1,1,.76,1.74-2.88,11.11-5.86,22.19-8.74,33.29-.55,2.11-1.17,2.9-3.26,3.25"/><path class="cls-1" d="M96.39,526.47q8.25-14.25,16.49-28.5a10,10,0,0,1,9-5.24l169.38-2.37c5.57-.08,9.06.91,13.32,4.43,11.63,9.6,22.52,18.62,34.14,28.22,1.67,1.38,1.36,3-.07,3.15l-242.25.31"/><path class="cls-1" d="M355.11,467.46l100.45-10c7.47-.75,14.54,2.19,16.2,10.25,3.49,17,4.93,32.21,6.11,49,.15,2.16-.63,3.34-2.65,3.31l-64.08-1.2c-10.25-.32-17.59-2.22-23.63-9C376.38,497.27,365,484.5,353.93,472c-1.5-1.69-2-4.24,1.18-4.56"/><path class="cls-6" d="M356.36,470.31q16.65,18.78,33.36,37.54c5.81,6.55,13,7.84,21.42,8a19.49,19.49,0,0,1-10.43-6.21c-8.86-10-18-21.62-26.89-32-2.56-3-1.6-4.17,2-4.53l83.74-8.36c3.42-.34,6.72.28,9,2.26-1.78-5.46-7.08-7.2-12.69-6.64l-99.49,9.93"/><path class="cls-5" d="M672.18,372.55c3.52.07,7.19,5.59,8.2,12.32s-1,12.15-4.53,12.08-7.19-5.58-8.2-12.32,1-12.15,4.53-12.08"/><path class="cls-3" d="M672.24,387.38c-1.15,3.26-6.9,3.4-9.19-.69-1.61-2.89-1.34-6.19,2.72-6.11.57,0,6,.32,7.32.41s9.32,1.13,9.32,1.13c5.05,4.7-.24,11-5.71,5.45-1.48-.05-3-.14-4.46-.19"/><path class="cls-5" d="M672.24,387.55c-1.15,3.26-6.9,3.4-9.19-.69-1.09-2,1.91-2.52,4.13-2.48,5.43.11,11.87.9,17.24,1.57.35,3.48-3.63,5.95-7.72,1.79-1.48-.05-3-.14-4.46-.19"/><path class="cls-5" d="M701.3,376.47c3.51.06,7.19,5.58,8.2,12.32s-1,12.14-4.54,12.08-7.19-5.59-8.2-12.33,1-12.14,4.54-12.07"/><path class="cls-3" d="M701.35,391.3c-1.15,3.25-6.89,3.4-9.18-.69-1.61-2.89-1.34-6.2,2.72-6.12.57,0,6,.32,7.32.41s9.31,1.13,9.31,1.13c5.06,4.71-.23,11-5.7,5.45l-4.47-.18"/><path class="cls-5" d="M701.35,391.46c-1.15,3.26-6.89,3.41-9.18-.69-1.1-2,1.91-2.51,4.12-2.47,5.44.1,11.87.89,17.25,1.56.35,3.48-3.63,5.95-7.72,1.79-1.49,0-3-.13-4.47-.19"/><path d="M335.82,521.26c2.45,1.31,4.55,2.69,6.54,4,4.84,3.18,9,5.9,15.42,5.75l115.58-2.79c-.53,1.46-4.41,3.76-7.87,3.55-37.24.89-70.4,1.06-107.64,2-7.31.18-14.53-2.87-19.76-6.3-2-1.27-4-2.63-6.34-3.87l4.07-2.28"/><path d="M102,524.21c-.93,1-1.62,1.74-2.28,2.46-5.17,5.64-9.65,10.85-18.36,10.56-5.32-.18-10.58-.54-15.84-.9-4.44-.3-14-1-18.38-1.14a2.87,2.87,0,0,1-3-2.87c5.32.18,16.33.83,21.59,1.19s10.61.72,15.74.89c7.42.25,10.59-4.51,15.24-9.58.79-.87,1.62-1.77,2.32-2.51,1,.64,2,1.27,3,1.9"/><path class="cls-3" d="M93.31,374.1l13.17.51a5.55,5.55,0,0,1,5.17,3q4.68,7.53,9.37,15.07c2.15,3.45,4.15,4.34,8.14,4.22l174.59-5.36c6.47-.2,11.56-.83,17.05-4.48,10.85-7.24,21.17-14.48,31.65-21.72,3.75-2.58,6.89-3.25,11.4-3.59,36.2-2.73,72.4-4,108.6-6.71-4.57,4.61-8.48,5.92-12,6.27-32.1,3.14-64.2,4.82-96.3,8-8.38.82-13.87,1.57-21.32,6.61-9.11,7-20.43,15.29-29.54,22.31a35.54,35.54,0,0,1-21.15,7.37c-54.37,2.21-108.54,4.52-162.91,6.73-5.62.23-9.21-2.53-11.85-7.42L108,387.44c-1.54-2.87-3.61-5-7.16-5.54-4.15-.67-10.79-1.63-14.94-2.3a35.13,35.13,0,0,1,7.44-5.5"/><path class="cls-3" d="M117.53,381.36c2.61,4.23,3.51,7.56,8.17,7.36,62.07-2.72,125.93-3.81,188-6.53,6.49-.5,15.39-5.83,22-10.47A54.74,54.74,0,0,1,316,376.54c-64.15,2.72-128.31,4.51-192.44,7.23a8.2,8.2,0,0,1-6-2.41"/><path class="cls-1" d="M704.77,284.88q8.55,6.76,16.59,13.85c9.46,8.33,15.15,18.3,21.24,29.27a485.35,485.35,0,0,1,25,51l-27.46-8a30.38,30.38,0,0,1-10-4.7l-11.53-8.73c-3.75-2.84-7.23-5.41-11.92-6.26-35.43-6.36-74.84-9.17-114.72-11.56a12.43,12.43,0,0,1-9.72-4.95c-3.25-3.85-5.42-6.46-8.77-10.44A10.16,10.16,0,0,1,572,313.06q11.41-26.22,22.84-52.43c8.37-19.21,26-19.41,43-12.27,24.05,10.12,45.79,23,67,36.52"/><path class="cls-1" d="M606.55,344.19l3.77-4.19q-.8-11.26-1.58-22.52c-.31-4.44-.4-7.65,3.38-10.77,7.86-6.49,15.7-6.42,25.22-6a198.58,198.58,0,0,1,30.48,3.74c7,1.3,10.13,3.39,10.49,10.4a73.13,73.13,0,0,1-.69,16c-1.11,6.51-4,10-11,10.82-8.15.77-16.29,1.07-24.44,1.85-8.53.8-13.12,5.5-17,13.23a11.57,11.57,0,0,1-6.7-.84c-4.56-3.25-13.29-9.92-11.94-11.73"/><path class="cls-6" d="M609.22,324.4l-.48-6.92c-.31-4.44-.4-7.65,3.38-10.77,7.86-6.49,15.7-6.42,25.22-6a198.58,198.58,0,0,1,30.48,3.74c7,1.3,10.13,3.39,10.49,10.4a88.19,88.19,0,0,1,0,9.89c-12.11-4-46.18-4.2-55.73-4.09-5.13.06-10.29.57-13.36,3.78"/><path class="cls-1" d="M231.35,551.62A72.58,72.58,0,0,1,212.72,574c9.54-.41,15.4-.61,15.47-.62L457.32,568l-.26-.36c-.9,0-1.51-.06-1.74-.09a59.84,59.84,0,0,1-31.15-14.35ZM775.57,562c7.8,0,15.29,0,22.08.14,20.45.31-5.75,6.43-10.91,7.43C698.25,584.1,582,598.27,525.24,600.73c-113.53,2.14-304.57-4.15-468.33-8.3-42.69-1.08-12.11-4.91,35.24-10.24,7.89-.89,16.52-1.71,25.48-2.47a72.45,72.45,0,0,1-30.51-36.79l-23.23-1.41-4.62-4.2,18.92-5.86,279.6,4.59h.06a236.8,236.8,0,0,1,26.58,2.49c7,1,13.9,2.32,20.88,3.25A120.83,120.83,0,0,0,424.79,543l90.38-2.41a440.4,440.4,0,0,1,3.67-55.88,294.58,294.58,0,0,1,10-47.58c4.49-14.6,15.61-44.72,33.41-47.54A21.89,21.89,0,0,1,573.91,391a31.35,31.35,0,0,1,12.18,9.36c10.84,13.14,15.12,34.33,17,50.88a124.46,124.46,0,0,1,7.91,19.2c6.86,21.74,7,44.09,2.38,66.19,23.15-2.82,46.33-5.3,69.58-7.24q30.59-2.55,61.24-4c0-.11,0-.21,0-.29,1.17-14,2.21-28,3.87-41.94a278,278,0,0,1,5.21-31.3c1.92-8.12,5-17.83,10-24.64,2.42-3.3,6.06-6.78,10.31-7.12l5.57,2.73,6.3,7.78,3.16,15.87.94,10.82,0,21.91-.53,6.21-3.18,25.15C785.09,533.77,781.08,553.17,775.57,562ZM607.48,544.44a95.54,95.54,0,0,1-10,20.25l118.95-2.81,4.62.06c-3.29-5.3-6-14.38-7.88-25.79l-27,.85Z"/><path class="cls-7" d="M545.85,438.53c27.28,0,49.4,29.17,49.4,65.16s-22.12,65.16-49.4,65.16c-13.84,0-26.36-7.52-35.32-19.63l5.82-.15c7.93,9,18.23,14.4,29.5,14.4,25,0,45.32-26.76,45.32-59.78s-20.29-59.79-45.32-59.79a34.69,34.69,0,0,0-9.71,1.39q.9-3.06,1.86-5.94a38,38,0,0,1,7.85-.82"/><path class="cls-7" d="M768.91,458.5c6.59,0,11.93,20,11.93,44.77S775.5,548,768.91,548c-1.86,0-3.63-1.61-5.2-4.47A4.11,4.11,0,0,0,766.6,545c6.14,0,11.12-18.68,11.12-41.72s-5-41.73-11.12-41.73a4.13,4.13,0,0,0-2.89,1.43c1.57-2.87,3.34-4.47,5.2-4.47"/><path class="cls-8" d="M73.1,534.33c-4.34,1.71-6.48,3.15-11.15,3.34-1.84.08-3.78.1-5.62.18a4.69,4.69,0,0,1-5-2.54c-2.29-3.77-4.66-7.53-6.81-11.29a8.33,8.33,0,0,1-1-6.45l6.15-27.28c-.24-17.37-.9-34.18-1.13-51.56-.09-6.69,1-11.92,5.34-17.24q3.42-4.22,6.82-8.44c1.49-6.81,3-13,4.47-19.81,2.14-9,.4-15.39,3.69-18.67,2-2,6.8-1.93,12.81-3.29,22.65-28.46,68.3-36.37,117.39-41.2,38.52-23.37,77.14-45.61,121.84-63.83,25.22-10.29,54-14.17,81-17.24A1321,1321,0,0,1,571,240.44c14.44.2,38.58,1.52,51.69,5.95,57.43,19.4,103,60.49,139.67,117.74a77.77,77.77,0,0,1,8.09,14.4c7,15.83,11.31,31.91,15.24,48,4.36,17.9,5.05,27.24,3.78,53.8,1.06-27-4.62-55.32-14.14-57.19-5.56-1.09-13.82,6.86-19.16,29.41s-7.35,52.92-9,72.81c-.09,1.09-.56,2.73-1.92,3-47.47,2.21-87.17,5.73-135.69,11.72,7.84-32.79,4.11-61.91-9.35-88-5.65-51.58-25.54-61.52-37.49-59.63-23.24,3.69-44.69,67.31-44.59,151l-93.24,2.49c-22.49.61-36.88-5.83-67.13-6.9L73.1,534.33"/><path class="cls-9" d="M498,351.23c2.52-.54,7.13-1.39,9.47-1.81s4.47-.81,7.14-1.39h0a19.29,19.29,0,0,0,5.77-2.11,16.19,16.19,0,0,0,4.45-3.66,49.86,49.86,0,0,0,4.66-6.72,55.59,55.59,0,0,0,3.78-7.68A20,20,0,0,0,535,320a9,9,0,0,0-2.13-5.68l1.63-1.36a11,11,0,0,1,2.63,7,22.3,22.3,0,0,1-1.86,8.75,59.38,59.38,0,0,1-3.94,8,52.25,52.25,0,0,1-4.86,7,18.41,18.41,0,0,1-5,4.14,21.12,21.12,0,0,1-6.4,2.35c-2.52.55-4.86,1-7.2,1.4s-6.73,1.23-9.4,1.81Z"/><path class="cls-9" d="M249.11,367.35c24.59-1,49.07-.19,73,.64,23.59.83,46.39,2.11,67.36,3.83l-.17,2.13c-21-1.73-43.79-3-67.25-3.83-24.09-.84-48.81-2.28-72.91-2.77M91.56,376.88c13.78-2.2,29.63-4,46.91-5.49,18-1.52,38.34-2.34,58.9-3.08-21.35,1.73-39.74,3.6-58.73,5.21C121.36,375,105.56,376.8,91.9,379Z"/><path class="cls-10" d="M73.1,534.33c-4.34,1.71-6.48,3.15-11.15,3.34-1.84.08-3.78.1-5.62.18a4.69,4.69,0,0,1-5-2.54c-2.29-3.77-4.66-7.53-6.81-11.29a8.33,8.33,0,0,1-1-6.45l6.15-27.28c-.24-17.37-.9-34.18-1.13-51.56a37.53,37.53,0,0,1,.29-5.61l8,10.35,10.93,2.95s260.42-3.58,263.36-3.58,9,2.32,9,2.32C403.31,434,473.88,423,505,368.44c-1.3,4.83-1,8-3.68,12.71,26.71,9.39,37.37,10.13,32.05,36.89,1.22-2.2,9.71-19.31,11.15-21.07,14.23-17.43,37.79-13.62,46.86,5.73-2.89-15.83,6.06-16.9,19.66-18.29,44.65-4.58,160,14.95,163.65,4.5,4.65,12.46,7.94,25,11,37.65,4.36,17.9,5.05,27.24,3.78,53.8,1.06-27-4.62-55.32-14.14-57.19-5.56-1.09-13.82,6.86-19.16,29.41s-7.35,52.92-9,72.81c-.09,1.09-.56,2.73-1.92,3-47.47,2.21-87.17,5.73-135.69,11.72,7.84-32.79,4.11-61.91-9.35-88-5.65-51.58-25.54-61.52-37.49-59.63-23.24,3.69-44.69,67.31-44.59,151l-93.24,2.49c-22.49.61-36.88-5.83-67.13-6.9L73.1,534.33"/><path class="cls-9" d="M547.92,403.06c-.54.7-1.07,1.44-1.6,2.2a27.91,27.91,0,0,0-3.26-7.79,14.5,14.5,0,0,0-4.49-4.81l-41.51-24.94,1.09-1.83,41.51,24.95a16.39,16.39,0,0,1,5.21,5.52,30.16,30.16,0,0,1,3,6.7"/><path class="cls-9" d="M759.24,442a101.26,101.26,0,0,0-3.08,10.62c-5.31,22.46-7.35,52.92-9,72.81-.09,1.09-.56,2.73-1.92,3-47.47,2.21-87.17,5.73-135.69,11.72,7.84-32.79,4.11-61.91-9.35-88a158.47,158.47,0,0,0-4.55-24.87c7.09,18.86,10.61,13.89,13.33,13.26,44.29-10.21,85.08-13.5,120.94-7.17,16.81,3,23.37,6.11,22.91,24.77,1.81-7.95,1.16-9.39,6.42-16.12"/><path class="cls-8" d="M686.7,343.43l.25.28c8.63,9.74,12.72,14.36,15.25,27.36,3,15.41,3.91,32.26,3.47,49.51s-2.74,34.25-5.11,51.29a52.92,52.92,0,0,0,.79,18.43c-.15-.8-.8-1.55-1-2.54l-.29-1.32a59,59,0,0,1-1.19-6.84,30.81,30.81,0,0,1,.13-7.4,463.72,463.72,0,0,0,4.58-51.67c.43-17.1-.47-33.79-3.44-49.06-2.42-12.43-6.39-16.91-14.75-26.35l-.25-.28Z"/><path class="cls-9" d="M685.12,343.43l.25.28c8.63,9.74,12.72,14.36,15.25,27.36,3,15.41,3.91,32.26,3.47,49.51a462.39,462.39,0,0,1-4.59,51.92,29.13,29.13,0,0,0-.12,6.89,55.16,55.16,0,0,0,1.15,6.59l.29,1.31a23.62,23.62,0,0,1,.9,8c-.18,2.26-.48,4.93-.9,7.74-.36,2.48-.82,5.07-1.37,7.58l-2.08-.45c.54-2.47,1-5,1.35-7.44.4-2.75.7-5.37.88-7.6a22.2,22.2,0,0,0-.85-7.36l-.3-1.32a56.92,56.92,0,0,1-1.18-6.84,30.81,30.81,0,0,1,.13-7.4A461.33,461.33,0,0,0,702,420.53c.43-17.1-.47-33.79-3.44-49.06-2.42-12.43-6.38-16.91-14.75-26.35l-.25-.28Z"/><path class="cls-8" d="M613.65,488.49c.67-18.32,1.15-39.28,1.13-58.76,0-20.64-.61-39.65-2.11-52.1a44.32,44.32,0,0,0-1.64-7.85,78.62,78.62,0,0,0-3.06-7.92c-1.82-4.16-4.15-8.91-6.58-13.52-2.56-4.85-5.24-9.56-7.56-13.26l1.81-1.13c2.34,3.74,5,8.49,7.63,13.4,2.45,4.64,4.81,9.44,6.65,13.66a78.69,78.69,0,0,1,3.14,8.14,45.44,45.44,0,0,1,1.72,8.23c1.52,12.5,2.1,31.6,2.12,52.35,0,17.19-2.6,63-3.25,58.76"/><path class="cls-9" d="M613.59,505.56a121.06,121.06,0,0,0-1.41-17.07c.67-18.32,1.15-39.28,1.13-58.76,0-20.64-.61-39.65-2.12-52.1a43.46,43.46,0,0,0-1.63-7.85,78.62,78.62,0,0,0-3.06-7.92c-1.82-4.16-4.15-8.91-6.58-13.52-2.56-4.85-5.24-9.56-7.56-13.26l1.81-1.13c2.33,3.74,5,8.49,7.63,13.4,2.45,4.64,4.81,9.44,6.65,13.66a78.69,78.69,0,0,1,3.14,8.14,45.44,45.44,0,0,1,1.72,8.23c1.51,12.5,2.1,31.6,2.12,52.35,0,25.91-.82,54.38-1.84,75.83"/><path class="cls-9" d="M492.6,517.22c1.75-1.22,8.13-2,8.62-3.26C485.3,487.25,440.8,482,411.05,479.81c48.16,10.9,45.14,8.06,81.55,37.41"/><path class="cls-9" d="M73.1,534.33c-4.34,1.71-6.48,3.15-11.15,3.34-1.84.08-3.78.1-5.62.18a4.69,4.69,0,0,1-5-2.54c-2.29-3.77-4.66-7.53-6.81-11.29a8.33,8.33,0,0,1-1-6.45L47.26,501q1.64,7.77,3.29,15.55l14.51,2.73,314.12,7.47,13.45-10.09q2.58,3,5.15,6c29-2.28,54.93-4.14,84-6.41,9.7-1.05,20.75-2.51,27.41-24.77,3.51-11.74,6.39-20.53,9.9-32.26,2.05-6.85,5.39-10.44,10.83-15.16-7.24,26.19-11.82,60.65-11.78,99.41l-93.24,2.49c-22.49.61-36.88-5.83-67.13-6.9L73.1,534.33"/><path class="cls-8" d="M486.19,530.15C453.68,533.37,418.55,536.8,386,540c13.51,2,27,4.45,40.73,4,22.79-.78,45.68-1,68.46-1.83,2.17-.08,2.92-1.42,2.67-2.86-1.24-1.05-2.56-2.1-3.8-3.15l-7.91-6"/><path class="cls-8" d="M376,442c11,12.34,18.41,20.47,29.4,32.81,5.3,5.94,8.24,6.15,15.95,7.38a201,201,0,0,1,27.21,6.2C464.5,493,472.69,502,484,515.78c-31.74,2.52-64,5-95.74,7.56l-17.87-26.9L332.73,435.7c8.69.46,8.3,7.47,18.17,6.74,6.47-.47,20.58-.68,25.13-.44"/><path class="cls-1" d="M200.65,329.11c38-23,76.15-44.9,120.24-62.86,25.22-10.29,54-14.17,81-17.24l7.08-.77c59.16-5.13,118-7.49,173.56-3.31-12,18.42-20.29,38.28-30.1,61-3.94,9.12-13.8,10.44-21.76,10.36-110.48-1.16-220.67,1-330.06,12.8"/><path class="cls-1" d="M60.28,413.56l.41-.51c1.49-6.81,3-13,4.47-19.81,2.14-9,.4-15.39,3.69-18.67,2-2,6.62-1.94,12.48-3.22,10.79,6.87,25.07,11.71,38.41,13.41,4.22,1.8,6.59,5.65,10,14.62-1.4-5.12-1.74-9.11-2.56-14l1,0c51.54,1.11,99.77-.6,153.19-3.25,2.69-.13,5.45-.3,8.25-.48h0c-1.79,4.23-5.26,11.42-7,15.65,6.46-10.12,11.79-14.47,17.73-16.48,60.84-5.23,141.13-20.86,199-29.53,5.72-.84,4.13,5.72,2.26,9.48-13.44,27-44.82,52.46-88.22,61.35l5-18.4c1.55-5.74-.55-11-7.35-10.51-112.32,8.39-223.65,13.66-328.26,6.65-6-.4-7.56,1.58-9.22,7.1l-5.91,19.57c-4.73-.93-7.39-5-7.41-13"/><path class="cls-1" d="M48.15,508.83C54,482.23,62.81,456.36,76,431.59c3.79-7.12,8.66-12.94,17.45-13.11,67.71-1.34,137.22-2.63,204.93-4,10.91-.21,19,3.8,23.67,8.24,27.43,26.14,47.57,51.35,64.19,77.55,5.35,8.43,8.6,15.48,6.46,20-4.7,9.95-25.14,10.35-39.76,10.51-99.37,1.06-190.21-3.09-289.52-5.31-14-.31-18.43-2.33-15.26-16.69"/><path class="cls-1" d="M570.53,315.19c6.12-17.49,12.07-35.43,20.72-51.84,7.45-14.14,18.44-15.75,33-10.85,46.34,15.62,86.32,43.55,116.86,89.72,1.42,2.14,2.23,4.12.92,6.65-1.62,2.7-4.4,4.88-12.19,4.21-38.75-5.8-77.49-8-116.24-9.88L577.8,329.45c-6.53-2.5-9.69-7.34-7.27-14.26"/><path class="cls-1" d="M606.72,346.85l5-17.24a15.88,15.88,0,0,1-2.29-5.14c-.88-3.2-.9-4.09.79-7a87.48,87.48,0,0,1,9.55-12.9,8.52,8.52,0,0,1,6.91-3.48c12.07-.89,24.13-.49,35.66.07,11.75.58,22.48,12.41,23.09,17.7.95,8.28-14.35,18.75-22.93,19.35-9.85.69-18.44,1.17-28.29,1.86-3.17.44-4.61,2-4.83,4.42q-.42,6.4-.85,12.82a40.77,40.77,0,0,1-10.08-.21c-5.84-2.82-9.44-6.36-11.77-10.3"/><path class="cls-8" d="M610.69,327.78a16.25,16.25,0,0,1-1.22-3.31c-.88-3.2-.9-4.09.79-7a87.48,87.48,0,0,1,9.55-12.9,8.52,8.52,0,0,1,6.91-3.48c12.07-.89,24.13-.49,35.66.07,11.75.58,22.48,12.41,23.09,17.7.32,2.8-1.22,5.86-3.74,8.7,2.75-3.19,3.66-8.2.72-11-16.12,9.29-42.21,12-71.76,11.17"/><path class="cls-1" d="M485.11,530.07l12.82,9.46c-.08-7.57-1-17.53-5.28-24-8.17-12.24-19.95-17.85-31.81-22.38,10,6.71,18.75,15.89,22.65,22.45,2,3.3,2.67,10.84,1.62,14.44"/><path class="cls-10" d="M728.17,498a611.18,611.18,0,0,0-64.68-2.33c-5.56.07-26.84,1.51-26.77,8.66.11,9.55,24.35,6.72,30.34,6.21,21.93-1.87,40.14-3,62.36-7.28,8.68-1.67,3.05-4.88-1.25-5.26"/><path class="cls-7" d="M608.94,346.56c1.36-4.8,2.62-9.28,4-14.08.55-1.93,1.79-2.44,3.61-2.49,23.8-.67,40.62-.12,62.58-9.15-22.7,11.82-34,10.68-59,12.56-3.13.49-3.53,2.29-4,5-.67,3.54-1.78,7.55-2.45,11.09a15.65,15.65,0,0,0,4.65,5.52c-3.83-1.88-7.46-4-9.32-8.44"/><path class="cls-10" d="M687.36,365.15c2.53,0,5.28,4.77,6.14,10.66s-.5,10.66-3,10.66-5.28-4.77-6.14-10.66.5-10.66,3-10.66"/><path class="cls-10" d="M741.05,368.42c2.1,0,4.38,4,5.1,8.86s-.41,8.86-2.52,8.86-4.38-4-5.1-8.86.41-8.86,2.52-8.86"/><path class="cls-8" d="M687.59,378.14c-1,2.88-6,3.1-8-.44-1.41-2.51-1.18-5.41,2.38-5.41.5,0,5.25.18,6.41.24s8.17.83,8.17.83c4.43,4-.21,9.66-5,4.87-1.31,0-2.61-.07-3.92-.09"/><path class="cls-8" d="M741.24,379.22c-.84,2.39-5,2.58-6.68-.37-1.18-2.08-1-4.49,2-4.49.41,0,4.36.15,5.32.2s6.79.69,6.79.69c3.68,3.35-.17,8-4.16,4.05l-3.25-.08"/><path class="cls-10" d="M687.59,378.29c-1,2.88-6,3.1-8-.45-1-1.7,1.67-2.24,3.61-2.24,4.76,0,10.4.58,15.11,1.08.31,3-3.18,5.28-6.76,1.7-1.31,0-2.61-.07-3.92-.09"/><path class="cls-10" d="M741.24,379.34c-.84,2.39-5,2.58-6.68-.37-.8-1.42,1.38-1.86,3-1.86a125,125,0,0,1,12.55.9c.26,2.52-2.64,4.38-5.62,1.41l-3.25-.08"/><path class="cls-8" d="M614.41,519.15c.07-.72.13-.18.19-.89l114.53-10.49a13,13,0,0,0,6.21-1.61,8.21,8.21,0,0,0,3.45-4.83c4.79-15.56,8.25-30.75,11.84-46.48l1.29-5.66a151,151,0,0,0,4.25-36.55,188.44,188.44,0,0,0-4.29-36.81c-1.36-6.59-1.44-11.86-10.07-21.41,5.8,5.34,9.65,8.88,12.15,21a189.39,189.39,0,0,1,4.33,37.23,153,153,0,0,1-4.3,37.05l-1.29,5.64c-3.59,15.77-7.07,31-11.87,46.64-.88,2.84-2.2,5.18-4.21,6.43a15.66,15.66,0,0,1-7.38,2Z"/><path class="cls-9" d="M613,519.62c.07-.72.14-1.44.19-2.15L727.71,507a12.87,12.87,0,0,0,6.21-1.61,8.23,8.23,0,0,0,3.46-4.82c4.78-15.57,8.24-30.76,11.83-46.49l1.29-5.65a151.17,151.17,0,0,0,4.25-36.56A188.44,188.44,0,0,0,750.46,375c-1.36-6.59-1.43-11.86-10.07-21.4,5.8,5.33,9.65,8.87,12.15,21a190.18,190.18,0,0,1,4.34,37.23,153.5,153.5,0,0,1-4.31,37.05l-1.29,5.64c-3.59,15.77-7.06,31-11.87,46.64a10.26,10.26,0,0,1-4.37,6,15,15,0,0,1-7.22,1.93Z"/></svg>