<svg id="Layer_1" data-name="Layer 1" xmlns="http://www.w3.org/2000/svg" viewBox="0 0 841.9 841.9"><defs><style>.cls-1,.cls-2,.cls-3,.cls-4,.cls-5,.cls-8{fill-rule:evenodd;}.cls-2{fill:#4d4d4d;}.cls-3,.cls-6{fill:#f0f0f0;}.cls-4,.cls-7{fill:#888;}.cls-5{fill:#c3c3c3;}.cls-8{fill:#333;}</style></defs><path class="cls-1" d="M613.74,551.27a92.34,92.34,0,0,1-8.66,17.57l110.09-2.61c4,.06,8.25.1,12.7.13-2.56-5.17-4.7-12.65-6.18-21.64l-42.64.94Zm-368.68,9.64a72.8,72.8,0,0,1-15.69,16.83l222.37-5.27a77.45,77.45,0,0,1-13.46-13.55Zm540.39,13.73c-85.62,14.44-183.42,27.15-270,28.05-124.81,1.3-301.75-1.93-458.36-5.9-42.6-1.08-12.09-4.92,35.16-10.25,10.52-1.19,22.34-2.25,34.51-3.2-13.63-8.24-24.14-20-29.74-33.62L79.7,548.36c-4.72-.37-3.59-.14-6.54-4l-15.23-1-2.68-2.88-3.14-2.41c-.38-2-.77-4-1.15-6l2.22-11.08a150.64,150.64,0,0,1,5.74-17.23c7.18-18.06,20.35-22.13,38.45-22.12l243.07.1c15.8,0,32.24,1.39,46.17,9.52a234.53,234.53,0,0,1,29.45,21c10.54,8.58,20.7,17.65,30.84,26.7,9,8,21.11,12,33.05,12.18s23.93.21,35.9.31a1.41,1.41,0,0,0,.67-.26,3.16,3.16,0,0,0,.55-1.88,405,405,0,0,1,4.17-60.26,266.12,266.12,0,0,1,11.35-48.24c3.81-10.94,9.14-23.11,16.5-32.15,5.14-6.32,12.32-12.21,20.94-11.68,9.18.56,17.47,7.57,22.83,14.52,10.15,13.16,15,31.37,17.37,47.59,12.72,27.42,15.61,54.92,10.67,84.4q65.75-5.6,131.48-11.19a1.17,1.17,0,0,0,.41-.1,2.84,2.84,0,0,0,.25-1.16c.55-14.33,1.38-28.71,2.83-43a277.32,277.32,0,0,1,4.46-30.09c1.32-6.07,3.09-12.92,5.91-18.49,1.75-3.47,4.43-7.37,8.43-8.38a7.29,7.29,0,0,1,1.8-.24c9.4-.14,14,15.7,15.63,22.68q.84,3.54,1.45,7.16c0-1.42-.1-2.85-.16-4.27q-.28-6.92-.74-13.87l.41,1q1,31.11,2,62.22-.9,6.6-1.79,13.19l-1.17,1.76c-.55,19.62-3.82,36.43-8.47,45.67,4.87,0,9.53.08,13.87.14C814.53,566.94,799.63,572.25,785.45,574.64Z"/><path class="cls-2" d="M549.44,447.63c28.11,0,51.31,28.23,51.82,63.05s-21.87,63.05-50,63.05c-11.32,0-21.85-4.58-30.41-12.32l2.92,0a4.14,4.14,0,0,0,2.92-1.51,40.59,40.59,0,0,0,24.49,8.51c25.75,0,46.25-25.86,45.78-57.76s-21.71-57.75-47.46-57.75a38.13,38.13,0,0,0-9.71,1.26c.6-2,1.21-3.94,1.85-5.82a41,41,0,0,1,7.78-.74"/><path class="cls-2" d="M774.7,467c6.58,0,11.91,19.83,11.91,44.3s-5.33,44.3-11.91,44.3c-1.71,0-3.35-1.35-4.82-3.79a3.71,3.71,0,0,0,2.31.9c6.15,0,11.13-18.54,11.13-41.41s-5-41.41-11.13-41.41a3.71,3.71,0,0,0-2.31.9c1.47-2.43,3.11-3.79,4.82-3.79"/><path class="cls-3" d="M74.27,544.47c-6.31-.25-9.64-.24-15.95-.48-7.36-.29-11-1.81-10.72-8.67a277.31,277.31,0,0,1,5.62-44.58l.9-58.06c.07-4.5,2.31-8.61,4.28-12.67,3.57-7.36,10.74-10.5,14.53-17,1.24-2.15,2.31-2.75,4.48-2.62,2.18-14.06,2.86-22.33,8-27.44,7.59-7.63,22.24-8.65,45-15.45,21.87-8.64,44-16.23,67-21,38.88-24.78,81.21-49.87,126.23-69.32,11.9-5.14,25.73-7.83,38.44-9.91,77.41-12.67,152.35-18.16,228.8-18.38,12,0,29.89,2,41.11,6.23,37.76,14.1,75.58,46.94,117.16,96.83a102.87,102.87,0,0,0,7.75,7.75l21.26,10.37c1.55.46,2.68,3.65,2.94,6.54.42,4.54-.52,9.86.62,14.4A97.39,97.39,0,0,1,791.44,408c5.55,30,5.73,65.44,5.39,101.37,0,3.88-2.7,8.74-4.87,11.85,4.72-59.52-6.48-89.66-16.56-87.09-9.13,2.32-16.89,31-19.41,97.19-.12,2.58-1.29,3.88-3.35,4.09L617.32,546.88c6.66-35.18,1.27-62.82-10-86.83-6.32-45-26.1-59.3-37.52-60C544.6,398.5,519.79,463.4,520,549.5c-.12,3.08-1.48,4.73-4,5l-36.13-.31c-12.66-.24-25.46-4.43-35-12.92-21.05-18.8-41-36.4-59.81-47.4-12.53-7.32-27.43-9.11-44.68-9.12l-243.07-.1c-16.58,0-28.93,3.22-35.7,20.26a131.34,131.34,0,0,0-8,28.54c-1.14,8.27,8.61,10.29,20.63,11"/><path class="cls-4" d="M233.46,384.36c5.11.21,10.45.73,14.95,1.15,10.92,1,21.82,2,32.25,1.8,7.17-.15,15.52-.68,23.95-1.41,9.56-.84,19.17-1.94,27.27-3.06l.29,2.1c-8.18,1.14-17.83,2.24-27.38,3.08-8.4.73-16.78,1.25-24.09,1.4-8.51.18-34.45-3.39-47.24-5.06m-108.35,4.23c4.71.78,9.36.53,14,1s9.38.67,14.19.76c12,0,27.47-5.21,40.69-6.07-10.24,1.64-32.2,8.21-40.71,8.19h0c-4.86-.09-9.61-.35-14.33-.77s-9.44-.19-14.17-1Z"/><path class="cls-4" d="M501.52,336.12c4.39-1.64,8.45-3.22,12.5-4.94s8-3.55,12.28-5.7l2.8-1.4c5.88-2.91,10.1-5,14.6-10.45l1.64,1.35c-4.8,5.8-9.19,8-15.3,11l-2.78,1.39c-4.31,2.18-8.35,4-12.41,5.76s-8.14,3.31-12.59,5Z"/><path class="cls-5" d="M74.27,544.47c-6.31-.25-9.64-.24-15.95-.48-7.36-.29-11-1.81-10.72-8.67a277.31,277.31,0,0,1,5.62-44.58l.9-58.06c.07-4.5,2.31-8.61,4.28-12.67,3.57-7.36,10.74-10.5,14.53-17a6,6,0,0,1,1.73-2.07c3.23,5.17,6.08,7.3,14.43,7.4,90.26,3.65,168.89-.61,258.76-2.82,10.14-.25,17.88-.08,26.22-5.87,50.62-4.8,97.18-4.44,147.55-9.44,21-2.08,25.33-.7,17.46,19.13,14.55-22.26,41.84-29.75,58.44.84-.86-17.15,2.64-19.56,25-21.06L772.43,380l6.49-2.51a28.33,28.33,0,0,0,2.19-2.12,24.07,24.07,0,0,0,.59,5.68A97.39,97.39,0,0,1,791.44,408c5.55,30,5.73,65.44,5.39,101.37,0,3.88-2.7,8.74-4.87,11.85,4.72-59.52-6.48-89.66-16.56-87.09-9.13,2.32-16.89,31-19.41,97.19-.12,2.58-1.29,3.88-3.35,4.09L617.32,546.88c6.66-35.18,1.27-62.82-10-86.83-6.32-45-26.1-59.3-37.52-60C544.6,398.5,519.79,463.4,520,549.5c-.12,3.08-1.48,4.73-4,5l-36.13-.31c-12.66-.24-25.46-4.43-35-12.92-21.05-18.8-41-36.4-59.81-47.4-12.53-7.32-27.43-9.11-44.68-9.12l-243.07-.1c-16.58,0-28.93,3.22-35.7,20.26a131.34,131.34,0,0,0-8,28.54c-1.14,8.27,8.61,10.29,20.63,11"/><path class="cls-4" d="M795.73,444.69c1.32,20.59,1.31,42.51,1.1,64.63,0,3.88-2.7,8.74-4.87,11.85,2.8-35.36,0-60.35-4.88-74.27,2.92-.65,5.79-1.32,8.65-2.21"/><path class="cls-4" d="M767,445.35c-5.24,14-9.28,41.52-11,85.92-.12,2.58-1.29,3.88-3.35,4.09L617.32,546.88c6.66-35.18,1.27-62.82-10-86.83-.64-4.58-1.43-8.85-2.33-12.81,2.25,3.14,4.54,5.78,4.54,5.47,0-8.39,6.23-11.65,17.17-13.25,15-2.19,83.29-7.89,117.31-2.85,13.79,2,13.73,7.88,12.52,22.7,2.76-4.83,5.73-9.76,10.38-14"/><path class="cls-3" d="M620.75,534c.09-.73.06-.4.14-1.11q28.1-3,56.25-6.06c19-2.06,38-4.12,57.42-6.19,3.33-.35,6.08-1,8.18-2.38a10.64,10.64,0,0,0,4.4-6.47c4-14.43,7.55-29.75,10.6-45.34s5.64-31.44,7.85-46.9a101,101,0,0,0,.71-15.46A152.1,152.1,0,0,0,765,386.35c-1.94-13.8-5.25-22.87-14.44-30.87,10.79,6.7,14.88,18.78,16.54,30.58a153.86,153.86,0,0,1,1.35,18,104,104,0,0,1-.73,15.8c-2.21,15.51-4.81,31.39-7.86,47s-6.58,31-10.65,45.51c-1,3.65-2.85,6.58-5.34,8.19a19.88,19.88,0,0,1-9,3.08C698,527.54,657.5,533.27,620.75,534"/><path class="cls-4" d="M619.18,534.72q.14-1.08.24-2.16,28.11-3,56.25-6.06c19-2.06,38-4.12,57.42-6.18,3.33-.35,6.08-1,8.19-2.39a10.61,10.61,0,0,0,4.39-6.46c4.05-14.43,7.56-29.76,10.6-45.34s5.65-31.45,7.86-46.91a103.5,103.5,0,0,0,.71-15.46A154.24,154.24,0,0,0,763.5,386c-1.93-13.81-5.24-22.87-14.44-30.88,10.79,6.71,14.89,18.78,16.54,30.59a153.53,153.53,0,0,1,1.35,18,105.18,105.18,0,0,1-.72,15.79c-2.22,15.52-4.82,31.4-7.87,47s-6.58,31-10.64,45.51a12.69,12.69,0,0,1-5.29,7.67c-2.43,1.57-5.48,2.33-9.12,2.72q-28.69,3-57.41,6.18c-18.75,2-37.49,4.07-56.72,6.11"/><path class="cls-3" d="M621.29,501.9c.63-12.25.59-25.13.56-37.84-.05-20.45-.9-41.06-2.33-60.19A108.88,108.88,0,0,0,614,377.11a154.62,154.62,0,0,0-11.23-25l1.86-1A156.1,156.1,0,0,1,616,376.44a110.61,110.61,0,0,1,5.63,27.27c1.43,19.13,2.18,39.68,2.23,60.25,0,2.6-.71,25.71-2.57,37.94"/><path class="cls-4" d="M620.21,519a135.77,135.77,0,0,0-.86-17.35c.63-12.24.91-24.92.88-37.63-.06-20.45-.91-41.06-2.34-60.19a108.41,108.41,0,0,0-5.52-26.76,155.49,155.49,0,0,0-11.23-25l1.86-1a156,156,0,0,1,11.37,25.36A110.17,110.17,0,0,1,620,403.71c1.43,19.13,2.28,39.79,2.33,60.35,0,18.87-.57,37.62-2,55Z"/><path class="cls-3" d="M532.36,407.88c-11.86-3.88-19-7.23-31.32-11.21-12.47-4-25.1-8.08-37.38-12l.64-2c12.29,3.94,24.92,8,37.39,12,12.64,4.07,25.1,9.18,36.15,14,3.81,1.59,1.32,1.47-5.48-.76"/><path class="cls-4" d="M548.07,415.14q-.59.87-1.17,1.8c-.64-.55-1.26-1.11-1.85-1.64-2.52-2.25-4.57-4.09-8.5-5.37-11.86-3.89-24.14-7.87-36.45-11.84-12.47-4-25.1-8.08-37.39-12l.65-2,37.39,12c12.63,4.08,25,8.08,36.46,11.84,4.34,1.42,6.55,3.39,9.25,5.81.5.45,1,.92,1.61,1.42"/><path class="cls-4" d="M538.05,434.75c-10,24.89-17,61.4-17.92,103.78-11.7-.85-21.31-.82-33.65-2.13-4.67-.5-8.7-1.88-10.32-6.44q-2.31-6.51-4.63-13c-.31-17.84,2.1-45.53,1.78-63.37,8.42,23.21,49.33-6.73,48.39,18.43,4.35-16.79,7.23-24.95,16.35-37.25"/><path class="cls-4" d="M74.27,544.47c-6.31-.25-9.64-.24-15.95-.48-7.36-.29-11-1.81-10.72-8.67a277.31,277.31,0,0,1,5.62-44.58c0-1.53.05-3.07.07-4.61q1.91-7.1,3.8-14.19c3.16-13,5.92-24.46,10.27-37.08,1.32,4.05,5,5.88,12.39,7.16,34.8,6,95.29,8.26,116.54,9.08,46.14-1.83,114.57-6.34,146.66-13.47,12.88-2.86,20.8-9.42,26.36-21.93,2.59,12.48,5.2,17.73,12,27.69,25.31,37.1,49.74,64.39,76,94.54,6.86,7.87,16.69,10.36,26.14,10.36H520v1.21c-.12,3.08-1.48,4.73-4,5l-36.13-.31c-12.66-.24-25.46-4.43-35-12.92-21.05-18.8-41-36.4-59.81-47.4-12.53-7.32-27.43-9.11-44.68-9.12l-243.07-.1c-16.58,0-28.93,3.22-35.7,20.26a131.34,131.34,0,0,0-8,28.54c-1.14,8.27,8.61,10.29,20.63,11"/><path class="cls-1" d="M77.41,400.36c2.18-14.06,2.86-22.33,8-27.44,6-6.05,16.5-7.95,32-11.88-9.43,4.74-18.9,10.09-10.35,16.4a126.21,126.21,0,0,0,20.7,12.15c2.42,1.17,2.49,2.87,2.52,5.41,0,1.54,0,3.09,0,4.63,0,2.22-.81,2.57-2.78,2.5-16.61-.54-50-1.77-50-1.77"/><path class="cls-1" d="M53.23,490l.89-57.3c.06-3.95,1.8-7.6,3.55-11.18a18.13,18.13,0,0,1,5.53.35c1.47.4,1.77,2.13,1.55,3.53-3,18.25-6,35.87-9,54A69.59,69.59,0,0,1,53.23,490"/><path class="cls-1" d="M401.76,414.38,449.31,411c14,.11,20.22,5.11,23.3,17.86,6.46,26.78,9.22,56.15,9.14,86.25-.12,7.7-4.73,10.67-7.56,9.27-12.07-33.25-24.41-68.16-36.51-101.61-2-5.61-5.14-7.12-10.83-7.44-9.23-.54-15.85-.44-25.09-1"/><path class="cls-1" d="M246.51,419.8c37.15-1.65,74.33-4.31,111.56-7.7,1.59,0,1.44,1.22.67,2.33-6.21,8.91-16,16.07-26.89,17.52-34.77,4.66-68.74,7.39-101.94,8.5-1.21-.62-.77-1.46-.22-2.19l10.94-14.37a13,13,0,0,1,5.88-4.09M80,419.53q38.63,2.07,77.35,2.16A5.77,5.77,0,0,1,161,425.5a95.6,95.6,0,0,0,5.37,11.84c.7,1.3,1,2.26-.63,3.3-24.77-.68-49.07-2.19-72.93-4.4C85.13,435,77.85,422.59,80,419.53Z"/><path class="cls-1" d="M311.11,394.43C314,392.19,317,390,320,387.71a19.81,19.81,0,0,1,7.39-3.67c58.8-16.55,118.64-32.27,177.23-49,.23,2.29-.38,3.94-.15,6.22.46,4.67.55,7.2-3.19,10.66l-33.1,30.67c-4.84,4.48-11.69,6.32-18.2,6.71l-136.79,8.32c-4.28.25-3.9-1.76-2.05-3.16"/><path class="cls-1" d="M206.2,335.28c107.18-4.31,210.8-9.15,318-13.46,15.73-.63,22.3-5.15,29.73-17q17.91-28.65,35.84-57.29c-77.82-.77-155.63,2.48-233.44,14.41-15.31,2.35-26.93,5.14-41.3,11.13-39.74,16.57-74.57,39-108.8,62.23"/><path class="cls-6" d="M695.7,349.05c3,5.54,5.9,11.13,8.3,16.86a75,75,0,0,1,5.22,17.79c5.8,38.91-3.62,118-3.62,118,.15-2.71.21-6.35.37-9.22,2.08-36.27,4.81-83.88,1.15-108.46A72.88,72.88,0,0,0,702,366.72c-2.36-5.64-5.25-11.17-8.21-16.67Z"/><path class="cls-7" d="M693.86,349.05c3,5.54,5.91,11.13,8.31,16.86a74.5,74.5,0,0,1,5.21,17.79c3.7,24.78,1,72.52-1.12,108.89-.61,10.62-1.17,20.28-1.48,28l-2.12-.08c.32-7.87.87-17.49,1.48-28.07,2.08-36.27,4.81-83.88,1.14-108.46a72.39,72.39,0,0,0-5.07-17.29c-2.37-5.64-5.25-11.17-8.22-16.67Z"/><path class="cls-1" d="M197.75,408.41c12.32,0,22.3,7.48,22.3,16.7s-10,16.71-22.3,16.71-22.31-7.48-22.31-16.71,10-16.7,22.31-16.7"/><polygon class="cls-1" points="231.5 440.33 228.25 440.59 215.68 441.22 227.67 439.02 232.49 437.03 231.5 440.33"/><path class="cls-1" d="M166,437.32l2.41,2s3,.78,3.56.89,8.69,1.1,8.69,1.1l-16.08-.68L160,440Z"/><path d="M156.19,421.68q23.82.39,47.76-.22t47.77-1.9l.1,2.12Q228,423,204,423.58t-47.84.22Z"/><path class="cls-8" d="M98.13,488.11c-11.17.52-23.74.17-30.09,11.21-5.2,9.05-7.27,18-10.89,31.16-2.15,7.82,2.2,10.45,10.68,12.06-2.57-.85-6.57-2.26-7.83-4-1-1.35-.37-3.21,4.72-3,113.64,5.54,220.87,7.59,334.7,6.84,21.76-.14,31.95.68,52,8.91-15.4-10.05-27.16-21-40.25-31.92-24.67-20.54-39.62-30.77-79-31.44,17,1.49,23.63,2.32,40.05,9.4,14.3,6.17,24.83,15.91,24,22.65-.6,4.83-6.13,7.56-24.56,8.9-104.2,3.21-201.63,1.42-298.79-5.68-6.63-.49-6.92-7.42-5.21-12.33,4.59-13.2,6.82-21.26,30.51-22.81"/><path class="cls-1" d="M580.73,317c4.88-20.76,12.3-40,23.78-56.74,9.17-13.42,22.69-12,36.19-6.88,26.57,10.12,50.83,28.83,73.93,51.86a181.82,181.82,0,0,1,27.13,42.63c-44.55,4.26-92,4.58-138.22,4.6-19.12,0-26.84-18.29-22.81-35.47"/><path class="cls-1" d="M601.9,330.34l16.76-.42-3.57-3.35c-1.69-2.19-.9-4.27.62-6.24l10.7-13.87c3.21-3.75,4.55-5.43,12.3-5.4,8,0,15.84,0,24,.09a32.19,32.19,0,0,1,11.32,1.6c6.55,2.33,15.77,11.49,16,15.44.56,5.59-1.39,14.95-6.49,16.13-9.67,2.67-34.51,5.52-51.72,7.2-8.62.84-12.7,4.68-14.68,8.09q-7.65-9.63-15.29-19.27"/><path class="cls-3" d="M614.5,325.62c-.86-1.84-.09-3.6,1.21-5.29l10.7-13.87c3.21-3.75,4.55-5.43,12.3-5.4,8,0,15.84,0,24,.09a32.19,32.19,0,0,1,11.32,1.6c6.55,2.33,15.77,11.49,16,15.44a24.89,24.89,0,0,1-1.31,10.25c1.89-9.13-3.09-9.21-11.62-8.79-20.15,1-42.09,3.56-62.65,6"/><path class="cls-4" d="M605.39,331.4c-.71,3.86,4.4,11.4,11.05,14.35-3.82-2.65-4.44-4.77-4.57-6.26-.15-1.72,2.32-2.52,2.7-2.58,24.38-3.41,45.78-5.27,71.08-7.57,1.3-.22,1.72-2,1.91-2.88l-82.17,4.94"/><path class="cls-5" d="M691,369.65c2.81-.26,6.84,4.42,9,10.45s1.61,11.15-1.2,11.41-6.84-4.42-9-10.45-1.61-11.15,1.2-11.41"/><path class="cls-3" d="M694,383.14c-.27,3.07-4.81,3.73-7.45.22-1.86-2.48-2.3-5.51.94-5.82.46,0,4.83-.26,5.91-.3s7.64.17,7.64.17c5,3.81,2,10-3.45,5.48-1.2.09-2.4.15-3.59.25"/><path class="cls-5" d="M694,383.29c-.27,3.07-4.81,3.73-7.45.22-1.26-1.69,1-2.47,2.79-2.63a123.9,123.9,0,0,1,14-.17c1,3.13-1.71,5.74-5.79,2.34-1.19.09-2.4.15-3.59.24"/><path class="cls-5" d="M750.51,369.14c2.23-.17,5.34,3.59,7,8.39s1.11,8.82-1.11,9-5.34-3.59-7-8.39-1.11-8.82,1.11-9"/><path class="cls-3" d="M752.69,379.83c-.25,2.43-3.85,2.88-5.88.07-1.43-2-1.74-4.38.83-4.58l4.67-.15c.85,0,6,.24,6,.24,3.86,3.09,1.44,8-2.81,4.29l-2.84.13"/><path class="cls-5" d="M752.72,380c-.26,2.42-3.86,2.88-5.89.06-1-1.35.84-1.93,2.24-2a102.64,102.64,0,0,1,11.09.07c.72,2.49-1.43,4.52-4.6,1.77-.95.05-1.9.08-2.84.14"/></svg>