<?xml version="1.0" encoding="utf-8"?>
<!-- Generator: Adobe Illustrator 25.2.1, SVG Export Plug-In . SVG Version: 6.00 Build 0)  -->
<svg version="1.1" id="Слой_1" xmlns="http://www.w3.org/2000/svg" xmlns:xlink="http://www.w3.org/1999/xlink" x="0px" y="0px"
	 viewBox="0 0 1587 224" style="enable-background:new 0 0 1587 224;" xml:space="preserve">
<style type="text/css">
	.st0{fill:#D71921;}
</style>
<g>
	<polygon class="st0" points="1261.1,202.2 1262.2,196.5 1249.5,196.5 1250.9,189.1 1265.1,189.1 1266.2,183.5 1246,183.5 
		1239.8,215.3 1260,215.3 1261.1,209.6 1246.9,209.6 1248.4,202.2 	"/>
	<polygon class="st0" points="1284.2,196.5 1278,196.5 1273.8,201.7 1273.5,201.7 1271.1,196.5 1265.2,196.5 1269.9,205.7 
		1261.5,215.3 1267.4,215.3 1271.9,209.9 1272.1,209.9 1274.6,215.3 1280.5,215.3 1275.8,205.7 	"/>
	<path class="st0" d="M1303.1,198.7c-0.7-0.9-1.5-1.6-2.5-2.1s-2.1-0.7-3.3-0.7c-1.4,0-2.7,0.3-3.8,0.8c-1.1,0.6-1.9,1.2-2.5,2h-0.3
		l0.4-2.3h-4.7l-5.3,27h5l1.5-7.9l0.5-2.7c0.3,0.8,0.9,1.5,1.8,2c0.9,0.6,2,0.8,3.4,0.8c1.2,0,2.4-0.2,3.6-0.7s2.3-1.2,3.3-2.1
		c1-0.9,1.9-2,2.6-3.2c0.7-1.2,1.2-2.6,1.5-4c0.3-1.5,0.3-2.8,0.1-4C1304.2,200.6,1303.8,199.6,1303.1,198.7z M1299.4,205.9
		c-0.1,0.8-0.4,1.5-0.9,2.2c-0.4,0.6-0.9,1.2-1.4,1.7s-1.1,0.8-1.8,1.1c-0.7,0.3-1.3,0.4-2,0.4c-0.6,0-1.2-0.1-1.8-0.4
		c-0.6-0.2-1-0.6-1.4-1.1s-0.6-1-0.8-1.7c-0.2-0.7-0.1-1.4,0-2.3c0.1-0.8,0.4-1.6,0.9-2.3c0.4-0.6,0.9-1.2,1.4-1.7
		c0.5-0.4,1.1-0.8,1.8-1.1c0.6-0.2,1.3-0.4,2-0.4c0.6,0,1.3,0.1,1.8,0.4c0.5,0.2,1,0.6,1.4,1.1s0.6,1,0.8,1.7
		C1299.6,204.3,1299.6,205.1,1299.4,205.9z"/>
	<path class="st0" d="M1319.8,195.9c-0.5,0-1.1,0.1-1.7,0.3c-0.6,0.2-1.1,0.4-1.7,0.7c-0.5,0.3-1,0.6-1.5,1
		c-0.4,0.4-0.8,0.8-1.2,1.3h-0.3l0.5-2.6h-4.7l-3.6,18.8h5l1.8-9.2c0.2-0.8,0.4-1.5,0.7-2.1c0.3-0.6,0.7-1.2,1.3-1.7
		c0.5-0.5,1-0.9,1.7-1.1c0.6-0.3,1.3-0.4,2-0.4c0.5,0,1,0,1.3,0.1c0.4,0.1,0.7,0.2,0.9,0.4l1-5.1
		C1320.8,196,1320.3,195.9,1319.8,195.9z"/>
	<path class="st0" d="M1339,198.7c-0.6-0.9-1.5-1.6-2.5-2.1c-1.1-0.5-2.4-0.7-3.9-0.7c-1.4,0-2.8,0.3-4.1,0.8
		c-1.3,0.5-2.5,1.3-3.5,2.2c-1,0.9-1.9,2-2.7,3.2c-0.7,1.2-1.2,2.5-1.5,3.8c-0.3,1.5-0.3,2.8,0,4c0.3,1.2,0.8,2.3,1.5,3.2
		c0.7,0.9,1.6,1.6,2.8,2.1c1.1,0.5,2.4,0.7,3.8,0.7c2.1,0,4-0.5,5.7-1.4c1.6-0.9,3.1-2.2,4.2-3.7l-3.8-2.1c-0.6,0.8-1.3,1.5-2.2,2
		c-0.9,0.5-1.9,0.8-3,0.8c-0.6,0-1.1-0.1-1.7-0.2c-0.5-0.2-1-0.4-1.4-0.8s-0.7-0.8-0.9-1.4c-0.2-0.5-0.3-1.2-0.2-2h14.1
		c0-0.1,0.1-0.3,0.1-0.4c0-0.1,0.1-0.3,0.1-0.4l0.1-0.5c0.3-1.4,0.3-2.7,0.1-3.9S1339.6,199.6,1339,198.7z M1326.5,203.5
		c0.5-1.1,1.3-2,2.2-2.6c0.9-0.6,1.9-0.9,3-0.9c0.8,0,1.4,0.1,1.9,0.3s0.9,0.5,1.2,0.9c0.3,0.3,0.5,0.7,0.6,1.2
		c0.1,0.4,0.1,0.7,0.1,1.1H1326.5z"/>
	<path class="st0" d="M1349.7,200.4c0.6-0.3,1.2-0.4,2-0.4c0.7,0,1.4,0.2,2,0.5s1,0.9,1.3,1.6l4.7-1.8c-0.4-1.5-1.2-2.6-2.4-3.4
		c-1.3-0.7-2.8-1.1-4.6-1.1c-1,0-2.1,0.1-3.1,0.4c-0.9,0.2-1.8,0.6-2.7,1.1c-0.8,0.5-1.4,1.1-2,1.8c-0.5,0.7-0.9,1.6-1.1,2.5
		c-0.2,0.8-0.1,1.5,0.1,2.1c0.2,0.6,0.5,1.1,1,1.6c0.4,0.4,0.9,0.8,1.5,1.1c0.5,0.3,1.1,0.5,1.7,0.6l2.5,0.6c1,0.3,1.8,0.5,2.2,0.9
		c0.4,0.3,0.5,0.7,0.4,1.2s-0.4,0.9-1,1.2s-1.4,0.5-2.3,0.5s-1.7-0.2-2.3-0.7c-0.6-0.5-1.1-1.2-1.3-2.2l-4.9,1.9
		c0.1,0.7,0.4,1.4,0.7,2c0.4,0.7,0.9,1.2,1.4,1.7c0.6,0.5,1.4,0.9,2.3,1.2c0.9,0.3,2,0.5,3.2,0.5s2.3-0.2,3.4-0.5
		c1-0.3,1.9-0.8,2.8-1.4c0.8-0.5,1.5-1.2,2-2c0.5-0.7,0.9-1.5,1-2.3c0.3-1.4,0-2.6-0.7-3.6s-2-1.7-3.8-2.2l-2.7-0.7
		c-0.7-0.2-1.3-0.4-1.7-0.7c-0.4-0.3-0.6-0.6-0.5-1C1348.7,201.1,1349.1,200.7,1349.7,200.4z"/>
	<path class="st0" d="M1368.2,200.4c0.6-0.3,1.2-0.4,2-0.4c0.7,0,1.4,0.2,2,0.5s1,0.9,1.3,1.6l4.7-1.8c-0.4-1.5-1.2-2.6-2.5-3.4
		c-1.3-0.7-2.8-1.1-4.6-1.1c-1,0-2.1,0.1-3.1,0.4c-0.9,0.2-1.8,0.6-2.7,1.1c-0.8,0.5-1.4,1.1-2,1.8c-0.5,0.7-0.9,1.6-1.1,2.5
		c-0.2,0.8-0.1,1.5,0.1,2.1c0.2,0.6,0.5,1.1,1,1.6c0.4,0.4,0.9,0.8,1.5,1.1c0.5,0.3,1.1,0.5,1.7,0.6l2.5,0.6c1,0.3,1.8,0.5,2.2,0.9
		c0.4,0.3,0.5,0.7,0.4,1.2s-0.4,0.9-1,1.2s-1.4,0.5-2.3,0.5s-1.7-0.2-2.3-0.7c-0.6-0.5-1.1-1.2-1.3-2.2l-4.9,1.9
		c0.1,0.7,0.4,1.4,0.7,2c0.4,0.7,0.9,1.2,1.4,1.7c0.6,0.5,1.4,0.9,2.3,1.2c0.9,0.3,2,0.5,3.2,0.5c1.1,0,2.3-0.2,3.4-0.5
		c1-0.3,1.9-0.8,2.8-1.4c0.8-0.5,1.5-1.2,2-2c0.5-0.7,0.9-1.5,1-2.3c0.3-1.4,0-2.6-0.7-3.6s-2-1.7-3.8-2.2l-2.7-0.7
		c-0.7-0.2-1.3-0.4-1.7-0.7c-0.4-0.3-0.6-0.6-0.5-1C1367.2,201.1,1367.6,200.7,1368.2,200.4z"/>
	<path class="st0" d="M1238.6,191.3c1.4,0,2.5-1.1,2.5-2.5c0-1.4-1.1-2.5-2.5-2.5h-15c-1.4,0-2.5,1.1-2.5,2.5c0,1.4,1.1,2.5,2.5,2.5
		H1238.6z"/>
	<path class="st0" d="M1236.5,196.8h-11c-1.4,0-2.5,1.1-2.5,2.5c0,1.4,1.1,2.5,2.5,2.5h11c1.4,0,2.5-1.1,2.5-2.5
		C1239,198,1237.9,196.8,1236.5,196.8z"/>
	<path class="st0" d="M1234.5,207.3h-6.9c-1.4,0-2.5,1.1-2.5,2.5c0,1.4,1.1,2.5,2.5,2.5h6.9c1.4,0,2.5-1.1,2.5-2.5
		C1237,208.4,1235.9,207.3,1234.5,207.3z"/>
	<polygon class="st0" points="1086.7,80.9 1091.4,56.5 1036.9,56.5 1043,25 1103.7,25 1108.4,0.7 1022.1,0.7 995.7,136.7 
		1081.9,136.7 1086.7,112.4 1026.1,112.4 1032.2,80.9 	"/>
	<polygon class="st0" points="1185.3,56.5 1159.1,56.5 1141,78.7 1139.9,78.7 1129.6,56.5 1104.2,56.5 1124.1,95.9 1088.3,136.7 
		1113.7,136.7 1132.7,113.8 1133.9,113.8 1144.5,136.7 1169.7,136.7 1149.5,95.9 	"/>
	<path class="st0" d="M1240.5,136.1c5.1-2.1,9.7-5.1,14-8.8c4.3-3.8,8-8.3,11.1-13.5s5.2-11,6.5-17.2c1.2-6.2,1.3-12,0.2-17.2
		c-1.1-5.2-3-9.7-5.8-13.5c-2.8-3.7-6.4-6.8-10.6-8.8c-4.2-2.1-8.9-3.2-14-3.2c-6.1,0-11.5,1.2-16.1,3.6c-4.6,2.4-8.2,5.3-10.9,8.7
		h-1.3l1.9-9.7h-20.1l-22.5,115.6h21.5l6.5-33.6l2.2-11.5c1.3,3.4,3.8,6.3,7.5,8.7c3.7,2.4,8.6,3.6,14.7,3.6
		C1230.4,139.3,1235.5,138.3,1240.5,136.1z M1216.9,118c-2.3-1-4.3-2.5-5.9-4.5s-2.7-4.4-3.4-7.2c-0.6-2.8-0.6-6.1,0.1-9.7
		c0.7-3.6,1.9-6.8,3.7-9.7c1.8-2.8,3.8-5.2,6.2-7.2c2.3-2,4.9-3.5,7.7-4.5c2.8-1,5.6-1.6,8.4-1.6s5.4,0.5,7.8,1.6s4.3,2.6,5.9,4.6
		s2.7,4.4,3.3,7.2c0.6,2.8,0.6,6,0,9.5c-0.7,3.5-1.9,6.7-3.7,9.5c-1.8,2.8-3.8,5.2-6.1,7.2c-2.3,1.9-4.9,3.5-7.7,4.6
		c-2.8,1.1-5.6,1.6-8.4,1.6C1221.8,119.5,1219.2,119,1216.9,118z"/>
	<path class="st0" d="M1306.3,97.2c0.6-3.3,1.7-6.3,3.2-9.1s3.3-5.2,5.3-7.3c2.1-2.1,4.5-3.7,7.1-4.9c2.6-1.2,5.4-1.7,8.4-1.7
		c2.3,0,4.2,0.2,5.7,0.6s2.8,0.9,4,1.6l4.2-21.6c-1.8-0.5-3.9-0.8-6.6-0.8c-2.3,0-4.7,0.4-7.2,1.1c-2.5,0.7-4.9,1.7-7.1,2.9
		s-4.4,2.6-6.3,4.3c-2,1.6-3.6,3.4-5,5.4h-1.3l2.2-11.1h-20.1l-15.6,80.3h21.5L1306.3,97.2z"/>
	<path class="st0" d="M1419.7,65.9c-2.7-3.8-6.3-6.7-10.9-8.8c-4.6-2.1-10.1-3.2-16.6-3.2c-6.1,0-11.9,1.1-17.5,3.4
		c-5.5,2.3-10.5,5.4-15,9.2c-4.5,3.9-8.2,8.4-11.3,13.6c-3.1,5.2-5.2,10.7-6.3,16.5c-1.2,6.2-1.3,11.9-0.1,17.1
		c1.1,5.2,3.2,9.7,6.3,13.5c3.1,3.8,7,6.8,11.8,8.9c4.8,2.1,10.2,3.2,16.3,3.2c9.1,0,17.1-2,24.2-6.1c7.1-4,13.1-9.3,18.1-15.9
		l-16.1-8.8c-2.5,3.4-5.6,6.2-9.3,8.4c-3.7,2.2-7.9,3.4-12.9,3.4c-2.5,0-4.9-0.4-7.2-1.1c-2.2-0.7-4.3-1.9-6-3.4
		c-1.7-1.6-3-3.6-3.9-5.9s-1.3-5.2-1.1-8.4h60.4c0.1-0.6,0.3-1.2,0.5-1.8c0.1-0.5,0.3-1.1,0.5-1.8l0.4-2c1.2-6,1.4-11.6,0.6-16.7
		C1424,74.1,1422.3,69.6,1419.7,65.9z M1405.2,86.3h-38.8c2.3-4.7,5.5-8.4,9.5-11c4-2.6,8.3-3.9,12.9-3.9c3.3,0,6,0.5,8.2,1.5
		s3.9,2.2,5.2,3.8c1.3,1.5,2.2,3.2,2.7,4.9C1405.2,83.3,1405.4,84.8,1405.2,86.3z"/>
	<path class="st0" d="M1465.5,73.1c2.5-1.3,5.3-1.9,8.4-1.9c2.9,0,5.8,0.7,8.4,2.1c2.7,1.4,4.5,3.7,5.4,6.9l20-7.5
		c-1.6-6.6-5.1-11.3-10.5-14.3s-12-4.5-19.6-4.5c-4.6,0-9,0.6-13.2,1.7c-4.2,1.1-8,2.8-11.4,4.9s-6.2,4.7-8.5,7.8
		c-2.3,3.1-3.8,6.6-4.6,10.5c-0.7,3.5-0.6,6.6,0.3,9.2s2.3,4.9,4.1,6.7c1.8,1.9,4,3.4,6.4,4.6s4.9,2.1,7.3,2.6l10.8,2.5
		c4.5,1.1,7.5,2.3,9.2,3.7c1.6,1.4,2.3,3.1,1.8,5.3c-0.4,2-1.9,3.7-4.4,5.1c-2.6,1.4-5.8,2.1-9.8,2.1c-3.8,0-7.1-1-9.8-3
		c-2.7-2-4.6-5.1-5.7-9.3l-20.8,8.2c0.5,2.8,1.6,5.6,3.1,8.4c1.5,2.8,3.6,5.2,6.2,7.4c2.6,2.1,5.8,3.9,9.6,5.2c3.8,1.3,8.4,2,13.6,2
		c5.1,0,9.9-0.7,14.4-2.1c4.5-1.4,8.5-3.4,11.9-5.8c3.5-2.5,6.3-5.3,8.6-8.4c2.3-3.2,3.7-6.5,4.4-10c1.1-5.9,0.1-11-3-15.3
		s-8.6-7.5-16.4-9.4l-11.7-3c-3.1-0.9-5.5-1.9-7.2-2.9c-1.7-1.1-2.4-2.6-2-4.4C1461.4,75.9,1462.9,74.3,1465.5,73.1z"/>
	<path class="st0" d="M1561.1,88.2l-11.7-3c-3.1-0.9-5.5-1.9-7.2-2.9c-1.7-1.1-2.4-2.6-2-4.4c0.4-2,1.8-3.6,4.4-4.8
		c2.5-1.3,5.3-1.9,8.4-1.9c2.9,0,5.8,0.7,8.4,2.1c2.7,1.4,4.5,3.7,5.4,6.9l20-7.5c-1.6-6.6-5.1-11.3-10.5-14.3s-12-4.5-19.6-4.5
		c-4.6,0-9,0.6-13.2,1.7c-4.2,1.1-8,2.8-11.4,4.9c-3.4,2.1-6.2,4.7-8.5,7.8s-3.8,6.6-4.6,10.5c-0.7,3.5-0.6,6.6,0.3,9.2
		c0.9,2.6,2.3,4.9,4.1,6.7c1.8,1.9,4,3.4,6.4,4.6s4.9,2.1,7.3,2.6l10.8,2.5c4.5,1.1,7.5,2.3,9.2,3.7c1.6,1.4,2.3,3.1,1.8,5.3
		c-0.4,2-1.9,3.7-4.4,5.1c-2.6,1.4-5.8,2.1-9.8,2.1c-3.8,0-7.1-1-9.8-3c-2.7-2-4.6-5.1-5.7-9.3l-20.8,8.2c0.5,2.8,1.6,5.6,3.1,8.4
		s3.6,5.2,6.2,7.4c2.6,2.1,5.8,3.9,9.6,5.2c3.8,1.3,8.4,2,13.6,2c5.1,0,9.9-0.7,14.4-2.1s8.5-3.4,11.9-5.8c3.5-2.5,6.3-5.3,8.6-8.4
		c2.3-3.2,3.7-6.5,4.4-10c1.1-5.9,0.1-11-3-15.3C1574.4,93.3,1568.9,90.2,1561.1,88.2z"/>
	<path class="st0" d="M990.4,34.4c5.9,0,10.7-4.8,10.7-10.7c0-5.9-4.8-10.7-10.7-10.7h-64c-5.9,0-10.7,4.8-10.7,10.7
		c0,5.9,4.8,10.7,10.7,10.7H990.4z"/>
	<path class="st0" d="M981.6,57.9h-47.2c-5.9,0-10.7,4.8-10.7,10.7c0,5.9,4.8,10.7,10.7,10.7h47.2c5.9,0,10.7-4.8,10.7-10.7
		C992.3,62.7,987.5,57.9,981.6,57.9z"/>
	<path class="st0" d="M972.9,102.8h-29.6c-5.9,0-10.7,4.8-10.7,10.7c0,5.9,4.8,10.7,10.7,10.7h29.6c5.9,0,10.7-4.8,10.7-10.7
		C983.6,107.6,978.8,102.8,972.9,102.8z"/>
</g>
<g>
	<path d="M1404.6,209.3c-1.3,0.7-2.9,1.1-4.6,1.1c-1.4,0-2.8-0.2-4-0.8c-1.2-0.5-2.3-1.2-3.3-2.1c-0.9-0.9-1.7-2-2.2-3.3
		c-0.5-1.3-0.8-2.8-0.8-4.4s0.3-3.1,0.8-4.4c0.5-1.3,1.3-2.4,2.2-3.3c0.9-0.9,2.1-1.6,3.3-2.1c1.3-0.5,2.6-0.8,4-0.8
		c1.6,0,3,0.3,4.2,0.9c1.2,0.6,2.3,1.5,3.2,2.5l4.1-3.9c-1.5-1.6-3.1-2.9-5-3.7c-1.9-0.9-4-1.3-6.5-1.3c-2.3,0-4.4,0.4-6.4,1.2
		c-2,0.8-3.7,2-5.1,3.4c-1.4,1.4-2.6,3.1-3.4,5.1s-1.2,4.1-1.2,6.3c0,2.3,0.4,4.4,1.2,6.3c0.8,2,2,3.7,3.4,5.1
		c1.4,1.4,3.1,2.6,5.1,3.4s4.1,1.2,6.4,1.2c2.5,0,4.8-0.5,6.9-1.4c2.1-1,3.8-2.4,5.4-4.2l-4.1-3.9
		C1407.1,207.6,1405.9,208.6,1404.6,209.3z"/>
	<path d="M1423.8,193.5c-3.9,0-6.9,1.4-9.1,4.2l4.1,2.8c1.3-1.6,3-2.4,4.9-2.4c1.3,0,2.4,0.4,3.3,1.1s1.3,1.7,1.3,2.8v0.6
		c-0.6-0.2-1.3-0.4-2.2-0.7c-0.9-0.2-2-0.3-3.4-0.3c-1.2,0-2.4,0.2-3.4,0.5c-1,0.3-2,0.8-2.7,1.4c-0.8,0.6-1.4,1.4-1.8,2.3
		c-0.4,0.9-0.6,1.9-0.6,2.9c0,1.1,0.2,2,0.6,2.9c0.4,0.9,1,1.6,1.7,2.3c0.7,0.6,1.6,1.1,2.5,1.5c1,0.4,2,0.5,3.1,0.5
		c1.5,0,2.7-0.3,3.6-0.9c0.9-0.5,1.7-1.2,2.4-2.1h0.3v2.2h5.5v-12.6c0-3-0.9-5.3-2.6-6.8C1429.5,194.3,1427.1,193.5,1423.8,193.5z
		 M1427.9,208.5c-0.2,0.6-0.6,1.1-1,1.5c-0.5,0.5-1,0.8-1.6,1.1c-0.6,0.3-1.3,0.4-2.1,0.4c-0.9,0-1.7-0.3-2.4-0.8
		c-0.7-0.5-1.1-1.2-1.1-2.1c0-0.9,0.4-1.6,1.1-2.2c0.7-0.6,1.8-0.9,3.1-0.9c0.8,0,1.5,0.1,2.3,0.3c0.7,0.2,1.4,0.4,2,0.8
		C1428.3,207.3,1428.2,207.9,1427.9,208.5z"/>
	<path d="M1449,202.5l-3.2-0.8c-0.9-0.2-1.5-0.5-2-0.8c-0.5-0.3-0.8-0.7-0.8-1.2s0.3-0.9,0.9-1.3c0.6-0.3,1.3-0.5,2.1-0.5
		c0.8,0,1.5,0.2,2.3,0.6c0.8,0.4,1.4,1,1.8,1.8l4.8-2c-0.7-1.7-1.9-3-3.5-3.8s-3.4-1.2-5.4-1.2c-1.2,0-2.3,0.2-3.4,0.5
		c-1,0.3-2,0.7-2.7,1.3c-0.8,0.5-1.4,1.2-1.8,2c-0.4,0.8-0.7,1.7-0.7,2.7c0,0.9,0.2,1.7,0.6,2.4c0.4,0.7,0.8,1.3,1.4,1.8
		s1.2,0.9,1.9,1.2c0.7,0.3,1.3,0.5,2,0.7l3,0.6c1.2,0.3,2.1,0.6,2.6,1c0.5,0.4,0.8,0.8,0.8,1.4c0,0.5-0.3,1-0.9,1.3
		c-0.6,0.4-1.4,0.6-2.4,0.6s-1.9-0.3-2.7-0.8c-0.8-0.5-1.5-1.3-2-2.4l-5,2.1c0.3,0.8,0.7,1.5,1.2,2.2c0.6,0.7,1.2,1.4,2,1.9
		c0.8,0.6,1.7,1,2.8,1.4c1.1,0.3,2.3,0.5,3.7,0.5c1.3,0,2.6-0.2,3.7-0.6c1.1-0.4,2-0.9,2.8-1.5c0.8-0.6,1.4-1.4,1.8-2.2
		c0.4-0.8,0.6-1.7,0.6-2.6c0-1.5-0.5-2.9-1.6-4C1452.8,203.8,1451.2,203,1449,202.5z"/>
	<path d="M1470.8,193.5c-1.4,0-2.7,0.3-3.8,1c-1.1,0.6-2,1.5-2.6,2.5h-0.3l0.3-3.8v-8.6h-5.6v30.7h5.6V205c0-0.8,0.1-1.6,0.3-2.4
		c0.2-0.7,0.5-1.4,0.9-2c0.4-0.6,0.9-1,1.5-1.4c0.6-0.3,1.3-0.5,2.1-0.5c1.2,0,2.2,0.4,2.9,1.1c0.7,0.8,1,1.9,1,3.3v12.1h5.6v-12.7
		c0-2.8-0.7-5-2-6.6C1475.5,194.3,1473.5,193.5,1470.8,193.5z"/>
	<path d="M1510.1,188.4c-1.4-1.4-3.1-2.6-5.1-3.4s-4.1-1.2-6.4-1.2s-4.4,0.4-6.4,1.2s-3.7,2-5.1,3.4c-1.4,1.4-2.6,3.1-3.4,5.1
		s-1.2,4.1-1.2,6.3s0.4,4.3,1.2,6.3s1.9,3.7,3.4,5.1c1.4,1.4,3.1,2.6,5.1,3.4c2,0.8,4.1,1.2,6.4,1.2s4.4-0.4,6.4-1.2
		c2-0.8,3.7-2,5.1-3.4c1.4-1.4,2.6-3.1,3.4-5.1s1.2-4.1,1.2-6.3s-0.4-4.3-1.2-6.3C1512.7,191.6,1511.5,189.9,1510.1,188.4z
		 M1508.1,204.1c-0.5,1.3-1.3,2.4-2.2,3.3c-0.9,0.9-2,1.6-3.3,2.1c-1.2,0.5-2.6,0.8-4,0.8s-2.8-0.3-4-0.8s-2.3-1.2-3.3-2.1
		c-0.9-0.9-1.7-2-2.2-3.3c-0.5-1.3-0.8-2.7-0.8-4.3c0-1.6,0.3-3,0.8-4.3s1.3-2.4,2.2-3.3c0.9-0.9,2-1.6,3.3-2.1
		c1.2-0.5,2.6-0.8,4-0.8s2.8,0.3,4,0.8s2.3,1.2,3.3,2.1c0.9,0.9,1.7,2,2.2,3.3s0.8,2.7,0.8,4.3S1508.6,202.8,1508.1,204.1z"/>
	<path d="M1541,190.3c0.5-0.5,1.1-0.8,2-0.8c0.5,0,0.9,0,1.2,0.1c0.3,0.1,0.6,0.2,0.9,0.3l1.6-5c-0.5-0.2-1.2-0.4-1.8-0.6
		c-0.7-0.1-1.4-0.2-2.2-0.2c-1.2,0-2.2,0.2-3.2,0.5c-0.9,0.3-1.8,0.9-2.5,1.5c-0.7,0.7-1.3,1.5-1.7,2.5c-0.4,1-0.6,2.1-0.6,3.4v2.1
		h-7.9v-1.7c0-0.9,0.2-1.7,0.7-2.2s1.1-0.8,2-0.8c0.3,0,0.7,0,1,0.1c0.2,0.1,0.5,0.1,0.7,0.2l0.3-5.3c-0.3-0.1-0.6-0.2-1-0.3
		c-0.4-0.1-0.8-0.1-1.4-0.1c-1.2,0-2.2,0.2-3.2,0.5c-0.9,0.3-1.8,0.9-2.5,1.5c-0.7,0.7-1.3,1.5-1.7,2.5c-0.4,1-0.6,2.1-0.6,3.4v2.1
		h-3.8v4.8h3.8V215h5.6v-16h7.9v16.2h5.6V199h5.2v-4.8h-5.2v-1.7C1540.3,191.6,1540.5,190.8,1541,190.3z"/>
	<path d="M1565.6,196.6c-0.9-1-2-1.8-3.3-2.3c-1.3-0.6-2.8-0.8-4.5-0.8c-1.6,0-3.1,0.3-4.4,0.9c-1.3,0.6-2.5,1.4-3.5,2.4
		s-1.8,2.2-2.3,3.6c-0.5,1.4-0.8,2.8-0.8,4.3c0,1.6,0.3,3.1,0.8,4.5c0.5,1.3,1.3,2.5,2.3,3.5s2.2,1.8,3.5,2.3
		c1.4,0.6,2.8,0.8,4.4,0.8c2.4,0,4.4-0.5,6-1.6c1.6-1,3-2.5,3.9-4.2l-4.7-2.3c-0.5,0.9-1.2,1.6-2,2.2c-0.8,0.6-1.9,0.9-3.2,0.9
		c-0.7,0-1.3-0.1-1.9-0.3c-0.6-0.2-1.2-0.5-1.7-0.9c-0.5-0.4-1-0.9-1.3-1.5c-0.4-0.6-0.6-1.3-0.7-2.2h15.8c0-0.2,0-0.3,0-0.5
		c0-0.1,0-0.3,0-0.5v-0.5c0.2-1.5,0-2.9-0.4-4.3C1567.1,198.8,1566.5,197.6,1565.6,196.6z M1552.6,202c0.4-1.2,1-2.2,1.9-2.9
		c0.9-0.7,2-1,3.2-1c0.9,0,1.6,0.1,2.2,0.4s1.1,0.6,1.5,1c0.4,0.4,0.7,0.8,0.9,1.3c0.2,0.5,0.3,0.9,0.4,1.2H1552.6z"/>
	<polygon points="96.4,2.6 0.3,2.6 0.3,25.6 36.2,25.6 36.2,131.3 60.5,131.3 60.5,25.6 96.4,25.6 	"/>
	<path d="M151.3,41.3c-2.2-0.7-4.9-1-8-1c-2.5,0-5.1,0.4-7.6,1.2s-4.9,1.9-7.2,3.2c-2.2,1.3-4.2,2.9-6,4.7c-1.8,1.8-3.2,3.8-4.3,5.9
		h-1.4V43.2H94.6v88.1h23.5V87.9c0-3.6,0.5-7,1.5-10c1-3.1,2.5-5.8,4.3-8c1.8-2.3,4.1-4.1,6.7-5.3c2.6-1.3,5.6-1.9,8.8-1.9
		c2.5,0,4.6,0.2,6.4,0.6c1.7,0.4,3.3,1,4.8,1.7l6.3-21C155.4,42.9,153.5,42,151.3,41.3z"/>
	<path d="M225.4,50c-7.2-6.4-17.6-9.6-31.3-9.6c-16.2,0-28.9,5.9-38.3,17.6L173,69.6c5.6-6.8,12.5-10.2,20.7-10.2
		c5.5,0,10.1,1.5,13.8,4.6s5.6,6.9,5.6,11.6v2.7c-2.4-1-5.5-1.9-9.2-2.8c-3.7-0.9-8.4-1.3-14.2-1.3c-5.2,0-9.9,0.7-14.3,2.1
		s-8.2,3.4-11.4,6c-3.2,2.6-5.8,5.8-7.5,9.4c-1.8,3.7-2.7,7.8-2.7,12.3c0,4.4,0.8,8.5,2.5,12.2c1.7,3.7,4,6.9,7,9.5
		c3,2.6,6.5,4.7,10.5,6.2s8.3,2.2,12.8,2.2c6.1,0,11.1-1.2,15-3.6c3.9-2.4,7.2-5.3,10-8.6h1.4v9.3h23.2V78.4
		C236.2,65.9,232.6,56.4,225.4,50z M211.5,103.1c-1,2.4-2.5,4.6-4.3,6.5c-1.9,1.9-4.1,3.4-6.7,4.5c-2.6,1.1-5.5,1.7-8.6,1.7
		c-3.8,0-7.2-1.1-10.2-3.2c-2.9-2.2-4.4-5-4.4-8.6s1.5-6.6,4.6-9.1c3.1-2.5,7.4-3.7,13-3.7c3.5,0,6.7,0.4,9.6,1.2
		c2.9,0.8,5.8,1.8,8.5,3.1C213,98.1,212.5,100.7,211.5,103.1z"/>
	<path d="M312.8,41.2l1.4,12.6h-1.4c-2.2-3.7-5.5-6.9-10.1-9.5c-4.6-2.6-10.2-4-16.9-4c-5.6,0-11,1.2-16.1,3.5
		c-5.1,2.3-9.6,5.6-13.5,9.7c-3.9,4.1-7,9.1-9.3,14.8c-2.3,5.8-3.4,12-3.4,18.9c0,6.8,1.1,13.1,3.4,18.9c2.3,5.8,5.4,10.7,9.3,14.8
		c3.9,4.1,8.4,7.4,13.5,9.7c5.1,2.3,10.5,3.5,16.1,3.5c6.7,0,12.3-1.3,16.9-4c4.6-2.6,7.9-5.8,10.1-9.5h1.4v10.6h22.1V2.6h-23.5
		V41.2z M312.2,97.8c-1.3,3.1-3.1,5.8-5.2,7.9c-2.1,2.1-4.7,3.8-7.5,4.9c-2.8,1.1-5.8,1.7-8.9,1.7c-3.1,0-6.1-0.6-8.9-1.8
		s-5.3-2.9-7.5-5c-2.2-2.2-3.9-4.8-5.2-7.9c-1.3-3.1-2-6.6-2-10.4c0-3.8,0.7-7.3,2-10.4s3.1-5.8,5.2-7.9c2.1-2.1,4.7-3.9,7.5-5
		c2.8-1.2,5.8-1.8,8.9-1.8c3.1,0,6.1,0.6,8.9,1.7s5.3,2.8,7.5,4.9c2.2,2.2,3.9,4.8,5.2,7.9c1.3,3.1,2,6.6,2,10.6
		S313.6,94.7,312.2,97.8z"/>
	<path d="M423.7,53.5c-3.7-4.1-8.3-7.4-13.8-9.7s-11.8-3.5-18.9-3.5c-6.7,0-12.8,1.3-18.4,3.8c-5.6,2.5-10.4,5.9-14.5,10.2
		c-4.1,4.3-7.2,9.2-9.5,14.9c-2.3,5.7-3.4,11.7-3.4,18.1c0,6.8,1.2,13.1,3.5,18.8s5.6,10.6,9.8,14.8c4.2,4.2,9.1,7.5,14.8,9.8
		c5.7,2.3,11.9,3.5,18.6,3.5c9.9,0,18.4-2.2,25.2-6.6c6.9-4.4,12.4-10.2,16.4-17.4l-19.6-9.7c-2,3.7-4.8,6.8-8.4,9.3
		c-3.5,2.5-8,3.7-13.4,3.7c-2.7,0-5.5-0.4-8.1-1.2c-2.6-0.8-5.1-2-7.3-3.8c-2.2-1.7-4.1-3.9-5.6-6.5s-2.5-5.7-3-9.3h66.3
		c0-0.7,0.1-1.3,0.2-2c0-0.6,0.1-1.3,0.2-2v-2.2c0-6.6-1-12.7-2.9-18.3C430.2,62.6,427.4,57.7,423.7,53.5z M369.6,75.9
		c1.6-5.2,4.3-9.2,8.1-12c3.8-2.9,8.3-4.3,13.3-4.3c3.6,0,6.7,0.5,9.3,1.6c2.6,1.1,4.7,2.5,6.5,4.1c1.7,1.7,3.1,3.5,4,5.4
		c0.9,1.9,1.4,3.7,1.5,5.2H369.6z"/>
	<polygon points="535,2.6 507.3,80.1 502.3,96.6 500.8,96.6 496.2,80.1 469.6,2.6 443.3,2.6 488.8,131.3 514.3,131.3 561.2,2.6 	"/>
	<path d="M625.7,50c-7.2-6.4-17.6-9.6-31.3-9.6c-16.2,0-28.9,5.9-38.3,17.6l17.1,11.7c5.6-6.8,12.5-10.2,20.7-10.2
		c5.5,0,10.1,1.5,13.8,4.6c3.7,3.1,5.6,6.9,5.6,11.6v2.7c-2.4-1-5.5-1.9-9.2-2.8c-3.7-0.9-8.4-1.3-14.2-1.3c-5.2,0-9.9,0.7-14.3,2.1
		c-4.4,1.4-8.2,3.4-11.4,6c-3.2,2.6-5.8,5.8-7.5,9.4c-1.8,3.7-2.7,7.8-2.7,12.3c0,4.4,0.8,8.5,2.5,12.2s4,6.9,7,9.5
		s6.5,4.7,10.5,6.2s8.3,2.2,12.8,2.2c6.1,0,11.1-1.2,15-3.6s7.2-5.3,10-8.6h1.4v9.3h23.2V78.4C636.5,65.9,632.9,56.4,625.7,50z
		 M611.8,103.1c-1,2.4-2.5,4.6-4.3,6.5c-1.9,1.9-4.1,3.4-6.7,4.5c-2.6,1.1-5.5,1.7-8.6,1.7c-3.8,0-7.2-1.1-10.2-3.2
		c-2.9-2.2-4.4-5-4.4-8.6s1.5-6.6,4.6-9.1s7.4-3.7,13-3.7c3.5,0,6.7,0.4,9.6,1.2c2.9,0.8,5.8,1.8,8.5,3.1
		C613.3,98.1,612.8,100.7,611.8,103.1z"/>
	<rect x="649.8" y="2.6" width="23.5" height="128.7"/>
	<path d="M747.7,86.3h-0.1c0,3.6-0.4,7-1.3,10.2c-0.9,3.2-2.2,5.9-4,8.3c-1.7,2.3-3.8,4.2-6.3,5.6c-2.5,1.4-5.3,2.1-8.5,2.1
		c-5.4,0-9.5-1.5-12.3-4.6c-2.8-3.1-4.2-7.8-4.2-14.1V43.2h-23.5v53.4c0,11.4,2.7,20.5,8.2,27.3c5.5,6.8,13.7,10.2,24.9,10.2
		c6,0,11.3-1.3,16-3.9s8.4-6.1,11.1-10.5h1.4v11.5h22.1v-88h-23.5V86.3z"/>
	<path d="M858.4,53.5c-3.7-4.1-8.3-7.4-13.8-9.7s-11.8-3.5-18.9-3.5c-6.7,0-12.8,1.3-18.4,3.8s-10.4,5.9-14.5,10.2
		s-7.2,9.2-9.5,14.9c-2.3,5.7-3.4,11.7-3.4,18.1c0,6.8,1.2,13.1,3.5,18.8s5.6,10.6,9.8,14.8c4.2,4.2,9.1,7.5,14.8,9.8
		c5.7,2.3,11.9,3.5,18.6,3.5c9.9,0,18.4-2.2,25.2-6.6c6.9-4.4,12.4-10.2,16.4-17.4l-19.6-9.7c-2,3.7-4.8,6.8-8.4,9.3
		c-3.5,2.5-8,3.7-13.4,3.7c-2.7,0-5.5-0.4-8.1-1.2s-5.1-2-7.3-3.8c-2.2-1.7-4.1-3.9-5.6-6.5s-2.5-5.7-3-9.3h66.3
		c0-0.7,0.1-1.3,0.2-2c0-0.6,0.1-1.3,0.2-2v-2.2c0-6.6-1-12.7-2.9-18.3C865,62.6,862.2,57.7,858.4,53.5z M804.4,75.9
		c1.6-5.2,4.3-9.2,8.1-12c3.8-2.9,8.3-4.3,13.3-4.3c3.6,0,6.7,0.5,9.3,1.6c2.6,1.1,4.7,2.5,6.5,4.1c1.7,1.7,3.1,3.5,4,5.4
		c0.9,1.9,1.4,3.7,1.5,5.2H804.4z"/>
	<path d="M1584.9,194.2c-0.5-0.2-1.2-0.2-1.9-0.2c-0.6,0-1.2,0.1-1.8,0.3c-0.6,0.2-1.2,0.5-1.7,0.8c-0.5,0.3-1,0.7-1.4,1.1
		c-0.4,0.4-0.8,0.9-1,1.4h-0.3v-2.9h-5.3v21.2h5.7v-10.4c0-0.9,0.1-1.7,0.4-2.4c0.2-0.7,0.6-1.4,1-1.9c0.4-0.6,1-1,1.6-1.3
		c0.6-0.3,1.3-0.5,2.1-0.5c0.6,0,1.1,0,1.5,0.1c0.4,0.1,0.8,0.2,1.2,0.4l1.5-5.1C1585.9,194.6,1585.4,194.4,1584.9,194.2z"/>
</g>
</svg>
