<svg id="Слой_1" xmlns="http://www.w3.org/2000/svg" viewBox="0 0 1587 224"><style>.st0{fill:#d71921}</style><path class="st0" d="M1261.1 202.2l1.1-5.7h-12.7l1.4-7.4h14.2l1.1-5.6H1246l-6.2 31.8h20.2l1.1-5.7h-14.2l1.5-7.4zM1284.2 196.5h-6.2l-4.2 5.2h-.3l-2.4-5.2h-5.9l4.7 9.2-8.4 9.6h5.9l4.5-5.4h.2l2.5 5.4h5.9l-4.7-9.6zM1303.1 198.7c-.7-.9-1.5-1.6-2.5-2.1s-2.1-.7-3.3-.7c-1.4 0-2.7.3-3.8.8-1.1.6-1.9 1.2-2.5 2h-.3l.4-2.3h-4.7l-5.3 27h5l1.5-7.9.5-2.7c.3.8.9 1.5 1.8 2 .9.6 2 .8 3.4.8 1.2 0 2.4-.2 3.6-.7s2.3-1.2 3.3-2.1c1-.9 1.9-2 2.6-3.2.7-1.2 1.2-2.6 1.5-4 .3-1.5.3-2.8.1-4-.2-1-.6-2-1.3-2.9zm-3.7 7.2c-.1.8-.4 1.5-.9 2.2-.4.6-.9 1.2-1.4 1.7s-1.1.8-1.8 1.1c-.7.3-1.3.4-2 .4-.6 0-1.2-.1-1.8-.4-.6-.2-1-.6-1.4-1.1s-.6-1-.8-1.7c-.2-.7-.1-1.4 0-2.3.1-.8.4-1.6.9-2.3.4-.6.9-1.2 1.4-1.7.5-.4 1.1-.8 1.8-1.1.6-.2 1.3-.4 2-.4.6 0 1.3.1 1.8.4.5.2 1 .6 1.4 1.1s.6 1 .8 1.7c.2.8.2 1.6 0 2.4zM1319.8 195.9c-.5 0-1.1.1-1.7.3-.6.2-1.1.4-1.7.7-.5.3-1 .6-1.5 1-.4.4-.8.8-1.2 1.3h-.3l.5-2.6h-4.7l-3.6 18.8h5l1.8-9.2c.2-.8.4-1.5.7-2.1.3-.6.7-1.2 1.3-1.7.5-.5 1-.9 1.7-1.1.6-.3 1.3-.4 2-.4.5 0 1 0 1.3.1.4.1.7.2.9.4l1-5.1c-.5-.3-1-.4-1.5-.4zM1339 198.7c-.6-.9-1.5-1.6-2.5-2.1-1.1-.5-2.4-.7-3.9-.7-1.4 0-2.8.3-4.1.8-1.3.5-2.5 1.3-3.5 2.2-1 .9-1.9 2-2.7 3.2-.7 1.2-1.2 2.5-1.5 3.8-.3 1.5-.3 2.8 0 4 .3 1.2.8 2.3 1.5 3.2.7.9 1.6 1.6 2.8 2.1 1.1.5 2.4.7 3.8.7 2.1 0 4-.5 5.7-1.4 1.6-.9 3.1-2.2 4.2-3.7l-3.8-2.1c-.6.8-1.3 1.5-2.2 2-.9.5-1.9.8-3 .8-.6 0-1.1-.1-1.7-.2-.5-.2-1-.4-1.4-.8s-.7-.8-.9-1.4c-.2-.5-.3-1.2-.2-2h14.1c0-.1.1-.3.1-.4 0-.1.1-.3.1-.4l.1-.5c.3-1.4.3-2.7.1-3.9s-.5-2.3-1.1-3.2zm-12.5 4.8c.5-1.1 1.3-2 2.2-2.6.9-.6 1.9-.9 3-.9.8 0 1.4.1 1.9.3s.9.5 1.2.9c.3.3.5.7.6 1.2.1.4.1.7.1 1.1h-9zM1349.7 200.4c.6-.3 1.2-.4 2-.4.7 0 1.4.2 2 .5s1 .9 1.3 1.6l4.7-1.8c-.4-1.5-1.2-2.6-2.4-3.4-1.3-.7-2.8-1.1-4.6-1.1-1 0-2.1.1-3.1.4-.9.2-1.8.6-2.7 1.1-.8.5-1.4 1.1-2 1.8-.5.7-.9 1.6-1.1 2.5-.2.8-.1 1.5.1 2.1.2.6.5 1.1 1 1.6.4.4.9.8 1.5 1.1.5.3 1.1.5 1.7.6l2.5.6c1 .3 1.8.5 2.2.9.4.3.5.7.4 1.2s-.4.9-1 1.2-1.4.5-2.3.5-1.7-.2-2.3-.7c-.6-.5-1.1-1.2-1.3-2.2l-4.9 1.9c.1.7.4 1.4.7 2 .4.7.9 1.2 1.4 1.7.6.5 1.4.9 2.3 1.2.9.3 2 .5 3.2.5s2.3-.2 3.4-.5c1-.3 1.9-.8 2.8-1.4.8-.5 1.5-1.2 2-2 .5-.7.9-1.5 1-2.3.3-1.4 0-2.6-.7-3.6s-2-1.7-3.8-2.2l-2.7-.7c-.7-.2-1.3-.4-1.7-.7-.4-.3-.6-.6-.5-1-.1-.3.3-.7.9-1zM1368.2 200.4c.6-.3 1.2-.4 2-.4.7 0 1.4.2 2 .5s1 .9 1.3 1.6l4.7-1.8c-.4-1.5-1.2-2.6-2.5-3.4-1.3-.7-2.8-1.1-4.6-1.1-1 0-2.1.1-3.1.4-.9.2-1.8.6-2.7 1.1-.8.5-1.4 1.1-2 1.8-.5.7-.9 1.6-1.1 2.5-.2.8-.1 1.5.1 2.1.2.6.5 1.1 1 1.6.4.4.9.8 1.5 1.1.5.3 1.1.5 1.7.6l2.5.6c1 .3 1.8.5 2.2.9.4.3.5.7.4 1.2s-.4.9-1 1.2-1.4.5-2.3.5-1.7-.2-2.3-.7c-.6-.5-1.1-1.2-1.3-2.2l-4.9 1.9c.1.7.4 1.4.7 2 .4.7.9 1.2 1.4 1.7.6.5 1.4.9 2.3 1.2.9.3 2 .5 3.2.5 1.1 0 2.3-.2 3.4-.5 1-.3 1.9-.8 2.8-1.4.8-.5 1.5-1.2 2-2 .5-.7.9-1.5 1-2.3.3-1.4 0-2.6-.7-3.6s-2-1.7-3.8-2.2l-2.7-.7c-.7-.2-1.3-.4-1.7-.7-.4-.3-.6-.6-.5-1 0-.3.4-.7 1-1zM1238.6 191.3c1.4 0 2.5-1.1 2.5-2.5s-1.1-2.5-2.5-2.5h-15c-1.4 0-2.5 1.1-2.5 2.5s1.1 2.5 2.5 2.5h15zM1236.5 196.8h-11c-1.4 0-2.5 1.1-2.5 2.5s1.1 2.5 2.5 2.5h11c1.4 0 2.5-1.1 2.5-2.5 0-1.3-1.1-2.5-2.5-2.5zM1234.5 207.3h-6.9c-1.4 0-2.5 1.1-2.5 2.5s1.1 2.5 2.5 2.5h6.9c1.4 0 2.5-1.1 2.5-2.5s-1.1-2.5-2.5-2.5zM1086.7 80.9l4.7-24.4h-54.5L1043 25h60.7l4.7-24.3h-86.3l-26.4 136h86.2l4.8-24.3h-60.6l6.1-31.5zM1185.3 56.5h-26.2L1141 78.7h-1.1l-10.3-22.2h-25.4l19.9 39.4-35.8 40.8h25.4l19-22.9h1.2l10.6 22.9h25.2l-20.2-40.8zM1240.5 136.1c5.1-2.1 9.7-5.1 14-8.8 4.3-3.8 8-8.3 11.1-13.5s5.2-11 6.5-17.2c1.2-6.2 1.3-12 .2-17.2-1.1-5.2-3-9.7-5.8-13.5-2.8-3.7-6.4-6.8-10.6-8.8-4.2-2.1-8.9-3.2-14-3.2-6.1 0-11.5 1.2-16.1 3.6-4.6 2.4-8.2 5.3-10.9 8.7h-1.3l1.9-9.7h-20.1l-22.5 115.6h21.5l6.5-33.6 2.2-11.5c1.3 3.4 3.8 6.3 7.5 8.7 3.7 2.4 8.6 3.6 14.7 3.6 5.1 0 10.2-1 15.2-3.2zm-23.6-18.1c-2.3-1-4.3-2.5-5.9-4.5s-2.7-4.4-3.4-7.2c-.6-2.8-.6-6.1.1-9.7.7-3.6 1.9-6.8 3.7-9.7 1.8-2.8 3.8-5.2 6.2-7.2 2.3-2 4.9-3.5 7.7-4.5s5.6-1.6 8.4-1.6 5.4.5 7.8 1.6 4.3 2.6 5.9 4.6 2.7 4.4 3.3 7.2c.6 2.8.6 6 0 9.5-.7 3.5-1.9 6.7-3.7 9.5-1.8 2.8-3.8 5.2-6.1 7.2-2.3 1.9-4.9 3.5-7.7 4.6-2.8 1.1-5.6 1.6-8.4 1.6-3 .1-5.6-.4-7.9-1.4zM1306.3 97.2c.6-3.3 1.7-6.3 3.2-9.1s3.3-5.2 5.3-7.3c2.1-2.1 4.5-3.7 7.1-4.9 2.6-1.2 5.4-1.7 8.4-1.7 2.3 0 4.2.2 5.7.6s2.8.9 4 1.6l4.2-21.6c-1.8-.5-3.9-.8-6.6-.8-2.3 0-4.7.4-7.2 1.1-2.5.7-4.9 1.7-7.1 2.9s-4.4 2.6-6.3 4.3c-2 1.6-3.6 3.4-5 5.4h-1.3l2.2-11.1h-20.1l-15.6 80.3h21.5l7.6-39.7zM1419.7 65.9c-2.7-3.8-6.3-6.7-10.9-8.8-4.6-2.1-10.1-3.2-16.6-3.2-6.1 0-11.9 1.1-17.5 3.4-5.5 2.3-10.5 5.4-15 9.2-4.5 3.9-8.2 8.4-11.3 13.6-3.1 5.2-5.2 10.7-6.3 16.5-1.2 6.2-1.3 11.9-.1 17.1 1.1 5.2 3.2 9.7 6.3 13.5 3.1 3.8 7 6.8 11.8 8.9 4.8 2.1 10.2 3.2 16.3 3.2 9.1 0 17.1-2 24.2-6.1 7.1-4 13.1-9.3 18.1-15.9l-16.1-8.8c-2.5 3.4-5.6 6.2-9.3 8.4-3.7 2.2-7.9 3.4-12.9 3.4-2.5 0-4.9-.4-7.2-1.1-2.2-.7-4.3-1.9-6-3.4-1.7-1.6-3-3.6-3.9-5.9s-1.3-5.2-1.1-8.4h60.4c.1-.6.3-1.2.5-1.8.1-.5.3-1.1.5-1.8l.4-2c1.2-6 1.4-11.6.6-16.7-.6-5.1-2.3-9.6-4.9-13.3zm-14.5 20.4h-38.8c2.3-4.7 5.5-8.4 9.5-11 4-2.6 8.3-3.9 12.9-3.9 3.3 0 6 .5 8.2 1.5s3.9 2.2 5.2 3.8c1.3 1.5 2.2 3.2 2.7 4.9.3 1.7.5 3.2.3 4.7zM1465.5 73.1c2.5-1.3 5.3-1.9 8.4-1.9 2.9 0 5.8.7 8.4 2.1 2.7 1.4 4.5 3.7 5.4 6.9l20-7.5c-1.6-6.6-5.1-11.3-10.5-14.3s-12-4.5-19.6-4.5c-4.6 0-9 .6-13.2 1.7-4.2 1.1-8 2.8-11.4 4.9s-6.2 4.7-8.5 7.8c-2.3 3.1-3.8 6.6-4.6 10.5-.7 3.5-.6 6.6.3 9.2s2.3 4.9 4.1 6.7c1.8 1.9 4 3.4 6.4 4.6s4.9 2.1 7.3 2.6l10.8 2.5c4.5 1.1 7.5 2.3 9.2 3.7 1.6 1.4 2.3 3.1 1.8 5.3-.4 2-1.9 3.7-4.4 5.1-2.6 1.4-5.8 2.1-9.8 2.1-3.8 0-7.1-1-9.8-3-2.7-2-4.6-5.1-5.7-9.3l-20.8 8.2c.5 2.8 1.6 5.6 3.1 8.4 1.5 2.8 3.6 5.2 6.2 7.4 2.6 2.1 5.8 3.9 9.6 5.2 3.8 1.3 8.4 2 13.6 2 5.1 0 9.9-.7 14.4-2.1 4.5-1.4 8.5-3.4 11.9-5.8 3.5-2.5 6.3-5.3 8.6-8.4 2.3-3.2 3.7-6.5 4.4-10 1.1-5.9.1-11-3-15.3s-8.6-7.5-16.4-9.4l-11.7-3c-3.1-.9-5.5-1.9-7.2-2.9-1.7-1.1-2.4-2.6-2-4.4.6-2.3 2.1-3.9 4.7-5.1zM1561.1 88.2l-11.7-3c-3.1-.9-5.5-1.9-7.2-2.9-1.7-1.1-2.4-2.6-2-4.4.4-2 1.8-3.6 4.4-4.8 2.5-1.3 5.3-1.9 8.4-1.9 2.9 0 5.8.7 8.4 2.1 2.7 1.4 4.5 3.7 5.4 6.9l20-7.5c-1.6-6.6-5.1-11.3-10.5-14.3s-12-4.5-19.6-4.5c-4.6 0-9 .6-13.2 1.7-4.2 1.1-8 2.8-11.4 4.9-3.4 2.1-6.2 4.7-8.5 7.8s-3.8 6.6-4.6 10.5c-.7 3.5-.6 6.6.3 9.2.9 2.6 2.3 4.9 4.1 6.7 1.8 1.9 4 3.4 6.4 4.6s4.9 2.1 7.3 2.6l10.8 2.5c4.5 1.1 7.5 2.3 9.2 3.7 1.6 1.4 2.3 3.1 1.8 5.3-.4 2-1.9 3.7-4.4 5.1-2.6 1.4-5.8 2.1-9.8 2.1-3.8 0-7.1-1-9.8-3-2.7-2-4.6-5.1-5.7-9.3l-20.8 8.2c.5 2.8 1.6 5.6 3.1 8.4s3.6 5.2 6.2 7.4c2.6 2.1 5.8 3.9 9.6 5.2 3.8 1.3 8.4 2 13.6 2 5.1 0 9.9-.7 14.4-2.1s8.5-3.4 11.9-5.8c3.5-2.5 6.3-5.3 8.6-8.4 2.3-3.2 3.7-6.5 4.4-10 1.1-5.9.1-11-3-15.3-2.8-4.6-8.3-7.7-16.1-9.7zM990.4 34.4c5.9 0 10.7-4.8 10.7-10.7 0-5.9-4.8-10.7-10.7-10.7h-64c-5.9 0-10.7 4.8-10.7 10.7 0 5.9 4.8 10.7 10.7 10.7h64zM981.6 57.9h-47.2c-5.9 0-10.7 4.8-10.7 10.7 0 5.9 4.8 10.7 10.7 10.7h47.2c5.9 0 10.7-4.8 10.7-10.7 0-5.9-4.8-10.7-10.7-10.7zM972.9 102.8h-29.6c-5.9 0-10.7 4.8-10.7 10.7 0 5.9 4.8 10.7 10.7 10.7h29.6c5.9 0 10.7-4.8 10.7-10.7 0-5.9-4.8-10.7-10.7-10.7z"/><g><path d="M1404.6 209.3c-1.3.7-2.9 1.1-4.6 1.1-1.4 0-2.8-.2-4-.8-1.2-.5-2.3-1.2-3.3-2.1-.9-.9-1.7-2-2.2-3.3-.5-1.3-.8-2.8-.8-4.4s.3-3.1.8-4.4c.5-1.3 1.3-2.4 2.2-3.3.9-.9 2.1-1.6 3.3-2.1 1.3-.5 2.6-.8 4-.8 1.6 0 3 .3 4.2.9 1.2.6 2.3 1.5 3.2 2.5l4.1-3.9c-1.5-1.6-3.1-2.9-5-3.7-1.9-.9-4-1.3-6.5-1.3-2.3 0-4.4.4-6.4 1.2-2 .8-3.7 2-5.1 3.4-1.4 1.4-2.6 3.1-3.4 5.1s-1.2 4.1-1.2 6.3c0 2.3.4 4.4 1.2 6.3.8 2 2 3.7 3.4 5.1 1.4 1.4 3.1 2.6 5.1 3.4s4.1 1.2 6.4 1.2c2.5 0 4.8-.5 6.9-1.4 2.1-1 3.8-2.4 5.4-4.2l-4.1-3.9c-1.1 1.4-2.3 2.4-3.6 3.1zM1423.8 193.5c-3.9 0-6.9 1.4-9.1 4.2l4.1 2.8c1.3-1.6 3-2.4 4.9-2.4 1.3 0 2.4.4 3.3 1.1s1.3 1.7 1.3 2.8v.6c-.6-.2-1.3-.4-2.2-.7-.9-.2-2-.3-3.4-.3-1.2 0-2.4.2-3.4.5s-2 .8-2.7 1.4c-.8.6-1.4 1.4-1.8 2.3-.4.9-.6 1.9-.6 2.9 0 1.1.2 2 .6 2.9.4.9 1 1.6 1.7 2.3.7.6 1.6 1.1 2.5 1.5 1 .4 2 .5 3.1.5 1.5 0 2.7-.3 3.6-.9.9-.5 1.7-1.2 2.4-2.1h.3v2.2h5.5v-12.6c0-3-.9-5.3-2.6-6.8-1.8-1.4-4.2-2.2-7.5-2.2zm4.1 15c-.2.6-.6 1.1-1 1.5-.5.5-1 .8-1.6 1.1-.6.3-1.3.4-2.1.4-.9 0-1.7-.3-2.4-.8s-1.1-1.2-1.1-2.1c0-.9.4-1.6 1.1-2.2.7-.6 1.8-.9 3.1-.9.8 0 1.5.1 2.3.3.7.2 1.4.4 2 .8.1.7 0 1.3-.3 1.9zM1449 202.5l-3.2-.8c-.9-.2-1.5-.5-2-.8-.5-.3-.8-.7-.8-1.2s.3-.9.9-1.3c.6-.3 1.3-.5 2.1-.5s1.5.2 2.3.6c.8.4 1.4 1 1.8 1.8l4.8-2c-.7-1.7-1.9-3-3.5-3.8s-3.4-1.2-5.4-1.2c-1.2 0-2.3.2-3.4.5-1 .3-2 .7-2.7 1.3-.8.5-1.4 1.2-1.8 2-.4.8-.7 1.7-.7 2.7 0 .9.2 1.7.6 2.4.4.7.8 1.3 1.4 1.8s1.2.9 1.9 1.2c.7.3 1.3.5 2 .7l3 .6c1.2.3 2.1.6 2.6 1s.8.8.8 1.4c0 .5-.3 1-.9 1.3-.6.4-1.4.6-2.4.6s-1.9-.3-2.7-.8c-.8-.5-1.5-1.3-2-2.4l-5 2.1c.3.8.7 1.5 1.2 2.2.6.7 1.2 1.4 2 1.9.8.6 1.7 1 2.8 1.4 1.1.3 2.3.5 3.7.5 1.3 0 2.6-.2 3.7-.6 1.1-.4 2-.9 2.8-1.5.8-.6 1.4-1.4 1.8-2.2.4-.8.6-1.7.6-2.6 0-1.5-.5-2.9-1.6-4-.9-1-2.5-1.8-4.7-2.3zM1470.8 193.5c-1.4 0-2.7.3-3.8 1-1.1.6-2 1.5-2.6 2.5h-.3l.3-3.8v-8.6h-5.6v30.7h5.6V205c0-.8.1-1.6.3-2.4.2-.7.5-1.4.9-2 .4-.6.9-1 1.5-1.4.6-.3 1.3-.5 2.1-.5 1.2 0 2.2.4 2.9 1.1.7.8 1 1.9 1 3.3v12.1h5.6v-12.7c0-2.8-.7-5-2-6.6-1.2-1.6-3.2-2.4-5.9-2.4zM1510.1 188.4c-1.4-1.4-3.1-2.6-5.1-3.4s-4.1-1.2-6.4-1.2-4.4.4-6.4 1.2-3.7 2-5.1 3.4c-1.4 1.4-2.6 3.1-3.4 5.1s-1.2 4.1-1.2 6.3.4 4.3 1.2 6.3 1.9 3.7 3.4 5.1c1.4 1.4 3.1 2.6 5.1 3.4 2 .8 4.1 1.2 6.4 1.2s4.4-.4 6.4-1.2c2-.8 3.7-2 5.1-3.4 1.4-1.4 2.6-3.1 3.4-5.1s1.2-4.1 1.2-6.3-.4-4.3-1.2-6.3c-.8-1.9-2-3.6-3.4-5.1zm-2 15.7c-.5 1.3-1.3 2.4-2.2 3.3-.9.9-2 1.6-3.3 2.1-1.2.5-2.6.8-4 .8s-2.8-.3-4-.8-2.3-1.2-3.3-2.1c-.9-.9-1.7-2-2.2-3.3-.5-1.3-.8-2.7-.8-4.3 0-1.6.3-3 .8-4.3s1.3-2.4 2.2-3.3c.9-.9 2-1.6 3.3-2.1 1.2-.5 2.6-.8 4-.8s2.8.3 4 .8 2.3 1.2 3.3 2.1c.9.9 1.7 2 2.2 3.3s.8 2.7.8 4.3-.3 3-.8 4.3zM1541 190.3c.5-.5 1.1-.8 2-.8.5 0 .9 0 1.2.1l.9.3 1.6-5c-.5-.2-1.2-.4-1.8-.6-.7-.1-1.4-.2-2.2-.2-1.2 0-2.2.2-3.2.5-.9.3-1.8.9-2.5 1.5-.7.7-1.3 1.5-1.7 2.5-.4 1-.6 2.1-.6 3.4v2.1h-7.9v-1.7c0-.9.2-1.7.7-2.2s1.1-.8 2-.8c.3 0 .7 0 1 .1.2.1.5.1.7.2l.3-5.3c-.3-.1-.6-.2-1-.3-.4-.1-.8-.1-1.4-.1-1.2 0-2.2.2-3.2.5-.9.3-1.8.9-2.5 1.5-.7.7-1.3 1.5-1.7 2.5-.4 1-.6 2.1-.6 3.4v2.1h-3.8v4.8h3.8V215h5.6v-16h7.9v16.2h5.6V199h5.2v-4.8h-5.2v-1.7c.1-.9.3-1.7.8-2.2zM1565.6 196.6c-.9-1-2-1.8-3.3-2.3-1.3-.6-2.8-.8-4.5-.8-1.6 0-3.1.3-4.4.9-1.3.6-2.5 1.4-3.5 2.4s-1.8 2.2-2.3 3.6c-.5 1.4-.8 2.8-.8 4.3 0 1.6.3 3.1.8 4.5.5 1.3 1.3 2.5 2.3 3.5s2.2 1.8 3.5 2.3c1.4.6 2.8.8 4.4.8 2.4 0 4.4-.5 6-1.6 1.6-1 3-2.5 3.9-4.2l-4.7-2.3c-.5.9-1.2 1.6-2 2.2-.8.6-1.9.9-3.2.9-.7 0-1.3-.1-1.9-.3-.6-.2-1.2-.5-1.7-.9s-1-.9-1.3-1.5c-.4-.6-.6-1.3-.7-2.2h15.8v-.5-1c.2-1.5 0-2.9-.4-4.3-.5-1.3-1.1-2.5-2-3.5zm-13 5.4c.4-1.2 1-2.2 1.9-2.9.9-.7 2-1 3.2-1 .9 0 1.6.1 2.2.4s1.1.6 1.5 1c.4.4.7.8.9 1.3.2.5.3.9.4 1.2h-10.1zM96.4 2.6H.3v23h35.9v105.7h24.3V25.6h35.9zM151.3 41.3c-2.2-.7-4.9-1-8-1-2.5 0-5.1.4-7.6 1.2s-4.9 1.9-7.2 3.2c-2.2 1.3-4.2 2.9-6 4.7-1.8 1.8-3.2 3.8-4.3 5.9h-1.4V43.2H94.6v88.1h23.5V87.9c0-3.6.5-7 1.5-10 1-3.1 2.5-5.8 4.3-8 1.8-2.3 4.1-4.1 6.7-5.3 2.6-1.3 5.6-1.9 8.8-1.9 2.5 0 4.6.2 6.4.6 1.7.4 3.3 1 4.8 1.7l6.3-21c-1.5-1.1-3.4-2-5.6-2.7zM225.4 50c-7.2-6.4-17.6-9.6-31.3-9.6-16.2 0-28.9 5.9-38.3 17.6L173 69.6c5.6-6.8 12.5-10.2 20.7-10.2 5.5 0 10.1 1.5 13.8 4.6s5.6 6.9 5.6 11.6v2.7c-2.4-1-5.5-1.9-9.2-2.8-3.7-.9-8.4-1.3-14.2-1.3-5.2 0-9.9.7-14.3 2.1s-8.2 3.4-11.4 6c-3.2 2.6-5.8 5.8-7.5 9.4-1.8 3.7-2.7 7.8-2.7 12.3 0 4.4.8 8.5 2.5 12.2 1.7 3.7 4 6.9 7 9.5 3 2.6 6.5 4.7 10.5 6.2s8.3 2.2 12.8 2.2c6.1 0 11.1-1.2 15-3.6 3.9-2.4 7.2-5.3 10-8.6h1.4v9.3h23.2V78.4c0-12.5-3.6-22-10.8-28.4zm-13.9 53.1c-1 2.4-2.5 4.6-4.3 6.5-1.9 1.9-4.1 3.4-6.7 4.5-2.6 1.1-5.5 1.7-8.6 1.7-3.8 0-7.2-1.1-10.2-3.2-2.9-2.2-4.4-5-4.4-8.6s1.5-6.6 4.6-9.1c3.1-2.5 7.4-3.7 13-3.7 3.5 0 6.7.4 9.6 1.2 2.9.8 5.8 1.8 8.5 3.1 0 2.6-.5 5.2-1.5 7.6zM312.8 41.2l1.4 12.6h-1.4c-2.2-3.7-5.5-6.9-10.1-9.5-4.6-2.6-10.2-4-16.9-4-5.6 0-11 1.2-16.1 3.5-5.1 2.3-9.6 5.6-13.5 9.7-3.9 4.1-7 9.1-9.3 14.8-2.3 5.8-3.4 12-3.4 18.9 0 6.8 1.1 13.1 3.4 18.9 2.3 5.8 5.4 10.7 9.3 14.8 3.9 4.1 8.4 7.4 13.5 9.7 5.1 2.3 10.5 3.5 16.1 3.5 6.7 0 12.3-1.3 16.9-4 4.6-2.6 7.9-5.8 10.1-9.5h1.4v10.6h22.1V2.6h-23.5v38.6zm-.6 56.6c-1.3 3.1-3.1 5.8-5.2 7.9-2.1 2.1-4.7 3.8-7.5 4.9-2.8 1.1-5.8 1.7-8.9 1.7-3.1 0-6.1-.6-8.9-1.8s-5.3-2.9-7.5-5c-2.2-2.2-3.9-4.8-5.2-7.9-1.3-3.1-2-6.6-2-10.4 0-3.8.7-7.3 2-10.4s3.1-5.8 5.2-7.9c2.1-2.1 4.7-3.9 7.5-5 2.8-1.2 5.8-1.8 8.9-1.8 3.1 0 6.1.6 8.9 1.7s5.3 2.8 7.5 4.9c2.2 2.2 3.9 4.8 5.2 7.9 1.3 3.1 2 6.6 2 10.6s-.6 7.5-2 10.6zM423.7 53.5c-3.7-4.1-8.3-7.4-13.8-9.7s-11.8-3.5-18.9-3.5c-6.7 0-12.8 1.3-18.4 3.8-5.6 2.5-10.4 5.9-14.5 10.2-4.1 4.3-7.2 9.2-9.5 14.9-2.3 5.7-3.4 11.7-3.4 18.1 0 6.8 1.2 13.1 3.5 18.8s5.6 10.6 9.8 14.8c4.2 4.2 9.1 7.5 14.8 9.8 5.7 2.3 11.9 3.5 18.6 3.5 9.9 0 18.4-2.2 25.2-6.6 6.9-4.4 12.4-10.2 16.4-17.4l-19.6-9.7c-2 3.7-4.8 6.8-8.4 9.3-3.5 2.5-8 3.7-13.4 3.7-2.7 0-5.5-.4-8.1-1.2-2.6-.8-5.1-2-7.3-3.8-2.2-1.7-4.1-3.9-5.6-6.5s-2.5-5.7-3-9.3h66.3c0-.7.1-1.3.2-2 0-.6.1-1.3.2-2v-2.2c0-6.6-1-12.7-2.9-18.3-1.7-5.6-4.5-10.5-8.2-14.7zm-54.1 22.4c1.6-5.2 4.3-9.2 8.1-12 3.8-2.9 8.3-4.3 13.3-4.3 3.6 0 6.7.5 9.3 1.6 2.6 1.1 4.7 2.5 6.5 4.1 1.7 1.7 3.1 3.5 4 5.4.9 1.9 1.4 3.7 1.5 5.2h-42.7zM535 2.6l-27.7 77.5-5 16.5h-1.5l-4.6-16.5-26.6-77.5h-26.3l45.5 128.7h25.5L561.2 2.6zM625.7 50c-7.2-6.4-17.6-9.6-31.3-9.6-16.2 0-28.9 5.9-38.3 17.6l17.1 11.7c5.6-6.8 12.5-10.2 20.7-10.2 5.5 0 10.1 1.5 13.8 4.6 3.7 3.1 5.6 6.9 5.6 11.6v2.7c-2.4-1-5.5-1.9-9.2-2.8-3.7-.9-8.4-1.3-14.2-1.3-5.2 0-9.9.7-14.3 2.1-4.4 1.4-8.2 3.4-11.4 6-3.2 2.6-5.8 5.8-7.5 9.4-1.8 3.7-2.7 7.8-2.7 12.3 0 4.4.8 8.5 2.5 12.2s4 6.9 7 9.5 6.5 4.7 10.5 6.2 8.3 2.2 12.8 2.2c6.1 0 11.1-1.2 15-3.6s7.2-5.3 10-8.6h1.4v9.3h23.2V78.4c.1-12.5-3.5-22-10.7-28.4zm-13.9 53.1c-1 2.4-2.5 4.6-4.3 6.5-1.9 1.9-4.1 3.4-6.7 4.5-2.6 1.1-5.5 1.7-8.6 1.7-3.8 0-7.2-1.1-10.2-3.2-2.9-2.2-4.4-5-4.4-8.6s1.5-6.6 4.6-9.1 7.4-3.7 13-3.7c3.5 0 6.7.4 9.6 1.2 2.9.8 5.8 1.8 8.5 3.1 0 2.6-.5 5.2-1.5 7.6zM649.8 2.6h23.5v128.7h-23.5zM747.7 86.3h-.1c0 3.6-.4 7-1.3 10.2-.9 3.2-2.2 5.9-4 8.3-1.7 2.3-3.8 4.2-6.3 5.6-2.5 1.4-5.3 2.1-8.5 2.1-5.4 0-9.5-1.5-12.3-4.6-2.8-3.1-4.2-7.8-4.2-14.1V43.2h-23.5v53.4c0 11.4 2.7 20.5 8.2 27.3 5.5 6.8 13.7 10.2 24.9 10.2 6 0 11.3-1.3 16-3.9s8.4-6.1 11.1-10.5h1.4v11.5h22.1v-88h-23.5v43.1zM858.4 53.5c-3.7-4.1-8.3-7.4-13.8-9.7s-11.8-3.5-18.9-3.5c-6.7 0-12.8 1.3-18.4 3.8s-10.4 5.9-14.5 10.2-7.2 9.2-9.5 14.9c-2.3 5.7-3.4 11.7-3.4 18.1 0 6.8 1.2 13.1 3.5 18.8s5.6 10.6 9.8 14.8c4.2 4.2 9.1 7.5 14.8 9.8 5.7 2.3 11.9 3.5 18.6 3.5 9.9 0 18.4-2.2 25.2-6.6 6.9-4.4 12.4-10.2 16.4-17.4l-19.6-9.7c-2 3.7-4.8 6.8-8.4 9.3-3.5 2.5-8 3.7-13.4 3.7-2.7 0-5.5-.4-8.1-1.2s-5.1-2-7.3-3.8c-2.2-1.7-4.1-3.9-5.6-6.5s-2.5-5.7-3-9.3h66.3c0-.7.1-1.3.2-2 0-.6.1-1.3.2-2v-2.2c0-6.6-1-12.7-2.9-18.3-1.6-5.6-4.4-10.5-8.2-14.7zm-54 22.4c1.6-5.2 4.3-9.2 8.1-12 3.8-2.9 8.3-4.3 13.3-4.3 3.6 0 6.7.5 9.3 1.6 2.6 1.1 4.7 2.5 6.5 4.1 1.7 1.7 3.1 3.5 4 5.4.9 1.9 1.4 3.7 1.5 5.2h-42.7zM1584.9 194.2c-.5-.2-1.2-.2-1.9-.2-.6 0-1.2.1-1.8.3-.6.2-1.2.5-1.7.8-.5.3-1 .7-1.4 1.1-.4.4-.8.9-1 1.4h-.3v-2.9h-5.3v21.2h5.7v-10.4c0-.9.1-1.7.4-2.4.2-.7.6-1.4 1-1.9.4-.6 1-1 1.6-1.3.6-.3 1.3-.5 2.1-.5.6 0 1.1 0 1.5.1.4.1.8.2 1.2.4l1.5-5.1c-.6-.2-1.1-.4-1.6-.6z"/></g></svg>