<?xml version="1.0" encoding="UTF-8"?>
<svg id="_Слой_1" data-name="Слой 1" xmlns="http://www.w3.org/2000/svg" version="1.1" viewBox="0 0 40 40">
  <defs>
    <style>
      .cls-1 {
        fill: #000;
        stroke-width: 0px;
      }
    </style>
  </defs>
  <path class="cls-1" d="M32,40c-1.667,0-3.083-.583-4.25-1.75-1.167-1.167-1.75-2.583-1.75-4.25,0-.233.017-.475.05-.725s.083-.475.15-.675l-14.1-8.2c-.567.5-1.2.892-1.9,1.175s-1.433.425-2.2.425c-1.667,0-3.083-.583-4.25-1.75s-1.75-2.583-1.75-4.25.583-3.083,1.75-4.25,2.583-1.75,4.25-1.75c.767,0,1.5.142,2.2.425s1.333.675,1.9,1.175l14.1-8.2c-.067-.2-.117-.425-.15-.675s-.05-.492-.05-.725c0-1.667.583-3.083,1.75-4.25s2.583-1.75,4.25-1.75,3.083.583,4.25,1.75,1.75,2.583,1.75,4.25-.583,3.083-1.75,4.25-2.583,1.75-4.25,1.75c-.767,0-1.5-.142-2.2-.425s-1.333-.675-1.9-1.175l-14.1,8.2c.067.2.117.425.15.675s.05.492.05.725-.017.475-.05.725-.083.475-.15.675l14.1,8.2c.567-.5,1.2-.892,1.9-1.175s1.433-.425,2.2-.425c1.667,0,3.083.583,4.25,1.75s1.75,2.583,1.75,4.25-.583,3.083-1.75,4.25c-1.167,1.167-2.583,1.75-4.25,1.75Z"/>
</svg>