<?xml version="1.0" encoding="utf-8"?>
<!-- Generator: Adobe Illustrator 26.0.2, SVG Export Plug-In . SVG Version: 6.00 Build 0)  -->
<svg version="1.1" id="Слой_2" xmlns="http://www.w3.org/2000/svg" xmlns:xlink="http://www.w3.org/1999/xlink" x="0px" y="0px"
	 viewBox="0 0 27 31.8" style="enable-background:new 0 0 27 31.8;" xml:space="preserve">
<style type="text/css">
	.Тень{fill:none;}
	.Внешнее_x0020_свечение_x0020_5_x0020_pt_x002E_{fill:none;}
	.Синий_x0020_неон{fill:none;stroke:#8AACDA;stroke-width:7;stroke-linecap:round;stroke-linejoin:round;}
	.Выделение_x0020_желтым{fill:url(#SVGID_1_);stroke:#FFFFFF;stroke-width:0.3629;stroke-miterlimit:1;}
	.Джайв_GS{fill:#FFDD00;}
	.Алиса_GS{fill:#A6D0E4;}
</style>
<linearGradient id="SVGID_1_" gradientUnits="userSpaceOnUse" x1="-5.7698" y1="-1.6108" x2="-5.7698" y2="-2.6108">
	<stop  offset="0" style="stop-color:#656565"/>
	<stop  offset="0.618" style="stop-color:#1B1B1B"/>
	<stop  offset="0.6292" style="stop-color:#545454"/>
	<stop  offset="0.9831" style="stop-color:#3E3E3E"/>
</linearGradient>
<g>
	<path d="M17,18.7c-0.3-0.3-0.7-0.6-1.1-0.8c-0.4-0.3-0.9-0.5-1.4-0.7V14c0.4,0.1,0.6,0.3,0.8,0.5c0.2,0.2,0.4,0.5,0.4,0.7l2.1-0.9
		c-0.1-0.2-0.2-0.5-0.4-0.8s-0.4-0.6-0.6-0.8c-0.6-0.6-1.3-0.9-2.2-1.1v-1.6h-1.7l-0.1,1.8c-0.5,0.1-0.9,0.2-1.4,0.4
		c-0.4,0.2-0.8,0.5-1.1,0.8s-0.6,0.6-0.7,1s-0.3,0.8-0.3,1.3c0,0.4,0.1,0.8,0.3,1.3c0.2,0.4,0.4,0.7,0.7,1s0.7,0.6,1.1,0.8
		c0.4,0.1,0.8,0.4,1.3,0.6l0.2,0.1v3.5c-0.4-0.1-0.8-0.4-1.2-0.8c-0.3-0.4-0.6-0.8-0.6-1.3L9,21.2c0.2,0.9,0.7,1.8,1.5,2.5
		c0.7,0.6,1.6,1,2.5,1.1l-0.1,1.3h1.7v-1.6c0.5-0.1,0.9-0.2,1.3-0.4s0.8-0.4,1.1-0.7c0.3-0.3,0.6-0.6,0.8-1.1S18,21.5,18,21
		c0-0.4-0.1-0.8-0.3-1.3C17.5,19.3,17.3,19,17,18.7z M13,16.5c-0.4-0.2-0.6-0.4-0.9-0.6c-0.1-0.1-0.3-0.4-0.3-0.7
		c-0.1-0.4,0.1-0.6,0.3-0.8c0.3-0.3,0.6-0.4,0.9-0.5V16.5z M15.3,22c-0.2,0.2-0.4,0.4-0.8,0.5v-2.8c0.4,0.1,0.6,0.4,0.9,0.6
		c0.2,0.2,0.4,0.5,0.4,0.8C15.7,21.5,15.6,21.7,15.3,22z"/>
	<path d="M23.9,9.7l2.4-2.4l-1.8-1.8l-2.4,2.4c-2.3-2-5.4-3.1-8.6-3.1C6,4.8,0,10.8,0,18.3c0,7.5,6,13.5,13.5,13.5
		c7.5,0,13.5-6,13.5-13.5C27,15,25.8,12,23.9,9.7z M13.5,30.3c-6.6,0-12-5.4-12-12s5.4-12,12-12s12,5.4,12,12S20.1,30.3,13.5,30.3z"
		/>
	<rect x="12.1" y="-3.1" transform="matrix(2.604158e-03 -1 1 2.604158e-03 12.1028 14.858)" width="2.7" height="9"/>
</g>
</svg>
