<?xml version="1.0" encoding="utf-8"?>
<!-- Generator: Adobe Illustrator 25.2.1, SVG Export Plug-In . SVG Version: 6.00 Build 0)  -->
<svg version="1.1" id="Слой_1" xmlns="http://www.w3.org/2000/svg" xmlns:xlink="http://www.w3.org/1999/xlink" x="0px" y="0px"
	 viewBox="0 0 1141.8 327.7" style="enable-background:new 0 0 1141.8 327.7;" xml:space="preserve">
<style type="text/css">
	.st0{fill:#EA1D23;}
	.st1{fill:#909295;}
</style>
<g>
	<g>
		<polygon class="st0" points="252.6,23.9 217,115 179.9,23.9 159.1,23.9 133.8,165.8 163.3,165.8 176.7,80 177.1,80 210,167.6 
			220.2,167.6 254.4,80 254.8,80 266.7,165.8 296.3,165.8 273.7,23.9 		"/>
		<path class="st0" d="M378.6,23.9c-44.9,0-74.5,31.5-74.5,72.6c0,40.7,28.6,73,74.5,73c45.9,0,74.5-32.3,74.5-73
			C453,55.4,423.5,23.9,378.6,23.9z M378.6,142.9c-32.5,0-44.1-26.2-44.1-47.5c0-22.4,16.4-44.9,44.1-44.9
			c27.7,0,44.1,22.5,44.1,44.9C422.7,116.7,411.1,142.9,378.6,142.9z"/>
		<path class="st0" d="M559.4,69.2c0-29.5-20.6-41.6-50.3-41.6h-39.7v138.2h29.3v-55.7h0.4l36.5,55.7h35.5l-42.5-58.3
			C548.9,104.4,559.4,86.8,559.4,69.2z M502.5,91.2h-3.8V49.6h4c15.6,0,27.4,3.3,27.4,20.3C530.1,86.8,518.7,91.2,502.5,91.2z"/>
		<path class="st0" d="M650.9,114.3h31.9c-0.6,16.7-16,31.4-34.3,31.4c-28.4,0-42.5-25.5-42.5-48.4c0-22.9,14-49.5,42.3-49.5
			c15.6,0,28.4,9.5,34.3,22l26-12.8c-11.6-21.1-33.9-33-59.5-33c-44.9,0-73.5,33.9-73.5,73.3c0,38.1,27.8,72.2,71.7,72.2
			c46.7,0,68.5-34.7,68.5-73.7v-3.5h-64.9V114.3z"/>
		<path class="st0" d="M778.5,23.9l-58.7,141.9h30.9l12.4-29.1h52.3l11.6,29.1h31.3L801.2,23.9H778.5z M771.5,114.7l16.6-50.2h0.4
			l18.8,50.2H771.5z"/>
		<polygon class="st0" points="970.1,27.6 970.1,120.5 969.7,120.5 890.5,23.9 869.3,23.9 869.3,165.8 898.7,165.8 898.7,71.9 
			899.1,71.9 978.3,168.6 999.5,168.6 999.5,27.6 		"/>
	</g>
	<path class="st1" d="M777.9,0L649.2,90.4c-6.5,0.5-11.7,5.9-11.7,12.5c0,6.9,5.6,12.5,12.5,12.5c5.6,0,10.4-3.7,12-8.8L777.9,0z"/>
	<rect y="208.7" class="st1" width="1141.8" height="4.5"/>
	<g>
		<path d="M170.2,284.3v-0.2c5.3-2.5,8.4-9.1,8.4-14.8c0-17.6-13.9-21.5-28.6-21.5h-9.5V326h18.3c13.8,0,27.2-6.2,27.2-21.9
			C185.9,295,179.4,285.9,170.2,284.3z M150.2,256.5h2.7c9.1,0,16.6,1.9,16.6,12.9c0,11.2-7.6,13.1-16.8,13.1h-2.5V256.5z
			 M157.6,317.3h-7.5v-27.1h6c8.7,0,19.9,2.3,19.9,13.3C176.1,314.6,166.7,317.3,157.6,317.3z"/>
		<path d="M286.5,293.9c0,12.8-3.8,24.6-18.9,24.6c-15,0-18.9-11.8-18.9-24.6v-46.2H239v49.5c0,17.2,10.7,30.4,28.6,30.4
			c18,0,28.6-13.2,28.6-30.4v-49.5h-9.8V293.9z"/>
		<polygon points="375.7,281.2 356.5,247.7 345.3,247.7 370.8,292 370.8,326 380.6,326 380.6,292 406.1,247.7 394.9,247.7 		"/>
		<path d="M482.1,279.7l-5.6-2.2c-4.9-1.9-10.9-5.1-10.9-11.2c0-6.8,6.8-11.1,13.1-11.1c5.9,0,9.7,2.5,12.6,7.4l7.8-4.7
			c-4.3-7.6-11.4-11.8-20.1-11.8c-11.8,0-23,7.6-23,20.2c0,10.9,8.1,16,17,19.8l5.4,2.3c6.7,2.8,13.5,6.4,13.5,14.8
			c0,8.2-6,15.3-14.4,15.3s-15.3-6.2-15.2-14.8l-9.9,2.1c1.7,12.6,11.5,21.9,24.2,21.9c14,0,25-10.2,25-24.4
			C501.5,290.2,493.2,284.1,482.1,279.7z"/>
		<path d="M625,287.3c0,22.6,18.5,40.4,40.8,40.4c6.8,0,14.5-2,20.5-5.5v-11.5c-5.8,5.2-13.2,8.1-20.9,8.1
			c-17.4,0-30.7-14.6-30.7-31.8c0-17.3,13.4-32,30.9-32c7.4,0,15,2.7,20.7,7.7v-11.3c-5.9-3.6-12.9-5.3-19.7-5.3
			C643.6,246.1,625,264.1,625,287.3z"/>
		<path d="M733.3,326h10.5l8.9-19.6h35.9l8.9,19.6H808l-37.4-81.6L733.3,326z M756.7,297.5l13.9-31.7l13.9,31.7H756.7z"/>
		<path d="M900.9,270.1c0-7.5-3.7-14.8-10.3-18.7c-6.2-3.5-13.7-3.6-20.7-3.6h-11.8V326h9.8v-33.1h4l23,33.1h11.8l-24.7-34
			C893.4,290.6,900.9,281.3,900.9,270.1z M871,284.8h-3.1v-28.3h2.6c9.7,0,21.3,1.8,21.3,14C891.7,282.9,880.9,284.8,871,284.8z"/>
		<path d="M983.7,279.7l-5.6-2.2c-4.9-1.9-10.9-5.1-10.9-11.2c0-6.8,6.8-11.1,13.1-11.1c5.9,0,9.7,2.5,12.6,7.4l7.8-4.7
			c-4.3-7.6-11.4-11.8-20.1-11.8c-11.8,0-23,7.6-23,20.2c0,10.9,8.1,16,17,19.8l5.4,2.3c6.7,2.8,13.5,6.4,13.5,14.8
			c0,8.2-6,15.3-14.4,15.3s-15.3-6.2-15.2-14.8l-9.9,2.1c1.7,12.6,11.5,21.9,24.2,21.9c14,0,25-10.2,25-24.4
			C1003.1,290.2,994.8,284.1,983.7,279.7z"/>
	</g>
</g>
</svg>
